<?xml version="1.0" encoding="UTF-8"?>
<svg xmlns="http://www.w3.org/2000/svg" xmlns:xlink="http://www.w3.org/1999/xlink" width="300" height="163.636364" viewBox="245.894428 -323.753666 300 163.636364">
<defs>
<style type="text/css">
.l0d0 {stroke: #F38400; fill: #F38400; fill-opacity: 0.5;}
</style>
</defs>
<rect x="245.894428" y="-323.753666" width="300" height="163.636364" fill="none" stroke="none"/>
<g id="apply_repetition" transform="scale(1 -1)">
<polygon id="0x55be04062a90" class="l0d0" points="527.859238,175.953079 532.258065,175.953079 532.258065,307.917889 527.859238,307.917889 527.859238,310.117302 263.929619,310.117302 263.929619,307.917889 259.530792,307.917889 259.530792,239.73607 268.328446,239.73607 268.328446,305.718475 277.1261,305.718475 277.1261,239.73607 285.923754,239.73607 285.923754,305.718475 312.316716,305.718475 312.316716,239.73607 321.11437,239.73607 321.11437,305.718475 382.697947,305.718475 382.697947,239.73607 391.495601,239.73607 391.495601,305.718475 523.460411,305.718475 523.460411,239.73607 391.495601,239.73607 382.697947,239.73607 321.11437,239.73607 312.316716,239.73607 285.923754,239.73607 277.1261,239.73607 268.328446,239.73607 259.530792,239.73607 259.530792,204.545455 268.328446,204.545455 268.328446,235.337243 277.1261,235.337243 277.1261,204.545455 285.923754,204.545455 285.923754,235.337243 312.316716,235.337243 312.316716,204.545455 321.11437,204.545455 321.11437,235.337243 382.697947,235.337243 382.697947,204.545455 391.495601,204.545455 391.495601,235.337243 523.460411,235.337243 523.460411,204.545455 391.495601,204.545455 382.697947,204.545455 321.11437,204.545455 312.316716,204.545455 285.923754,204.545455 277.1261,204.545455 268.328446,204.545455 259.530792,204.545455 259.530792,186.950147 268.328446,186.950147 268.328446,200.146628 277.1261,200.146628 277.1261,186.950147 285.923754,186.950147 285.923754,200.146628 312.316716,200.146628 312.316716,186.950147 321.11437,186.950147 321.11437,200.146628 382.697947,200.146628 382.697947,186.950147 391.495601,186.950147 391.495601,200.146628 523.460411,200.146628 523.460411,186.950147 391.495601,186.950147 382.697947,186.950147 321.11437,186.950147 312.316716,186.950147 285.923754,186.950147 277.1261,186.950147 268.328446,186.950147 259.530792,186.950147 259.530792,178.152493 268.328446,178.152493 268.328446,182.55132 277.1261,182.55132 277.1261,178.152493 285.923754,178.152493 285.923754,182.55132 312.316716,182.55132 312.316716,178.152493 321.11437,178.152493 321.11437,182.55132 382.697947,182.55132 382.697947,178.152493 391.495601,178.152493 391.495601,182.55132 523.460411,182.55132 523.460411,178.152493 391.495601,178.152493 382.697947,178.152493 321.11437,178.152493 312.316716,178.152493 285.923754,178.152493 277.1261,178.152493 268.328446,178.152493 259.530792,178.152493 259.530792,175.953079 263.929619,175.953079 263.929619,173.753666 527.859238,173.753666"/>
</g>
</svg>