<?xml version="1.0" encoding="UTF-8"?>
<svg xmlns="http://www.w3.org/2000/svg" xmlns:xlink="http://www.w3.org/1999/xlink" width="300" height="156.108061" viewBox="-85.582333 -142.471697 300 156.108061">
<defs>
<style type="text/css">
.l0d0 {stroke: #F38400; fill: #F38400; fill-opacity: 0.5;}
</style>
</defs>
<rect x="-85.582333" y="-142.471697" width="300" height="156.108061" fill="none" stroke="none"/>
<g id="arc" transform="scale(1 -1)">
<polygon id="0x56358e4c5e80" class="l0d0" points="-71.94597,0 47.96398,0 47.507686,10.450841 46.142278,20.822144 43.878147,31.034979 40.732525,41.011618 36.729351,50.676134 31.899093,59.954975 26.278511,68.777521 19.910381,77.07663 12.843169,84.789138 5.13066,91.85635 -3.168448,98.22448 -11.990995,103.845062 -21.269835,108.675321 -30.934352,112.678495 -40.910991,115.824117 -51.123825,118.088248 -61.495129,119.453656 -71.94597,119.909949"/>
<polygon id="0x56358e504390" class="l0d0" points="71.94597,0 191.855919,0 195.072631,3.873591 197.59722,8.361621 199.402028,13.414919 200.467279,18.97812 200.781303,24.990271 200.34066,31.385503 199.150177,38.093748 197.222897,45.04151 194.579936,52.152666 191.250251,59.349306 187.270322,66.552582 182.683755,73.683574 177.540801,80.664151 171.897807,87.417835 165.8166,93.87063 159.363805,99.951838 152.610121,105.594832 145.629543,110.737786 138.498552,115.324353 131.295276,119.304281 124.098636,122.633966 116.987479,125.276927 110.039718,127.204207 103.331473,128.39469 96.936241,128.835333 90.924089,128.521309 85.360889,127.456058 80.307591,125.651251 75.819561,123.126661 71.94597,119.909949"/>
</g>
</svg>