<?xml version="1.0" encoding="UTF-8"?>
<svg xmlns="http://www.w3.org/2000/svg" xmlns:xlink="http://www.w3.org/1999/xlink" width="300" height="241.884869" viewBox="-22.852749 -220.350348 300 241.884869">
<defs>
<style type="text/css">
.l0d0 {stroke: #F38400; fill: #F38400; fill-opacity: 0.5;}
</style>
</defs>
<rect x="-22.852749" y="-220.350348" width="300" height="241.884869" fill="none" stroke="none"/>
<g id="arc" transform="scale(1 -1)">
<polygon id="0x55d800c72590" class="l0d0" points="2.633253,0 7.899759,0 7.899759,131.551847 7.994,134.910723 8.26711,138.148578 8.721338,141.366025 9.355255,144.552942 10.166867,147.699302 11.15362,150.795205 12.312409,153.830909 13.639588,156.796864 15.130982,159.683737 16.781898,162.482445 18.587142,165.184183 20.541033,167.78045 22.637424,170.263077 24.86972,172.624253 27.230895,174.856548 29.713522,176.952939 32.309789,178.906831 35.011527,180.712074 37.810236,182.36299 40.697109,183.854384 43.663064,185.181564 46.698768,186.340353 49.79467,187.327105 52.94103,188.138717 56.127947,188.772635 59.345395,189.226863 62.58325,189.499973 65.831324,189.591105 69.079399,189.499973 72.317253,189.226863 75.534701,188.772635 78.721618,188.138717 81.867978,187.327105 84.96388,186.340353 87.999585,185.181564 90.965539,183.854384 93.852413,182.36299 96.651121,180.712074 99.352859,178.906831 101.949126,176.952939 104.431753,174.856548 106.792929,172.624253 109.025224,170.263077 111.121615,167.78045 113.075506,165.184183 114.88075,162.482445 116.531666,159.683737 118.02306,156.796864 119.350239,153.830909 120.509029,150.795205 121.495781,147.699302 122.307393,144.552942 122.94131,141.366025 123.395539,138.148578 123.668648,134.910723 123.76512,131.472327 123.874474,126.042972 124.21385,120.432411 124.778866,114.840066 125.568604,109.275007 126.581785,103.74626 127.816764,98.262795 129.271538,92.833504 130.943748,87.467193 132.830681,82.172568 134.929277,76.958217 137.236132,71.832596 139.747503,66.804019 142.459319,61.880644 145.36718,57.070455 148.466369,52.381255 151.751859,47.820649 155.218322,43.396036 158.860135,39.114591 162.671391,34.98326 166.645908,31.008743 170.77724,27.197487 175.058684,23.555674 179.483298,20.089211 184.043903,16.80372 188.733103,13.704531 193.543292,10.796671 198.466667,8.084855 203.495244,5.573483 208.620865,3.266629 213.835217,1.168033 219.129842,-0.718901 224.496152,-2.39111 229.925443,-3.845885 235.408909,-5.080863 240.937655,-6.094044 246.502714,-6.883782 252.09506,-7.448798 257.70562,-7.788174 263.166219,-7.898157 263.272271,-2.632719 257.917724,-2.524872 252.518923,-2.198305 247.13765,-1.654615 241.782633,-0.894683 236.462559,0.080256 231.186056,1.268623 225.961683,2.66849 220.797914,4.277585 215.703124,6.0933 210.685578,8.112688 205.753414,10.332475 200.914631,12.74906 196.177079,15.358524 191.548441,18.156633 187.036226,21.138849 182.647752,24.300335 178.390137,27.635963 174.270287,31.140323 170.294885,34.80773 166.470379,38.632237 162.802971,42.607639 159.298611,46.727489 155.962983,50.985104 152.801497,55.373578 149.819281,59.885793 147.021172,64.514431 144.411709,69.251983 141.995124,74.090765 139.775337,79.02293 137.755948,84.040476 135.940234,89.135266 134.331138,94.299035 132.931272,99.523408 131.742905,104.799911 130.767965,110.119985 130.008033,115.475002 129.464343,120.856275 129.137776,126.255076 129.030139,131.599208 128.928938,135.206134 128.630989,138.738471 128.135449,142.248545 127.443877,145.725311 126.55845,149.157832 125.481952,152.535306 124.217771,155.847106 122.769885,159.082814 121.142849,162.232248 119.341783,165.285498 117.372353,168.232958 115.240756,171.065355 112.953698,173.773776 110.518376,176.3497 107.942452,178.785022 105.234031,181.07208 102.401634,183.203677 99.454174,185.173107 96.400924,186.974173 93.25149,188.601209 90.015782,190.049095 86.703982,191.313276 83.326508,192.389774 79.893987,193.275202 76.417221,193.966773 72.907147,194.462313 69.37481,194.760263 65.831324,194.859683 62.287838,194.760263 58.755501,194.462313 55.245427,193.966773 51.768661,193.275202 48.336141,192.389774 44.958667,191.313276 41.646866,190.049095 38.411158,188.601209 35.261725,186.974173 32.208474,185.173107 29.261014,183.203677 26.428617,181.07208 23.720196,178.785022 21.144272,176.3497 18.70895,173.773776 16.421893,171.065355 14.290295,168.232958 12.320865,165.285498 10.519799,162.232248 8.892763,159.082814 7.444877,155.847106 6.180696,152.535306 5.104199,149.157832 4.218771,145.725311 3.527199,142.248545 3.031659,138.738471 2.73371,135.206134 2.633253,131.625715"/>
<polygon id="0x55d800bb5f30" class="l0d0" points="-9.216385,0 -1.316626,0 -1.316626,131.681115 -1.211508,135.427693 -0.894929,139.180891 -0.368405,142.910435 0.366408,146.604588 1.307197,150.251729 2.451004,153.840382 3.794228,157.359255 5.332644,160.797277 7.061412,164.143631 8.975091,167.387788 11.067661,170.51954 13.332537,173.529034 15.762595,176.406801 18.350187,179.143786 21.087172,181.731378 23.964939,184.161435 26.974433,186.426312 30.106185,188.518882 33.350342,190.432561 36.696695,192.161328 40.134718,193.699744 43.653591,195.042969 47.242243,196.186775 50.889384,197.127565 54.583538,197.862378 58.313081,198.388902 62.066279,198.70548 65.831324,198.811117 69.596369,198.70548 73.349567,198.388902 77.079111,197.862378 80.773264,197.127565 84.420405,196.186775 88.009057,195.042969 91.527931,193.699744 94.965953,192.161328 98.312307,190.432561 101.556463,188.518882 104.688216,186.426312 107.69771,184.161435 110.575476,181.731378 113.312462,179.143786 115.900054,176.406801 118.330111,173.529034 120.594988,170.51954 122.687558,167.387788 124.601237,164.143631 126.330004,160.797277 127.86842,157.359255 129.211644,153.840382 130.355451,150.251729 131.296241,146.604588 132.031053,142.910435 132.557577,139.180891 132.874156,135.427693 132.978903,131.694368 133.085252,126.414154 133.402213,121.174173 133.929909,115.951204 134.667485,110.753719 135.613744,105.590148 136.767153,100.468867 138.125838,95.398183 139.687598,90.38632 141.449899,85.441407 143.409882,80.571465 145.564368,75.784393 147.909863,71.087956 150.442562,66.489771 153.158357,61.997297 156.052843,57.61782 159.121326,53.358444 162.358828,49.226078 165.760098,45.227425 169.319619,41.36897 173.031618,37.656971 176.890073,34.09745 180.888727,30.69618 185.021093,27.458678 189.280468,24.390195 193.659945,21.495709 198.152419,18.779913 202.750604,16.247214 207.447041,13.901719 212.234113,11.747233 217.104055,9.78725 222.048968,8.02495 227.060831,6.46319 232.131516,5.104504 237.252796,3.951096 242.416367,3.004837 247.613852,2.267261 252.836821,1.739565 258.076802,1.422604 263.351809,1.31636 263.510887,9.214517 258.394958,9.317557 253.472616,9.615304 248.566256,10.111012 243.683834,10.803877 238.833272,11.692776 234.022435,12.776266 229.259128,14.05259 224.551076,15.519679 219.905916,17.175151 215.331183,19.016323 210.834296,21.040208 206.422549,23.243522 202.1031,25.622693 197.882952,28.173861 193.768953,30.892888 189.767774,33.775364 185.885906,36.816613 182.129645,40.011704 178.505083,43.355452 175.0181,46.842435 171.674352,50.466996 168.479262,54.223258 165.438012,58.105126 162.555536,62.106305 159.836509,66.220304 157.285341,70.440451 154.90617,74.759901 152.702856,79.171647 150.678971,83.668534 148.8378,88.243268 147.182327,92.888428 145.715239,97.59648 144.438914,102.359787 143.355424,107.170623 142.466526,112.021186 141.77366,116.903608 141.277952,121.809968 140.980205,126.73231 140.876431,131.88469 140.764591,135.87081 140.410753,140.065732 139.822262,144.234214 139.000967,148.363142 137.949453,152.439523 136.671029,156.450533 135.169718,160.383551 133.450242,164.226203 131.518012,167.966397 129.379107,171.592367 127.040257,175.092702 124.508822,178.456391 121.792765,181.672849 118.900633,184.731957 115.841525,187.624089 112.625067,190.340146 109.261378,192.871581 105.761042,195.210431 102.135073,197.349336 98.394879,199.281566 94.552227,201.001042 90.619209,202.502354 86.608199,203.780777 82.531818,204.832291 78.40289,205.653586 74.234408,206.242078 70.039486,206.595915 65.831324,206.713985 61.623162,206.595915 57.428241,206.242078 53.259758,205.653586 49.130831,204.832291 45.054449,203.780777 41.043439,202.502354 37.110421,201.001042 33.26777,199.281566 29.527575,197.349336 25.901606,195.210431 22.40127,192.871581 19.037581,190.340146 15.821123,187.624089 12.762015,184.731957 9.869883,181.672849 7.153827,178.456391 4.622391,175.092702 2.283541,171.592367 0.144637,167.966397 -1.787593,164.226203 -3.507069,160.383551 -5.008381,156.450533 -6.286805,152.439523 -7.338319,148.363142 -8.159613,144.234214 -8.748105,140.065732 -9.101943,135.87081 -9.216385,131.791916"/>
</g>
</svg>