<?xml version="1.0" encoding="UTF-8"?>
<svg xmlns="http://www.w3.org/2000/svg" xmlns:xlink="http://www.w3.org/1999/xlink" width="309.789923" height="407.689148" viewBox="-154.895373 -175.04461 309.789923 407.689148">
<defs>
<style type="text/css">
.l0d0 {stroke: #F38400; fill: #F38400; fill-opacity: 0.5;}
</style>
</defs>
<rect x="-154.895373" y="-175.04461" width="309.789923" height="407.689148" fill="none" stroke="none"/>
<g id="bezier" transform="scale(1 -1)">
<polygon id="0x55d800bb5f30" class="l0d0" points="-1.305325,5.071065 1.305325,-5.071065 8.600247,-3.193304 15.667851,-1.265831 22.478626,0.700292 29.037972,2.703043 35.351135,4.740403 41.42322,6.810369 47.259218,8.910947 52.864018,11.040168 58.242422,13.19608 63.39916,15.376762 68.338897,17.580326 73.066244,19.804922 77.585762,22.048742 81.901968,24.310031 86.019342,26.587086 89.942321,28.878267 93.675305,31.182003 97.22265,33.496794 100.588667,35.82122 103.777616,38.153943 106.793696,40.493714 109.641039,42.839375 112.323696,45.189863 114.845626,47.544208 117.210684,49.901534 119.422601,52.261058 121.484974,54.622084 123.401247,56.983996 125.174699,59.346249 126.808422,61.708359 128.305317,64.06989 129.668074,66.430434 130.899168,68.7896 132.000854,71.146992 132.97516,73.502192 133.823894,75.854742 134.548646,78.204129 135.150797,80.549772 135.644653,82.954895 136.237569,87.556224 136.363225,92.190192 136.018358,96.784465 135.206054,101.329857 133.927629,105.816511 132.182692,110.233922 129.969264,114.570728 127.284098,118.814271 124.123284,122.950042 120.483169,126.961152 116.361498,130.82796 111.758684,134.527957 106.679043,138.035943 101.131868,141.324506 95.1322,144.364747 88.701233,147.127184 81.86631,149.582736 74.660515,151.70371 67.121926,153.464684 59.292617,154.843233 51.251668,155.816318 47.102509,156.152337 42.944953,156.379863 38.750298,156.5005 34.524369,156.513285 30.272923,156.417488 26.001627,156.212598 21.716034,155.898317 17.42157,155.474546 13.123518,154.941374 8.827003,154.299066 4.53699,153.548052 0.258268,152.68891 -4.004546,151.72236 -8.247016,150.649244 -12.464883,149.470521 -16.654069,148.187252 -20.810672,146.800591 -24.930964,145.311773 -29.011388,143.722106 -33.048551,142.032963 -37.039222,140.245773 -40.980322,138.362011 -44.868922,136.383197 -48.702236,134.310883 -52.477612,132.146654 -56.192527,129.892118 -59.844581,127.548906 -63.431489,125.118665 -66.951076,122.603055 -70.40127,120.003748 -73.780096,117.322424 -77.08567,114.56077 -80.316194,111.720479 -83.469948,108.803246 -86.54529,105.810771 -89.540645,102.744756 -92.454505,99.606904 -95.285423,96.398921 -98.032008,93.122516 -100.692924,89.7794 -103.266882,86.371287 -105.752644,82.899896 -108.149012,79.366949 -110.45483,75.774175 -112.668983,72.123309 -114.790391,68.416096 -116.81801,64.654287 -118.750829,60.839647 -120.58787,56.973948 -122.328186,53.058979 -123.970863,49.096541 -125.515012,45.088451 -126.95978,41.036542 -128.304338,36.942666 -129.547891,32.808692 -130.689672,28.63651 -131.728944,24.428031 -132.665003,20.185187 -133.497174,15.90993 -134.224818,11.604239 -134.847325,7.270114 -135.364124,2.909576 -135.774677,-1.475325 -136.078484,-5.88252 -136.275082,-10.309915 -136.364048,-14.755393 -136.345001,-19.216815 -136.217599,-23.692019 -135.981547,-28.178823 -135.636592,-32.675026 -135.182526,-37.178406 -134.619191,-41.686727 -133.946473,-46.197733 -133.164309,-50.709158 -132.272686,-55.218722 -131.27164,-59.724133 -130.16126,-64.223094 -128.941683,-68.713299 -127.6131,-73.19244 -126.175755,-77.658206 -124.62994,-82.108287 -122.976004,-86.540377 -121.214342,-90.952176 -119.345403,-95.34139 -117.369685,-99.705737 -115.287736,-104.04295 -113.100153,-108.350773 -110.807577,-112.626972 -108.4107,-116.869332 -105.910253,-121.075659 -103.307015,-125.243784 -100.601801,-129.371566 -97.795471,-133.456891 -94.888919,-137.497676 -91.883075,-141.49187 -88.778904,-145.437455 -85.577401,-149.332448 -82.27959,-153.174903 -78.886524,-156.96291 -75.399279,-160.694597 -71.818954,-164.368133 -68.14667,-167.981724 -64.383565,-171.533617 -60.530791,-175.0221 -56.589517,-178.445502 -52.560921,-181.80219 -48.446194,-185.090573 -44.246531,-188.309103 -39.963134,-191.456266 -35.59721,-194.530593 -31.149965,-197.530652 -26.622607,-200.455046 -22.016344,-203.302421 -17.332378,-206.071456 -12.571908,-208.760867 -7.733938,-211.370584 -2.391432,-214.113213 2.391432,-204.796426 -2.855997,-202.102606 -7.509765,-199.592252 -12.091436,-197.003853 -16.597732,-194.339852 -21.027559,-191.601542 -25.379821,-188.790247 -29.653419,-185.907329 -33.847254,-182.954182 -37.960224,-179.932237 -41.991235,-176.842959 -45.939193,-173.687853 -49.803011,-170.468459 -53.581611,-167.186357 -57.273924,-163.843163 -60.878893,-160.440531 -64.395475,-156.980153 -67.822643,-153.463761 -71.15939,-149.893121 -74.404728,-146.270038 -77.557691,-142.596353 -80.617341,-138.873941 -83.582764,-135.104713 -86.453078,-131.290612 -89.227431,-127.433615 -91.905005,-123.535727 -94.485018,-119.598983 -96.966725,-115.625445 -99.349422,-111.6172 -101.632445,-107.576358 -103.815173,-103.505051 -105.897029,-99.405428 -107.877482,-95.279656 -109.756048,-91.129916 -111.532291,-86.958398 -113.205825,-82.767303 -114.77631,-78.558839 -116.24346,-74.335215 -117.607038,-70.098644 -118.866855,-65.851335 -120.022777,-61.595494 -121.074717,-57.33332 -122.022639,-53.067004 -122.866555,-48.798724 -123.606529,-44.530645 -124.242669,-40.264917 -124.775132,-36.003672 -125.204118,-31.74902 -125.529875,-27.503054 -125.752691,-23.267841 -125.872896,-19.045424 -125.89086,-14.837823 -125.80699,-10.64703 -125.621732,-6.475011 -125.335565,-2.323703 -124.949001,1.804982 -124.462585,5.909162 -123.87689,9.986983 -123.19252,14.036615 -122.410103,18.05626 -121.530294,22.044143 -120.553773,25.998514 -119.481242,29.917649 -118.313426,33.799847 -117.051073,37.643429 -115.694948,41.446736 -114.245841,45.208126 -112.704561,48.925978 -111.071938,52.598684 -109.348821,56.224651 -107.536084,59.802295 -105.634623,63.330046 -103.645356,66.80634 -101.569228,70.229618 -99.407212,73.598329 -97.160309,76.910921 -94.829553,80.165847 -92.416011,83.361555 -89.92079,86.496496 -87.345037,89.569115 -84.689944,92.577854 -81.956753,95.52115 -79.146756,98.397434 -76.261309,101.205131 -73.301825,103.942663 -70.269789,106.608443 -67.16676,109.200879 -63.994376,111.718378 -60.754361,114.15934 -57.448533,116.522168 -54.078806,118.805262 -50.647203,121.007029 -47.15586,123.125882 -43.60703,125.160244 -40.003096,127.108553 -36.346576,128.969268 -32.640126,130.740871 -28.886555,132.421879 -25.088825,134.010843 -21.25006,135.506363 -17.373555,136.907092 -13.462777,138.211745 -9.521372,139.419111 -5.553171,140.528063 -1.562191,141.537565 2.447364,142.446692 6.471097,143.254633 10.504424,143.960711 14.542576,144.564395 18.580601,145.065311 22.613373,145.463259 26.6356,145.758226 30.641838,145.950402 34.626504,146.040187 38.583895,146.028214 42.508208,145.915353 46.393568,145.702722 50.199477,145.394502 57.754378,144.480236 65.021176,143.200732 71.988671,141.573162 78.61449,139.6229 84.860533,137.378912 90.694153,134.873067 96.089127,132.139246 101.026334,129.212293 105.49408,126.12688 109.488028,122.916324 113.010742,119.611436 116.070863,116.239433 118.681938,112.822967 120.860958,109.379321 122.626621,105.919828 123.997403,102.449611 124.989526,98.967742 125.614981,95.467893 125.879837,91.939517 125.78303,88.36945 125.307581,84.679727 124.94346,82.906423 124.467242,81.051347 123.889086,79.17717 123.205686,77.282899 122.413435,75.36778 121.508463,73.431318 120.486687,71.473273 119.343844,69.49366 118.075531,67.492744 116.677236,65.471027 115.144366,63.429231 113.472275,61.368287 111.656279,59.289317 109.691677,57.193611 107.573763,55.08262 105.297833,52.957929 102.859201,50.82125 100.253194,48.674403 97.475165,46.519304 94.520489,44.357952 91.384564,42.192418 88.062811,40.024836 84.550674,37.857391 80.84361,35.692313 76.937092,33.531868 72.826598,31.378354 68.507608,29.23409 63.975593,27.101414 59.22601,24.982676 54.25429,22.880234 49.055828,20.796451 43.62597,18.73369 37.960001,16.69431 32.053127,14.680665 25.900462,12.6951 19.497007,10.739947 12.83763,8.817529 5.917041,6.93015"/>
</g>
</svg>