<?xml version="1.0" encoding="UTF-8"?>
<svg xmlns="http://www.w3.org/2000/svg" xmlns:xlink="http://www.w3.org/1999/xlink" width="303.409091" height="337.5" viewBox="-151.704545 -185.795455 303.409091 337.5">
<defs>
<style type="text/css">
.l0d1 {fill:none;stroke:black;stroke-dasharray:8,8;}
.l0d0 {stroke: #F38400; fill: #F38400; fill-opacity: 0.5;}
</style>
</defs>
<rect x="-151.704545" y="-185.795455" width="303.409091" height="337.5" fill="none" stroke="none"/>
<g id="bezier" transform="scale(1 -1)">
<polygon id="0x56358e3e15e0" class="l0d0" points="0,0 4.658596,1.199642 9.146231,2.424967 13.466676,3.674601 17.623536,4.947159 21.620278,6.241248 25.460243,7.555466 29.146673,8.888408 32.682722,10.238665 36.071469,11.604826 39.315933,12.985486 42.419082,14.379242 45.383842,15.784699 48.213108,17.200477 50.909746,18.625208 53.476602,20.057543 55.916507,21.496158 58.232279,22.939754 60.426724,24.387066 62.502641,25.836863 64.462822,27.287956 66.310046,28.7392 68.047083,30.189504 69.67669,31.637828 71.201605,33.083194 72.624543,34.524689 73.948189,35.961468 75.175193,37.39276 76.308158,38.817867 77.349634,40.236174 78.302106,41.647145 79.167984,43.050329 79.949587,44.445355 80.649136,45.831936 81.268738,47.209864 81.810374,48.579009 82.275884,49.939309 82.666958,51.290769 82.985122,52.633447 83.407908,55.292598 83.552909,57.916182 83.426246,60.505407 83.030936,63.061111 82.367037,65.583214 81.432007,68.070165 80.221261,70.518455 78.728901,72.922221 76.948582,75.27298 74.874459,77.559535 72.502148,79.768031 69.829651,81.882203 66.858151,83.883777 63.592647,85.753013 60.042346,87.469354 56.220811,89.012137 52.145827,90.361307 47.839025,91.49808 43.325306,92.405517 38.632118,93.068962 33.788665,93.476335 28.825122,93.61827 23.771892,93.488123 21.221312,93.319684 18.659883,93.081963 16.091174,92.774863 13.51867,92.398417 10.945759,91.952783 8.375731,91.438237 5.811768,90.855161 3.256945,90.204037 0.714223,89.485437 -1.81355,88.700017 -4.323636,87.848509 -6.813413,86.931712 -9.280365,85.950487 -11.722085,84.905753 -14.136272,83.798476 -16.520726,82.629669 -18.873343,81.400385 -21.192115,80.111714 -23.475122,78.764778 -25.720532,77.360729 -27.92659,75.900748 -30.091623,74.386039 -32.214028,72.817831 -34.292271,71.197374 -36.324883,69.52594 -38.310456,67.804822 -40.247641,66.035333 -42.135139,64.218808 -43.971705,62.356603 -45.756141,60.450096 -47.487293,58.500688 -49.16405,56.509807 -50.785341,54.478904 -52.350136,52.409461 -53.857437,50.302989 -55.306286,48.161033 -56.695758,45.985172 -58.024962,43.777023 -59.293041,41.538243 -60.499172,39.270534 -61.642568,36.975642 -62.722475,34.655365 -63.738178,32.311551 -64.688999,29.946105 -65.574302,27.56099 -66.393491,25.158231 -67.14602,22.739918 -67.831388,20.308205 -68.449151,17.86532 -68.99892,15.413559 -69.480367,12.955294 -69.893233,10.492973 -70.237329,8.029118 -70.512546,5.566329 -70.718856,3.107285 -70.856324,0.654737 -70.92511,-1.788485 -70.925478,-4.219483 -70.857802,-6.635288 -70.722573,-9.032867 -70.520408,-11.40913 -70.25205,-13.760935 -69.918383,-16.085098 -69.52043,-18.3784 -69.059362,-20.637601 -68.536502,-22.859454 -67.953328,-25.040715 -67.31147,-27.178159 -66.61272,-29.268601 -65.859023,-31.308912 -65.052474,-33.296035 -64.19532,-35.227009 -63.289944,-37.098988 -62.338865,-38.90926 -61.344716,-40.655269 -60.310241,-42.334633 -59.238271,-43.945161 -58.131711,-45.484874 -56.993519,-46.952013 -55.826683,-48.345056 -54.634203,-49.662722 -53.419063,-50.903978 -52.184212,-52.068041 -50.932539,-53.154373 -49.666852,-54.162674 -48.389854,-55.092873 -47.104128,-55.94511 -45.812117,-56.71972 -44.516109,-57.417208 -43.21823,-58.038224 -41.920431,-58.583538 -40.624484,-59.054007 -39.331985,-59.450548 -38.04435,-59.774104 -36.762828,-60.025614 -35.488505,-60.205985 -34.222318,-60.316061 -32.965073,-60.3566 -31.717457,-60.328249 -30.480063,-60.231526 -29.253408,-60.066803 -28.037957,-59.834292 -26.834141,-59.534042 -25.642383,-59.16593 -24.463116,-58.729661 -23.296805,-58.224774 -22.143961,-57.650648 -21.005163,-57.00651 -19.881067,-56.291449 -18.772417,-55.504429 -17.680057,-54.644305 -16.604937,-53.709838 -15.548114,-52.699717 -13.494265,-50.447127 -11.529495,-47.875716 -9.665897,-44.973933 -7.917119,-41.730481 -6.298151,-38.134725 -4.825058,-34.177012 -3.514719,-29.848911 -2.384548,-25.143384 -1.892578,-22.647426 -1.452331,-20.055397 -1.066011,-17.366869 -0.735812,-14.581512 -0.463912,-11.699084 -0.252467,-8.719433 -0.103608,-5.642496"/>
<polygon id="0x56358e283610" class="l0d1" points="0,0 136.363636,34.090909 136.363636,102.272727 0,170.454545 -136.363636,102.272727 -136.363636,-68.181818 0,-136.363636"/>
</g>
</svg>