<?xml version="1.0" encoding="UTF-8"?>
<svg xmlns="http://www.w3.org/2000/svg" xmlns:xlink="http://www.w3.org/1999/xlink" width="310.183719" height="412.020906" viewBox="-160.745665 -171.715866 310.183719 412.020906">
<defs>
<style type="text/css">
.l0d0 {stroke: #F38400; fill: #F38400; fill-opacity: 0.5;}
</style>
</defs>
<rect x="-160.745665" y="-171.715866" width="310.183719" height="412.020906" fill="none" stroke="none"/>
<g id="bezier" transform="scale(1 -1)">
<polygon id="0x55585d147bd0" class="l0d0" points="10.45941,-2.430519 19.350918,0.061756 27.883732,2.640462 36.058924,5.302795 43.877846,8.045855 51.342121,10.866666 58.453638,13.762202 65.214536,16.729407 71.627193,19.765226 77.694208,22.866631 83.418371,26.030648 88.802636,29.254395 93.850074,32.535101 98.563823,35.870137 102.947014,39.257031 107.002692,42.693469 110.73371,46.17728 114.142619,49.706385 117.231541,53.278703 120.002051,56.892007 122.455084,60.543713 124.590891,64.230608 126.409088,67.948533 127.908816,71.692042 129.089051,75.454118 129.949043,79.225992 130.488842,82.99716 130.709831,86.755624 130.615149,90.488366 130.209925,94.181971 129.501261,97.823305 128.497973,101.400103 127.210182,104.901396 125.648823,108.317715 123.82518,111.641101 121.750509,114.864958 119.435772,117.983827 116.891483,120.993125 114.127649,123.888896 111.153775,126.6676 107.97891,129.325945 104.611716,131.860766 101.060539,134.268943 97.333485,136.547344 93.438478,138.692803 89.383318,140.702101 85.175726,142.571972 80.823377,144.299108 76.333928,145.880166 71.71504,147.311789 66.974396,148.590616 62.119707,149.713297 57.158724,150.676508 52.099243,151.476966 46.949108,152.111438 41.716213,152.576756 36.408505,152.869828 31.033983,152.987643 25.600697,152.927288 20.116753,152.685951 14.590307,152.260932 9.029569,151.649649 3.4428,150.849649 -2.161685,149.858613 -7.775519,148.674365 -13.390282,147.294879 -18.9975,145.718289 -24.588645,143.942894 -30.155135,141.967169 -35.688332,139.789776 -41.179542,137.40957 -46.620019,134.825612 -52.000958,132.037177 -57.313501,129.043769 -62.548739,125.84513 -67.697709,122.441254 -72.751405,118.832398 -77.700773,115.019098 -82.536725,111.002179 -87.25014,106.782769 -91.831872,102.362311 -96.272762,97.742579 -100.563645,92.925685 -104.695363,87.914094 -108.658777,82.710629 -112.444779,77.318485 -116.04431,71.741234 -119.44837,65.982828 -122.648035,60.047608 -125.634472,53.940305 -128.398954,47.666038 -130.932873,41.230319 -133.227754,34.639044 -135.27527,27.898499 -137.067248,21.015348 -138.595686,13.996632 -139.852757,6.849763 -140.83082,-0.417479 -141.522424,-7.796957 -141.920316,-15.280179 -142.017442,-22.858301 -141.806954,-30.522135 -141.28221,-38.262151 -140.436776,-46.068479 -139.264426,-53.930912 -137.75915,-61.838904 -135.915145,-69.781573 -133.726825,-77.747699 -131.188821,-85.725721 -128.29598,-93.703732 -125.043372,-101.66948 -121.426292,-109.610363 -117.440267,-117.51342 -113.081062,-125.365332 -108.344683,-133.152417 -103.227393,-140.860621 -97.725714,-148.47552 -91.836443,-155.982316 -85.556659,-163.365829 -78.883738,-170.610505 -71.815366,-177.700409 -68.132251,-181.182238 -64.349553,-184.619229 -60.467076,-188.009283 -56.484644,-191.35028 -52.402107,-194.640078 -48.219336,-197.876509 -43.936224,-201.057386 -39.552689,-204.180498 -35.068674,-207.243612 -30.484143,-210.244476 -25.799088,-213.180812 -21.013526,-216.050327 -16.127496,-218.850703 -11.146637,-221.576817 11.146637,-177.01812 2.69429,-172.934522 -5.424788,-168.61672 -13.21719,-164.07669 -20.684052,-159.328856 -27.826633,-154.387322 -34.646313,-149.265878 -41.144602,-143.97801 -47.323142,-138.536908 -53.183715,-132.955468 -58.728249,-127.246303 -63.95882,-121.421739 -68.87766,-115.49382 -73.487157,-109.474306 -77.789865,-103.374675 -81.788498,-97.20612 -85.485936,-90.979547 -88.885225,-84.705572 -91.989573,-78.39452 -94.80235,-72.056423 -97.327087,-65.701017 -99.567464,-59.33774 -101.527315,-52.975731 -103.210614,-46.623832 -104.621473,-40.290586 -105.764134,-33.98424 -106.642961,-27.712748 -107.262436,-21.483772 -107.627147,-15.304694 -107.741787,-9.182613 -107.611144,-3.124358 -107.2401,2.863503 -106.633621,8.774661 -105.79676,14.603049 -104.734652,20.342838 -103.452512,25.988422 -101.955641,31.534415 -100.249421,36.975636 -98.339327,42.307102 -96.230921,47.524023 -93.929865,52.621789 -91.441925,57.595973 -88.772975,62.442319 -85.929006,67.156744 -82.916133,71.735336 -79.740597,76.174352 -76.408777,80.470223 -72.927191,84.619554 -69.302498,88.61913 -65.541507,92.465919 -61.651175,96.15708 -57.638608,99.689964 -53.511058,103.062128 -49.275928,106.271335 -44.94076,109.315562 -40.51324,112.19301 -36.001183,114.902103 -31.412536,117.441499 -26.755364,119.810091 -22.037848,122.007013 -17.268274,124.031643 -12.455023,125.883605 -7.606568,127.56277 -2.731458,129.069262 2.161685,130.403452 7.064176,131.565963 11.96728,132.557668 16.862216,133.37969 21.740165,134.033401 26.592286,134.520421 31.409713,134.842618 36.183573,135.002104 40.904989,135.001238 45.565089,134.842625 50.155018,134.529113 54.665942,134.063797 59.08906,133.450019 63.415616,132.69137 67.636908,131.791692 71.744305,130.755083 75.729261,129.585901 79.583337,128.288767 83.298221,126.86857 86.865765,125.330471 90.278011,123.679904 93.527244,121.922569 96.606039,120.064424 99.507325,118.111662 102.22446,116.070669 104.751307,113.947964 107.082316,111.7501 109.212604,109.483534 111.138004,107.154446 112.855086,104.768516 114.361098,102.330666 115.653826,99.844784 116.731334,97.313486 117.591596,94.737959 118.232039,92.117952 118.649062,89.451979 118.837632,86.737722 118.791035,83.972611 118.500872,81.15449 117.957293,78.282225 117.149432,75.356164 116.065952,72.378369 114.695573,69.352613 113.027525,66.284192 111.051861,63.17962 108.759631,60.046281 106.142934,56.892094 103.194886,53.725229 99.909536,50.553881 96.281751,47.386107 92.307104,44.229727 87.981766,41.092249 83.302417,37.980847 78.266164,34.902338 72.870484,31.863194 67.113181,28.869542 60.992344,25.927186 54.50633,23.041613 47.653745,20.218016 40.433432,17.461297 32.844464,14.776086 24.886147,12.166743 16.558013,9.637372 7.859826,7.191818 -1.208987,4.833531 1.208987,-4.833531"/>
</g>
</svg>