<?xml version="1.0" encoding="UTF-8"?>
<svg xmlns="http://www.w3.org/2000/svg" xmlns:xlink="http://www.w3.org/1999/xlink" width="300.339701" height="303.736709" viewBox="-148.443728 -151.868354 300.339701 303.736709">
<defs>
<style type="text/css">
.l0d0 {stroke: #F38400; fill: #F38400; fill-opacity: 0.5;}
</style>
</defs>
<rect x="-148.443728" y="-151.868354" width="300.339701" height="303.736709" fill="none" stroke="none"/>
<g id="boolean" transform="scale(1 -1)">
<polygon id="0x55731075f460" class="l0d0" points="28.394016,-82.144074 35.607825,-81.812658 43.227618,-81.257537 51.239586,-80.464902 59.618872,-79.426467 68.340621,-78.131185 77.36893,-76.581818 86.667894,-74.767319 96.198849,-72.695972 105.909321,-70.365017 115.757883,-67.785501 121.124051,-66.26099 122.662371,-63.424626 125.087227,-58.497583 127.313234,-53.479402 129.340391,-48.375604 131.160414,-43.194476 132.773303,-37.944304 133.67641,-34.52244 127.733026,-34.52244 127.733026,-20.713464 120.828539,-20.713464 120.828539,-6.904488 113.924051,-6.904488 113.924051,0 107.019563,0 107.019563,-34.52244 93.210587,-34.52244 93.210587,41.426928 107.019563,41.426928 107.019563,6.904488 113.924051,6.904488 113.924051,13.808976 120.828539,13.808976 120.828539,27.617952 127.733026,27.617952 127.733026,41.426928 131.704488,41.426928 131.160414,43.194476 129.340391,48.375604 127.313234,53.479402 125.087227,58.497583 122.662371,63.424626 120.044189,68.249482 117.235443,72.96939 114.241657,77.573303 111.068354,82.052934 107.718297,86.402762 104.197008,90.617261 100.512773,94.688147 96.668354,98.609896 92.672037,102.374223 88.529344,105.978366 84.2458,109.414039 79.829689,112.678481 75.286536,115.760644 70.624626,118.663291 65.849482,121.378136 60.972152,123.899655 55.998159,126.225086 50.935788,128.351669 45.793326,130.27664 40.579056,131.994476 35.298504,133.502417 29.962716,134.80046 24.579977,135.885846 19.158573,136.753049 13.706789,137.407595 8.232911,137.843959 2.745224,138.06214 -2.745224,138.06214 -8.232911,137.843959 -13.706789,137.407595 -19.158573,136.753049 -24.579977,135.885846 -29.962716,134.80046 -35.298504,133.502417 -40.579056,131.994476 -45.793326,130.27664 -50.935788,128.351669 -55.998159,126.225086 -60.972152,123.899655 -65.849482,121.378136 -68.180437,120.052474 -66.023475,120.364557 -61.220713,120.997008 -56.498044,121.563176 -51.852704,122.060299 -47.290219,122.488377 -42.813349,122.852934 -38.422094,123.148446 -34.119217,123.377675 -29.90748,123.546145 -25.786881,123.648331 -21.757422,123.689758 -17.819102,123.670426 -13.974684,123.590334 -10.221404,123.452244 -6.559264,123.256157 -2.988262,123.004833 0.4916,122.698274 3.880322,122.336479 7.183429,121.919448 10.398159,121.452704 13.527273,120.930725 16.573533,120.359033 19.536939,119.737629 22.420253,119.066513 25.223475,118.345685 27.949367,117.575144 30.60069,116.757652 33.174684,115.890449 35.679632,114.973533 38.112773,114.006904 40.47687,112.993326 42.76916,111.927273 44.997929,110.814269 47.157652,109.651554 49.251093,108.436364 51.281013,107.171461 53.244649,105.856847 55.142002,104.489758 56.973072,103.070196 58.73786,101.598159 60.436364,100.07641 62.065823,98.502186 63.626237,96.878251 65.114845,95.201841 66.531646,93.475719 67.873878,91.702647 69.141542,89.882624 70.334638,88.01565 71.447641,86.10725 72.480552,84.157422 73.436133,82.166168 74.308861,80.13901 75.098734,78.078711 75.872037,75.789183 76.98504,71.710012 77.821864,67.329804 78.330035,62.855696 78.515075,58.301496 78.382509,53.664442 77.935098,48.950058 77.175604,44.147296 76.579056,41.426928 79.401611,41.426928 79.401611,34.52244 74.770081,34.52244 73.731646,31.36847 72.019333,27.211968 70.008746,23.199079 67.710932,19.33809 65.592635,16.294591 65.592635,-34.52244 51.783659,-34.52244 51.783659,2.18458 48.207135,-0.475029 44.000921,-3.258918 39.482624,-5.926812 34.627388,-8.495282 29.382739,-10.983659 23.674108,-13.427848 17.379977,-15.872037 17.26122,-15.913464 17.26122,-27.617952 10.356732,-27.617952 10.356732,-34.52244 -17.26122,-34.52244 -17.26122,-29.164557 -18.075949,-29.589873 -19.669505,-30.468124 -21.13878,-31.327043 -22.494822,-32.166628 -23.743153,-32.986881 -24.89206,-33.790564 -25.949827,-34.577675 -26.924741,-35.345455 -27.819563,-36.099425 -28.639816,-36.836824 -29.393786,-37.557652 -30.086997,-38.264672 -30.722209,-38.957883 -31.302186,-39.640046 -31.837975,-40.313924 -32.326812,-40.979517 -32.776985,-41.636824 -33.191254,-42.294131 -33.572382,-42.948677 -33.925892,-43.608746 -34.249022,-44.274338 -34.547296,-44.950978 -34.823475,-45.641427 -35.066513,-46.326352 -35.359264,-47.265362 -35.737629,-48.635213 -36.074568,-50.013349 -36.356272,-51.316916 -36.585501,-52.551438 -36.765017,-53.719678 -36.900345,-54.821634 -36.994246,-55.857307 -37.052244,-56.834983 -37.074338,-57.749137 -37.063291,-58.610817 -37.027388,-59.414499 -36.963867,-60.171231 -36.878251,-60.881013 -36.773303,-61.546605 -36.649022,-62.170771 -36.50817,-62.764557 -36.405984,-63.12359 -35.977906,-64.363636 -35.552589,-65.333026 -35.052704,-66.263751 -34.458918,-67.177906 -33.751899,-68.103107 -32.901266,-69.050403 -31.87664,-70.033602 -30.647641,-71.052704 -29.181128,-72.10771 -27.452244,-73.187572 -25.427848,-74.281243 -23.083084,-75.374914 -20.401381,-76.449252 -17.357883,-77.490449 -13.933257,-78.473648 -10.116456,-79.38504 -5.893671,-80.205293 -1.253855,-80.912313 3.811277,-81.489528 9.30725,-81.917606 15.239586,-82.179977 21.602762,-82.260069"/>
<polygon id="0x5573106f0600" class="l0d0" points="62.701036,42.60069 63.601381,46.704718 64.228308,50.681703 64.592865,54.515075 64.697814,58.218642 64.551438,61.795167 64.159264,65.252934 63.521289,68.594707 62.659609,71.756962 62.104488,73.394707 61.513464,74.935788 60.86168,76.452014 60.149137,77.935098 59.378596,79.393326 58.544534,80.818412 57.652474,82.21588 56.699655,83.585731 55.688838,84.92244 54.614499,86.228769 53.479402,87.504718 52.283544,88.753049 51.026928,89.968239 49.704028,91.150288 48.320368,92.304718 46.873188,93.426007 45.359724,94.516916 43.782739,95.574684 42.133947,96.602071 40.418872,97.596318 38.634753,98.557422 36.776064,99.485386 34.84557,100.380207 32.840506,101.241887 30.758113,102.067664 28.598389,102.860299 26.355811,103.614269 24.033142,104.332336 21.624856,105.011738 19.133717,105.655236 16.551438,106.254545 13.883544,106.81519 11.124511,107.331646 8.271577,107.806674 5.324741,108.234753 2.284005,108.618642 -0.850633,108.952819 -4.084695,109.240046 -7.41542,109.474799 -10.842808,109.657077 -14.36962,109.786881 -17.995857,109.86145 -21.718757,109.880783 -25.541082,109.842117 -29.460069,109.742693 -33.475719,109.58527 -37.588032,109.364327 -41.791484,109.079862 -46.086076,108.731876 -50.471807,108.320368 -54.943153,107.842578 -59.497353,107.295742 -64.131646,106.685386 -68.843268,106.003222 -73.626697,105.254776 -78.479171,104.440046 -83.395167,103.55351 -88.371922,102.60069 -93.401151,101.578826 -93.550288,101.545685 -96.668354,98.609896 -100.512773,94.688147 -104.197008,90.617261 -107.718297,86.402762 -109.872497,83.607825 -105.500575,84.690449 -100.485155,85.880783 -95.5084,87.004833 -90.578596,88.062601 -85.698504,89.054085 -80.873648,89.976525 -76.109551,90.835443 -71.414499,91.625316 -66.788493,92.348907 -62.239816,93.006214 -57.771231,93.594476 -53.388262,94.119217 -49.090909,94.580437 -44.881933,94.975374 -40.76962,95.309551 -36.751208,95.580207 -32.834983,95.790104 -29.01542,95.942002 -25.298044,96.033142 -21.682854,96.071807 -18.172612,96.055236 -14.767319,95.983429 -11.466974,95.86191 -8.268815,95.690679 -5.178366,95.472497 -2.192865,95.210127 0.690449,94.900806 3.468815,94.552819 6.144994,94.160644 8.718987,93.732566 11.193556,93.268585 13.5687,92.771461 15.847181,92.241197 18.028999,91.680552 20.116916,91.089528 22.113694,90.473648 24.019333,89.83015 25.836594,89.164557 27.568239,88.47687 29.217031,87.76985 30.782969,87.043498 32.271577,86.300575 33.682854,85.541082 35.016801,84.765017 36.281703,83.977906 37.47756,83.176985 38.604373,82.365017 39.670426,81.539241 40.672957,80.705178 41.61473,79.857307 42.501266,79.001151 43.332566,78.133947 44.114154,77.258458 44.843268,76.36916 45.525432,75.466053 46.163406,74.551899 46.757192,73.621174 47.309551,72.67664 47.817722,71.715535 48.287227,70.735098 48.720829,69.732566 49.113003,68.70794 49.444419,67.724741 50.057537,65.47664 50.496663,63.173303 50.775604,60.731876 50.880552,58.135788 50.80046,55.365708 50.521519,52.413349 50.024396,49.26214 49.281473,45.873418 48.618642,43.404373 47.966858,41.426928 62.386191,41.426928"/>
<polygon id="0x5573106f0f00" class="l0d0" points="-58.688147,41.426928 -58.688147,34.52244 -51.783659,34.52244 -51.783659,27.617952 -44.879171,27.617952 -44.879171,2.695512 -44.796318,2.750748 -42.506789,4.170311 -40.120598,5.562255 -37.634983,6.932106 -35.038895,8.282624 -32.321289,9.619333 -29.465593,10.944994 -26.455236,12.265132 -23.254315,13.596318 -22.715765,13.808976 -24.165708,13.808976 -24.165708,34.52244 -17.26122,34.52244 -17.26122,41.426928 10.356732,41.426928 10.356732,34.52244 17.26122,34.52244 17.26122,29.18389 19.255236,30.238895 22.017031,31.871116 24.394937,33.442578 26.43038,34.958803 28.170311,36.417031 29.650633,37.822785 30.904488,39.181588 31.967779,40.501726 32.870886,41.797008 33.638665,43.089528 34.295972,44.401381 34.853855,45.757422 35.381358,47.362025 35.86191,49.146145 36.447411,51.816801 36.81473,54.144994 37.010817,56.216341 37.063291,58.050173 36.997008,59.671346 36.836824,61.096433 36.593786,62.361335 36.231991,63.69252 36.118757,64.023936 35.925432,64.529344 35.715535,65.018182 35.486306,65.495972 35.237745,65.962716 34.96985,66.423936 34.674338,66.885155 34.35397,67.349137 34.00046,67.813119 33.613809,68.285386 33.188493,68.763176 32.718987,69.252014 32.205293,69.749137 31.639125,70.257307 31.017722,70.773763 30.33832,71.301266 29.592635,71.837054 28.783429,72.381128 27.899655,72.930725 26.944074,73.485846 25.9084,74.043728 24.789873,74.601611 23.588493,75.159494 22.295972,75.714614 20.915075,76.26145 19.440276,76.802762 17.868815,77.330265 16.20069,77.84672 14.43038,78.346605 12.560644,78.827158 10.583199,79.288377 8.503567,79.724741 6.313464,80.136249 4.01565,80.517376 1.610127,80.868124 -0.905869,81.182969 -3.535098,81.464672 -6.274799,81.70771 -9.124971,81.909321 -12.088377,82.066743 -15.162255,82.179977 -18.349367,82.24626 -21.646951,82.262831 -25.052244,82.226928 -28.568009,82.13855 -32.191484,81.994937 -35.917146,81.796087 -39.747756,81.536479 -43.680552,81.218872 -47.70725,80.840506 -51.83061,80.398619 -56.047871,79.895972 -60.350748,79.327043 -64.736479,78.69183 -69.202301,77.995857 -73.739931,77.23084 -78.349367,76.39954 -83.022325,75.504718 -87.756041,74.543613 -92.539471,73.518987 -97.372612,72.425316 -102.244419,71.270886 -107.149367,70.052934 -112.084695,68.774223 -117.042117,67.434753 -121.10748,66.288608 -122.662371,63.424626 -125.087227,58.497583 -127.313234,53.479402 -129.340391,48.375604 -131.160414,43.194476 -131.704488,41.426928 -113.924051,41.426928 -113.924051,34.52244 -107.019563,34.52244 -107.019563,20.713464 -120.828539,20.713464 -120.828539,34.52244 -133.67641,34.52244 -134.176295,32.636133 -134.637514,30.564787 -134.637514,-27.617952 -120.828539,-27.617952 -120.828539,0 -127.733026,0 -127.733026,6.904488 -107.019563,6.904488 -107.019563,-34.52244 -133.67641,-34.52244 -132.773303,-37.944304 -131.160414,-43.194476 -129.340391,-48.375604 -127.313234,-53.479402 -125.087227,-58.497583 -122.662371,-63.424626 -120.044189,-68.249482 -117.235443,-72.96939 -114.241657,-77.573303 -111.068354,-82.052934 -107.718297,-86.402762 -104.197008,-90.617261 -100.512773,-94.688147 -96.668354,-98.609896 -92.672037,-102.374223 -88.529344,-105.978366 -84.2458,-109.414039 -79.829689,-112.678481 -75.286536,-115.760644 -70.624626,-118.663291 -65.849482,-121.378136 -60.972152,-123.899655 -55.998159,-126.225086 -50.935788,-128.351669 -45.793326,-130.27664 -40.579056,-131.994476 -35.298504,-133.502417 -29.962716,-134.80046 -24.579977,-135.885846 -19.158573,-136.753049 -13.706789,-137.407595 -8.232911,-137.843959 -2.745224,-138.06214 2.745224,-138.06214 8.232911,-137.843959 13.706789,-137.407595 19.158573,-136.753049 24.579977,-135.885846 29.962716,-134.80046 35.298504,-133.502417 40.579056,-131.994476 45.793326,-130.27664 50.935788,-128.351669 55.998159,-126.225086 60.972152,-123.899655 65.849482,-121.378136 68.219102,-120.03038 65.205984,-120.477791 55.829689,-121.640506 46.776525,-122.535328 38.063061,-123.170541 29.700345,-123.55443 21.699425,-123.69252 14.060299,-123.595857 6.780207,-123.272727 -0.143613,-122.734177 -6.719448,-121.985731 -12.961105,-121.032911 -18.87687,-119.886766 -24.480552,-118.547296 -29.788723,-117.020023 -34.809666,-115.304948 -39.559954,-113.402071 -44.047871,-111.308631 -48.281703,-109.021864 -52.264212,-106.536249 -55.998159,-103.849022 -59.483544,-100.960184 -62.709321,-97.864212 -65.667204,-94.563867 -68.346145,-91.064672 -70.732336,-87.374914 -72.817491,-83.511162 -74.58504,-79.481703 -75.960414,-75.501956 -76.61496,-73.168239 -77.131415,-71.002992 -77.565017,-68.812888 -77.915765,-66.595167 -78.186421,-64.352589 -78.374223,-62.085155 -78.479171,-59.798389 -78.506789,-57.486766 -78.451554,-55.155811 -78.316226,-52.802762 -78.100806,-50.427618 -77.805293,-48.03038 -77.432451,-45.608285 -76.976755,-43.161335 -76.443728,-40.689528 -75.83061,-38.192865 -75.112543,-35.588493 -74.781128,-34.52244 -86.306099,-34.52244 -86.306099,41.426928"/>
<polygon id="0x55731075a870" class="l0d0" points="12.56893,-2.924741 18.459839,-0.640736 23.701726,1.604603 28.435443,3.852704 32.741082,6.128423 36.671116,8.451093 40.269735,10.831761 43.564557,13.281473 46.577675,15.811277 49.325662,18.423936 51.783659,21.083544 51.783659,34.52244 44.611277,34.52244 44.484235,34.309781 43.023245,32.213579 41.363406,30.15328 39.488147,28.12336 37.372612,26.112773 34.997468,24.121519 32.332336,22.13855 29.344074,20.161105 25.996778,18.183659 22.243498,16.197929 18.023475,14.195627 13.242808,12.149137 7.755121,10.019793 1.26214,7.710932 -1.129574,6.904488 3.452244,6.904488 3.452244,0 10.356732,0 10.356732,-3.711853"/>
<polygon id="0x55731075ba20" class="l0d0" points="-6.633832,19.622555 -3.253395,20.760414 2.944074,22.964327 3.452244,23.160414 3.452244,34.52244 -10.356732,34.52244 -10.356732,18.360414"/>
<polygon id="0x55731075ba90" class="l0d0" points="-72.179517,-27.617952 -71.837054,-26.841887 -70.842808,-24.798159 -69.771231,-22.790334 -68.625086,-20.818412 -67.404373,-18.882394 -66.109091,-16.987802 -64.739241,-15.131876 -63.297583,-13.314614 -61.781358,-11.536018 -60.193326,-9.798849 -58.688147,-8.257768 -58.688147,27.617952 -65.592635,27.617952 -65.592635,34.52244 -72.497123,34.52244 -72.497123,-27.617952"/>
<polygon id="0x55731075bb00" class="l0d0" points="137.653395,-10.972612 137.979287,-5.490449 138.089758,0 137.979287,5.490449 137.653395,10.972612 137.109321,16.435443 136.347066,21.873418 135.36939,27.275489 135.29206,27.617952 134.637514,27.617952 134.637514,13.808976 127.733026,13.808976 127.733026,6.904488 120.828539,6.904488 120.828539,0 127.733026,0 127.733026,-6.904488 134.637514,-6.904488 134.637514,-20.713464 136.510012,-20.713464 137.109321,-16.435443"/>
<polygon id="0x55731075bb70" class="l0d0" points="29.266743,-109.750978 37.242808,-109.383659 45.591715,-108.776064 54.299655,-107.914384 63.344534,-106.793096 72.704258,-105.403913 82.348446,-103.746835 92.24672,-101.819102 93.566858,-101.531876 96.668354,-98.609896 100.512773,-94.688147 104.197008,-90.617261 107.718297,-86.402762 109.875259,-83.602301 109.270426,-83.759724 99.275489,-86.156962 89.457307,-88.294591 79.860069,-90.164327 70.52244,-91.76893 61.483084,-93.1084 52.76962,-94.188262 44.409666,-95.016801 36.425316,-95.59954 28.83038,-95.947526 21.635903,-96.071807 14.844649,-95.986191 8.464902,-95.701726 2.493901,-95.237745 -3.07664,-94.602532 -8.249482,-93.81542 -13.038435,-92.887457 -17.449022,-91.832451 -21.500575,-90.666974 -25.204143,-89.402071 -28.576295,-88.051554 -31.633602,-86.623705 -34.395397,-85.132336 -36.875489,-83.582969 -39.098734,-81.986651 -41.078941,-80.343383 -42.838205,-78.655926 -44.390334,-76.921519 -45.754661,-75.140161 -46.944994,-73.300806 -47.972382,-71.392405 -48.847871,-69.403913 -49.590794,-67.249712 -49.878021,-66.23061 -50.143153,-65.114845 -50.36962,-63.9687 -50.557422,-62.78389 -50.703797,-61.565938 -50.808746,-60.306559 -50.869505,-59.005754 -50.883314,-57.663521 -50.850173,-56.274338 -50.770081,-54.840967 -50.634753,-53.357883 -50.446951,-51.822325 -50.201151,-50.237054 -49.897353,-48.59931 -49.530035,-46.906329 -49.101956,-45.155351 -48.610357,-43.373993 -48.165708,-41.948907 -47.745915,-40.772382 -47.281933,-39.606904 -46.779287,-38.463521 -46.229689,-37.339471 -45.638665,-36.229229 -45.003452,-35.135558 -44.318527,-34.052934 -43.586651,-32.981358 -42.805063,-31.920829 -41.968239,-30.865823 -41.073418,-29.819102 -40.12336,-28.775144 -39.10702,-27.739471 -38.027158,-26.703797 -36.875489,-25.673648 -35.652014,-24.643498 -34.351208,-23.61611 -32.967549,-22.585961 -31.495512,-21.558573 -29.929574,-20.525662 -28.26145,-19.49275 -26.488377,-18.457077 -24.596548,-17.41588 -24.165708,-17.192175 -24.165708,-13.808976 -17.145224,-13.808976 -15.604143,-13.132336 -12.894822,-12.005524 -9.92313,-10.837284 -6.606214,-9.594476 -2.767319,-8.23015 1.13786,-6.904488 -3.452244,-6.904488 -3.452244,0 -10.356732,0 -10.356732,3.725662 -11.337169,3.377675 -14.872267,2.057537 -18.073188,0.795397 -21.028308,-0.433602 -23.78458,-1.643268 -26.36962,-2.841887 -28.808285,-4.040506 -31.117146,-5.241887 -33.304488,-6.44603 -35.38412,-7.66122 -37.361565,-8.887457 -39.245109,-10.127503 -41.040276,-11.381358 -42.752589,-12.651784 -44.382048,-13.941542 -44.879171,-14.358573 -44.879171,-20.713464 -51.457768,-20.713464 -51.783659,-21.094591 -51.783659,-27.617952 -56.589183,-27.617952 -56.81565,-27.976985 -57.704948,-29.509781 -58.536249,-31.067434 -58.688147,-31.379517 -58.688147,-34.52244 -60.121519,-34.52244 -60.671116,-35.900575 -61.264902,-37.574223 -61.86145,-39.479862 -62.466283,-41.672727 -62.988262,-43.796548 -63.438435,-45.881703 -63.816801,-47.92267 -64.126122,-49.924971 -64.366398,-51.891369 -64.543153,-53.821864 -64.650863,-55.716456 -64.695052,-57.575144 -64.675719,-59.40069 -64.590104,-61.195857 -64.44649,-62.957883 -64.236594,-64.689528 -63.9687,-66.390794 -63.637284,-68.058918 -63.245109,-69.699425 -62.775604,-71.375834 -61.715075,-74.441427 -60.394937,-77.451784 -58.840046,-80.33786 -57.050403,-83.102417 -55.028769,-85.742693 -52.772382,-88.258688 -50.281243,-90.650403 -47.547066,-92.917837 -44.56985,-95.06099 -41.33855,-97.0771 -37.839356,-98.966168 -34.069505,-100.725432 -30.006904,-102.352129 -25.643268,-103.843498 -20.964787,-105.191254 -15.957652,-106.387112 -10.605293,-107.422785 -4.899425,-108.29275 1.173763,-108.985961 7.622555,-109.488608 14.452474,-109.789643 21.666283,-109.880783"/>
<polygon id="0x5573104b5750" class="l0d0" points="3.452244,-20.702417 1.764787,-21.274108 -1.872497,-22.56939 -4.973993,-23.729344 -7.713694,-24.806444 -10.177215,-25.83107 -10.356732,-25.9084 -10.356732,-27.617952 3.452244,-27.617952"/>
</g>
</svg>