<?xml version="1.0" encoding="UTF-8"?>
<svg xmlns="http://www.w3.org/2000/svg" xmlns:xlink="http://www.w3.org/1999/xlink" width="310.446408" height="414.910486" viewBox="-163.714712 -331.54688 310.446408 414.910486">
<defs>
<style type="text/css">
.l0d1 {fill:none;stroke:black;stroke-dasharray:8,8;}
.l0d0 {stroke: #F38400; fill: #F38400; fill-opacity: 0.5;}
</style>
<g id="F_CELL">
<polygon id="0x560813fc3220" class="l0d0" points="21.192011,21.192011 21.192011,63.576034 42.384023,63.576034 42.384023,70.640038 21.192011,70.640038 21.192011,91.83205 49.448027,91.83205 49.448027,98.896053 7.064004,98.896053 7.064004,21.192011"/>
</g>
</defs>
<rect x="-163.714712" y="-331.54688" width="310.446408" height="414.910486" fill="none" stroke="none"/>
<g id="bounding_box" transform="scale(1 -1)">
<polygon id="0x560814024390" class="l0d1" points="-144.855145,-64.504038 127.872128,-64.504038 127.872128,312.687313 -144.855145,312.687313"/>
<polygon id="0x560813ff3320" class="l0d0" points="-52.516026,3.996004 -60.508034,-3.996004 0,-64.504038 60.508034,-3.996004 52.516026,3.996004 0,-48.520022"/>
<use transform="translate(0 0) rotate(45)" xlink:href="#F_CELL"/>
<use transform="translate(-79.92008 79.92008) rotate(45)" xlink:href="#F_CELL"/>
<use transform="translate(63.936064 63.936064) rotate(45)" xlink:href="#F_CELL"/>
<use transform="translate(-15.984016 143.856144) rotate(45)" xlink:href="#F_CELL"/>
<use transform="translate(127.872128 127.872128) rotate(45)" xlink:href="#F_CELL"/>
<use transform="translate(47.952048 207.792208) rotate(45)" xlink:href="#F_CELL"/>
</g>
</svg>