<?xml version="1.0" encoding="UTF-8"?>
<svg xmlns="http://www.w3.org/2000/svg" xmlns:xlink="http://www.w3.org/1999/xlink" width="303.896104" height="342.857143" viewBox="-93.506494 -249.350649 303.896104 342.857143">
<defs>
<style type="text/css">
.l0d0 {stroke: #F38400; fill: #F38400; fill-opacity: 0.5;}
</style>
</defs>
<rect x="-93.506494" y="-249.350649" width="303.896104" height="342.857143" fill="none" stroke="none"/>
<g id="circles" transform="scale(1 -1)">
<polygon id="0x55f11bfa52c0" class="l0d0" points="77.922078,0 76.424827,15.201843 71.990613,29.819488 64.78984,43.291187 55.09923,55.09923 43.291187,64.78984 29.819488,71.990613 15.201843,76.424827 0,77.922078 -15.201843,76.424827 -29.819488,71.990613 -43.291187,64.78984 -55.09923,55.09923 -64.78984,43.291187 -71.990613,29.819488 -76.424827,15.201843 -77.922078,0 -76.424827,-15.201843 -71.990613,-29.819488 -64.78984,-43.291187 -55.09923,-55.09923 -43.291187,-64.78984 -29.819488,-71.990613 -15.201843,-76.424827 -0,-77.922078 15.201843,-76.424827 29.819488,-71.990613 43.291187,-64.78984 55.09923,-55.09923 64.78984,-43.291187 71.990613,-29.819488 76.424827,-15.201843"/>
<polygon id="0x55f11bd46770" class="l0d0" points="194.805195,0 194.797444,1.554179 194.774196,3.10774 194.73546,4.660064 194.68125,6.210534 194.611589,7.758534 194.526504,9.303446 194.426029,10.844657 194.310204,12.381554 194.179075,13.913524 194.032694,15.439959 193.87112,16.960251 193.694417,18.473796 193.502655,19.97999 193.29591,21.478236 193.074265,22.967936 192.837808,24.448498 192.586633,25.919333 192.320839,27.379856 192.040533,28.829486 191.745826,30.267646 191.436836,31.693764 191.113685,33.107273 190.776502,34.507609 190.42542,35.894217 190.060581,37.266544 189.682128,38.624044 189.290213,39.966177 188.884991,41.29241 188.466623,42.602215 188.035277,43.895069 187.591123,45.17046 187.134339,46.42788 186.665105,47.666829 186.18361,48.886812 185.690043,50.087346 185.184603,51.267953 184.667489,52.428162 184.138907,53.567512 183.599069,54.685551 183.048188,55.781832 182.486483,56.855921 181.914179,57.907389 181.331503,58.935818 180.738687,59.9408 180.135966,60.921934 179.523581,61.878829 178.901775,62.811106 178.270795,63.718394 177.630892,64.60033 176.982322,65.456565 176.325342,66.286758 175.660213,67.090579 174.9872,67.867707 174.306571,68.617834 173.618597,69.34066 172.923551,70.0359 172.22171,70.703275 171.513353,71.34252 170.798762,71.953382 170.078222,72.535617 169.352018,73.088993 168.62044,73.61329 167.883779,74.1083 167.142328,74.573826 166.396382,75.009682 165.646238,75.415695 164.892193,75.791703 164.134549,76.137558 163.373607,76.453121 162.609669,76.738266 161.84304,76.992881 161.074023,77.216865 160.302926,77.410127 159.530055,77.572591 158.755718,77.704192 157.980222,77.804878 157.203876,77.87461 156.42699,77.913359 155.649871,77.921109 154.87283,77.897858 154.096175,77.843616 153.320216,77.758402 152.545261,77.642253 151.771618,77.495213 150.999596,77.317341 150.229501,77.108708 149.46164,76.869397 148.696318,76.599503 147.93384,76.299134 147.174509,75.968409 146.418627,75.607459 145.666496,75.216429 144.918413,74.795473 144.174678,74.34476 143.435585,73.864469 142.701429,73.35479 141.972502,72.815926 141.249094,72.248093 140.531492,71.651515 139.819983,71.02643 139.114849,70.373087 138.416371,69.691746 137.724826,68.982678 137.040491,68.246164 136.363636,67.482499 135.694532,66.691985 135.033445,65.874938 134.380637,65.031682 133.736369,64.162553 133.100896,63.267897 132.474472,62.348069 131.857345,61.403435 131.249762,60.434372 130.651964,59.441265 130.064188,58.424509 129.486669,57.384509 128.919637,56.321678 128.363317,55.236439 127.81793,54.129224 127.283693,53.000473 126.76082,51.850636 126.249517,50.68017 125.749989,49.489541 125.262433,48.279221 124.787045,47.049694 124.324013,45.801448 123.873522,44.53498 123.43575,43.250793 123.010872,41.949399 122.599057,40.631315 122.200468,39.297065 121.815265,37.947181 121.4436,36.5822 121.085622,35.202664 120.741473,33.809123 120.411289,32.40213 120.095203,30.982246 119.793339,29.550036 119.505818,28.106069 119.232755,26.65092 118.974258,25.185168 118.730429,23.709396 118.501367,22.224191 118.287161,20.730144 118.087898,19.227849 117.903656,17.717905 117.734509,16.200911 117.580524,14.677472 117.441763,13.148193 117.318279,11.613683 117.210124,10.074553 117.11734,8.531414 117.039963,6.984881 116.978024,5.435569 116.931549,3.884095 116.900555,2.331075 116.885055,0.777128 116.885055,-0.777128 116.900555,-2.331075 116.931549,-3.884095 116.978024,-5.435569 117.039963,-6.984881 117.11734,-8.531414 117.210124,-10.074553 117.318279,-11.613683 117.441763,-13.148193 117.580524,-14.677472 117.734509,-16.200911 117.903656,-17.717905 118.087898,-19.227849 118.287161,-20.730144 118.501367,-22.224191 118.730429,-23.709396 118.974258,-25.185168 119.232755,-26.65092 119.505818,-28.106069 119.793339,-29.550036 120.095203,-30.982246 120.411289,-32.40213 120.741473,-33.809123 121.085622,-35.202664 121.4436,-36.5822 121.815265,-37.947181 122.200468,-39.297065 122.599057,-40.631315 123.010872,-41.949399 123.43575,-43.250793 123.873522,-44.53498 124.324013,-45.801448 124.787045,-47.049694 125.262433,-48.279221 125.749989,-49.489541 126.249517,-50.68017 126.76082,-51.850636 127.283693,-53.000473 127.81793,-54.129224 128.363317,-55.236439 128.919637,-56.321678 129.486669,-57.384509 130.064188,-58.424509 130.651964,-59.441265 131.249762,-60.434372 131.857345,-61.403435 132.474472,-62.348069 133.100896,-63.267897 133.736369,-64.162553 134.380637,-65.031682 135.033445,-65.874938 135.694532,-66.691985 136.363636,-67.482499 137.040491,-68.246164 137.724826,-68.982678 138.416371,-69.691746 139.114849,-70.373087 139.819983,-71.02643 140.531492,-71.651515 141.249094,-72.248093 141.972502,-72.815926 142.701429,-73.35479 143.435585,-73.864469 144.174678,-74.34476 144.918413,-74.795473 145.666496,-75.216429 146.418627,-75.607459 147.174509,-75.968409 147.93384,-76.299134 148.696318,-76.599503 149.46164,-76.869397 150.229501,-77.108708 150.999596,-77.317341 151.771618,-77.495213 152.545261,-77.642253 153.320216,-77.758402 154.096175,-77.843616 154.87283,-77.897858 155.649871,-77.921109 156.42699,-77.913359 157.203876,-77.87461 157.980222,-77.804878 158.755718,-77.704192 159.530055,-77.572591 160.302926,-77.410127 161.074023,-77.216865 161.84304,-76.992881 162.609669,-76.738266 163.373607,-76.453121 164.134549,-76.137558 164.892193,-75.791703 165.646238,-75.415695 166.396382,-75.009682 167.142328,-74.573826 167.883779,-74.1083 168.62044,-73.61329 169.352018,-73.088993 170.078222,-72.535617 170.798762,-71.953382 171.513353,-71.34252 172.22171,-70.703275 172.923551,-70.0359 173.618597,-69.34066 174.306571,-68.617834 174.9872,-67.867707 175.660213,-67.090579 176.325342,-66.286758 176.982322,-65.456565 177.630892,-64.60033 178.270795,-63.718394 178.901775,-62.811106 179.523581,-61.878829 180.135966,-60.921934 180.738687,-59.9408 181.331503,-58.935818 181.914179,-57.907389 182.486483,-56.855921 183.048188,-55.781832 183.599069,-54.685551 184.138907,-53.567512 184.667489,-52.428162 185.184603,-51.267953 185.690043,-50.087346 186.18361,-48.886812 186.665105,-47.666829 187.134339,-46.42788 187.591123,-45.17046 188.035277,-43.895069 188.466623,-42.602215 188.884991,-41.29241 189.290213,-39.966177 189.682128,-38.624044 190.060581,-37.266544 190.42542,-35.894217 190.776502,-34.507609 191.113685,-33.107273 191.436836,-31.693764 191.745826,-30.267646 192.040533,-28.829486 192.320839,-27.379856 192.586633,-25.919333 192.837808,-24.448498 193.074265,-22.967936 193.29591,-21.478236 193.502655,-19.97999 193.694417,-18.473796 193.87112,-16.960251 194.032694,-15.439959 194.179075,-13.913524 194.310204,-12.381554 194.426029,-10.844657 194.526504,-9.303446 194.611589,-7.758534 194.68125,-6.210534 194.73546,-4.660064 194.774196,-3.10774 194.797444,-1.554179"/>
<polygon id="0x55f11bfaa2c0" class="l0d0" points="140.962363,110.042708 148.802493,123.474155 153.81911,138.195057 155.812379,153.619009 154.702896,169.131599 150.534859,184.114886 143.474301,197.972012 133.802478,210.150979 121.904666,220.166641 108.254813,227.620025 93.39666,232.214226 77.922078,233.766234 62.447496,232.214226 47.589342,227.620025 33.939489,220.166641 22.041678,210.150979 12.369855,197.972012 5.309296,184.114886 1.14126,169.131599 0.031777,153.619009 2.025045,138.195057 7.041663,123.474155 14.881793,110.042708 46.401935,132.943432 41.369169,142.359076 39.081143,152.787308 39.709664,163.445077 43.207538,173.532097 49.31211,182.290938 57.564991,189.063903 67.346476,193.342412 77.922078,194.805195 88.49768,193.342412 98.279165,189.063903 106.532046,182.290938 112.636618,173.532097 116.134491,163.445077 116.763013,152.787308 114.474987,142.359076 109.442221,132.943432"/>
</g>
</svg>