<?xml version="1.0" encoding="UTF-8"?>
<svg xmlns="http://www.w3.org/2000/svg" xmlns:xlink="http://www.w3.org/1999/xlink" width="300" height="277.081821" viewBox="-13.636364 -111.719254 300 277.081821">
<defs>
<style type="text/css">
.l0d0 {stroke: #F38400; fill: #F38400; fill-opacity: 0.5;}
</style>
</defs>
<rect x="-13.636364" y="-111.719254" width="300" height="277.081821" fill="none" stroke="none"/>
<g id="commands" transform="scale(1 -1)">
<polygon id="0x56358e283610" class="l0d0" points="0,0 75.863102,75.863102 80.742554,80.334296 85.993128,84.363203 91.574865,87.919161 97.445283,90.975108 103.559707,93.507785 109.8716,95.497917 116.332926,96.930359 122.894511,97.794208 129.506416,98.08289 136.118321,97.794208 142.679905,96.930359 149.141231,95.497917 155.453124,93.507785 161.567548,90.975108 167.437966,87.919161 173.019703,84.363203 178.270277,80.334296 183.149729,75.863102 259.012831,-0 261.258219,-2.352038 263.266688,-4.672235 265.051345,-6.962237 266.624445,-9.224054 267.997325,-11.460072 269.180331,-13.673056 270.182746,-15.866151 271.01272,-18.042868 271.677192,-20.207062 272.181829,-22.362894 272.727273,-26.662199 272.669701,-30.972969 272.009128,-35.333514 270.723878,-39.781367 268.772208,-44.351325 266.094695,-49.073969 262.617034,-53.974716 258.252989,-59.073277 252.907445,-64.383311 246.479637,-69.912091 238.866799,-75.660005 229.968555,-81.619769 219.692517,-87.775252 207.961648,-94.099802 194.724087,-100.554038 179.966246,-107.083064 163.729919,-113.613225 146.133731,-120.048786 127.397946,-126.269404 107.86885,-132.130106 88.034028,-137.466473 68.513973,-142.108228 59.111521,-144.115304 50.075665,-145.891214 41.488712,-147.426513 33.422647,-148.716807 25.935777,-149.76308 19.070381,-150.571632 12.851584,-151.153652 7.287517,-151.524494 0,-151.726204"/>
</g>
</svg>