<?xml version="1.0" encoding="UTF-8"?>
<svg xmlns="http://www.w3.org/2000/svg" xmlns:xlink="http://www.w3.org/1999/xlink" width="300" height="241.176471" viewBox="-27.896613 -174.064171 300 241.176471">
<defs>
<style type="text/css">
.l0d0 {stroke: #F38400; fill: #F38400; fill-opacity: 0.5;}
</style>
</defs>
<rect x="-27.896613" y="-174.064171" width="300" height="241.176471" fill="none" stroke="none"/>
<g id="commands" transform="scale(1 -1)">
<polygon id="0x55585d1352e0" class="l0d0" points="36.541889,19.013666 58.823529,48.722519 81.105169,78.431373 103.386809,108.140226 104.888182,110.025668 106.496245,111.82098 108.205599,113.520133 110.010505,115.117422 111.9049,116.607482 113.882424,117.985311 115.936437,119.246281 118.060041,120.386158 120.246105,121.401114 122.487288,122.287743 124.776065,123.043065 127.104751,123.664545 129.465525,124.150096 131.85046,124.498088 134.251547,124.707351 136.660863,124.777184 140.374332,124.777184 144.087938,124.777184 147.801545,124.777184 151.515152,124.777184 155.013738,124.691298 158.503896,124.433849 161.977217,124.005455 165.425335,123.40715 168.839942,122.640375 172.212811,121.706976 175.535818,120.609203 178.800958,119.349699 182.000363,117.9315 185.126327,116.358022 188.171319,114.633056 191.128002,112.760757 193.989255,110.745635 196.748184,108.592546 199.398143,106.306676 201.932747,103.893532 204.345891,101.358927 206.631761,98.708969 208.784851,95.95004 210.799972,93.088787 212.672272,90.132103 214.397238,87.087111 215.970716,83.961147 217.388915,80.761742 218.648418,77.496603 219.746191,74.173596 220.67959,70.800726 221.446366,67.386119 222.044671,63.938002 222.473064,60.46468 222.730514,56.974522 222.816399,53.475936 222.730514,49.977349 222.473064,46.487191 222.044671,43.01387 221.446366,39.565752 220.67959,36.151146 219.746191,32.778276 218.648418,29.455269 217.388915,26.19013 215.970716,22.990724 214.397238,19.86476 212.672272,16.819769 210.799972,13.863085 208.784851,11.001832 206.631761,8.242903 204.345891,5.592944 201.932747,3.05834 199.398143,0.645196 196.748184,-1.640674 193.989255,-3.793763 191.128002,-5.808885 188.171319,-7.681184 185.126327,-9.406151 182.000363,-10.979629 178.800958,-12.397828 175.535818,-13.657331 172.212811,-14.755104 168.839942,-15.688503 165.425335,-16.455278 161.977217,-17.053584 158.503896,-17.481977 155.013738,-17.739426 151.514685,-17.825312 151.515618,-23.767083 155.305287,-23.67404 159.086291,-23.395136 162.849056,-22.931044 166.584517,-22.28288 170.283674,-21.452206 173.937616,-20.441024 177.537541,-19.25177 181.074775,-17.887308 184.540797,-16.350926 187.927258,-14.646325 191.225999,-12.777611 194.429073,-10.749287 197.528764,-8.566238 200.517604,-6.233725 203.388392,-3.757366 206.134214,-1.143126 208.748453,1.602695 211.224812,4.473484 213.557326,7.462323 215.740374,10.562014 217.768698,13.765088 219.637412,17.063829 221.342013,20.45029 222.878395,23.916312 224.242857,27.453547 225.432111,31.053471 226.443293,34.707413 227.273967,38.40657 227.922131,42.142031 228.386224,45.904796 228.665127,49.685801 228.75817,53.475936 228.665127,57.266071 228.386224,61.047076 227.922131,64.809841 227.273967,68.545301 226.443293,72.244458 225.432111,75.898401 224.242857,79.498325 222.878395,83.035559 221.342013,86.501582 219.637412,89.888043 217.768698,93.186784 215.740374,96.389858 213.557326,99.489548 211.224812,102.478388 208.748453,105.349177 206.134214,108.094998 203.388392,110.709237 200.517604,113.185597 197.528764,115.51811 194.429073,117.701158 191.225999,119.729483 187.927258,121.598196 184.540797,123.302797 181.074775,124.83918 177.537541,126.203641 173.937616,127.392896 170.283674,128.404078 166.584517,129.234751 162.849056,129.882915 159.086291,130.347008 155.305287,130.625912 151.515152,130.718954 147.801545,130.718954 144.087938,130.718954 140.374332,130.718954 136.660587,130.718954 133.907379,130.639146 131.163279,130.399987 128.437639,130.002283 125.739612,129.447367 123.078257,128.737104 120.462511,127.873879 117.901159,126.860589 115.4028,125.700639 112.975824,124.397922 110.628381,122.956814 108.368354,121.382153 106.20333,119.679227 104.140582,117.853754 102.187034,115.911865 100.349247,113.86008 98.633393,111.705288 76.351753,81.996435 54.070113,52.287582 31.788473,22.578728 9.506833,-7.130125 14.26025,-10.695187"/>
<polygon id="0x55585d135350" class="l0d0" points="27.035056,26.143791 49.316696,55.852644 71.598336,85.561497 93.879976,115.270351 95.810312,117.694491 97.877822,120.002749 100.075564,122.187375 102.396156,124.241031 104.831807,126.156823 107.374338,127.928317 110.015212,129.549564 112.745559,131.01512 115.556213,132.320065 118.437735,133.460015 121.380448,134.431144 124.374472,135.23019 127.409753,135.854469 130.476098,136.301887 133.563211,136.57094 136.661,136.660725 140.374332,136.660725 144.087938,136.660725 147.801545,136.660725 151.515152,136.660725 155.596836,136.560525 159.668687,136.260167 163.720895,135.760375 167.743699,135.062352 171.727407,134.167781 175.662421,133.078816 179.539263,131.79808 183.348592,130.32866 187.081232,128.674094 190.72819,126.83837 194.28068,124.825909 197.730144,122.64156 201.068273,120.290585 204.287023,117.778647 207.378642,115.111799 210.33568,112.296464 213.151015,109.339426 215.817863,106.247807 218.329801,103.029057 220.680776,99.690928 222.865125,96.241464 224.877586,92.688974 226.71331,89.042016 228.367876,85.309376 229.837296,81.500047 231.118031,77.623205 232.206997,73.688191 233.101568,69.704483 233.799591,65.681679 234.299383,61.629471 234.599741,57.55762 234.699941,53.475936 234.599741,49.394252 234.299383,45.322401 233.799591,41.270192 233.101568,37.247389 232.206997,33.263681 231.118031,29.328666 229.837296,25.451824 228.367876,21.642495 226.71331,17.909856 224.877586,14.262898 222.865125,10.710407 220.680776,7.260943 218.329801,3.922815 215.817863,0.704064 213.151015,-2.387554 210.33568,-5.344593 207.378642,-8.159927 204.287023,-10.826776 201.068273,-13.338713 197.730144,-15.689688 194.28068,-17.874038 190.72819,-19.886499 187.081232,-21.722223 183.348592,-23.376788 179.539263,-24.846209 175.662421,-26.126944 171.727407,-27.215909 167.743699,-28.110481 163.720895,-28.808504 159.668687,-29.308296 155.596836,-29.608654 151.514218,-29.708853 151.516085,-41.592394 156.179933,-41.477881 160.833477,-41.134615 165.464573,-40.563423 170.062063,-39.765683 174.614872,-38.743316 179.112031,-37.498784 183.542707,-36.035086 187.896226,-34.355749 192.1621,-32.464817 196.330052,-30.366846 200.390041,-28.066891 204.332286,-25.570492 208.14729,-22.883663 211.825862,-20.012877 215.35914,-16.965051 218.738613,-13.747525 221.956138,-10.368053 225.003965,-6.834774 227.87475,-3.156202 230.561579,0.658801 233.057978,4.601046 235.357934,8.661035 237.455904,12.828987 239.346836,17.094861 241.026174,21.44838 242.489871,25.879056 243.734403,30.376216 244.756771,34.929025 245.554511,39.526515 246.125702,44.15761 246.468968,48.811154 246.583482,53.475936 246.468968,58.140718 246.125702,62.794262 245.554511,67.425357 244.756771,72.022847 243.734403,76.575656 242.489871,81.072815 241.026174,85.503492 239.346836,89.857011 237.455904,94.122885 235.357934,98.290837 233.057978,102.350825 230.561579,106.29307 227.87475,110.108074 225.003965,113.786646 221.956138,117.319924 218.738613,120.699397 215.35914,123.916922 211.825862,126.964749 208.14729,129.835535 204.332286,132.522364 200.390041,135.018763 196.330052,137.318718 192.1621,139.416689 187.896226,141.30762 183.542707,142.986958 179.112031,144.450656 174.614872,145.695187 170.062063,146.717555 165.464573,147.515295 160.833477,148.086486 156.179933,148.429752 151.515152,148.544266 147.801545,148.544266 144.087938,148.544266 140.374332,148.544266 136.660449,148.544266 132.874874,148.434529 129.101737,148.105687 125.353982,147.558843 121.644194,146.795834 117.984831,145.819223 114.388181,144.632287 110.866322,143.239015 107.431078,141.644083 104.093986,139.852847 100.866252,137.871323 97.758714,135.706164 94.781807,133.364641 91.945528,130.854616 89.2594,128.184518 86.732443,125.363314 84.373143,122.400475 62.091503,92.691622 39.809863,62.982769 17.528223,33.273916 -4.753417,3.565062 4.753417,-3.565062"/>
<polygon id="0x55585d1d1450" class="l0d0" points="12.774807,36.838978 35.056447,66.547831 57.338087,96.256684 79.619727,125.965538 80.8832,127.600278 82.193508,129.197725 83.549551,130.756536 84.950188,132.275403 86.394246,133.75305 87.88051,135.188237 89.407733,136.579758 90.974633,137.926445 92.579894,139.227168 94.222168,140.480834 95.900076,141.686391 97.612209,142.842826 99.35713,143.949168 101.133374,145.004489 102.939448,146.007901 104.773838,146.958564 106.635001,147.855678 108.521376,148.69849 110.431378,149.486292 112.363405,150.218424 114.315833,150.894269 116.287023,151.513262 118.27532,152.074881 120.279055,152.578656 122.296545,153.024164 124.326096,153.41103 126.366004,153.738929 128.414556,154.007586 130.470032,154.216777 132.530706,154.366324 134.594848,154.456102 136.660863,154.486037 140.374332,154.486037 144.087938,154.486037 147.801545,154.486037 151.515152,154.486037 153.994063,154.455614 156.471482,154.364366 158.945916,154.212346 161.415873,153.999646 163.879866,153.726394 166.336412,153.392755 168.784029,152.99893 171.221245,152.545156 173.64659,152.031707 176.058604,151.458891 178.455834,150.827054 180.836836,150.136576 183.200176,149.387873 185.54443,148.581397 187.868186,147.717633 190.170044,146.797101 192.448618,145.820356 194.702535,144.787986 196.930437,143.700613 199.130984,142.558892 201.302848,141.363511 203.444722,140.115189 205.555315,138.81468 207.633357,137.462765 209.677595,136.06026 211.686798,134.60801 213.659757,133.106888 215.595281,131.5578 217.492206,129.961678 219.349389,128.319484 221.165712,126.632207 222.940079,124.900863 224.671423,123.126496 226.3587,121.310174 228.000894,119.452991 229.597015,117.556066 231.146104,115.620541 232.647225,113.647583 234.099476,111.638379 235.501981,109.594141 236.853895,107.516099 238.154405,105.405506 239.402726,103.263632 240.598108,101.091768 241.739828,98.891222 242.827201,96.663319 243.859571,94.409402 244.836316,92.130828 245.756848,89.82897 246.620613,87.505214 247.427089,85.16096 248.175791,82.79762 248.866269,80.416618 249.498106,78.019388 250.070922,75.607374 250.584372,73.182029 251.038146,70.744813 251.431971,68.297196 251.76561,65.84065 252.038861,63.376657 252.251561,60.9067 252.403581,58.432267 252.49483,55.954848 252.525253,53.475936 252.49483,50.997024 252.403581,48.519605 252.251561,46.045172 252.038861,43.575215 251.76561,41.111221 251.431971,38.654676 251.038146,36.207058 250.584372,33.769843 250.070922,31.344497 249.498106,28.932483 248.866269,26.535253 248.175791,24.154251 247.427089,21.790912 246.620613,19.446658 245.756848,17.122902 244.836316,14.821044 243.859571,12.54247 242.827201,10.288553 241.739828,8.06065 240.598108,5.860104 239.402726,3.68824 238.154405,1.546366 236.853895,-0.564228 235.501981,-2.64227 234.099476,-4.686508 232.647225,-6.695711 231.146104,-8.668669 229.597015,-10.604194 228.000894,-12.501119 226.3587,-14.358302 224.671423,-16.174624 222.940079,-17.948992 221.165712,-19.680335 219.349389,-21.367612 217.492206,-23.009806 215.595281,-24.605928 213.659757,-26.155016 211.686798,-27.656138 209.677595,-29.108389 207.633357,-30.510894 205.555315,-31.862808 203.444722,-33.163318 201.302848,-34.411639 199.130984,-35.60702 196.930437,-36.748741 194.702535,-37.836114 192.448618,-38.868484 190.170044,-39.845229 187.868186,-40.765761 185.54443,-41.629525 183.200176,-42.436002 180.836836,-43.184704 178.455834,-43.875182 176.058604,-44.507019 173.64659,-45.079835 171.221245,-45.593284 168.784029,-46.047058 166.336412,-46.440883 163.879866,-46.774522 161.415873,-47.047774 158.945916,-47.260474 156.471482,-47.412494 153.994063,-47.503743 151.514685,-47.534165 151.515618,-53.475936 154.139882,-53.443724 156.763031,-53.347108 159.383019,-53.186145 161.998268,-52.960933 164.607202,-52.671608 167.20825,-52.318343 169.799846,-51.901352 172.380427,-51.420886 174.948439,-50.877233 177.502337,-50.270722 180.04058,-49.601718 182.561641,-48.870624 185.064001,-48.07788 187.546152,-47.223964 190.006599,-46.30939 192.443861,-45.334709 194.856469,-44.300509 197.242969,-43.207411 199.601925,-42.056075 201.931915,-40.847194 204.231536,-39.581496 206.499402,-38.259744 208.734148,-36.882734 210.934428,-35.451295 213.098915,-33.96629 215.226307,-32.428613 217.315322,-30.83919 219.364701,-29.198979 221.37321,-27.508968 223.339639,-25.770174 225.262803,-23.983645 227.141545,-22.150458 228.974733,-20.271716 230.761261,-18.348551 232.500055,-16.382122 234.190066,-14.373613 235.830277,-12.324234 237.4197,-10.23522 238.957378,-8.107828 240.442383,-5.94334 241.873822,-3.743061 243.250832,-1.508315 244.572584,0.759552 245.838281,3.059173 247.047162,5.389163 248.198498,7.748118 249.291596,10.134619 250.325797,12.547226 251.300478,14.984488 252.215052,17.444935 253.068968,19.927087 253.861711,22.429446 254.592806,24.950507 255.26181,27.488751 255.868321,30.042648 256.411973,32.610661 256.892439,35.191242 257.309431,37.782837 257.662695,40.383885 257.952021,42.992819 258.177232,45.608068 258.338195,48.228056 258.434811,50.851206 258.467023,53.475936 258.434811,56.100666 258.338195,58.723815 258.177232,61.343804 257.952021,63.959052 257.662695,66.567987 257.309431,69.169035 256.892439,71.76063 256.411973,74.341211 255.868321,76.909224 255.26181,79.463121 254.592806,82.001364 253.861711,84.522425 253.068968,87.024785 252.215052,89.506936 251.300478,91.967384 250.325797,94.404645 249.291596,96.817253 248.198498,99.203753 247.047162,101.562709 245.838281,103.892699 244.572584,106.19232 243.250832,108.460187 241.873822,110.694933 240.442383,112.895212 238.957378,115.0597 237.4197,117.187091 235.830277,119.276106 234.190066,121.325485 232.500055,123.333994 230.761261,125.300423 228.974733,127.223588 227.141545,129.10233 225.262803,130.935517 223.339639,132.722045 221.37321,134.460839 219.364701,136.150851 217.315322,137.791062 215.226307,139.380485 213.098915,140.918162 210.934428,142.403167 208.734148,143.834606 206.499402,145.211616 204.231536,146.533368 201.931915,147.799066 199.601925,149.007947 197.242969,150.159283 194.856469,151.25238 192.443861,152.286581 190.006599,153.261262 187.546152,154.175836 185.064001,155.029752 182.561641,155.822496 180.04058,156.55359 177.502337,157.222594 174.948439,157.829105 172.380427,158.372757 169.799846,158.853224 167.20825,159.270215 164.607202,159.62348 161.998268,159.912805 159.383019,160.138017 156.763031,160.298979 154.139882,160.395596 151.515152,160.427807 147.801545,160.427807 144.087938,160.427807 140.374332,160.427807 136.660587,160.427807 134.422692,160.395378 132.186538,160.298118 129.954141,160.136109 127.727375,159.909486 125.50811,159.618441 123.29821,159.263216 121.09953,158.844112 118.913916,158.361479 116.743203,157.815722 114.589214,157.207301 112.453758,156.536726 110.338628,155.80456 108.245599,155.011417 106.17643,154.157965 104.132857,153.244918 102.116597,152.273045 100.129342,151.243161 98.172761,150.15613 96.248497,149.012866 94.358166,147.814329 92.503355,146.561524 90.685621,145.255505 88.906491,143.897367 87.167459,142.48825 85.469984,141.029339 83.815492,139.521857 82.205372,137.967072 80.640977,136.366287 79.123619,134.720848 77.654574,133.032136 76.235073,131.301569 74.86631,129.5306 52.58467,99.821747 30.30303,70.112894 8.02139,40.40404 -14.26025,10.695187 -9.506833,7.130125"/>
</g>
</svg>