<?xml version="1.0" encoding="UTF-8"?>
<svg xmlns="http://www.w3.org/2000/svg" xmlns:xlink="http://www.w3.org/1999/xlink" width="300" height="241.193738" viewBox="-27.898158 -174.081554 300 241.193738">
<defs>
<style type="text/css">
.l0d0 {stroke: #F38400; fill: #F38400; fill-opacity: 0.5;}
</style>
</defs>
<rect x="-27.898158" y="-174.081554" width="300" height="241.193738" fill="none" stroke="none"/>
<g id="commands" transform="scale(1 -1)">
<polygon id="0x55d800bba1b0" class="l0d0" points="9.507863,-7.130897 14.261795,-10.696346 103.232687,107.931511 105.009988,110.15464 106.736125,112.059446 108.576645,113.853972 110.524515,115.531362 112.572294,117.085208 114.712159,118.509574 116.935933,119.799017 119.235122,120.948611 121.600941,121.953965 124.024352,122.811237 126.496096,123.517153 129.00673,124.069015 131.546662,124.464715 134.10619,124.702741 136.951073,124.790704 151.302024,124.790704 155.202162,124.69025 158.863021,124.406877 162.504438,123.935422 166.116758,123.277137 169.6904,122.433767 173.215888,121.407549 176.683873,120.201204 180.085158,118.817931 183.410725,117.261398 186.651754,115.535732 189.799651,113.645511 192.846067,111.595746 195.782925,109.391873 198.602436,107.039736 201.297124,104.545574 203.859842,101.915999 206.283796,99.157985 208.562556,96.278846 210.69008,93.286217 212.660727,90.188033 214.46927,86.992511 216.110913,83.708124 217.581304,80.343582 218.876543,76.907808 219.993194,73.409912 220.928298,69.859169 221.679375,66.264997 222.244432,62.636926 222.621971,58.984577 222.810991,55.317635 222.810991,51.645825 222.621971,47.978884 222.244432,44.326534 221.679375,40.698463 220.928298,37.104291 219.993194,33.553549 218.876543,30.055653 217.581304,26.619878 216.110913,23.255336 214.46927,19.97095 212.660727,16.775428 210.69008,13.677244 208.562556,10.684615 206.283796,7.805475 203.859842,5.047462 201.297124,2.417887 198.602436,-0.076276 195.782925,-2.428412 192.846067,-4.632285 189.799651,-6.68205 186.651754,-8.572272 183.410725,-10.297937 180.085158,-11.85447 176.683873,-13.237744 173.215888,-14.444089 169.6904,-15.470307 166.116758,-16.313677 162.504438,-16.971962 158.863021,-17.443416 155.202162,-17.72679 151.072555,-17.833154 151.225559,-23.773598 155.508171,-23.663293 159.474229,-23.356295 163.419223,-22.845537 167.332694,-22.132372 171.204263,-21.218692 175.023663,-20.10692 178.780767,-18.800005 182.465611,-17.301411 186.068423,-15.615113 189.57965,-13.745582 192.98998,-11.697777 196.290369,-9.477128 199.472067,-7.089523 202.526635,-4.541293 205.445973,-1.839198 208.22234,1.009599 210.848373,3.997543 213.317108,7.11671 215.622,10.358828 217.756935,13.715301 219.716252,17.177227 221.494756,20.735426 223.08773,24.380462 224.49095,28.10267 225.700695,31.892179 226.713757,35.738939 227.527449,39.632749 228.139613,43.563285 228.548627,47.520123 228.753406,51.49277 228.753406,55.470691 228.548627,59.443338 228.139613,63.400175 227.527449,67.330711 226.713757,71.224522 225.700695,75.071282 224.49095,78.86079 223.08773,82.582998 221.494756,86.228035 219.716252,89.786234 217.756935,93.24816 215.622,96.604632 213.317108,99.846751 210.848373,102.965918 208.22234,105.953861 205.445973,108.802658 202.526635,111.504754 199.472067,114.052983 196.290369,116.440588 192.98998,118.661238 189.57965,120.709043 186.068423,122.578573 182.465611,124.264871 178.780767,125.763465 175.023663,127.070381 171.204263,128.182153 167.332694,129.095833 163.419223,129.808997 159.474229,130.319756 155.508171,130.626754 151.378539,130.733118 136.859227,130.733118 133.73889,130.636639 130.813466,130.364585 127.910439,129.912318 125.040897,129.281565 122.215806,128.474735 119.445957,127.494912 116.741933,126.345838 114.114065,125.031904 111.572391,123.558129 109.126623,121.930144 106.786105,120.154168 104.559777,118.236987 102.456147,116.185925 100.48325,114.008819 98.533864,111.570437"/>
<polygon id="0x55d800c72590" class="l0d0" points="-4.753932,3.565449 4.753932,-3.565449 93.835041,115.209363 95.956512,117.862997 98.176168,120.312405 100.542909,122.620002 103.047694,124.776974 105.680952,126.775079 108.432624,128.606684 111.292196,130.264791 114.248744,131.743065 117.290973,133.035859 120.40726,134.138233 123.585699,135.045977 126.814147,135.755621 130.08027,136.264456 133.37159,136.570536 136.76738,136.675533 151.455054,136.675533 155.814181,136.563257 160.085436,136.232635 164.334008,135.682572 168.54863,134.914528 172.718126,133.930538 176.831439,132.733213 180.877661,131.325727 184.846063,129.711812 188.726121,127.895749 192.507545,125.882354 196.180309,123.676965 199.734672,121.285431 203.161209,118.714093 206.450833,115.969772 209.594822,113.059743 212.584837,109.991724 215.41295,106.77385 218.071661,103.414656 220.55392,99.923048 222.853143,96.308286 224.963235,92.579956 226.878599,88.747945 228.594157,84.822414 230.105358,80.813773 231.408196,76.732652 232.499215,72.589874 233.375523,68.396425 234.034795,64.163425 234.475283,59.902098 234.69582,55.623746 234.69582,51.339714 234.475283,47.061362 234.034795,42.800036 233.375523,38.567036 232.499215,34.373586 231.408196,30.230808 230.105358,26.149688 228.594157,22.141047 226.878599,18.215516 224.963235,14.383504 222.853143,10.655174 220.55392,7.040412 218.071661,3.548805 215.41295,0.18961 212.584837,-3.028263 209.594822,-6.096282 206.450833,-9.006311 203.161209,-11.750633 199.734672,-14.32197 196.180309,-16.713504 192.507545,-18.918893 188.726121,-20.932289 184.846063,-22.748352 180.877661,-24.362266 176.831439,-25.769752 172.718126,-26.967078 168.54863,-27.951067 164.334008,-28.719112 160.085436,-29.269175 155.814181,-29.599797 151.378564,-29.714042 151.684574,-41.594931 156.4262,-41.472804 161.307851,-41.094933 166.163578,-40.466262 170.980503,-39.588458 175.745853,-38.463848 180.44699,-37.095416 185.07145,-35.486788 189.606968,-33.642233 194.041516,-31.56664 198.363336,-29.265515 202.560966,-26.744958 206.623276,-24.011655 210.539492,-21.072853 214.29923,-17.936346 217.89252,-14.610451 221.309832,-11.103988 224.542104,-7.426255 227.580766,-3.587005 230.417759,0.403581 233.04556,4.534921 235.457201,8.796058 237.646286,13.175695 239.60701,17.662215 241.334174,22.243723 242.823197,26.908068 244.070132,31.642881 245.071671,36.435608 245.825158,41.273537 246.328596,46.143841 246.580649,51.033603 246.580649,55.929857 246.328596,60.81962 245.825158,65.689923 245.071671,70.527853 244.070132,75.320579 242.823197,80.055393 241.334174,84.719738 239.60701,89.301245 237.646286,93.787766 235.457201,98.167402 233.04556,102.42854 230.417759,106.55988 227.580766,110.550466 224.542104,114.389716 221.309832,118.067448 217.89252,121.573912 214.29923,124.899807 210.539492,128.036314 206.623276,130.975115 202.560966,133.708419 198.363336,136.228975 194.041516,138.530101 189.606968,140.605693 185.07145,142.450249 180.44699,144.058876 175.745853,145.427309 170.980503,146.551918 166.163578,147.429723 161.307851,148.058394 156.4262,148.436264 151.608084,148.560362 136.583686,148.560362 132.636991,148.438331 128.613878,148.064197 124.621564,147.442228 120.675302,146.574801 116.790169,145.46523 112.981006,144.117753 109.262367,142.537519 105.648459,140.730565 102.153089,138.703794 98.78961,136.46495 95.570872,134.022586 92.509174,131.386033 89.61621,128.565363 86.903035,125.571353 84.437394,122.487216"/>
<polygon id="0x55d800bb5f30" class="l0d0" points="-14.261795,10.696346 -9.507863,7.130897 79.73857,126.126142 82.376297,129.425532 85.336231,132.691842 88.492306,135.769048 91.832462,138.645392 95.343939,141.309886 99.013321,143.75235 102.826591,145.963452 106.769178,147.934746 110.826022,149.6587 114.981623,151.128728 119.220104,152.339213 123.525273,153.285532 127.880682,153.964067 132.269691,154.372229 136.491839,154.502776 151.684599,154.502776 156.73221,154.372768 161.919059,153.971273 167.078363,153.303298 172.196439,152.370614 177.259716,151.175694 182.254766,149.721708 187.168344,148.01251 191.98742,146.052634 196.699214,143.847277 201.291231,141.402286 205.751295,138.724146 210.067578,135.819958 214.228634,132.697424 218.223429,129.364824 222.041369,125.830996 225.672329,122.105311 229.106682,118.197648 232.335319,114.11837 235.349679,109.878295 238.141769,105.488667 240.704184,100.961125 243.030129,96.307676 245.113436,91.540661 246.948582,86.67272 248.530698,81.716763 249.85559,76.685932 250.919745,71.593567 251.72034,66.453172 252.255252,61.27838 252.523064,56.082913 252.523064,50.880548 252.255252,45.68508 251.72034,40.510288 250.919745,35.369894 249.85559,30.277529 248.530698,25.246697 246.948582,20.29074 245.113436,15.422799 243.030129,10.655784 240.704184,6.002336 238.141769,1.474794 235.349679,-2.914835 232.335319,-7.15491 229.106682,-11.234188 225.672329,-15.14185 222.041369,-18.867536 218.223429,-22.401364 214.228634,-25.733963 210.067578,-28.856497 205.751295,-31.760685 201.291231,-34.438825 196.699214,-36.883816 191.98742,-39.089174 187.168344,-41.04905 182.254766,-42.758247 177.259716,-44.212234 172.196439,-45.407153 167.078363,-46.339837 161.919059,-47.007812 156.73221,-47.409307 151.837579,-47.535376 151.990583,-53.47582 157.038219,-53.345811 162.530267,-52.920692 167.993148,-52.213412 173.412375,-51.225848 178.773579,-49.960619 184.062542,-48.421079 189.265238,-46.611311 194.367872,-44.536114 199.356912,-42.200992 204.219127,-39.612136 208.941624,-36.776412 213.51188,-33.70134 217.917776,-30.395074 222.147627,-26.866381 226.190218,-23.12462 230.034826,-19.179713 233.671259,-15.04212 237.089871,-10.722815 240.281599,-6.233251 243.237977,-1.585333 245.951166,3.208613 248.413972,8.135874 250.619863,13.183384 252.562989,18.337758 254.238199,23.585327 255.641049,28.912177 256.767819,34.30418 257.615521,39.747039 258.181908,45.226319 258.465478,50.727492 258.465478,56.235968 258.181908,61.737141 257.615521,67.216422 256.767819,72.659281 255.641049,78.051284 254.238199,83.378133 252.562989,88.625703 250.619863,93.780077 248.413972,98.827587 245.951166,103.754848 243.237977,108.548793 240.281599,113.196711 237.089871,117.686275 233.671259,122.005581 230.034826,126.143173 226.190218,130.088081 222.147627,133.829842 217.917776,137.358534 213.51188,140.6648 208.941624,143.739873 204.219127,146.575597 199.356912,149.164452 194.367872,151.499575 189.265238,153.574771 184.062542,155.384539 178.773579,156.924079 173.412375,158.189309 167.993148,159.176873 162.530267,159.884152 157.038219,160.309271 151.761114,160.445191 136.399992,160.445191 131.902392,160.306126 127.147486,159.863938 122.428982,159.128835 117.764906,158.103625 113.173077,156.792226 108.671039,155.199647 104.27599,153.331973 100.004722,151.196339 95.873554,148.800905 91.898268,146.154821 88.094051,143.268198 84.475438,140.152063 81.056253,136.818321 77.849559,133.27971 75.039747,129.765068"/>
</g>
</svg>