<?xml version="1.0" encoding="UTF-8"?>
<svg xmlns="http://www.w3.org/2000/svg" xmlns:xlink="http://www.w3.org/1999/xlink" width="300" height="163.636364" viewBox="-13.636364 -150 300 163.636364">
<defs>
<style type="text/css">
.l0d1 {fill:none;stroke:black;stroke-dasharray:8,8;}
.l0d0 {stroke: #F38400; fill: #F38400; fill-opacity: 0.5;}
.l3t2 {stroke:red;fill:none;font-size:32px;}
</style>
</defs>
<rect x="-13.636364" y="-150" width="300" height="163.636364" fill="none" stroke="none"/>
<g id="contour" transform="scale(1 -1)">
<polygon id="0x5630594aed20" class="l0d0" points="0.135725,93.41446 1.073729,93.934435 3.221188,95.181569 4.294918,95.830681 6.442377,97.178125 7.516106,97.888868 8.82733,98.783107 9.663565,99.369837 10.737294,100.156683 11.811024,100.980377 13.100266,102.004295 13.958482,102.718943 15.032212,103.656783 15.57748,104.151754 16.70797,105.225483 17.772961,106.299213 18.776248,107.372942 19.720893,108.446671 20.609336,109.520401 21.474588,110.631589 22.25243,111.66786 23.011599,112.741589 23.724394,113.815319 24.414224,114.889048 25.070208,115.962777 26.297611,118.110236 27.430086,120.257695 28.484088,122.405154 29.47181,124.552613 30.402819,126.700072 31.285061,128.84753 31.712669,129.92126 32.536462,132.068719 33.32697,134.216178 34.090745,136.363636 0,136.363636 0,93.339251"/>
<polygon id="0x5630594b44d0" class="l0d0" points="271.653543,68.567298 272.727273,68.181818 272.727273,111.212303 267.190014,114.889048 264.01525,117.036507 260.896603,119.183966 257.695061,121.44069 254.473873,123.770061 251.252684,126.165861 249.105225,127.803105 245.884037,130.331226 243.731963,132.068719 241.145875,134.216178 239.441661,135.667082 238.636528,136.363636 204.545455,136.363636 205.112414,130.994989 205.494237,127.773801 205.778903,125.626342 206.268854,122.405154 206.448152,121.331424 206.640538,120.257695 206.848337,119.183966 207.074366,118.110236 207.315983,117.036507 207.569286,115.962777 207.847796,114.889048 208.156748,113.815319 208.486649,112.741589 208.842172,111.66786 209.24261,110.59413 209.669567,109.520401 210.140929,108.446671 210.660498,107.372942 211.223813,106.299213 211.842355,105.225483 212.598425,104.045137 213.250988,103.078024 214.049423,102.004295 214.916925,100.930565 215.851052,99.856836 216.893343,98.735759 217.967072,97.654651 219.042121,96.635648 220.235208,95.561918 221.494375,94.488189 222.821232,93.41446 224.409449,92.199647 225.673852,91.267001 227.18876,90.193271 228.774413,89.119542 230.410233,88.045812 232.115322,86.972083 234.073014,85.783332 236.220472,84.526642 238.367931,83.317466 240.51539,82.151079 242.662849,81.023697 244.810308,79.932231 246.957767,78.87411 249.105225,77.847157 251.252684,76.849503 253.400143,75.879517 255.547602,74.93576 258.76879,73.565308 261.989979,72.247071 266.284896,70.562962 269.506084,69.351705 271.235662,68.718683"/>
<polygon id="0x5630597543f0" class="l0d0" points="1.073729,43.305021 4.294918,44.141094 7.863641,45.096636 11.811024,46.189809 16.105941,47.426775 19.32713,48.38337 22.613921,49.391553 25.996259,50.465283 30.064424,51.807971 33.285612,52.91182 35.484355,53.686471 38.654259,54.840686 41.875447,56.058177 44.054412,56.907659 47.244094,58.194912 49.391553,59.090468 52.612742,60.48291 54.7602,61.444761 56.907659,62.43554 59.055118,63.456869 61.202577,64.510486 63.350036,65.598281 65.497495,66.722322 67.644953,67.8849 69.792412,69.088569 71.939871,70.336192 74.58876,71.939871 76.292898,73.013601 78.382248,74.377634 79.546331,75.161059 81.099005,76.234789 82.677165,77.365347 84.056417,78.382248 85.465265,79.455977 86.972083,80.648813 88.142729,81.603436 89.417332,82.677165 90.646407,83.750895 91.830581,84.824624 92.970264,85.898354 94.065589,86.972083 95.116331,88.045812 96.121807,89.119542 97.080736,90.193271 97.991049,91.267001 98.849622,92.34073 99.66675,93.41446 100.434203,94.488189 101.141336,95.561918 101.798194,96.635648 102.404352,97.709377 102.944574,98.783107 103.440531,99.856836 103.872399,100.930565 104.244227,102.004295 104.575746,103.078024 104.845255,104.151754 105.059794,105.225483 105.225511,106.299213 105.359958,107.372942 105.451143,108.446671 105.504142,109.520401 105.52343,110.59413 105.512967,111.66786 105.476274,112.741589 105.416497,113.815319 105.336452,114.889048 105.132087,117.036507 105.013358,118.110236 104.743382,120.257695 104.439791,122.405154 102.272892,136.363636 68.181818,136.363636 66.217651,134.216178 64.193355,132.068719 62.109026,129.92126 59.964804,127.773801 57.761522,125.626342 54.7602,122.780924 52.612742,120.798327 50.465283,118.851099 47.22317,115.962777 39.727989,109.376135 37.482338,107.372942 36.294964,106.299213 35.126259,105.225483 33.978403,104.151754 32.853149,103.078024 31.751769,102.004295 30.67501,100.930565 29.623069,99.856836 28.595598,98.783107 27.591715,97.709377 26.610043,96.635648 25.64876,95.561918 23.622047,93.246671 20.117471,89.119542 15.559793,83.750895 13.679584,81.603436 12.719135,80.529707 11.742258,79.455977 10.737294,78.372296 9.663565,77.239827 8.589835,76.131893 7.516106,75.04913 6.442377,73.991879 5.368647,72.960264 4.279184,71.939871 3.100768,70.866142 1.888189,69.792412 0.639072,68.718683 0,68.181818 0,43.024386"/>
<polygon id="0x56305974ebb0" class="l0d0" points="0,0 272.727273,0 272.727273,25.151333 266.284896,26.16111 260.916249,27.084557 258.76879,27.474448 254.473873,28.306013 252.326414,28.748998 249.105225,29.445969 245.884037,30.199038 243.736578,30.726437 240.51539,31.578586 239.441661,31.879916 237.294202,32.510015 236.220472,32.839036 234.073014,33.536152 232.999284,33.901306 230.851825,34.680173 229.778096,35.093481 228.704366,35.528865 227.630637,35.977399 226.447706,36.5068 225.483178,36.952516 224.219245,37.58053 223.335719,38.039138 222.233079,38.654259 221.188261,39.267134 220.114531,39.948295 218.871866,40.801718 217.967072,41.471846 217.453904,41.875447 216.893343,42.336036 216.187608,42.949177 215.819613,43.285193 215.052582,44.022906 214.745884,44.334872 214.032402,45.096636 213.672155,45.506126 213.113661,46.170365 212.598425,46.827449 212.285278,47.244094 211.524696,48.337342 210.852416,49.391553 210.232252,50.465283 209.664065,51.539012 209.143696,52.612742 208.664064,53.686471 208.223557,54.7602 207.812003,55.83393 207.432311,56.907659 207.077487,57.981389 206.744245,59.055118 206.4328,60.128848 206.139944,61.202577 205.860849,62.276306 205.596934,63.350036 205.346064,64.423765 204.875524,66.571224 204.439053,68.718683 203.828444,71.939871 202.282461,80.529707 201.658471,83.750895 201.208866,85.898354 200.965432,86.972083 200.447149,89.119542 200.165182,90.193271 199.860063,91.267001 199.539496,92.34073 199.200691,93.41446 198.828736,94.488189 198.434202,95.561918 198.014485,96.635648 197.07211,98.783107 195.993401,100.930565 194.774665,103.078024 194.345025,103.759947 194.111075,104.151754 193.417355,105.225483 193.271296,105.435559 192.704238,106.299213 192.197566,107.011203 191.954087,107.372942 190.398506,109.520401 190.050107,109.970698 189.594223,110.59413 188.976378,111.389261 188.771324,111.66786 187.107981,113.815319 186.828919,114.159784 186.26878,114.889048 185.75519,115.528068 185.423037,115.962777 183.607731,118.261512 182.893484,119.183966 182.534001,119.633428 182.056677,120.257695 181.460272,121.015755 179.312813,123.820098 177.163074,126.700072 176.091625,128.166882 174.836694,129.92126 173.944166,131.187386 172.598234,133.142448 170.454381,136.363636 136.363636,136.363636 135.044492,133.142448 134.135693,130.994989 133.142448,128.702917 132.068719,126.279715 129.822018,121.331424 129.327243,120.257695 128.845915,119.183966 128.351177,118.110236 127.773801,116.799647 127.391837,115.962777 126.925051,114.889048 126.700072,114.342609 126.464958,113.815319 126.015125,112.741589 125.167368,110.59413 124.778116,109.520401 124.552613,108.835583 124.412003,108.446671 124.064743,107.372942 123.758912,106.299213 123.478883,105.150011 123.250653,104.151754 123.052067,103.078024 122.899958,102.004295 122.793841,100.930565 122.73322,99.856836 122.717591,98.783107 122.746435,97.709377 122.81922,96.635648 122.935397,95.561918 123.0944,94.488189 123.295642,93.41446 123.534509,92.34073 123.799973,91.267001 124.104313,90.193271 124.447086,89.119542 124.813306,88.045812 125.210467,86.972083 125.643128,85.898354 126.092415,84.824624 126.576718,83.750895 127.08165,82.677165 127.616108,81.603436 128.172229,80.529707 128.84753,79.29659 129.361525,78.382248 129.994902,77.308518 130.64898,76.234789 131.329318,75.161059 132.068719,74.037905 132.763674,73.013601 133.518555,71.939871 134.299257,70.866142 135.289907,69.55152 136.363636,68.181818 137.68316,66.571224 138.597258,65.497495 139.584825,64.372947 140.658554,63.189403 141.732283,62.043795 142.806013,60.933414 143.879742,59.855812 144.953472,58.808791 146.027201,57.790382 147.100931,56.798832 148.17466,55.83259 149.397337,54.7602 150.322119,53.962581 151.395848,53.058739 152.469578,52.174292 153.543307,51.308367 155.690766,49.620504 156.764495,48.795482 157.838225,47.984731 159.985684,46.394051 161.059413,45.608958 161.779252,45.096636 162.133142,44.834161 164.280601,43.295183 164.778741,42.949177 165.354331,42.529675 167.792023,40.801718 168.575519,40.230116 169.287363,39.727989 170.759471,38.654259 172.211041,37.58053 172.870437,37.070608 173.621336,36.5068 175.017895,35.403976 176.297646,34.359341 177.550708,33.285612 178.73709,32.211883 179.853659,31.138153 180.89846,30.064424 181.870688,28.990694 182.770628,27.916965 183.607731,26.831771 184.366282,25.769506 185.067154,24.695777 185.75519,23.53038 186.293435,22.548318 186.828919,21.46581 187.312567,20.400859 187.753371,19.32713 188.154732,18.2534 188.51861,17.179671 188.847109,16.105941 189.144519,15.032212 189.412707,13.958482 189.653197,12.884753 189.86812,11.811024 190.059322,10.737294 190.228718,9.663565 190.376994,8.589835 190.505331,7.516106 190.614719,6.442377 190.705978,5.368647 190.779777,4.294918 190.836646,3.221188 190.876986,2.147459 190.901078,1.073729 190.050107,0 1.073729,0"/>
<polygon id="0x5630595af330" class="l0d1" points="0,0 272.727273,0 272.727273,136.363636 0,136.363636"/>
</g>
</svg>