<?xml version="1.0" encoding="UTF-8"?>
<svg xmlns="http://www.w3.org/2000/svg" xmlns:xlink="http://www.w3.org/1999/xlink" width="300" height="163.636364" viewBox="-13.636364 -150 300 163.636364">
<defs>
<style type="text/css">
.l0d1 {fill:none;stroke:black;stroke-dasharray:8,8;}
.l0d0 {stroke: #F38400; fill: #F38400; fill-opacity: 0.5;}
</style>
</defs>
<rect x="-13.636364" y="-150" width="300" height="163.636364" fill="none" stroke="none"/>
<g id="contour" transform="scale(1 -1)">
<polygon id="0x557310714cb0" class="l0d0" points="0.418654,111.66786 1.073729,112.352035 1.432594,112.741589 2.147459,113.487985 2.449307,113.815319 7.52547,119.183966 9.663565,121.480616 11.811024,123.81579 13.958482,126.185925 17.266375,129.92126 19.32713,132.308184 21.839388,135.289907 22.727638,136.363636 0,136.363636 0,111.212303"/>
<polygon id="0x5573106f0600" class="l0d0" points="272.727273,68.181818 272.727273,93.339251 271.544241,94.488189 270.47897,95.561918 269.452348,96.635648 268.432355,97.743039 267.500396,98.783107 266.577489,99.856836 265.696239,100.930565 265.211167,101.562862 264.860842,102.004295 263.305712,104.151754 262.574732,105.225483 261.233821,107.372942 260.609135,108.446671 260.019526,109.520401 259.44281,110.59413 258.377848,112.741589 257.397399,114.889048 256.932895,115.962777 256.046476,118.110236 255.216423,120.257695 254.817796,121.331424 254.047833,123.478883 252.956955,126.700072 251.926663,129.92126 250.944365,133.142448 249.999634,136.363636 227.272435,136.363636 228.816541,134.216178 230.851825,131.446315 232.999284,128.594042 236.220472,124.428306 237.294202,123.065851 237.82627,122.405154 238.367931,121.712791 238.679541,121.331424 240.51539,119.029658 241.265875,118.110236 241.58912,117.69866 242.13557,117.036507 242.662849,116.369402 243.001994,115.962777 244.810308,113.706633 245.598062,112.741589 245.884037,112.372204 246.461485,111.66786 246.957767,111.026235 247.31304,110.59413 249.818347,107.372942 250.178955,106.880346 250.631381,106.299213 251.252684,105.439066 251.417271,105.225483 252.967121,103.078024 253.400143,102.43405 253.706753,102.004295 254.473873,100.840586 255.136604,99.856836 255.547602,99.195843 255.818179,98.783107 257.14029,96.635648 257.760307,95.561918 258.393181,94.488189 259.594488,92.34073 260.184986,91.267001 261.339195,89.119542 261.989979,87.872523 262.472678,86.972083 263.063708,85.825314 263.59593,84.824624 264.147731,83.750895 264.717653,82.677165 265.274622,81.603436 267.56006,77.308518 269.506084,73.757582 270.579814,71.853539 271.772438,69.792412 272.406482,68.718683"/>
<polygon id="0x55731072b2f0" class="l0d0" points="1.073729,25.761197 2.147459,26.368301 4.294918,27.648597 5.368647,28.31233 7.516106,29.703437 8.589835,30.433289 9.663565,31.19633 11.052981,32.211883 11.811024,32.789632 12.884753,33.643902 13.958482,34.541022 15.032212,35.484213 16.139569,36.5068 17.238154,37.58053 18.269881,38.654259 19.32713,39.820199 20.170012,40.801718 21.040725,41.875447 21.860373,42.949177 22.630182,44.022906 23.372744,45.096636 24.077797,46.170365 24.739252,47.244094 25.386591,48.317824 25.997659,49.391553 26.586519,50.465283 27.153686,51.539012 28.226193,53.686471 29.228883,55.83393 29.708913,56.907659 30.628372,59.055118 31.500758,61.202577 32.332677,63.350036 33.520946,66.571224 34.647783,69.792412 35.72798,73.013601 37.803621,79.455977 39.168279,83.750895 40.216928,86.972083 41.313781,90.193271 42.093962,92.34073 42.492643,93.41446 42.949177,94.542622 43.344487,95.561918 43.798927,96.635648 44.022906,97.13077 44.266365,97.709377 44.749317,98.783107 45.096636,99.488444 45.264587,99.856836 45.784107,100.930565 46.170365,101.653839 46.342895,102.004295 46.906532,103.078024 47.244094,103.663971 47.502111,104.151754 48.11632,105.225483 48.317824,105.551871 48.739961,106.299213 49.406903,107.372942 50.051114,108.446671 50.465283,109.077992 50.732417,109.520401 51.539012,110.756665 52.113695,111.66786 52.612742,112.402294 52.826418,112.741589 53.686471,114.023375 54.24865,114.889048 54.7602,115.630366 54.974442,115.962777 55.83393,117.229265 56.41315,118.110236 56.907659,118.826696 57.981389,120.426494 58.576124,121.331424 59.055118,122.033381 60.128848,123.650098 60.71617,124.552613 62.276306,126.925658 64.423765,130.273784 66.87907,134.216178 68.181818,136.363636 45.454838,136.363636 44.472845,130.994989 43.623947,126.700072 43.168213,124.552613 42.441092,121.331424 42.180169,120.257695 41.630749,118.110236 41.345064,117.036507 41.038031,115.962777 40.392983,113.815319 40.042385,112.741589 39.288061,110.59413 38.870563,109.520401 38.654259,109.005505 38.433627,108.446671 37.976362,107.372942 36.960562,105.225483 35.810415,103.078024 35.433071,102.452827 35.178255,102.004295 34.509308,100.930565 34.359341,100.708082 33.819325,99.856836 33.285612,99.100272 33.073282,98.783107 31.494184,96.635648 31.138153,96.194329 30.650801,95.561918 30.064424,94.858078 29.76827,94.488189 28.851148,93.41446 27.902707,92.34073 26.843236,91.171001 25.937028,90.193271 24.909348,89.119542 23.853592,88.045812 21.662256,85.898354 20.400859,84.708006 19.32713,83.713416 18.18898,82.677165 16.987762,81.603436 15.762382,80.529707 13.238709,78.382248 11.811024,77.203526 9.281528,75.161059 7.516106,73.776035 5.118697,71.939871 3.221188,70.522017 0.748731,68.718683 0,68.181818 0,25.151333"/>
<polygon id="0x5573106b0db0" class="l0d0" points="270.579814,0.775415 272.727273,0 272.727273,43.024386 266.284896,47.314293 263.063708,49.505569 259.84252,51.74108 256.621331,54.029547 253.400143,56.379218 251.252684,57.982111 248.031496,60.455251 245.725232,62.276306 242.662849,64.766955 240.510475,66.571224 238.02103,68.718683 235.6087,70.866142 232.999284,73.272192 230.851825,75.321654 228.704366,77.441208 226.556908,79.639017 224.701762,81.603436 223.717259,82.677165 222.753318,83.750895 221.810942,84.824624 220.891571,85.898354 219.997238,86.972083 218.262984,89.119542 217.967072,89.511703 217.430826,90.193271 216.893343,90.925952 216.630542,91.267001 215.100961,93.41446 214.745884,93.958808 214.378927,94.488189 213.026471,96.635648 212.598425,97.393442 212.405854,97.709377 211.808241,98.783107 211.524696,99.348236 211.247945,99.856836 210.723209,100.930565 210.450966,101.551654 210.234533,102.004295 209.772315,103.078024 208.958886,105.225483 208.603455,106.299213 207.969465,108.446671 207.68995,109.520401 207.442524,110.59413 206.992718,112.741589 206.790529,113.815319 206.608542,114.889048 206.443197,115.962777 206.291687,117.036507 206.008803,119.183966 205.756622,121.331424 205.537637,123.478883 205.252002,126.700072 204.838151,132.068719 204.545455,136.363636 181.818474,136.363636 183.607731,132.764041 184.68146,130.656764 185.75519,128.582744 186.828919,126.537094 187.319054,125.626342 187.902649,124.514718 188.4657,123.478883 189.03472,122.405154 189.620581,121.331424 190.050107,120.514385 190.778732,119.183966 191.123837,118.522591 191.355939,118.110236 191.933924,117.036507 192.197566,116.524076 192.511118,115.962777 193.078477,114.889048 193.271296,114.505961 193.651129,113.815319 194.345025,112.450635 194.764857,111.66786 195.418754,110.333084 195.83902,109.520401 196.346424,108.446671 196.492484,108.116349 196.858097,107.372942 197.337644,106.299213 197.566213,105.743421 197.804404,105.225483 198.254133,104.151754 198.658388,103.078024 199.078492,102.004295 199.449614,100.930565 199.713672,100.084082 200.13683,98.783107 200.441519,97.709377 200.986569,95.561918 201.238903,94.488189 201.465837,93.41446 201.672047,92.34073 202.055075,90.193271 202.232141,89.119542 202.395382,88.045812 202.689507,85.898354 203.082989,82.677165 203.438386,79.455977 204.819171,65.497495 205.297778,61.202577 205.562709,59.055118 205.855056,56.907659 206.183496,54.7602 206.356996,53.686471 206.542574,52.612742 206.742348,51.539012 206.958873,50.465283 207.439765,48.317824 207.705092,47.244094 207.998089,46.170365 208.32302,45.096636 208.659375,44.022906 209.036157,42.949177 209.455504,41.875447 209.897485,40.801718 210.450966,39.630413 210.932259,38.654259 211.536554,37.58053 212.170885,36.5068 212.878353,35.433071 213.672155,34.335585 214.474394,33.285612 215.367162,32.211883 216.329412,31.138153 217.359557,30.064424 218.456875,28.990694 219.621376,27.916965 220.853725,26.843236 222.26199,25.685541 223.514068,24.695777 224.93431,23.622047 226.556908,22.457892 227.972008,21.474588 229.778096,20.276325 231.254124,19.32713 232.999284,18.249496 235.146743,16.966889 237.294202,15.734618 239.441661,14.547361 241.58912,13.400901 243.736578,12.291828 245.884037,11.217328 248.031496,10.175042 250.178955,9.162957 252.326414,8.179327 254.473873,7.222625 257.695061,5.834331 259.84252,4.938434 263.063708,3.636423 267.358626,1.972764 269.767412,1.073729"/>
<polygon id="0x55731037fb00" class="l0d0" points="136.363636,0 204.545455,0 203.927214,3.221188 202.381836,11.811024 201.764796,15.032212 201.325456,17.179671 201.088975,18.2534 200.580754,20.400859 200.308785,21.474588 200.015806,22.548318 199.373839,24.695777 199.019281,25.769506 198.229708,27.916965 197.787377,28.990694 197.316684,30.064424 196.813638,31.138153 196.492484,31.761897 196.271717,32.211883 195.698973,33.285612 195.418754,33.766207 195.09052,34.359341 193.773638,36.5068 193.271296,37.253126 193.062685,37.58053 192.326776,38.654259 191.575864,39.727989 191.123837,40.334533 190.794701,40.801718 189.182309,42.949177 188.976378,43.207591 188.362249,44.022906 187.902649,44.600278 187.528271,45.096636 185.000595,48.317824 184.68146,48.711765 184.157348,49.391553 183.607731,50.078828 183.312729,50.465283 181.460272,52.834285 180.386543,54.22824 178.239084,57.06647 175.989464,60.128848 175.017895,61.481477 173.705977,63.350036 172.870437,64.559844 171.514176,66.571224 170.106765,68.718683 168.575519,71.13768 167.426228,73.013601 166.152845,75.161059 164.92742,77.308518 163.751698,79.455977 162.627734,81.603436 161.558301,83.750895 160.547509,85.898354 159.601738,88.045812 159.157815,89.119542 158.911954,89.759804 158.731212,90.193271 158.31666,91.267001 157.939529,92.34073 157.838225,92.654414 157.567294,93.41446 157.222068,94.488189 156.914858,95.561918 156.764495,96.150924 156.625082,96.635648 156.352778,97.709377 156.118831,98.783107 155.920776,99.856836 155.756303,100.930565 155.611342,102.004295 155.490109,103.078024 155.401774,104.151754 155.343844,105.225483 155.313988,106.299213 155.310025,107.372942 155.329906,108.446671 155.371702,109.520401 155.433595,110.59413 155.513868,111.66786 155.610895,112.741589 155.830636,114.889048 156.086942,117.036507 156.380927,119.183966 157.196787,124.552613 159.091275,136.363636 136.363636,136.363636 137.531985,132.068719 138.511095,128.553576 140.258178,122.405154 140.658554,120.938645 141.15831,119.183966 141.448376,118.110236 141.732283,117.012062 142.020166,115.962777 142.298843,114.889048 142.560977,113.815319 142.806013,112.741329 143.064814,111.66786 143.301874,110.59413 143.516699,109.520401 143.708902,108.446671 144.048415,106.299213 144.190637,105.225483 144.304527,104.151754 144.390124,103.078024 144.447517,102.004295 144.476839,100.930565 144.47827,99.856836 144.452036,98.783107 144.398408,97.709377 144.317704,96.635648 144.210286,95.561918 144.076561,94.488189 143.749262,92.34073 143.563269,91.267001 143.354977,90.193271 143.124819,89.119542 142.618583,86.972083 142.350478,85.898354 142.063541,84.824624 141.454513,82.677165 141.135759,81.603436 140.460492,79.455977 140.112337,78.382248 139.381664,76.234789 139.006184,75.161059 138.226347,73.013601 137.415739,70.866142 136.147714,67.644953 135.269227,65.497495 134.216178,62.997833 132.9673,60.128848 132.014241,57.981389 130.994989,55.718225 129.92126,53.357662 129.084862,51.539012 128.84753,50.999874 128.596371,50.465283 128.110471,49.391553 127.773801,48.617094 127.155517,47.244094 126.236433,45.096636 125.801131,44.022906 125.626342,43.559628 125.375186,42.949177 124.968325,41.875447 124.233199,39.727989 123.906645,38.654259 123.621547,37.58053 123.478883,36.951885 123.367525,36.5068 123.14552,35.433071 122.970233,34.359341 122.841181,33.285612 122.757875,32.211883 122.719814,31.138153 122.726487,30.064424 122.777369,28.990694 122.87192,27.916965 123.009582,26.843236 123.189779,25.769506 123.411915,24.695777 123.662355,23.622047 123.94731,22.548318 124.270925,21.474588 124.628451,20.400859 125.007327,19.32713 125.422675,18.2534 125.863371,17.179671 126.330214,16.105941 126.827151,15.032212 127.344653,13.958482 127.89236,12.884753 128.460379,11.811024 129.056182,10.737294 129.674938,9.663565 130.317984,8.589835 130.994989,7.504993 131.67845,6.442377 132.395879,5.368647 133.142448,4.290006 134.216178,2.798083 134.698581,2.147459 135.517959,1.073729"/>
<polygon id="0x557310722650" class="l0d0" points="0,0 68.181818,0 70.084695,1.073729 71.939871,2.154347 74.08733,3.44924 75.447804,4.294918 77.308518,5.488121 78.753171,6.442377 80.529707,7.656662 81.855776,8.589835 83.335055,9.663565 84.824624,10.783858 86.151493,11.811024 87.492388,12.884753 88.786716,13.958482 90.193271,15.173378 91.267001,16.131708 92.401579,17.179671 93.519775,18.2534 94.592528,19.32713 95.619113,20.400859 96.635648,21.515785 97.538906,22.548318 98.429819,23.622047 99.270031,24.695777 100.055105,25.769506 100.790501,26.843236 101.480751,27.916965 102.103033,28.990694 102.684467,30.064424 103.196212,31.138153 103.665555,32.211883 104.062102,33.285612 104.418217,34.359341 104.717789,35.433071 104.958993,36.5068 105.148401,37.58053 105.298486,38.654259 105.410626,39.727989 105.482123,40.801718 105.517741,41.875447 105.521688,42.949177 105.497695,44.022906 105.449088,45.096636 105.378843,46.170365 105.289632,47.244094 105.074244,49.391553 104.814461,51.539012 104.518257,53.686471 103.531014,60.128848 102.353931,67.644953 101.725155,71.939871 101.290591,75.161059 100.901584,78.382248 100.664112,80.529707 100.455383,82.677165 100.28023,84.824624 100.144018,86.972083 100.092387,88.045812 100.052855,89.119542 100.026348,90.193271 100.013883,91.267001 100.016576,92.34073 100.03567,93.41446 100.07255,94.488189 100.128775,95.561918 100.206107,96.635648 100.306556,97.709377 100.432428,98.783107 100.58639,99.856836 100.771545,100.930565 101.19851,103.078024 101.446613,104.151754 101.729642,105.225483 102.350529,107.372942 102.690456,108.446671 103.078024,109.549414 103.424735,110.59413 103.81199,111.66786 104.151754,112.53851 104.618333,113.815319 105.041786,114.889048 105.225483,115.329152 105.463972,115.962777 105.888745,117.036507 106.333381,118.110236 106.758196,119.183966 107.372942,120.658322 108.077177,122.405154 108.523737,123.478883 109.520401,125.915002 111.66786,131.269907 113.227946,135.289907 113.635998,136.363636 90.908799,136.363636 91.368563,125.626342 91.471857,122.405154 91.518613,120.257695 91.540422,118.110236 91.529138,115.962777 91.507882,114.889048 91.474107,113.815319 91.425899,112.741589 91.36101,111.66786 91.18373,109.520401 91.071304,108.446671 90.935112,107.372942 90.771486,106.299213 90.576011,105.225483 90.343318,104.151754 90.193271,103.554166 90.086649,103.078024 89.814039,102.004295 89.49708,100.930565 88.764096,98.783107 88.348869,97.709377 88.045812,97.013082 87.896762,96.635648 87.431641,95.561918 86.396157,93.41446 85.255186,91.267001 84.824624,90.52698 84.642809,90.193271 84.017224,89.119542 83.750895,88.693492 83.36888,88.045812 82.008187,85.898354 81.603436,85.298213 81.297239,84.824624 79.825463,82.677165 79.062779,81.603436 77.308518,79.225248 76.675676,78.382248 75.847089,77.308518 75.001361,76.234789 73.013601,73.781057 71.472514,71.939871 69.614497,69.792412 68.663068,68.718683 67.644953,67.587868 66.571224,66.415107 64.423765,64.12658 62.276306,61.907876 60.128848,59.752263 57.981389,57.653495 55.83393,55.605531 53.686471,53.602272 49.391553,49.707098 47.244094,47.800834 40.490761,41.875447 38.071194,39.727989 35.708005,37.58053 33.285612,35.302278 32.211883,34.26364 31.138153,33.202962 30.064424,32.118388 28.990694,31.008443 27.916965,29.872163 26.123452,27.916965 24.226791,25.769506 22.386791,23.622047 16.943871,17.179671 15.032212,14.957587 12.884753,12.535228 11.244203,10.737294 9.211657,8.589835 8.161879,7.516106 7.087162,6.442377 5.985545,5.368647 4.855024,4.294918 3.221188,2.793882 2.147459,1.83793 1.073729,0.906664"/>
<polygon id="0x55731071a630" class="l0d1" points="0,0 272.727273,0 272.727273,136.363636 0,136.363636"/>
</g>
</svg>