<?xml version="1.0" encoding="UTF-8"?>
<svg xmlns="http://www.w3.org/2000/svg" xmlns:xlink="http://www.w3.org/1999/xlink" width="300" height="221.004974" viewBox="-22.359483 -122.742595 300 221.004974">
<defs>
<style type="text/css">
.l0d0 {stroke: #F38400; fill: #F38400; fill-opacity: 0.5;}
</style>
</defs>
<rect x="-22.359483" y="-122.742595" width="300" height="221.004974" fill="none" stroke="none"/>
<g id="cubic_smooth" transform="scale(1 -1)">
<polygon id="0x55d800bb5f30" class="l0d0" points="-8.723119,0.322565 8.723119,-0.322565 9.051143,8.548163 9.957186,16.356167 11.389693,23.423097 13.31522,29.858399 14.378105,32.654179 15.569236,35.367631 16.843431,37.902972 18.192719,40.262347 19.609282,42.448218 21.085509,44.463356 22.614057,46.310835 24.187915,47.994009 25.80047,49.516476 27.44557,50.882026 29.117576,52.094575 30.811413,53.158082 32.522595,54.076453 34.247237,54.853438 35.982047,55.492518 37.724289,55.996788 39.471721,56.368859 41.222513,56.610755 42.97514,56.723842 44.728259,56.70877 46.480582,56.565452 48.230734,56.293065 49.977129,55.890083 51.717849,55.354335 53.450541,54.683087 55.172344,53.873142 56.879826,52.920946 58.568963,51.822703 60.235127,50.574483 61.873106,49.172331 63.477136,47.612352 65.040951,45.890797 66.557838,44.004122 68.020701,41.949035 69.42213,39.722532 70.754457,37.321915 72.009824,34.744797 73.180234,31.989104 74.221916,29.150316 76.095055,22.629261 77.468912,15.47522 78.310838,7.560136 78.56288,-0.177501 78.474179,-4.666142 78.555422,-9.505737 78.81233,-14.184937 79.240969,-18.709223 79.837969,-23.08374 80.600526,-27.313218 81.52638,-31.401886 82.613784,-35.353394 83.978679,-39.529405 87.105647,-46.610045 90.885098,-53.212862 95.265274,-59.246819 100.231784,-64.699892 105.767068,-69.553086 111.849636,-73.782785 118.453895,-77.362747 125.549981,-80.265356 133.102893,-82.462285 141.070621,-83.925042 149.401352,-84.626015 158.030403,-84.540437 166.877773,-83.64934 175.847359,-81.943117 184.828601,-79.424955 193.236909,-76.286372 197.827356,-74.354416 202.149416,-72.320402 206.386792,-70.107229 210.525669,-67.721814 214.553177,-65.171474 218.457498,-62.463764 222.507929,-59.394118 228.382786,-54.212856 234.793979,-47.533033 240.737583,-40.184924 246.117033,-32.264706 250.862863,-23.857283 254.662066,-15.60103 256.594974,-10.903922 258.237367,-6.386235 259.681279,-1.82677 260.922556,2.759947 261.957955,7.359854 262.785095,11.959554 263.40237,16.546455 263.808851,21.10888 264.004154,25.636102 263.988317,30.118345 263.761671,34.546718 263.324734,38.913114 262.678118,43.21008 261.822477,47.430651 260.758482,51.568198 259.486828,55.616261 258.008279,59.568418 256.323731,63.418179 254.434296,67.158916 252.341382,70.783847 250.046772,74.286055 247.552677,77.658558 244.861755,80.894401 241.977097,83.986776 238.902164,86.929145 235.640696,89.71535 232.196572,92.339707 228.573668,94.797063 224.77569,97.08282 220.167677,99.532234 211.85514,102.90586 202.740244,105.609494 193.014339,107.552972 182.942959,108.689682 175.145218,109.106232 174.018017,65.475386 180.292337,65.486116 187.32432,64.986315 193.475205,64.040268 198.892549,62.711052 204.584465,60.730455 206.376168,60.008059 208.424384,59.058688 210.348012,58.042231 212.156582,56.95965 213.85926,55.810481 215.464606,54.59285 216.980328,53.303533 218.413032,51.938094 219.768002,50.491073 221.049018,48.956245 222.258224,47.32692 223.396064,45.596271 224.461287,43.757692 225.451019,41.805141 226.360901,39.733471 227.185284,37.538736 227.917467,35.218447 228.549966,32.77179 229.074807,30.199781 229.483822,27.505382 229.768947,24.693547 229.92251,21.77123 229.93749,18.747323 229.807765,15.632551 229.528314,12.439313 229.095384,9.181472 228.506615,5.874098 227.761112,2.533186 226.859465,-0.824671 225.939329,-3.751295 223.196444,-10.451208 219.959119,-16.806044 216.240945,-22.822749 212.109167,-28.414415 207.568978,-33.588221 203.185482,-37.886529 200.731906,-40.106105 197.997784,-42.37436 195.13814,-44.54882 192.163241,-46.619467 189.084792,-48.576623 185.915782,-50.411155 183.012213,-51.935213 176.205689,-54.813565 169.412693,-57.041495 162.660323,-58.641412 156.060044,-59.61545 149.70479,-59.98328 143.664925,-59.7774 137.986949,-59.037327 132.694594,-57.803424 127.791837,-56.110892 123.267489,-53.984442 119.101002,-51.434159 115.269086,-48.45313 111.752417,-45.017266 108.541519,-41.087426 105.640888,-36.613333 102.865068,-31.132106 101.730586,-28.574574 100.607232,-25.654021 99.584115,-22.548599 98.668867,-19.251668 97.86965,-15.75693 97.195061,-12.058435 96.654038,-8.150567 96.255787,-4.028022 96.02046,0.124607 95.738874,8.769253 94.751759,18.049279 93.091699,26.69366 90.828022,34.574314 89.419586,38.412577 87.902399,41.984746 86.245436,45.386292 84.453448,48.615136 82.531327,51.668883 80.484156,54.544828 78.317272,57.239958 76.036332,59.750974 73.647374,62.074323 71.156887,64.206245 68.57186,66.142838 65.899836,67.880134 63.148947,69.414197 60.327923,70.741222 57.446097,71.857646 54.513364,72.760265 51.540136,73.446341 48.537257,73.913697 45.515903,74.160805 42.487466,74.186841 39.463418,73.991718 36.455182,73.576088 33.473995,72.94132 30.530789,72.089446 27.636085,71.023078 24.799906,69.745323 22.031718,68.259669 19.340396,66.569873 16.734211,64.679853 14.220839,62.593575 11.807398,60.314965 9.500488,57.847823 7.306248,55.195754 5.230417,52.362122 3.278403,49.350007 1.455343,46.16219 -0.233833,42.801136 -1.784345,39.268999 -3.22863,35.469999 -5.563018,27.668239 -7.299566,19.101401 -8.369741,9.878954"/>
</g>
</svg>