<?xml version="1.0" encoding="UTF-8"?>
<svg xmlns="http://www.w3.org/2000/svg" xmlns:xlink="http://www.w3.org/1999/xlink" width="300" height="231.786297" viewBox="-13.636364 -81.803779 300 231.786297">
<defs>
<style type="text/css">
.l0d0 {stroke: #F38400; fill: #F38400; fill-opacity: 0.5;}
</style>
</defs>
<rect x="-13.636364" y="-81.803779" width="300" height="231.786297" fill="none" stroke="none"/>
<g id="cubic" transform="scale(1 -1)">
<polygon id="0x56358e283610" class="l0d0" points="0,0 5.265017,-10.326751 10.448417,-20.096258 15.550885,-29.328351 20.573166,-38.04246 25.516062,-46.257615 30.380447,-53.992436 35.167267,-61.265132 39.877549,-68.093492 44.512405,-74.494879 49.073044,-80.486221 53.560776,-86.084003 57.977024,-91.304256 62.323328,-96.162543 66.601357,-100.673949 70.812922,-104.853064 74.959977,-108.713967 79.044635,-112.270205 83.069178,-115.534775 87.036058,-118.520096 90.947914,-121.237992 94.807572,-123.699656 98.618056,-125.915625 102.382584,-127.895749 106.104574,-129.649157 109.787641,-131.184224 113.435587,-132.508536 117.052399,-133.628861 120.64223,-134.551111 124.209385,-135.280314 127.758299,-135.82059 131.293515,-136.175125 134.819655,-136.346155 138.341391,-136.334952 145.385442,-135.766755 152.458618,-134.463948 159.597251,-132.405097 166.835797,-129.554251 174.206206,-125.861862 181.737533,-121.26584 189.455759,-115.692631 197.383814,-109.058248 205.541722,-101.269181 213.946834,-92.223184 222.614106,-81.809917 231.556379,-69.911476 240.784661,-56.402801 250.308382,-41.152 260.135622,-24.020603 270.273316,-4.863753 272.727273,0 271.055868,5.257713 269.266188,10.295669 267.36423,15.114007 265.356036,19.713028 263.247672,24.093209 261.045216,28.255209 258.754738,32.199881 256.382278,35.928275 253.933822,39.441642 251.415281,42.741433 248.832458,45.829292 246.191027,48.707046 243.496505,51.376691 240.754223,53.84037 237.969301,56.100348 235.146632,58.158975 232.290857,60.018656 229.406353,61.681804 226.497227,63.150795 223.567313,64.427925 220.620179,65.515352 217.659136,66.415058 214.687264,67.128794 211.707434,67.658039 208.722348,68.003968 205.734576,68.167415 202.746602,68.148855 196.781523,67.566017 190.848278,66.2528 184.968028,64.200987 179.164641,61.397514 173.465671,57.825718 167.902876,53.466832 162.512294,48.301498 157.333923,42.311134 152.411104,35.479036 147.789732,27.791147 143.517415,19.23649 139.642656,9.807301 136.363636,0 133.593276,-2.266777 129.659832,-4.52968 124.326371,-6.746874 117.370249,-8.842986 108.631014,-10.712708 98.075142,-12.2266 85.872525,-13.243661 72.45825,-13.63495 58.52842,-13.316956 51.670547,-12.889014 45.021775,-12.291939 38.670323,-11.539022 32.68762,-10.646785 27.126417,-9.633726 22.020893,-8.519138 17.388239,-7.322111 13.23112,-6.060775 9.540489,-4.751779 6.298375,-3.40995 3.480424,-2.048093"/>
</g>
</svg>