<?xml version="1.0" encoding="UTF-8"?>
<svg xmlns="http://www.w3.org/2000/svg" xmlns:xlink="http://www.w3.org/1999/xlink" width="300" height="280.349392" viewBox="-37.269609 -262.730397 300 280.349392">
<defs>
<style type="text/css">
.l0d0 {stroke: #F38400; fill: #F38400; fill-opacity: 0.5;}
</style>
</defs>
<rect x="-37.269609" y="-262.730397" width="300" height="280.349392" fill="none" stroke="none"/>
<g id="cubic" transform="scale(1 -1)">
<polygon id="0x55585d282b00" class="l0d0" points="9.968575,2.091419 13.31999,8.404016 16.430043,14.93782 19.301251,21.676372 21.935851,28.603487 24.335799,35.70318 26.50279,42.959603 28.438274,50.356996 30.143477,57.879656 31.619431,65.511912 32.866983,73.238109 33.886822,81.042598 34.679492,88.909727 35.2454,96.823842 35.584832,104.769286 35.697958,112.730394 35.584832,120.691502 35.2454,128.636946 34.679492,136.551061 33.886822,144.41819 32.866983,152.222679 31.619431,159.948876 30.143477,167.581132 28.438274,175.103792 26.50279,182.501185 24.335799,189.757608 21.935851,196.857301 19.846741,202.414306 17.606431,207.852656 24.423997,205.077994 31.422016,202.537423 38.586263,200.230797 45.90093,198.15652 53.350285,196.313234 60.918638,194.699794 68.590328,193.315245 76.349702,192.158802 84.181111,191.229839 92.068903,190.527868 99.997422,190.052528 107.951008,189.803583 115.913995,189.78091 123.87072,189.984496 131.805519,190.414444 139.702728,191.070967 147.546693,191.954398 155.321759,193.065201 163.012277,194.403973 170.602598,195.971465 178.077059,197.768597 185.419981,199.796474 192.615641,202.056411 199.648249,204.549952 207.852656,207.854357 205.077994,201.036791 202.537423,194.038772 200.230797,186.874525 198.15652,179.559858 196.313234,172.110503 194.699794,164.54215 193.315245,156.87046 192.158802,149.111086 191.229839,141.279677 190.527868,133.391884 190.052528,125.463366 189.803583,117.50978 189.78091,109.546793 189.984496,101.590067 190.414444,93.655269 191.070967,85.75806 191.954398,77.914095 193.065201,70.139029 194.403973,62.448511 195.971465,54.85819 197.768597,47.383729 199.796474,40.040807 202.056411,32.845147 204.549952,25.812539 207.278894,18.958882 210.245304,12.30023 213.451532,5.852867 216.19132,0.857582 219.087463,-3.982631 231.834113,3.982631 228.761467,9.15995 225.865994,14.569642 223.011171,20.50187 220.357617,26.660372 217.907596,33.028331 215.663092,39.588721 213.625825,46.324378 211.797268,53.21804 210.178671,60.252389 208.771081,67.410072 207.575365,74.673718 206.592228,82.025951 205.822225,89.449395 205.265779,96.926676 204.923187,104.440427 204.794629,111.973284 204.880173,119.507885 205.179773,127.026868 205.693273,134.512871 206.4204,141.948526 207.360756,149.316461 208.513813,156.5993 209.878899,163.779667 211.45518,170.840189 213.241646,177.763509 215.237092,184.532299 217.440089,191.129284 219.848969,197.537277 222.461804,203.73922 225.276384,209.718247 228.290221,215.457759 231.500554,220.941525 235.002734,226.547949 249.094028,249.094033 233.316921,239.233341 222.043881,232.187691 216.580564,228.919539 210.891146,225.865994 204.958918,223.011171 198.800416,220.357617 192.432457,217.907596 185.872067,215.663092 179.13641,213.625825 172.242748,211.797268 165.208399,210.178671 158.050716,208.771081 150.78707,207.575365 143.434837,206.592228 136.011393,205.822225 128.534112,205.265779 121.020361,204.923187 113.487504,204.794629 105.952903,204.880173 98.433919,205.179773 90.947917,205.693273 83.512262,206.4204 76.144327,207.360756 68.861488,208.513813 61.681121,209.878899 54.620599,211.45518 47.697279,213.241646 40.928489,215.237092 34.331504,217.440089 27.923511,219.848969 21.721568,222.461804 15.742541,225.276384 10.003029,228.290221 4.519263,231.500554 -1.087161,235.002734 -23.633245,249.094028 -13.418662,232.750695 -6.373325,221.478157 -3.143102,216.02046 -0.109397,210.305913 2.725317,204.350203 5.358523,198.169895 7.787984,191.781833 10.011743,185.203058 12.028106,178.450748 13.835624,171.54217 15.433069,164.494647 16.81941,157.325534 17.9938,150.052203 18.95555,142.692032 19.704116,135.262395 20.239091,127.780665 20.560188,120.264211 20.667239,112.730394 20.560188,105.196577 20.239091,97.680123 19.704116,90.198393 18.95555,82.768756 17.9938,75.408585 16.81941,68.135254 15.433069,60.966141 13.835624,53.918618 12.028106,47.01004 10.011743,40.25773 7.787984,33.678955 5.358523,27.290893 2.725317,21.110585 -0.109397,15.154875 -3.143102,9.440327 -6.373325,3.982631 6.373325,-3.982631"/>
</g>
</svg>