<?xml version="1.0" encoding="UTF-8"?>
<svg xmlns="http://www.w3.org/2000/svg" xmlns:xlink="http://www.w3.org/1999/xlink" width="300.001162" height="300.012782" viewBox="-13.636945 -286.375837 300.001162 300.012782">
<defs>
<style type="text/css">
.l0d0 {stroke: #F38400; fill: #F38400; fill-opacity: 0.5;}
</style>
</defs>
<rect x="-13.636945" y="-286.375837" width="300.001162" height="300.012782" fill="none" stroke="none"/>
<g id="cubic_smooth" transform="scale(1 -1)">
<polygon id="0x56358e283610" class="l0d0" points="0,0 17.432437,0.226065 34.391349,0.896106 50.853803,1.996969 66.797554,3.514253 82.20131,5.432308 97.045018,7.734265 111.310148,10.402087 124.979976,13.41665 138.039864,16.757862 150.477513,20.404808 162.28318,24.335929 173.449865,28.529231 183.973433,32.962518 193.852684,37.613646 203.08935,42.460794 211.688022,47.482738 219.656001,52.659134 227.003081,57.970781 233.741256,63.399878 239.884364,68.930256 245.447683,74.547576 250.447466,80.23949 254.900458,85.995765 258.823377,91.808347 262.232397,97.671379 265.142628,103.581163 267.567626,109.536058 269.518939,115.536322 271.005698,121.583909 272.034287,127.682201 272.60808,133.835726 272.727273,140.049825 271.587628,152.67503 268.559723,165.591443 263.540624,178.841562 256.385121,192.455048 246.914752,206.443779 234.927448,220.799418 228.014617,228.014617 220.589271,235.119785 213.251661,241.519908 206.007478,247.242832 198.861163,252.316044 191.81585,256.766422 184.873349,260.619955 178.034136,263.901447 171.297384,266.634205 164.661026,268.839727 158.121857,270.537382 151.675682,271.744117 145.317503,272.47418 139.041752,272.738893 126.718717,271.902584 114.678138,269.26935 102.882533,264.825216 91.312483,258.510285 79.974534,250.228236 68.906277,239.859198 58.178286,227.274405 47.893037,212.351143 38.181193,194.986638 29.195772,175.109715 21.104823,152.689247 14.083336,127.738709 8.305222,100.316581 3.936135,70.522934 1.127794,38.493003 0.014141,4.388891"/>
</g>
</svg>