<?xml version="1.0" encoding="UTF-8"?>
<svg xmlns="http://www.w3.org/2000/svg" xmlns:xlink="http://www.w3.org/1999/xlink" width="300" height="228.096982" viewBox="-16.589744 -80.341492 300 228.096982">
<defs>
<style type="text/css">
.l0d1 {fill:none;stroke:black;stroke-dasharray:8,8;}
.l0d0 {stroke: #F38400; fill: #F38400; fill-opacity: 0.5;}
</style>
</defs>
<rect x="-16.589744" y="-80.341492" width="300" height="228.096982" fill="none" stroke="none"/>
<g id="curves_2" transform="scale(1 -1)">
<polygon id="0x55f11bc234c0" class="l0d0" points="0,0 0.260354,7.040737 1.015438,13.547827 2.226289,19.521265 3.853941,24.961043 4.811895,27.480813 5.859437,29.867163 6.991698,32.120091 8.203807,34.239593 9.490892,36.225669 10.848082,38.078314 12.270506,39.797527 13.753292,41.383303 15.291567,42.83564 16.880459,44.154534 18.515095,45.339981 20.190601,46.391978 21.902104,47.310522 23.644728,48.095609 25.413599,48.747235 27.203841,49.265399 29.010579,49.650097 30.828935,49.901329 32.654034,50.019091 34.480998,50.003385 36.304951,49.854208 38.121016,49.571563 39.924316,49.15545 41.709975,48.60587 43.473117,47.922826 45.208865,47.106321 46.912345,46.156357 48.578682,45.072938 50.203001,43.856067 51.780429,42.505748 53.306092,41.021985 54.775118,39.40478 56.182633,37.654138 57.523767,35.770061 58.793648,33.752554 59.987403,31.601618 61.100163,29.317256 62.127055,26.899471 63.06321,24.348265 64.643828,18.84558 65.803044,12.809229 66.501895,6.239225 66.705128,0 66.965482,-7.040737 67.720566,-13.547827 68.931417,-19.521265 70.559069,-24.961043 71.517022,-27.480813 72.564565,-29.867163 73.696826,-32.120091 74.908935,-34.239593 76.19602,-36.225669 77.55321,-38.078314 78.975634,-39.797527 80.45842,-41.383303 81.996695,-42.83564 83.585587,-44.154534 85.220223,-45.339981 86.895729,-46.391978 88.607232,-47.310522 90.349856,-48.095609 92.118727,-48.747235 93.908969,-49.265399 95.715707,-49.650097 97.534063,-49.901329 99.359162,-50.019091 101.186126,-50.003385 103.010079,-49.854208 104.826144,-49.571563 106.629444,-49.15545 108.415103,-48.60587 110.178245,-47.922826 111.913993,-47.106321 113.617473,-46.156357 115.28381,-45.072938 116.908129,-43.856067 118.485557,-42.505748 120.01122,-41.021985 121.480245,-39.40478 122.887761,-37.654138 124.228895,-35.770061 125.498776,-33.752554 126.692531,-31.601618 127.805291,-29.317256 128.832183,-26.899471 129.768338,-24.348265 131.348956,-18.84558 132.508172,-12.809229 133.207023,-6.239225 133.410256,0 135.640743,4.311808 137.811188,8.221153 139.922524,11.752981 141.975826,14.93134 143.972334,17.779361 145.913478,20.319232 147.800908,22.57216 149.636526,24.558339 151.422522,26.296892 153.161408,27.805812 154.856058,29.101887 156.509737,30.200611 158.126131,31.116083 159.709363,31.860887 161.263991,32.445973 162.794989,32.880526 164.307702,33.17184 165.807775,33.325216 167.301064,33.343878 170.285979,32.980399 173.30281,32.07016 176.39541,30.570565 179.601889,28.410164 182.953726,25.492735 186.47602,21.700978 190.188359,16.89938 194.105869,10.936227 198.240192,3.644954 200.115384,0 202.345871,-4.311808 204.516316,-8.221153 206.627652,-11.752981 208.680954,-14.93134 210.677462,-17.779361 212.618606,-20.319232 214.506036,-22.57216 216.341654,-24.558339 218.12765,-26.296892 219.866536,-27.805812 221.561186,-29.101887 223.214865,-30.200611 224.831259,-31.116083 226.414491,-31.860887 227.969119,-32.445973 229.500117,-32.880526 231.012829,-33.17184 232.512903,-33.325216 234.006192,-33.343878 236.991107,-32.980399 240.007938,-32.07016 243.100537,-30.570565 246.307017,-28.410164 249.658854,-25.492735 253.181148,-21.700978 256.893487,-16.89938 260.810997,-10.936227 264.94532,-3.644954 266.820512,0 268.3341,-9.882516 269.31966,-19.834813 269.773892,-29.829087 269.69494,-39.836999 269.455387,-44.836557 269.082597,-49.828363 268.576802,-54.808865 267.938323,-59.774542 266.820512,-66.705128 265.130928,-74.566776 264.096078,-78.432636 262.940703,-82.233397 261.670279,-85.954318 260.290953,-89.58155 258.809411,-93.102356 257.232738,-96.505285 255.568268,-99.780298 253.823437,-102.918843 252.005645,-105.913875 250.122125,-108.759838 248.179831,-111.452601 246.185342,-113.989361 244.14478,-116.368521 242.063752,-118.589554 239.947307,-120.652849 237.799901,-122.559557 235.625387,-124.31143 233.427011,-125.910676 231.207416,-127.359804 228.968664,-128.661489 226.712252,-129.818443 224.439153,-130.833297 222.149843,-131.708495 219.844347,-132.446199 217.522284,-133.048211 215.182911,-133.515899 212.825178,-133.850143 210.447776,-134.051291 208.049189,-134.119127 205.62774,-134.052846 203.181646,-133.851049 200.115384,-133.410256 195.777192,-132.381061 191.36192,-130.806084 186.757178,-128.622465 181.785969,-125.709769 176.088328,-121.811215 168.491841,-116.107586 160.750492,-110.397599 157.379651,-108.139053 154.477501,-106.366312 151.828942,-104.912031 149.342217,-103.704157 146.966179,-102.702634 144.66779,-101.882223 142.423485,-101.225947 140.215153,-100.722085 138.028042,-100.362631 135.849567,-100.142424 133.410256,-100.057692 129.163035,-100.315485 124.944899,-101.08776 120.675395,-102.392542 116.253187,-104.279388 111.53001,-106.845033 106.235762,-110.282242 99.666908,-115.090978 93.200958,-119.993665 88.362405,-123.492136 85.006826,-125.727422 82.088164,-127.50047 79.409506,-128.964437 76.884413,-130.187063 74.464068,-131.206416 72.116696,-132.046607 69.819514,-132.723895 66.705128,-133.410256 61.7858,-134.016274 56.983107,-134.081308 52.283123,-133.620943 47.673529,-132.641661 43.145037,-131.141363 38.692856,-129.110526 34.318066,-126.534009 30.028837,-123.393504 25.841381,-119.670607 21.780589,-115.35045 17.880229,-110.425804 14.182573,-104.901459 10.737281,-98.798537 7.599377,-92.158182 4.826218,-85.043887 2.4736,-77.541629 0.591347,-69.757192 0,-66.705128 -1.513588,-56.822612 -2.499148,-46.870315 -2.953381,-36.876041 -2.874428,-26.868129 -2.634875,-21.868571 -2.262086,-16.876765 -1.75629,-11.896263 -1.117812,-6.930585"/>
<polygon id="0x55f11bfda6b0" class="l0d1" points="0,0 0,66.705128 66.705128,66.705128 66.705128,0 66.705128,-66.705128 133.410256,-66.705128 133.410256,0 166.76282,66.705128 200.115384,0 233.467948,-66.705128 266.820512,0 266.820512,-66.705128 200.115384,-133.410256 133.410256,-100.057692 66.705128,-133.410256 -0,-66.705128"/>
</g>
</svg>