<?xml version="1.0" encoding="UTF-8"?>
<svg xmlns="http://www.w3.org/2000/svg" xmlns:xlink="http://www.w3.org/1999/xlink" width="313.635988" height="449.995863" viewBox="-81.060418 -368.939206 313.635988 449.995863">
<defs>
<style type="text/css">
.l4d0 {stroke: #848482; fill: #848482; fill-opacity: 0.5;}
.l1d0 {stroke: #A1CAF1; fill: #A1CAF1; fill-opacity: 0.5;}
.l0d0 {stroke: #F38400; fill: #F38400; fill-opacity: 0.5;}
.l3d0 {stroke: #C2B280; fill: #C2B280; fill-opacity: 0.5;}
.l2d0 {stroke: #BE0032; fill: #BE0032; fill-opacity: 0.5;}
</style>
</defs>
<rect x="-81.060418" y="-368.939206" width="313.635988" height="449.995863" fill="none" stroke="none"/>
<g id="ellipse" transform="scale(1 -1)">
<polygon id="0x5573106f0600" class="l0d0" points="60.606061,0 60.545897,2.699809 60.365525,5.394258 60.065302,8.077997 59.645826,10.745698 59.107928,13.392065 58.452677,16.011843 57.681374,18.59983 56.79555,21.15089 55.796963,23.659956 54.687596,26.122048 53.469653,28.532277 52.14555,30.885857 50.717917,33.178117 49.189589,35.404504 47.563599,37.560599 45.843176,39.642121 44.031736,41.644938 42.132874,43.565072 40.150362,45.398711 38.088135,47.142216 35.950288,48.792124 33.741064,50.34516 31.464851,51.798241 29.126167,53.14848 26.729656,54.393199 24.280075,55.529925 21.782289,56.556401 19.241256,57.470589 16.662022,58.270675 14.049706,58.955071 11.409496,59.522416 8.746634,59.971585 6.066406,60.301686 3.374133,60.512063 0.675162,60.6023 -2.02515,60.572216 -4.721441,60.421872 -7.408358,60.151565 -10.080567,59.761834 -12.732761,59.25345 -15.359676,58.627425 -17.956096,57.885 -20.516865,57.02765 -23.0369,56.057076 -25.511198,54.975207 -27.934845,53.784189 -30.30303,52.486388 -32.611052,51.08438 -34.854327,49.580949 -37.028402,47.979079 -39.128961,46.281951 -41.151832,44.492935 -43.093001,42.615582 -44.948612,40.65362 -46.714983,38.610944 -48.388604,36.491609 -49.966155,34.299824 -51.444503,32.039939 -52.820712,29.716443 -54.092051,27.333947 -55.255995,24.897182 -56.310233,22.410985 -57.252672,19.880294 -58.081442,17.310133 -58.794896,14.705604 -59.391618,12.071878 -59.870424,9.414184 -60.230363,6.7378 -60.47072,4.048038 -60.591018,1.35024 -60.591018,-1.35024 -60.47072,-4.048038 -60.230363,-6.7378 -59.870424,-9.414184 -59.391618,-12.071878 -58.794896,-14.705604 -58.081442,-17.310133 -57.252672,-19.880294 -56.310233,-22.410985 -55.255995,-24.897182 -54.092051,-27.333947 -52.820712,-29.716443 -51.444503,-32.039939 -49.966155,-34.299824 -48.388604,-36.491609 -46.714983,-38.610944 -44.948612,-40.65362 -43.093001,-42.615582 -41.151832,-44.492935 -39.128961,-46.281951 -37.028402,-47.979079 -34.854327,-49.580949 -32.611052,-51.08438 -30.30303,-52.486388 -27.934845,-53.784189 -25.511198,-54.975207 -23.0369,-56.057076 -20.516865,-57.02765 -17.956096,-57.885 -15.359676,-58.627425 -12.732761,-59.25345 -10.080567,-59.761834 -7.408358,-60.151565 -4.721441,-60.421872 -2.02515,-60.572216 0.675162,-60.6023 3.374133,-60.512063 6.066406,-60.301686 8.746634,-59.971585 11.409496,-59.522416 14.049706,-58.955071 16.662022,-58.270675 19.241256,-57.470589 21.782289,-56.556401 24.280075,-55.529925 26.729656,-54.393199 29.126167,-53.14848 31.464851,-51.798241 33.741064,-50.34516 35.950288,-48.792124 38.088135,-47.142216 40.150362,-45.398711 42.132874,-43.565072 44.031736,-41.644938 45.843176,-39.642121 47.563599,-37.560599 49.189589,-35.404504 50.717917,-33.178117 52.14555,-30.885857 53.469653,-28.532277 54.687596,-26.122048 55.796963,-23.659956 56.79555,-21.15089 57.681374,-18.59983 58.452677,-16.011843 59.107928,-13.392065 59.645826,-10.745698 60.065302,-8.077997 60.365525,-5.394258 60.545897,-2.699809"/>
<polygon id="0x557310714cb0" class="l1d0" points="212.121212,0 212.061048,2.024857 211.880676,4.045694 211.580454,6.058498 211.160977,8.059274 210.62308,10.044049 209.967829,12.008882 209.196525,13.949873 208.310701,15.863167 207.312114,17.744967 206.202748,19.591536 204.984804,21.399207 203.660702,23.164393 202.233069,24.883588 200.704741,26.553378 199.078751,28.170449 197.358328,29.731591 195.546887,31.233703 193.648026,32.673804 191.665514,34.049034 189.603287,35.356662 187.465439,36.594093 185.256216,37.75887 182.980002,38.848681 180.641318,39.86136 178.244807,40.794899 175.795227,41.647443 173.297441,42.417301 170.756408,43.102942 168.177173,43.703007 165.564858,44.216303 162.924648,44.641812 160.261785,44.978689 157.581557,45.226264 154.889285,45.384047 152.190313,45.451725 149.490001,45.429162 146.79371,45.316404 144.106793,45.113674 141.434585,44.821375 138.78239,44.440088 136.155475,43.970569 133.559056,43.41375 130.998286,42.770737 128.478251,42.042807 126.003954,41.231405 123.580306,40.338142 121.212121,39.364791 118.9041,38.313285 116.660825,37.185712 114.486749,35.984309 112.386191,34.711463 110.363319,33.369701 108.42215,31.961687 106.566539,30.490215 104.800169,28.958208 103.126547,27.368707 101.548996,25.724868 100.070649,24.029955 98.694439,22.287332 97.423101,20.50046 96.259157,18.672886 95.204919,16.808239 94.262479,14.910221 93.43371,12.9826 92.720255,11.029203 92.123533,9.053908 91.644727,7.060638 91.284788,5.05335 91.044432,3.036029 90.924134,1.01268 90.924134,-1.01268 91.044432,-3.036029 91.284788,-5.05335 91.644727,-7.060638 92.123533,-9.053908 92.720255,-11.029203 93.43371,-12.9826 94.262479,-14.910221 95.204919,-16.808239 96.259157,-18.672886 97.423101,-20.50046 98.694439,-22.287332 100.070649,-24.029955 101.548996,-25.724868 103.126547,-27.368707 104.800169,-28.958208 106.566539,-30.490215 108.42215,-31.961687 110.363319,-33.369701 112.386191,-34.711463 114.486749,-35.984309 116.660825,-37.185712 118.9041,-38.313285 121.212121,-39.364791 123.580306,-40.338142 126.003954,-41.231405 128.478251,-42.042807 130.998286,-42.770737 133.559056,-43.41375 136.155475,-43.970569 138.78239,-44.440088 141.434585,-44.821375 144.106793,-45.113674 146.79371,-45.316404 149.490001,-45.429162 152.190313,-45.451725 154.889285,-45.384047 157.581557,-45.226264 160.261785,-44.978689 162.924648,-44.641812 165.564858,-44.216303 168.177173,-43.703007 170.756408,-43.102942 173.297441,-42.417301 175.795227,-41.647443 178.244807,-40.794899 180.641318,-39.86136 182.980002,-38.848681 185.256216,-37.75887 187.465439,-36.594093 189.603287,-35.356662 191.665514,-34.049034 193.648026,-32.673804 195.546887,-31.233703 197.358328,-29.731591 199.078751,-28.170449 200.704741,-26.553378 202.233069,-24.883588 203.660702,-23.164393 204.984804,-21.399207 206.202748,-19.591536 207.312114,-17.744967 208.310701,-15.863167 209.196525,-13.949873 209.967829,-12.008882 210.62308,-10.044049 211.160977,-8.059274 211.580454,-6.058498 211.880676,-4.045694 212.061048,-2.024857"/>
<polygon id="0x55731071a630" class="l2d0" points="60.606061,151.515152 60.545034,154.234232 60.362078,156.947837 60.057561,159.650501 59.632096,162.336782 59.08654,165.001269 58.421992,167.638597 57.639789,170.243454 56.741507,172.810595 55.728956,175.33485 54.604174,177.811136 53.369426,180.234464 52.0272,182.599956 50.580197,184.902847 49.031333,187.1385 47.383726,189.302412 45.640695,191.390226 43.805749,193.397736 41.882585,195.320901 39.875074,197.155846 37.787261,198.898878 35.623349,200.546485 33.387696,202.095349 31.084805,203.542351 28.719313,204.884578 26.295984,206.119325 23.819699,207.244107 21.295444,208.256659 18.728303,209.15494 16.123445,209.937143 13.486117,210.601692 10.82163,211.147248 8.135349,211.572713 5.432685,211.87723 2.719081,212.060186 0,212.121212 -2.719081,212.060186 -5.432685,211.87723 -8.135349,211.572713 -10.82163,211.147248 -13.486117,210.601692 -16.123445,209.937143 -18.728303,209.15494 -21.295444,208.256659 -23.819699,207.244107 -26.295984,206.119325 -28.719313,204.884578 -31.084805,203.542351 -33.387696,202.095349 -35.623349,200.546485 -37.787261,198.898878 -39.875074,197.155846 -41.882585,195.320901 -43.805749,193.397736 -45.640695,191.390226 -47.383726,189.302412 -49.031333,187.1385 -50.580197,184.902847 -52.0272,182.599956 -53.369426,180.234464 -54.604174,177.811136 -55.728956,175.33485 -56.741507,172.810595 -57.639789,170.243454 -58.421992,167.638597 -59.08654,165.001269 -59.632096,162.336782 -60.057561,159.650501 -60.362078,156.947837 -60.545034,154.234232 -60.606061,151.515152 -60.545034,148.796071 -60.362078,146.082466 -60.057561,143.379802 -59.632096,140.693522 -59.08654,138.029034 -58.421992,135.391706 -57.639789,132.786849 -56.741507,130.219708 -55.728956,127.695453 -54.604174,125.219167 -53.369426,122.795839 -52.0272,120.430347 -50.580197,118.127456 -49.031333,115.891803 -47.383726,113.727891 -45.640695,111.640077 -43.805749,109.632567 -41.882585,107.709402 -39.875074,105.874457 -37.787261,104.131425 -35.623349,102.483819 -33.387696,100.934954 -31.084805,99.487952 -28.719313,98.145725 -26.295984,96.910978 -23.819699,95.786196 -21.295444,94.773644 -18.728303,93.875363 -16.123445,93.09316 -13.486117,92.428611 -10.82163,91.883055 -8.135349,91.45759 -5.432685,91.153073 -2.719081,90.970117 -0,90.909091 2.719081,90.970117 5.432685,91.153073 8.135349,91.45759 10.82163,91.883055 13.486117,92.428611 16.123445,93.09316 18.728303,93.875363 21.295444,94.773644 23.819699,95.786196 26.295984,96.910978 28.719313,98.145725 31.084805,99.487952 33.387696,100.934954 35.623349,102.483819 37.787261,104.131425 39.875074,105.874457 41.882585,107.709402 43.805749,109.632567 45.640695,111.640077 47.383726,113.727891 49.031333,115.891803 50.580197,118.127456 52.0272,120.430347 53.369426,122.795839 54.604174,125.219167 55.728956,127.695453 56.741507,130.219708 57.639789,132.786849 58.421992,135.391706 59.08654,138.029034 59.632096,140.693522 60.057561,143.379802 60.362078,146.082466 60.545034,148.796071 60.606061,151.515152 45.454545,151.515152 45.394277,149.955189 45.213631,148.399364 44.913086,146.851801 44.49344,145.316604 43.955806,143.797845 43.301608,142.299551 42.532583,140.825694 41.650768,139.380185 40.658504,137.966855 39.55842,136.589452 38.353435,135.25163 37.046743,133.956936 35.641809,132.708804 34.14236,131.510542 32.552372,130.365329 30.876061,129.276201 29.117872,128.246047 27.282467,127.277599 25.374715,126.373424 23.399673,125.53592 21.362579,124.767309 19.268836,124.069628 17.123995,123.444728 14.933745,122.894266 12.703892,122.419701 10.440352,122.022292 8.149125,121.703092 5.836289,121.462949 3.507976,121.302499 1.17036,121.222168 -1.17036,121.222168 -3.507976,121.302499 -5.836289,121.462949 -8.149125,121.703092 -10.440352,122.022292 -12.703892,122.419701 -14.933745,122.894266 -17.123995,123.444728 -19.268836,124.069628 -21.362579,124.767309 -23.399673,125.53592 -25.374715,126.373424 -27.282467,127.277599 -29.117872,128.246047 -30.876061,129.276201 -32.552372,130.365329 -34.14236,131.510542 -35.641809,132.708804 -37.046743,133.956936 -38.353435,135.25163 -39.55842,136.589452 -40.658504,137.966855 -41.650768,139.380185 -42.532583,140.825694 -43.301608,142.299551 -43.955806,143.797845 -44.49344,145.316604 -44.913086,146.851801 -45.213631,148.399364 -45.394277,149.955189 -45.454545,151.515152 -45.394277,153.075114 -45.213631,154.630939 -44.913086,156.178502 -44.49344,157.713699 -43.955806,159.232458 -43.301608,160.730752 -42.532583,162.204609 -41.650768,163.650118 -40.658504,165.063448 -39.55842,166.440851 -38.353435,167.778673 -37.046743,169.073367 -35.641809,170.321499 -34.14236,171.519761 -32.552372,172.664974 -30.876061,173.754102 -29.117872,174.784256 -27.282467,175.752704 -25.374715,176.656879 -23.399673,177.494383 -21.362579,178.262994 -19.268836,178.960675 -17.123995,179.585575 -14.933745,180.136037 -12.703892,180.610602 -10.440352,181.008011 -8.149125,181.327211 -5.836289,181.567354 -3.507976,181.727804 -1.17036,181.808135 1.17036,181.808135 3.507976,181.727804 5.836289,181.567354 8.149125,181.327211 10.440352,181.008011 12.703892,180.610602 14.933745,180.136037 17.123995,179.585575 19.268836,178.960675 21.362579,178.262994 23.399673,177.494383 25.374715,176.656879 27.282467,175.752704 29.117872,174.784256 30.876061,173.754102 32.552372,172.664974 34.14236,171.519761 35.641809,170.321499 37.046743,169.073367 38.353435,167.778673 39.55842,166.440851 40.658504,165.063448 41.650768,163.650118 42.532583,162.204609 43.301608,160.730752 43.955806,159.232458 44.49344,157.713699 44.913086,156.178502 45.213631,154.630939 45.394277,153.075114 45.454545,151.515152"/>
<polygon id="0x557310673340" class="l3d0" points="151.515152,151.515152 194.370108,108.660195 196.249636,110.626028 198.039075,112.674205 199.734821,114.800603 201.333459,117.00094 202.83177,119.270783 204.226735,121.605563 205.515547,124.000576 206.695609,126.451 207.764545,128.951899 208.720202,131.498239 209.560656,134.084889 210.284213,136.706642 210.889418,139.358217 211.375051,142.034275 211.740134,144.729426 211.983932,147.438242 212.105954,150.155269 212.105954,152.875034 211.983932,155.592061 211.740134,158.300877 211.375051,160.996028 210.889418,163.672086 210.284213,166.323661 209.560656,168.945414 208.720202,171.532064 207.764545,174.078404 206.695609,176.579303 205.515547,179.029727 204.226735,181.42474 202.83177,183.75952 201.333459,186.029363 199.734821,188.2297 198.039075,190.356098 196.249636,192.404276 194.370108,194.370108 192.404276,196.249636 190.356098,198.039075 188.2297,199.734821 186.029363,201.333459 183.75952,202.83177 181.42474,204.226735 179.029727,205.515547 176.579303,206.695609 174.078404,207.764545 171.532064,208.720202 168.945414,209.560656 166.323661,210.284213 163.672086,210.889418 160.996028,211.375051 158.300877,211.740134 155.592061,211.983932 152.875034,212.105954 150.155269,212.105954 147.438242,211.983932 144.729426,211.740134 142.034275,211.375051 139.358217,210.889418 136.706642,210.284213 134.084889,209.560656 131.498239,208.720202 128.951899,207.764545 126.451,206.695609 124.000576,205.515547 121.605563,204.226735 119.270783,202.83177 117.00094,201.333459 114.800603,199.734821 112.674205,198.039075 110.626028,196.249636 108.660195,194.370108 106.780667,192.404276 104.991228,190.356098 103.295482,188.2297 101.696844,186.029363 100.198533,183.75952 98.803568,181.42474 97.514756,179.029727 96.334694,176.579303 95.265758,174.078404 94.310101,171.532064 93.469647,168.945414 92.74609,166.323661 92.140885,163.672086 91.655252,160.996028 91.290169,158.300877 91.046371,155.592061 90.924349,152.875034 90.924349,150.155269 91.046371,147.438242 91.290169,144.729426 91.655252,142.034275 92.140885,139.358217 92.74609,136.706642 93.469647,134.084889 94.310101,131.498239 95.265758,128.951899 96.334694,126.451 97.514756,124.000576 98.803568,121.605563 100.198533,119.270783 101.696844,117.00094 103.295482,114.800603 104.991228,112.674205 106.780667,110.626028 108.660195,108.660195"/>
<polygon id="0x55731055f630" class="l4d0" points="33.978256,261.250983 36.977741,260.723168 40.013472,260.234895 43.082611,259.78662 46.182289,259.378763 49.309609,259.011704 52.461649,258.685787 55.635462,258.401317 58.828083,258.158558 62.036526,257.957739 65.257794,257.799047 68.488875,257.682629 71.72675,257.608596 74.968392,257.577016 78.210772,257.587918 81.450859,257.641293 84.685625,257.737091 87.912046,257.875221 91.127107,258.055556 94.327803,258.277926 97.511143,258.542123 100.67415,258.847901 103.81387,259.194974 106.927367,259.583017 110.011731,260.011668 113.06408,260.480526 116.08156,260.989153 119.061352,261.537074 122.000671,262.123776 124.896768,262.748711 127.746938,263.411295 130.548516,264.110908 133.298884,264.846898 135.995472,265.618575 138.635759,266.425219 141.217276,267.266076 143.737613,268.140359 146.194412,269.047252 148.585378,269.985908 150.908275,270.955448 153.160934,271.954966 155.341248,272.983529 157.447179,274.040175 159.47676,275.123917 161.428093,276.233741 163.299355,277.36861 165.088796,278.527464 166.794745,279.709219 168.415606,280.912771 169.949864,282.136996 171.396087,283.380748 172.752921,284.642865 174.0191,285.922168 175.193438,287.217461 176.27484,288.527534 177.262294,289.851161 178.154877,291.187106 178.951755,292.534121 179.652183,293.890945 180.255506,295.256312 180.761162,296.628944 181.168676,298.00756 181.477668,299.39087 181.68785,300.777581 181.799024,302.166399 181.811088,303.556023 181.724029,304.945156 181.537929,306.3325 181.252963,307.716757 180.869395,309.096634 180.387586,310.470841 179.807984,311.838094 179.131133,313.197114 178.357664,314.546632 177.488301,315.885387 176.523855,317.212127 175.465229,318.525611 174.313412,319.824614 173.06948,321.107919 171.734596,322.374328 170.310007,323.622658 168.797046,324.851741 167.197126,326.060429 165.511743,327.247591 163.742471,328.412119 161.890965,329.552925 159.958954,330.668941 157.948246,331.759124 155.860718,332.822457 153.698322,333.857944 151.46308,334.864619 149.15708,335.84154 146.782477,336.787794 144.341491,337.702496 141.836404,338.584793 139.269557,339.433859 136.643348,340.2489 133.960233,341.029155 131.22272,341.773895 128.433366,342.482423 125.594779,343.154078 122.709611,343.788231 119.780561,344.38429 116.810364,344.941698 113.801798,345.459934 110.757674,345.938512 107.680838,346.376987 104.574164,346.774949 101.440557,347.132024 98.282946,347.447881 95.104282,347.722222 91.907535,347.954793 88.695694,348.145375 85.47176,348.29379 82.238747,348.399901 78.999677,348.463607 75.757576,348.484848 75.757576,333.333333 78.672348,333.317754 81.584123,333.27103 84.489907,333.193211 87.386712,333.084377 90.271559,332.944638 93.141482,332.77414 95.993529,332.573057 98.824769,332.341597 101.632289,332.079996 104.413203,331.788525 107.164651,331.467482 109.883805,331.117199 112.567867,330.738034 115.214079,330.330379 117.819719,329.894651 120.382107,329.4313 122.89861,328.940802 125.366639,328.423661 127.783657,327.880409 130.147178,327.311604 132.454772,326.717831 134.704065,326.099701 136.892747,325.45785 139.018564,324.792937 141.079333,324.105646 143.072933,323.396685 144.997315,322.666781 146.8505,321.916685 148.630582,321.14717 150.335732,320.359025 151.964195,319.553062 153.514297,318.730109 154.984445,317.891012 156.373126,317.036634 157.678913,316.167855 158.900462,315.285566 160.036519,314.390676 161.085914,313.484104 162.047568,312.566783 162.920494,311.639655 163.703792,310.703676 164.396659,309.759805 164.99838,308.809015 165.508338,307.852283 165.926009,306.890593 166.250961,305.924933 166.482863,304.956297 166.621475,303.98568 166.666654,303.014081 166.618354,302.042499 166.476625,301.071932 166.241612,300.10338 165.913558,299.137836 165.492799,298.176296 164.979768,297.219746 164.374993,296.269171 163.679096,295.325549 162.892792,294.389849 162.016889,293.463034 161.052288,292.546057 159.999982,291.63986 158.861052,290.745375 157.636669,289.863523 156.328093,288.99521 154.936669,288.141328 153.463827,287.302757 151.911082,286.480358 150.280031,285.674976 148.572351,284.88744 146.789798,284.11856 144.934205,283.369127 143.00748,282.63991 141.011604,281.93166 138.948629,281.245105 136.820677,280.580951 134.629935,279.939882 132.378657,279.322555 130.069158,278.729606 127.703811,278.161645 125.28505,277.619255 122.815362,277.102995 120.297285,276.613395 117.733409,276.150959 115.126372,275.716162 112.478852,275.309451 109.793573,274.931245 107.073296,274.581932 104.320818,274.261871 101.53897,273.971393 98.730611,273.710794 95.89863,273.480344 93.045938,273.280279 90.17547,273.110805 87.290175,272.972097 84.393023,272.864296 81.48699,272.787514 78.575067,272.74183 75.660246,272.72729 72.745525,272.74391 69.833902,272.791673 66.928369,272.870529 64.031916,272.980397 61.147519,273.121165 58.278146,273.292687 55.426746,273.494787 52.596252,273.727258 49.789573,273.989861 47.009597,274.282324"/>
</g>
</svg>