<?xml version="1.0" encoding="UTF-8"?>
<svg xmlns="http://www.w3.org/2000/svg" xmlns:xlink="http://www.w3.org/1999/xlink" width="300" height="231.818182" viewBox="-150 -115.909091 300 231.818182">
<defs>
<style type="text/css">
.l0d0 {stroke: #F38400; fill: #F38400; fill-opacity: 0.5;}
</style>
</defs>
<rect x="-150" y="-115.909091" width="300" height="231.818182" fill="none" stroke="none"/>
<g id="fillet_operation" transform="scale(1 -1)">
<polygon id="0x55f11bf2e300" class="l0d0" points="-110.795455,-34.090909 -117.412987,-34.962124 -123.579545,-37.516396 -128.874889,-41.579656 -132.93815,-46.875 -135.492422,-53.041559 -136.363636,-59.659091 -136.363636,-76.704545 -135.492422,-83.322078 -132.93815,-89.488636 -128.874889,-94.78398 -123.579545,-98.84724 -117.412987,-101.401513 -110.795455,-102.272727 8.522727,-102.272727 15.14026,-101.401513 21.306818,-98.84724 26.602162,-94.78398 30.665422,-89.488636 33.219694,-83.322078 34.090909,-76.704545 34.090909,8.522727 34.962124,15.14026 37.516396,21.306818 41.579656,26.602162 46.875,30.665422 53.041559,33.219694 59.659091,34.090909 110.795455,34.090909 117.412987,34.962124 123.579545,37.516396 128.874889,41.579656 132.93815,46.875 135.492422,53.041559 136.363636,59.659091 136.363636,76.704545 135.492422,83.322078 132.93815,89.488636 128.874889,94.78398 123.579545,98.84724 117.412987,101.401513 110.795455,102.272727 -8.522727,102.272727 -15.14026,101.401513 -21.306818,98.84724 -26.602162,94.78398 -30.665422,89.488636 -33.219694,83.322078 -34.090909,76.704545 -34.090909,-8.522727 -34.962124,-15.14026 -37.516396,-21.306818 -41.579656,-26.602162 -46.875,-30.665422 -53.041559,-33.219694 -59.659091,-34.090909"/>
</g>
</svg>