<?xml version="1.0" encoding="UTF-8"?>
<svg xmlns="http://www.w3.org/2000/svg" xmlns:xlink="http://www.w3.org/1999/xlink" width="324.793388" height="572.727273" viewBox="-38.429752 -534.297521 324.793388 572.727273">
<defs>
<style type="text/css">
.l1d0 {stroke: #A1CAF1; fill: #A1CAF1; fill-opacity: 0.5;}
</style>
<g id="Device">
<use transform="translate(-19.834711 0)" xlink:href="#MZI"/>
<use transform="translate(-99.173554 -74.380165) rotate(90)" xlink:href="#Grating"/>
<use transform="translate(-99.173554 74.380165) rotate(90)" xlink:href="#Grating"/>
<use transform="translate(99.173554 74.380165) rotate(-90)" xlink:href="#Grating"/>
<use transform="translate(99.173554 -74.380165) rotate(-90)" xlink:href="#Grating"/>
<use transform="translate(0 0)" xlink:href="#Waveguide"/>
<use transform="translate(0 0) scale(1 -1)" xlink:href="#Waveguide"/>
<use transform="translate(0 0) rotate(180)" xlink:href="#Waveguide"/>
<use transform="translate(0 0) rotate(180) scale(1 -1)" xlink:href="#Waveguide"/>
</g>
<g id="Waveguide">
<polygon id="0x5615b81b13f0" class="l1d0" points="-109.090909,-69.421488 -109.090909,-79.338843 -99.173554,-79.338843 -99.173554,-79.338843 -99.173554,-79.338843 -99.173554,-79.338843 -49.586777,-74.504132 -49.586777,-74.504132 -49.586777,-74.504132 -49.586777,-74.504132 -42.14876,-74.504132 -41.609256,-74.484793 -41.072727,-74.427273 -40.541157,-74.331074 -40.018512,-74.197686 -39.506281,-74.027107 -39.007438,-73.820826 -38.524463,-73.579339 -38.060331,-73.303636 -37.617025,-72.995702 -37.196529,-72.657025 -36.801818,-72.289091 -36.433884,-71.89438 -36.095207,-71.473884 -35.787273,-71.030579 -35.51157,-70.566446 -35.270083,-70.083471 -35.063802,-69.584628 -34.893223,-69.072397 -34.759835,-68.549752 -34.663636,-68.018182 -34.606116,-67.481653 -34.586777,-66.942149 -34.586777,-7.933884 -34.566446,-7.387438 -34.504959,-6.843967 -34.403306,-6.306446 -34.261983,-5.777851 -34.080992,-5.261653 -33.862314,-4.760331 -33.606942,-4.27686 -33.315868,-3.813719 -32.991074,-3.373884 -32.634545,-2.958843 -32.247769,-2.572066 -31.832727,-2.215537 -31.392893,-1.890744 -30.929752,-1.599669 -30.446281,-1.344298 -29.944959,-1.12562 -29.42876,-0.944628 -28.900165,-0.803306 -28.362645,-0.701653 -27.819174,-0.640165 -27.272727,-0.619835 -19.834711,-0.619835 -19.834711,-0.371901 -27.272727,-0.371901 -27.812231,-0.39124 -28.34876,-0.44876 -28.880331,-0.544959 -29.402975,-0.678347 -29.915207,-0.848926 -30.41405,-1.055207 -30.897025,-1.296694 -31.361157,-1.572397 -31.804463,-1.880331 -32.224959,-2.219008 -32.619669,-2.586942 -32.987603,-2.981653 -33.326281,-3.402149 -33.634215,-3.845455 -33.909917,-4.309587 -34.151405,-4.792562 -34.357686,-5.291405 -34.528264,-5.803636 -34.661653,-6.326281 -34.757851,-6.857851 -34.815372,-7.39438 -34.834711,-7.933884 -34.834711,-66.942149 -34.855041,-67.488595 -34.916529,-68.032066 -35.018182,-68.569587 -35.159504,-69.098182 -35.340496,-69.61438 -35.559174,-70.115702 -35.814545,-70.599174 -36.10562,-71.062314 -36.430413,-71.502149 -36.786942,-71.91719 -37.173719,-72.303967 -37.58876,-72.660496 -38.028595,-72.985289 -38.491736,-73.276364 -38.975207,-73.531736 -39.476529,-73.750413 -39.992727,-73.931405 -40.521322,-74.072727 -41.058843,-74.17438 -41.602314,-74.235868 -42.14876,-74.256198 -49.586777,-74.256198 -49.586777,-74.256198 -49.586777,-74.256198 -49.586777,-74.256198 -99.173554,-69.421488 -99.173554,-69.421488 -99.173554,-69.421488 -99.173554,-69.421488"/>
</g>
<g id="Alignment Mark">
<polygon id="0x5615b81659d0" class="l1d0" points="12.396694,0.743802 0.743802,0.743802 0.743802,12.396694 -0.743802,12.396694 -0.743802,0.743802 -12.396694,0.743802 -12.396694,-0.743802 -0.743802,-0.743802 -0.743802,-12.396694 0.743802,-12.396694 0.743802,-0.743802 12.396694,-0.743802"/>
</g>
<g id="Grating">
</g>
<g id="Directinal Coupler">
<polygon id="0x5615b8213670" class="l1d0" points="0,-0.371901 0,-0.619835 0.012397,-0.619835 0.024793,-0.619835 0.03719,-0.619835 0.056329,-0.619835 0.209962,-0.603075 0.364492,-0.558682 0.644795,-0.435859 0.909946,-0.319674 1.028143,-0.285719 1.147238,-0.272727 1.190083,-0.272727 1.239669,-0.272727 1.289256,-0.272727 1.332101,-0.272727 1.451195,-0.285719 1.569393,-0.319674 1.834544,-0.435859 2.114847,-0.558682 2.269377,-0.603075 2.42301,-0.619835 2.442149,-0.619835 2.454545,-0.619835 2.466942,-0.619835 2.479339,-0.619835 2.479339,-0.371901 2.466942,-0.371901 2.454545,-0.371901 2.442149,-0.371901 2.436494,-0.371901 2.3174,-0.358909 2.199202,-0.324954 1.934051,-0.208769 1.653748,-0.085946 1.499218,-0.041553 1.345585,-0.024793 1.289256,-0.024793 1.239669,-0.024793 1.190083,-0.024793 1.133754,-0.024793 0.980121,-0.041553 0.825591,-0.085946 0.545288,-0.208769 0.280137,-0.324954 0.161939,-0.358909 0.042845,-0.371901 0.03719,-0.371901 0.024793,-0.371901 0.012397,-0.371901"/>
<polygon id="0x5615b8213670" class="l1d0" points="0,0.619835 0,0.371901 0.012397,0.371901 0.024793,0.371901 0.03719,0.371901 0.042845,0.371901 0.161939,0.358909 0.280137,0.324954 0.545288,0.208769 0.825591,0.085946 0.980121,0.041553 1.133754,0.024793 1.190083,0.024793 1.239669,0.024793 1.289256,0.024793 1.345585,0.024793 1.499218,0.041553 1.653748,0.085946 1.934051,0.208769 2.199202,0.324954 2.3174,0.358909 2.436494,0.371901 2.442149,0.371901 2.454545,0.371901 2.466942,0.371901 2.479339,0.371901 2.479339,0.619835 2.466942,0.619835 2.454545,0.619835 2.442149,0.619835 2.42301,0.619835 2.269377,0.603075 2.114847,0.558682 1.834544,0.435859 1.569393,0.319674 1.451195,0.285719 1.332101,0.272727 1.289256,0.272727 1.239669,0.272727 1.190083,0.272727 1.147238,0.272727 1.028143,0.285719 0.909946,0.319674 0.644795,0.435859 0.364492,0.558682 0.209962,0.603075 0.056329,0.619835 0.03719,0.619835 0.024793,0.619835 0.012397,0.619835"/>
</g>
<g id="MZI">
<polygon id="0x5615b8253850" class="l1d0" points="2.479339,0.619835 2.479339,0.371901 4.960878,0.371901 5.498122,0.390981 6.035038,0.448957 6.565877,0.54474 7.089158,0.678333 7.601376,0.848736 8.099951,1.055426 8.582876,1.296888 9.04724,1.572179 9.490394,1.880219 9.910786,2.218952 10.306063,2.586499 10.67361,2.981776 11.012343,3.402168 11.320383,3.845322 11.595674,4.309686 11.837136,4.792611 12.043826,5.291186 12.214229,5.803404 12.347822,6.326685 12.443605,6.857524 12.501581,7.39444 12.520661,7.931684 12.520661,12.394494 12.539267,12.918407 12.59534,13.437689 12.687987,13.951148 12.817204,14.457288 12.982007,14.952674 13.18193,15.434925 13.415509,15.902083 13.681705,16.351107 13.979616,16.779689 14.307329,17.186404 14.662757,17.568648 15.045001,17.924076 15.451716,18.251789 15.880297,18.5497 16.329322,18.815896 16.79648,19.049475 17.278731,19.249397 17.774116,19.414201 18.280257,19.543418 18.793716,19.636065 19.312998,19.692138 19.834711,19.710666 20.356423,19.692138 20.875705,19.636065 21.389165,19.543418 21.895305,19.414201 22.390691,19.249397 22.872942,19.049475 23.3401,18.815896 23.789124,18.5497 24.217705,18.251789 24.62442,17.924076 25.006664,17.568648 25.362093,17.186404 25.689806,16.779689 25.987716,16.351107 26.253913,15.902083 26.487492,15.434925 26.687414,14.952674 26.852217,14.457288 26.981434,13.951148 27.074081,13.437689 27.130154,12.918407 27.14876,12.394494 27.14876,7.931684 27.16784,7.39444 27.225817,6.857524 27.3216,6.326685 27.455193,5.803404 27.625596,5.291186 27.832285,4.792611 28.073748,4.309686 28.349038,3.845322 28.657079,3.402168 28.995812,2.981776 29.363359,2.586499 29.758635,2.218952 30.179027,1.880219 30.622182,1.572179 31.086546,1.296888 31.569471,1.055426 32.068046,0.848736 32.580264,0.678333 33.103545,0.54474 33.634383,0.448957 34.1713,0.390981 34.708543,0.371901 37.190083,0.371901 37.190083,0.619835 34.712944,0.619835 34.189031,0.638441 33.669749,0.694514 33.15629,0.787161 32.65015,0.916378 32.154764,1.081181 31.672513,1.281103 31.205355,1.514682 30.756331,1.780879 30.327749,2.078789 29.921034,2.406502 29.53879,2.761931 29.183362,3.144175 28.855649,3.55089 28.557738,3.979471 28.291542,4.428495 28.057963,4.895653 27.858041,5.377905 27.693237,5.87329 27.56402,6.37943 27.471373,6.89289 27.4153,7.412172 27.396694,7.936085 27.396694,12.398895 27.377615,12.936138 27.319638,13.473055 27.223855,14.003893 27.090262,14.527174 26.919859,15.039392 26.713169,15.537967 26.471707,16.020892 26.196416,16.485256 25.888376,16.928411 25.549643,17.348803 25.182096,17.744079 24.786819,18.111626 24.366427,18.450359 23.923273,18.7584 23.458909,19.03369 22.975984,19.275153 22.477409,19.481842 21.965191,19.652245 21.44191,19.785838 20.911071,19.881621 20.374155,19.939598 19.834711,19.958756 19.295266,19.939598 18.75835,19.881621 18.227512,19.785838 17.704231,19.652245 17.192013,19.481842 16.693438,19.275153 16.210513,19.03369 15.746149,18.7584 15.302994,18.450359 14.882602,18.111626 14.487326,17.744079 14.119779,17.348803 13.781046,16.928411 13.473005,16.485256 13.197715,16.020892 12.956252,15.537967 12.749563,15.039392 12.57916,14.527174 12.445567,14.003893 12.349784,13.473055 12.291807,12.936138 12.272727,12.398895 12.272727,7.936085 12.254121,7.412172 12.198048,6.89289 12.105401,6.37943 11.976184,5.87329 11.811381,5.377905 11.611459,4.895653 11.37788,4.428495 11.111683,3.979471 10.813773,3.55089 10.48606,3.144175 10.130631,2.761931 9.748387,2.406502 9.341672,2.078789 8.913091,1.780879 8.464067,1.514682 7.996909,1.281103 7.514657,1.081181 7.019272,0.916378 6.513132,0.787161 5.999672,0.694514 5.48039,0.638441 4.956477,0.619835"/>
<polygon id="0x5615b828a1d0" class="l1d0" points="2.479339,-0.371901 2.479339,-0.619835 4.956477,-0.619835 5.48039,-0.638441 5.999672,-0.694514 6.513132,-0.787161 7.019272,-0.916378 7.514657,-1.081181 7.996909,-1.281103 8.464067,-1.514682 8.913091,-1.780879 9.341672,-2.078789 9.748387,-2.406502 10.130631,-2.761931 10.48606,-3.144175 10.813773,-3.55089 11.111683,-3.979471 11.37788,-4.428495 11.611459,-4.895653 11.811381,-5.377905 11.976184,-5.87329 12.105401,-6.37943 12.198048,-6.89289 12.254121,-7.412172 12.272727,-7.936085 12.272727,-12.398895 12.291807,-12.936138 12.349784,-13.473055 12.445567,-14.003893 12.57916,-14.527174 12.749563,-15.039392 12.956252,-15.537967 13.197715,-16.020892 13.473005,-16.485256 13.781046,-16.928411 14.119779,-17.348803 14.487326,-17.744079 14.882602,-18.111626 15.302994,-18.450359 15.746149,-18.7584 16.210513,-19.03369 16.693438,-19.275153 17.192013,-19.481842 17.704231,-19.652245 18.227512,-19.785838 18.75835,-19.881621 19.295266,-19.939598 19.834711,-19.958756 20.374155,-19.939598 20.911071,-19.881621 21.44191,-19.785838 21.965191,-19.652245 22.477409,-19.481842 22.975984,-19.275153 23.458909,-19.03369 23.923273,-18.7584 24.366427,-18.450359 24.786819,-18.111626 25.182096,-17.744079 25.549643,-17.348803 25.888376,-16.928411 26.196416,-16.485256 26.471707,-16.020892 26.713169,-15.537967 26.919859,-15.039392 27.090262,-14.527174 27.223855,-14.003893 27.319638,-13.473055 27.377615,-12.936138 27.396694,-12.398895 27.396694,-7.936085 27.4153,-7.412172 27.471373,-6.89289 27.56402,-6.37943 27.693237,-5.87329 27.858041,-5.377905 28.057963,-4.895653 28.291542,-4.428495 28.557738,-3.979471 28.855649,-3.55089 29.183362,-3.144175 29.53879,-2.761931 29.921034,-2.406502 30.327749,-2.078789 30.756331,-1.780879 31.205355,-1.514682 31.672513,-1.281103 32.154764,-1.081181 32.65015,-0.916378 33.15629,-0.787161 33.669749,-0.694514 34.189031,-0.638441 34.712944,-0.619835 37.190083,-0.619835 37.190083,-0.371901 34.708543,-0.371901 34.1713,-0.390981 33.634383,-0.448957 33.103545,-0.54474 32.580264,-0.678333 32.068046,-0.848736 31.569471,-1.055426 31.086546,-1.296888 30.622182,-1.572179 30.179027,-1.880219 29.758635,-2.218952 29.363359,-2.586499 28.995812,-2.981776 28.657079,-3.402168 28.349038,-3.845322 28.073748,-4.309686 27.832285,-4.792611 27.625596,-5.291186 27.455193,-5.803404 27.3216,-6.326685 27.225817,-6.857524 27.16784,-7.39444 27.14876,-7.931684 27.14876,-12.394494 27.130154,-12.918407 27.074081,-13.437689 26.981434,-13.951148 26.852217,-14.457288 26.687414,-14.952674 26.487492,-15.434925 26.253913,-15.902083 25.987716,-16.351107 25.689806,-16.779689 25.362093,-17.186404 25.006664,-17.568648 24.62442,-17.924076 24.217705,-18.251789 23.789124,-18.5497 23.3401,-18.815896 22.872942,-19.049475 22.390691,-19.249397 21.895305,-19.414201 21.389165,-19.543418 20.875705,-19.636065 20.356423,-19.692138 19.834711,-19.710666 19.312998,-19.692138 18.793716,-19.636065 18.280257,-19.543418 17.774116,-19.414201 17.278731,-19.249397 16.79648,-19.049475 16.329322,-18.815896 15.880297,-18.5497 15.451716,-18.251789 15.045001,-17.924076 14.662757,-17.568648 14.307329,-17.186404 13.979616,-16.779689 13.681705,-16.351107 13.415509,-15.902083 13.18193,-15.434925 12.982007,-14.952674 12.817204,-14.457288 12.687987,-13.951148 12.59534,-13.437689 12.539267,-12.918407 12.520661,-12.394494 12.520661,-7.931684 12.501581,-7.39444 12.443605,-6.857524 12.347822,-6.326685 12.214229,-5.803404 12.043826,-5.291186 11.837136,-4.792611 11.595674,-4.309686 11.320383,-3.845322 11.012343,-3.402168 10.67361,-2.981776 10.306063,-2.586499 9.910786,-2.218952 9.490394,-1.880219 9.04724,-1.572179 8.582876,-1.296888 8.099951,-1.055426 7.601376,-0.848736 7.089158,-0.678333 6.565877,-0.54474 6.035038,-0.448957 5.498122,-0.390981 4.960878,-0.371901"/>
<use transform="translate(0 0)" xlink:href="#Directinal Coupler"/>
<use transform="translate(37.190083 0)" xlink:href="#Directinal Coupler"/>
</g>
</defs>
<rect x="-38.429752" y="-534.297521" width="324.793388" height="572.727273" fill="none" stroke="none"/>
<g id="filtering" transform="scale(1 -1)">
<use transform="translate(123.966942 123.966942)" xlink:href="#Device"/>
<use transform="translate(123.966942 371.900826)" xlink:href="#Device"/>
<use transform="translate(0 0)" xlink:href="#Alignment Mark"/>
<use transform="translate(0 247.933884)" xlink:href="#Alignment Mark"/>
<use transform="translate(0 495.867769)" xlink:href="#Alignment Mark"/>
<use transform="translate(247.933884 0)" xlink:href="#Alignment Mark"/>
<use transform="translate(247.933884 247.933884)" xlink:href="#Alignment Mark"/>
<use transform="translate(247.933884 495.867769)" xlink:href="#Alignment Mark"/>
</g>
</svg>