<?xml version="1.0" encoding="UTF-8"?>
<svg xmlns="http://www.w3.org/2000/svg" xmlns:xlink="http://www.w3.org/1999/xlink" width="300" height="234.305892" viewBox="-16.957309 -216.214013 300 234.305892">
<defs>
<style type="text/css">
.l1d0 {stroke: #A1CAF1; fill: #A1CAF1; fill-opacity: 0.5;}
.l0d0 {stroke: #F38400; fill: #F38400; fill-opacity: 0.5;}
</style>
</defs>
<rect x="-16.957309" y="-216.214013" width="300" height="234.305892" fill="none" stroke="none"/>
<g id="flexible_paths_2" transform="scale(1 -1)">
<polygon id="0x55f11bda2380" class="l0d0" points="-3.320945,0 3.320945,0 3.320945,25.369763 3.830336,33.371239 5.350286,41.243524 7.856252,48.85951 11.307774,56.096229 15.649123,62.836837 20.810203,68.9725 26.707683,74.404151 33.246343,79.04409 40.320608,82.817401 47.816258,85.66316 55.612267,87.535419 63.58276,88.403947 71.599046,88.254723 79.531693,87.090155 87.25262,84.929046 94.637165,81.806291 152.085745,53.082001 159.802869,49.787794 167.859763,47.444242 176.139799,46.08527 184.523113,45.73055 192.888351,46.385218 201.114417,48.039795 209.082232,50.670331 216.676453,54.238746 223.787148,58.693385 230.311383,63.969761 236.154714,69.991495 241.232552,76.671416 245.471391,83.912827 248.809871,91.610901 251.199663,99.654202 252.606173,107.926295 253.009041,116.307433 252.402435,124.676293 250.08529,142.05488 248.487316,150.254195 245.920438,158.203624 242.421486,165.789111 238.040661,172.901822 232.840818,179.439704 226.896563,185.308956 220.293182,190.425365 213.12542,194.715524 205.496116,198.117878 197.514735,200.583611 189.295792,202.077345 180.957208,202.577649 106.270242,202.577649 106.270242,195.935759 180.957208,195.935759 189.18375,195.397184 197.269855,193.790651 205.077486,191.143585 212.473357,187.501177 219.331213,182.925604 225.533983,177.494978 230.975778,171.302004 235.563701,164.452405 239.219431,157.063109 241.880561,149.260261 243.501663,141.177064 245.818808,123.798476 246.371495,115.779828 245.900324,107.755978 244.41294,99.857125 241.93348,92.211443 238.502176,84.942996 234.174707,78.169725 229.021293,72.00154 223.125558,66.53853 216.58317,61.86934 209.500289,58.069736 201.991849,55.201374 194.179685,53.310798 186.190564,52.428685 178.154123,52.569349 170.200766,53.730508 162.45955,55.893319 155.056089,59.022688 97.607509,87.746978 89.445643,91.198445 80.911987,93.587038 72.144325,94.874192 63.284219,95.039125 54.474726,94.079172 45.858085,92.009833 37.573419,88.864521 29.754494,84.69402 22.527555,79.565666 16.009287,73.562262 10.304935,66.78074 5.506603,59.330594 1.691763,51.332115 -1.077989,42.914446 -2.757934,34.2135 -3.320945,25.369763"/>
<polygon id="0x55f11bda2380" class="l1d0" points="-3.320945,0 3.320945,0 3.320945,127.464401 267.160778,-4.455515 269.406328,-2.852905 242.015587,202.577649 106.270242,202.577649 106.270242,195.935759 236.200503,195.935759 261.555543,5.772961 -1.485172,137.293318 -3.320945,136.158748"/>
</g>
</svg>