<?xml version="1.0" encoding="UTF-8"?>
<svg xmlns="http://www.w3.org/2000/svg" xmlns:xlink="http://www.w3.org/1999/xlink" width="300" height="189.69641" viewBox="-35.84262 -162.199083 300 189.69641">
<defs>
<style type="text/css">
.l0d0 {stroke: #F38400; fill: #F38400; fill-opacity: 0.5;}
</style>
</defs>
<rect x="-35.84262" y="-162.199083" width="300" height="189.69641" fill="none" stroke="none"/>
<g id="flexible_paths" transform="scale(1 -1)">
<polygon id="0x55f11bf42870" class="l0d0" points="0,9.900688 0,-9.900688 69.304818,-9.900688 69.304818,33.483791 112.29005,54.976407 112.29005,63.831852 61.741365,89.106195 2.980879,89.106195 1.658761,89.981677 -0.356998,92.279004 -1.715539,95.068237 -2.38992,98.5902 -2.379115,99.947536 -2.144382,101.606701 -1.697127,103.196563 -1.053051,104.680963 -0.228192,106.038612 0.768317,107.262288 1.769409,108.194945 4.293317,109.803857 7.145782,110.756483 10.986331,111.047256 17.488903,110.368354 27.77244,108.753575 33.950937,108.348336 41.630954,109.051919 49.432228,111.624846 57.083816,115.958978 65.994833,122.397606 70.183263,125.267239 73.324915,127.028036 75.573227,127.958995 77.359451,128.439857 79.291728,128.656553 83.215198,128.285257 86.498786,127.098729 89.394713,125.112896 91.805314,122.353801 93.655088,118.69591 94.092294,117.173058 94.375397,115.327938 94.418461,113.496707 94.226791,111.703891 93.805081,109.960051 93.253116,108.527852 90.585647,104.213265 107.428119,93.800501 111.066104,99.684882 112.747356,104.047269 113.778137,108.30973 114.244671,112.673507 114.141295,117.069434 113.473177,121.42388 112.170773,125.960343 108.353408,133.509103 102.658633,140.027158 95.609239,144.861159 87.581845,147.761868 79.119284,148.562719 73.661234,147.950623 69.185035,146.745604 64.666374,144.874562 59.725696,142.105468 54.598686,138.592781 46.373129,132.649431 41.373767,129.817614 37.574553,128.5646 33.694099,128.209104 29.960717,128.453971 20.054556,130.009493 11.269246,130.926724 3.202389,130.315972 -4.293317,127.812662 -10.402529,123.918231 -13.725863,120.822083 -16.443166,117.485336 -18.679089,113.80519 -20.39569,109.848951 -21.564831,105.692992 -22.169401,101.419708 -22.206256,96.789624 -20.669064,88.761612 -16.994727,81.217797 -11.480049,74.93281 -2.980879,69.304818 57.066894,69.304818 76.868271,59.40413 49.503441,45.721715 49.503441,9.900688"/>
<polygon id="0x55f11bf3ccb0" class="l0d0" points="237.616519,6.930482 240.586726,6.930482 240.586726,12.870895 237.616519,12.870895 171.281907,12.870895 171.281907,38.578585 194.812887,26.813095 196.432335,26.513824 207.971885,27.650371 208.542959,27.763965 217.838451,30.583721 218.376391,30.806543 226.943165,35.385579 227.427298,35.709067 234.936138,41.871412 235.34786,42.283134 241.510206,49.791974 241.833693,50.276107 246.412729,58.842881 246.635551,59.380821 249.455308,68.676313 249.568901,69.247387 250.521017,78.914375 250.521017,79.496637 249.568901,89.163626 249.455308,89.7347 246.635551,99.030191 246.412729,99.568131 241.833693,108.134905 241.510206,108.619039 235.34786,116.127879 234.936138,116.5396 227.427298,122.701946 226.943165,123.025434 218.376391,127.60447 217.838451,127.827292 208.542959,130.647048 207.971885,130.760642 198.082394,131.734672 197.368558,131.718742 189.194339,130.543467 188.383175,130.305287 180.666706,126.781294 179.955502,126.324231 173.544428,120.769003 172.990803,120.130086 168.40451,112.993675 168.053315,112.224664 165.663358,104.085221 165.543044,103.248417 165.543044,94.765349 165.663358,93.928545 168.053315,85.789102 168.40451,85.020091 172.990803,77.88368 173.544428,77.244763 179.955502,71.689535 180.666706,71.232472 188.383175,67.708479 189.194339,67.470299 196.182047,66.465619 199.122021,66.042914 199.96743,71.922862 197.027455,72.345567 190.462453,73.289472 183.522902,76.458658 177.757315,81.454568 173.632785,87.872462 171.483457,95.1924 171.483457,102.821365 173.632785,110.141304 177.757315,116.559198 183.522902,121.555107 190.462453,124.724294 197.858014,125.787615 207.098492,124.877508 215.834097,122.227591 223.884876,117.924359 230.941444,112.133184 236.732619,105.076617 241.03585,97.025837 243.685767,88.290232 244.580534,79.205506 243.685767,70.12078 241.03585,61.385175 236.732619,53.334396 230.941444,46.277828 223.884876,40.486653 215.834097,36.183422 207.098492,33.533505 196.702972,32.509636 169.640018,46.041113 165.341494,43.38448 165.341494,9.900688 168.311701,6.930482"/>
<polygon id="0x55f11bf3cd20" class="l0d0" points="237.616519,-1.980138 237.616519,1.980138 160.39115,1.980138 160.39115,56.2002 197.639253,37.576148 206.128055,38.412222 213.930516,40.779073 221.121305,44.62263 227.424085,49.795187 232.596642,56.097967 236.440199,63.288756 238.80705,71.091218 239.606238,79.205506 238.80705,87.319795 236.440199,95.122256 232.596642,102.313046 227.424085,108.615825 221.121305,113.788383 213.930516,117.63194 206.128055,119.998791 197.969265,120.802361 191.871467,119.92563 186.226782,117.347789 181.537007,113.284076 178.182081,108.06371 176.433801,102.109613 176.433801,95.904152 178.182081,89.950056 181.537007,84.72969 186.226782,80.665977 191.871467,78.088136 197.731963,77.245524 198.295569,81.165489 192.998679,81.927067 188.389885,84.031832 184.560761,87.349788 181.821519,91.612131 180.394076,96.473554 180.394076,101.540212 181.821519,106.401634 184.560761,110.663978 188.389885,113.981933 192.998679,116.086699 198.058267,116.814158 205.351705,116.095817 212.407651,113.955419 218.910448,110.479602 224.610198,105.801938 229.287861,100.102189 232.763679,93.599391 234.904076,86.543445 235.6268,79.205506 234.904076,71.867567 232.763679,64.811621 229.287861,58.308824 224.610198,52.609075 218.910448,47.931411 212.407651,44.455594 205.351705,42.315196 198.388278,41.629358 156.430875,62.60806 156.430875,-1.980138"/>
<polygon id="0x55f11bf43520" class="l0d0" points="237.616519,-13.860964 239.94431,-13.104618 241.382965,-11.124481 241.382965,-8.676896 239.94431,-6.696758 237.616519,-5.940413 152.4706,-5.940413 152.4706,69.01592 198.115239,46.1936 198.805694,45.92579 199.533937,45.791212 200.274503,45.794572 204.18718,46.179938 204.444116,46.213764 204.69829,46.264322 204.948613,46.331396 210.511529,48.018888 210.756929,48.10219 210.996355,48.201364 211.228782,48.315984 216.355595,51.056323 216.580028,51.185899 216.795506,51.329877 217.001106,51.487639 221.494795,55.175515 221.689637,55.346386 221.872886,55.529635 222.043757,55.724477 225.731633,60.218166 225.889395,60.423766 226.033373,60.639244 226.16295,60.863677 228.903288,65.99049 229.017909,66.222917 229.117082,66.462344 229.200384,66.707743 230.887876,72.27066 230.95495,72.520982 231.005508,72.775156 231.039335,73.032092 231.609131,78.817331 231.62608,79.07593 231.62608,79.335083 231.609131,79.593681 231.039335,85.378921 231.005508,85.635857 230.95495,85.89003 230.887876,86.140353 229.200384,91.703269 229.117082,91.948669 229.017909,92.188095 228.903288,92.420523 226.16295,97.547336 226.033373,97.771769 225.889395,97.987247 225.731633,98.192847 222.043757,102.686536 221.872886,102.881377 221.689637,103.064626 221.494795,103.235498 217.001106,106.923373 216.795506,107.081136 216.580028,107.225113 216.355595,107.35469 211.228782,110.095029 210.996355,110.209649 210.756929,110.308823 210.511529,110.392125 204.948613,112.079617 204.69829,112.146691 204.444116,112.197249 204.18718,112.231075 198.624444,112.778957 198.306956,112.797396 197.989013,112.7903 197.672663,112.757717 194.689497,112.328802 194.319433,112.257478 193.957824,112.1513 193.607945,112.01123 191.070935,110.852616 190.735955,110.679922 190.418908,110.476168 190.122664,110.243199 188.01484,108.416759 187.742082,108.156686 187.495282,107.871863 187.276673,107.564869 185.768798,105.21857 185.58036,104.892187 185.423801,104.549369 185.300537,104.193222 184.514771,101.517147 184.425919,101.150896 184.372284,100.777857 184.354352,100.401409 184.354352,97.612357 184.372284,97.235909 184.425919,96.86287 184.514771,96.496619 185.300537,93.820544 185.423801,93.464397 185.58036,93.121579 185.768798,92.795196 187.276673,90.448896 187.495282,90.141903 187.742082,89.85708 188.01484,89.597007 190.122664,87.770566 190.418908,87.537598 190.735955,87.333844 191.070935,87.16115 193.607945,86.002536 193.957824,85.862466 194.319433,85.756288 194.689497,85.684964 198.859175,85.085454 201.270912,85.502822 202.976726,87.258063 203.325053,89.680735 202.182845,91.845459 199.986387,92.925385 196.380315,93.44386 194.879197,94.129398 193.632022,95.210081 192.739831,96.598358 192.274902,98.181759 192.274902,99.832007 192.739831,101.415408 193.632022,102.803685 194.879197,103.884368 196.380315,104.569906 198.325271,104.849548 203.022656,104.386896 207.839057,102.925857 212.277877,100.553258 216.168536,97.360277 219.361517,93.469618 221.734116,89.030797 223.195156,84.214396 223.688488,79.205506 223.195156,74.196617 221.734116,69.380215 219.361517,64.941395 216.168536,61.050736 212.277877,57.857755 207.839057,55.485156 203.022656,54.024117 200.635353,53.788988 150.281413,78.965958 147.667343,79.293297 145.426316,77.908266 144.550049,75.42378 144.550049,-9.900688 145.080625,-11.880826 146.530187,-13.330387 148.510324,-13.860964"/>
</g>
</svg>