<?xml version="1.0" encoding="UTF-8"?>
<svg xmlns="http://www.w3.org/2000/svg" xmlns:xlink="http://www.w3.org/1999/xlink" width="300" height="63.451387" viewBox="-11.892134 -41.636141 300 63.451387">
<defs>
<style type="text/css">
.l0d0 {stroke: #F38400; fill: #F38400; fill-opacity: 0.5;}
</style>
</defs>
<rect x="-11.892134" y="-41.636141" width="300" height="63.451387" fill="none" stroke="none"/>
<g id="fonts" transform="scale(1 -1)">
<polygon id="0x561cc05e9040" class="l0d0" points="4.426774,0 4.783679,1.905412 8.220329,1.905412 12.664373,24.718553 4.766409,24.718553 3.960495,20.527797 1.74423,20.527797 2.970371,26.859984 26.819688,26.859984 25.599303,20.527797 23.388794,20.527797 24.194709,24.718553 16.296745,24.718553 11.852702,1.905412 15.289352,1.905412 14.932447,0"/>
<polygon id="0x561cc07042b0" class="l0d0" points="32.12606,-0.442102 33.636575,-0.257893 34.926038,0.110525 35.957609,0.589469 37.173389,1.436831 38.168118,2.357876 38.868112,3.389447 39.383897,4.494701 36.952338,4.494701 36.620762,3.757865 36.141818,3.094712 35.515507,2.468401 34.668145,1.878932 34.078676,1.62104 33.378682,1.399989 32.53132,1.289463 31.573433,1.252622 30.247128,1.399989 29.178715,1.768407 28.294512,2.357876 27.668201,3.242079 27.373467,3.831548 27.189258,4.494701 27.078732,5.231537 27.04189,6.042057 27.04189,6.336792 27.078732,6.668368 27.078732,6.999944 27.115574,7.331521 30.541862,7.478888 33.526049,7.847306 36.068134,8.436775 38.168118,9.210453 39.789157,10.242024 40.931254,11.494645 41.631248,12.968318 41.852299,14.663041 41.410197,16.836708 40.120734,18.384064 37.910225,19.341952 34.815513,19.636686 32.752371,19.489319 30.836597,18.936692 29.06819,18.08933 27.483992,16.87355 26.084003,15.363036 24.978749,13.668312 24.131387,11.715696 23.541918,9.542029 23.505076,9.247295 27.483992,9.247295 28.036619,11.531487 28.66293,13.41042 29.399766,14.920934 30.173444,16.026188 31.057648,16.836708 32.052377,17.389335 33.120789,17.757754 34.262886,17.868279 36.068134,17.68407 37.320756,17.094601 38.094434,16.136714 38.352327,14.773567 38.241801,13.741996 37.873383,12.820951 37.210231,12.010431 36.362869,11.38412 34.631304,10.536758 32.605004,9.910448 30.210286,9.468346 27.483992,9.247295 23.505076,9.247295 23.431393,8.878877 23.284025,7.552572 23.284025,6.926261 23.357709,5.599955 23.652444,4.384176 24.057703,3.242079 24.684014,2.247351 25.789269,1.031571 27.115574,0.147367 28.626088,-0.368418 30.394495,-0.515785"/>
<polygon id="0x561cc0703a40" class="l0d0" points="45.875252,0 43.630204,0 52.063525,9.175914 47.82096,17.200521 45.466538,17.200521 45.823443,19.123203 50.681957,19.123203 54.653965,11.674249 61.509996,19.123203 63.760801,19.123203 55.482906,10.125742 59.857871,1.905412 62.356207,1.905412 61.993545,0 56.979605,0 52.909736,7.627406"/>
<polygon id="0x561cc06feb80" class="l0d0" points="69.225909,17.200521 66.313104,17.200521 66.693035,19.123203 69.605841,19.123203 70.757147,25.058189 74.084423,25.058189 72.933117,19.123203 79.155929,19.123203 78.781754,17.200521 72.553186,17.200521 70.198763,5.054236 70.080395,4.380722 69.995846,3.782042 69.945116,3.258198 69.928206,2.809188 69.936122,2.539351 69.959867,2.305492 69.999444,2.107611 70.05485,1.945708 70.282233,1.646009 70.624747,1.431938 71.082391,1.303495 71.655166,1.260681 72.268597,1.308172 72.813669,1.450646 73.290382,1.688103 73.698736,2.020543 74.048445,2.462357 74.349224,3.02218 74.601072,3.700012 74.80399,4.495852 77.302325,4.495852 76.925632,3.279425 76.440285,2.237852 75.846282,1.371134 75.143626,0.679271 74.320801,0.152908 73.360539,-0.223066 72.26284,-0.44865 71.027704,-0.523845 69.716294,-0.443973 68.64306,-0.204357 67.808003,0.195003 67.211123,0.754106 66.959274,1.184047 66.779383,1.696738 66.671448,2.29218 66.635469,2.970371 66.650221,3.443846 66.694474,3.948982 66.76823,4.485778 66.871487,5.054236"/>
<polygon id="0x561cc0708b50" class="l0d0" points="110.242647,19.157742 109.310089,14.374063 107.39892,14.374063 107.424105,14.549638 107.442094,14.719455 107.452888,14.883517 107.456485,15.041821 107.429502,15.482556 107.34855,15.872201 107.213632,16.210757 107.024745,16.498224 106.695903,16.805479 106.267761,17.024947 105.740319,17.156628 105.113576,17.200521 103.941043,17.094745 102.869968,16.777416 101.900352,16.248534 101.032194,15.5081 100.278448,14.569785 99.652066,13.447262 99.153046,12.140528 98.78139,10.649586 96.714794,0 93.404788,0 96.749334,17.23506 93.58324,17.23506 93.945902,19.123203 100.422002,19.123203 99.771514,15.721092 100.470573,16.65509 101.214964,17.459565 102.004689,18.134519 102.839746,18.67995 103.72985,19.103055 104.678958,19.405273 105.687071,19.586604 106.754188,19.647048 107.160744,19.639133 107.574494,19.615387 107.995441,19.575811 108.423583,19.520404 108.86108,19.450246 109.310089,19.366417 109.770612,19.268915"/>
<polygon id="0x561cc06febf0" class="l0d0" points="118.851687,-0.442102 120.325359,-0.257893 121.614823,0.110525 122.683235,0.589469 123.899015,1.436831 124.856902,2.357876 125.593738,3.389447 126.072682,4.494701 123.641122,4.494701 123.346388,3.757865 122.867444,3.094712 122.204292,2.468401 121.393772,1.878932 120.804303,1.62104 120.104308,1.399989 119.256947,1.289463 118.262218,1.252622 116.972754,1.399989 115.8675,1.768407 115.020138,2.357876 114.356986,3.242079 114.099093,3.831548 113.914884,4.494701 113.804358,5.231537 113.767517,6.042057 113.767517,6.668368 113.8412,7.331521 117.267489,7.478888 120.251676,7.847306 122.793761,8.436775 124.893744,9.210453 126.514784,10.242024 127.65688,11.494645 128.356874,12.968318 128.577925,14.663041 128.135823,16.836708 126.809518,18.384064 124.599009,19.341952 121.541139,19.636686 119.477998,19.489319 117.525382,18.936692 115.793816,18.08933 114.172777,16.87355 112.80963,15.363036 111.667533,13.668312 110.820172,11.715696 110.267544,9.542029 110.230703,9.247295 114.209618,9.247295 114.762246,11.531487 115.388556,13.41042 116.088551,14.920934 116.899071,16.026188 117.783274,16.836708 118.741161,17.389335 119.809574,17.757754 120.988512,17.868279 122.756919,17.68407 124.046382,17.094601 124.82006,16.136714 125.077953,14.773567 124.930586,13.741996 124.562168,12.820951 123.935857,12.010431 123.051653,11.38412 121.35693,10.536758 119.293789,9.910448 116.935913,9.468346 114.209618,9.247295 110.230703,9.247295 110.046494,8.215724 110.009652,7.552572 110.009652,6.926261 110.083335,5.599955 110.341228,4.384176 110.78333,3.242079 111.409641,2.247351 112.514895,1.031571 113.804358,0.147367 115.351715,-0.368418 117.08328,-0.515785"/>
<polygon id="0x561cc069de20" class="l0d0" points="132.819051,0 136.163597,17.200521 132.997504,17.200521 133.360165,19.123203 139.836265,19.123203 139.185777,15.721092 139.855693,16.634222 140.570223,17.427904 141.329366,18.102138 142.133122,18.656924 142.980052,19.090103 143.86296,19.399517 144.781847,19.585165 145.736712,19.647048 147.193834,19.533356 148.399108,19.192282 149.352534,18.623824 150.054111,17.827983 150.353811,17.232542 150.567882,16.545716 150.696325,15.767504 150.739139,14.897908 150.719711,14.273684 150.661426,13.609884 150.564284,12.906507 150.428286,12.163555 148.436526,1.905412 151.383871,1.905412 151.026966,0 144.746588,0 146.905288,11.115866 147.061434,12.00453 147.172967,12.816921 147.239886,13.553038 147.262193,14.21288 147.244204,14.730968 147.190236,15.191491 147.10029,15.594448 146.974366,15.93984 146.571409,16.506499 145.972729,16.911255 145.178328,17.154109 144.188204,17.23506 143.085108,17.129644 142.078435,16.813394 141.168183,16.286312 140.354353,15.548396 139.647379,14.61188 139.051937,13.48324 138.568029,12.162475 138.195653,10.649586 136.129058,0"/>
<polygon id="0x561cc0703ab0" class="l0d0" points="162.103975,-0.478944 163.098703,-0.294734 164.056591,-0.036842 164.903952,0.331576 165.714472,0.81052 166.48815,1.436831 167.224986,2.136825 167.888139,2.984187 167.335512,0 170.651275,0 176.067021,27.999777 169.619704,27.999777 169.251286,26.084003 172.38284,26.084003 170.467066,16.136714 170.098648,16.984076 169.656546,17.68407 169.103919,18.310381 168.477608,18.789324 167.777614,19.157742 166.930252,19.415635 166.009207,19.599844 164.940794,19.636686 163.209229,19.489319 161.588189,18.936692 160.077675,18.08933 158.640844,16.836708 157.351381,15.363036 156.31981,13.631471 155.546132,11.715696 154.993505,9.578871 154.846137,8.805193 154.735612,8.105199 154.661928,6.70521 154.69877,6.336792 158.493477,6.336792 158.530319,7.073628 158.567161,7.847306 158.677686,8.694668 158.861895,9.578871 159.303997,11.420962 159.856624,13.042002 160.519777,14.44199 161.330296,15.547245 162.2145,16.431448 163.246071,17.057759 164.351325,17.463019 165.567105,17.573545 166.746043,17.463019 167.70393,17.131443 168.477608,16.541974 169.067077,15.768296 169.288128,15.178827 169.472337,14.552516 169.582862,13.81568 169.619704,13.042002 169.619704,12.452533 169.472337,11.199911 169.361812,10.499917 168.993393,8.620984 168.588133,6.999944 168.072348,5.563114 167.409195,4.347334 166.635517,3.352605 165.751314,2.578927 164.756585,1.989458 163.651331,1.657882 162.435551,1.547356 161.256613,1.657882 160.298726,2.063141 159.561889,2.689452 159.009262,3.573656 158.788211,4.163125 158.604002,4.826277 158.530319,5.563114 158.493477,6.336792 154.69877,6.336792 154.735612,5.452588 154.956663,4.310492 155.325081,3.242079 155.804025,2.284192 156.761912,1.031571 157.977692,0.184209 159.37768,-0.331576 161.035562,-0.515785"/>
<polygon id="0x561cc0702dc0" class="l0d0" points="187.930085,-0.442102 189.440599,-0.257893 190.730063,0.110525 191.798475,0.589469 193.014255,1.436831 193.972142,2.357876 194.708978,3.389447 195.187922,4.494701 192.756362,4.494701 192.461628,3.757865 191.982684,3.094712 191.319532,2.468401 190.509012,1.878932 189.919543,1.62104 189.219548,1.399989 188.372187,1.289463 187.377458,1.252622 186.087994,1.399989 184.98274,1.768407 184.135378,2.357876 183.472226,3.242079 183.214333,3.831548 183.030124,4.494701 182.919599,5.231537 182.882757,6.042057 182.882757,6.668368 182.95644,7.331521 186.382729,7.478888 189.366916,7.847306 191.909001,8.436775 194.008984,9.210453 195.630024,10.242024 196.77212,11.494645 197.472114,12.968318 197.693165,14.663041 197.251064,16.836708 195.924758,18.384064 193.71425,19.341952 190.656379,19.636686 188.556396,19.489319 186.640622,18.936692 184.909056,18.08933 183.288017,16.87355 181.92487,15.363036 180.782773,13.668312 179.935412,11.715696 179.382785,9.542029 179.345943,9.247295 183.324858,9.247295 183.877486,11.531487 184.503796,13.41042 185.203791,14.920934 186.014311,16.026188 186.898514,16.836708 187.856401,17.389335 188.924814,17.757754 190.103752,17.868279 191.872159,17.68407 193.161622,17.094601 193.9353,16.136714 194.193193,14.773567 194.045826,13.741996 193.677408,12.820951 193.051097,12.010431 192.166893,11.38412 190.47217,10.536758 188.409029,9.910448 186.014311,9.468346 183.324858,9.247295 179.345943,9.247295 179.161734,8.215724 179.124892,7.552572 179.08805,6.926261 179.198575,5.599955 179.456468,4.384176 179.89857,3.242079 180.524881,2.247351 181.630135,1.031571 182.919599,0.147367 184.466955,-0.368418 186.19852,-0.515785"/>
<polygon id="0x561cc0708bc0" class="l0d0" points="218.771287,19.157742 217.838729,14.374063 215.92756,14.374063 215.952745,14.549638 215.970734,14.719455 215.981527,14.883517 215.985125,15.041821 215.958141,15.482556 215.87719,15.872201 215.742271,16.210757 215.553385,16.498224 215.224543,16.805479 214.796401,17.024947 214.268959,17.156628 213.642216,17.200521 212.469682,17.094745 211.398607,16.777416 210.428991,16.248534 209.560834,15.5081 208.807088,14.569785 208.180705,13.447262 207.681686,12.140528 207.31003,10.649586 205.243434,0 201.933428,0 205.277973,17.23506 202.11188,17.23506 202.474542,19.123203 208.950642,19.123203 208.300153,15.721092 208.999212,16.65509 209.743604,17.459565 210.533328,18.134519 211.368386,18.67995 212.258489,19.103055 213.207598,19.405273 214.215711,19.586604 215.282828,19.647048 215.689383,19.639133 216.103134,19.615387 216.524081,19.575811 216.952223,19.520404 217.389719,19.450246 217.838729,19.366417 218.299251,19.268915"/>
<polygon id="0x561cc07048f0" class="l0d0" points="222.762723,25.058189 222.880732,25.458988 223.06782,25.832443 223.323985,26.178554 223.649229,26.497322 224.016568,26.764281 224.399018,26.954967 224.796579,27.069378 225.20925,27.107515 225.602493,27.069378 225.953282,26.954967 226.261616,26.764281 226.527496,26.497322 226.691197,26.257347 226.808127,26.0037 226.878285,25.736381 226.901671,25.45539 226.898433,25.357169 226.888719,25.258228 226.872528,25.158569 226.849862,25.058189 226.734731,24.650914 226.550522,24.2753 226.297235,23.931348 225.974869,23.619056 225.612207,23.359652 225.232276,23.174363 224.835075,23.06319 224.420605,23.026133 224.020166,23.06319 223.66506,23.174363 223.355287,23.359652 223.090846,23.619056 222.932181,23.851476 222.81885,24.099726 222.750851,24.363807 222.728184,24.643719 222.730343,24.745177 222.736819,24.848075 222.747612,24.952413"/>
<polygon id="0x561cc070bf70" class="l0d0" points="222.497923,1.905412 225.62372,1.905412 225.266815,0 218.825255,0 222.152531,17.200521 218.986438,17.200521 219.366369,19.123203 225.842469,19.123203"/>
<polygon id="0x561cc070c450" class="l0d0" points="231.327725,0 234.672271,17.200521 231.506178,17.200521 231.868839,19.123203 238.344939,19.123203 237.694451,15.721092 238.364367,16.634222 239.078897,17.427904 239.83804,18.102138 240.641796,18.656924 241.488726,19.090103 242.371634,19.399517 243.290521,19.585165 244.245386,19.647048 245.702508,19.533356 246.907782,19.192282 247.861208,18.623824 248.562786,17.827983 248.862485,17.232542 249.076556,16.545716 249.204999,15.767504 249.247813,14.897908 249.228385,14.273684 249.1701,13.609884 249.072958,12.906507 248.93696,12.163555 246.9452,1.905412 249.892545,1.905412 249.53564,0 243.255262,0 245.413962,11.115866 245.570108,12.00453 245.681641,12.816921 245.74856,13.553038 245.770867,14.21288 245.752878,14.730968 245.69891,15.191491 245.608964,15.594448 245.48304,15.93984 245.080083,16.506499 244.481404,16.911255 243.687002,17.154109 242.696878,17.23506 241.593783,17.129644 240.587109,16.813394 239.676857,16.286312 238.863027,15.548396 238.156053,14.61188 237.560611,13.48324 237.076703,12.162475 236.704327,10.649586 234.637732,0"/>
<polygon id="0x561cc070e6b0" class="l0d0" points="262.350546,-8.031515 264.155795,-7.626255 265.813676,-6.926261 267.324191,-5.931532 268.53997,-4.752594 269.534699,-3.315763 270.271536,-1.584198 270.824163,0.40526 274.471502,19.120901 273.734666,19.341952 272.629412,19.526161 271.155739,19.636686 269.35049,19.636686 267.176823,19.452477 265.113682,18.936692 263.124224,18.052488 261.20845,16.836708 259.18215,15.031459 257.56111,12.820951 256.345331,10.205182 255.534811,7.220995 255.424285,6.594684 255.387443,5.968374 255.350602,5.48943 258.850574,5.48943 258.887416,6.115741 258.961099,6.742052 259.071625,7.478888 259.661094,9.799922 260.471614,11.826222 261.466343,13.631471 262.682122,15.105143 264.045269,16.284081 265.555784,17.131443 267.139982,17.647228 268.834705,17.794595 269.682067,17.757754 270.308377,17.647228 270.676796,17.463019 270.787321,17.205126 269.461016,10.499917 269.092598,8.620984 268.72418,6.999944 268.171552,5.563114 267.545242,4.347334 266.771563,3.352605 265.88736,2.578927 264.892631,1.989458 263.787377,1.657882 262.571597,1.547356 261.503184,1.657882 260.618981,1.915774 259.918986,2.394718 259.403201,3.05787 259.18215,3.426289 259.034783,3.86839 258.924257,4.384176 258.887416,4.899961 258.850574,5.48943 255.350602,5.48943 255.350602,5.415746 255.350602,4.826277 255.461127,3.942074 255.682178,3.094712 256.013754,2.321034 256.492698,1.62104 257.376901,0.663153 258.482156,0 259.771619,-0.40526 261.245292,-0.515785 262.276862,-0.478944 263.23475,-0.294734 264.155795,-0.036842 265.003156,0.331576 265.850518,0.81052 266.587354,1.436831 267.324191,2.136825 268.024185,2.984187 267.5084,0.40526 267.10314,-1.252622 266.587354,-2.65261 265.924202,-3.831548 265.150524,-4.752594 264.229478,-5.48943 263.161066,-6.005215 261.945286,-6.29995 260.545297,-6.410475 259.513726,-6.336792 258.629523,-6.189424 257.855845,-5.931532 257.266376,-5.526272 256.824274,-5.047328 256.492698,-4.421017 256.308489,-3.684181 256.271647,-2.799978 254.540082,-2.799978 253.766404,-6.815735 254.50324,-7.147312 256.050596,-7.663097 256.861116,-7.847306 257.708478,-7.994673 258.592681,-8.105199 259.476885,-8.178882 260.39793,-8.178882"/>
</g>
</svg>