<?xml version="1.0" encoding="UTF-8"?>
<svg xmlns="http://www.w3.org/2000/svg" xmlns:xlink="http://www.w3.org/1999/xlink" width="300" height="245.454545" viewBox="-150 -122.727273 300 245.454545">
<defs>
<style type="text/css">
.l0d0 {stroke: #F38400; fill: #F38400; fill-opacity: 0.5;}
</style>
</defs>
<rect x="-150" y="-122.727273" width="300" height="245.454545" fill="none" stroke="none"/>
<g id="fracture" transform="scale(1 -1)">
<polygon id="0x55ccd46dcd20" class="l0d0" points="-99.992727,1.029091 -99.970909,2.058182 -99.934545,3.087273 -99.883636,4.114545 -99.818182,5.141818 -99.738182,6.167273 -99.643636,7.192727 -99.534545,8.216364 -99.410909,9.238182 -99.272727,10.258182 -99.12,11.274545 -98.954545,12.290909 -98.772727,13.303636 -98.578182,14.314545 -98.367273,15.321818 -98.143636,16.327273 -97.905455,17.327273 -97.652727,18.325455 -97.387273,19.32 -97.107273,20.310909 -96.812727,21.296364 -96.503636,22.278182 -96.181818,23.256364 -96.181818,84.570909 -96.965455,83.927273 -97.929091,83.116364 -98.885455,82.294545 -99.830909,81.461818 -100.767273,80.62 -101.692727,79.765455 -102.609091,78.9 -103.516364,78.025455 -104.410909,77.138182 -105.298182,76.243636 -106.172727,75.336364 -107.038182,74.42 -107.892727,73.494545 -108.734545,72.558182 -109.567273,71.612727 -110.389091,70.656364 -111.2,69.692727 -112,68.718182 -112.787273,67.734545 -113.563636,66.743636 -114.329091,65.741818 -115.081818,64.732727 -115.823636,63.712727 -116.554545,62.687273 -117.272727,61.650909 -117.978182,60.607273 -118.672727,59.556364 -119.354545,58.496364 -120.023636,57.429091 -120.68,56.354545 -121.325455,55.270909 -121.958182,54.181818 -122.576364,53.083636 -123.183636,51.98 -123.778182,50.869091 -124.358182,49.750909 -124.927273,48.625455 -125.481818,47.494545 -126.023636,46.358182 -126.552727,45.214545 -127.069091,44.063636 -127.570909,42.909091 -128.06,41.747273 -128.534545,40.58 -128.996364,39.407273 -129.445455,38.230909 -129.88,37.047273 -130.301818,35.86 -130.709091,34.667273 -131.101818,33.470909 -131.481818,32.269091 -131.847273,31.063636 -132.2,29.854545 -132.536364,28.64 -132.86,27.421818 -133.170909,26.201818 -133.465455,24.976364 -133.747273,23.749091 -134.014545,22.516364 -134.267273,21.281818 -134.505455,20.045455 -134.730909,18.805455 -134.94,17.563636 -135.136364,16.318182 -135.318182,15.070909 -135.483636,13.821818 -135.636364,12.572727 -135.774545,11.32 -135.898182,10.065455 -136.007273,8.810909 -136.101818,7.554545 -136.181818,6.296364 -136.247273,5.038182 -136.298182,3.78 -136.334545,2.52 -136.356364,1.26 -136.363636,0 -100,0"/>
<polygon id="0x55ccd483f370" class="l0d0" points="-95.845455,24.229091 -95.496364,25.196364 -95.132727,26.16 -94.756364,27.116364 -94.365455,28.069091 -93.961818,29.016364 -93.543636,29.956364 -93.112727,30.890909 -92.669091,31.82 -92.212727,32.741818 -91.743636,33.658182 -91.26,34.567273 -90.765455,35.469091 -90.256364,36.363636 -89.736364,37.250909 -89.201818,38.130909 -88.656364,39.003636 -88.098182,39.869091 -87.527273,40.725455 -86.945455,41.574545 -86.350909,42.414545 -85.745455,43.245455 -85.127273,44.069091 -84.498182,44.883636 -83.856364,45.689091 -83.205455,46.485455 -82.541818,47.270909 -81.867273,48.049091 -81.181818,48.816364 -80.485455,49.574545 -79.778182,50.323636 -79.061818,51.06 -78.332727,51.789091 -77.596364,52.505455 -76.847273,53.212727 -76.089091,53.909091 -75.321818,54.594545 -74.543636,55.269091 -73.758182,55.932727 -72.961818,56.583636 -72.156364,57.225455 -71.341818,57.854545 -70.518182,58.472727 -69.687273,59.078182 -68.847273,59.672727 -67.998182,60.254545 -67.141818,60.825455 -66.276364,61.383636 -65.403636,61.929091 -64.523636,62.463636 -63.636364,62.983636 -62.741818,63.492727 -61.84,63.987273 -60.930909,64.470909 -60.014545,64.94 -59.092727,65.396364 -58.163636,65.84 -57.229091,66.270909 -56.289091,66.689091 -55.341818,67.092727 -54.389091,67.483636 -54.389091,105.665455 -54.694545,105.587273 -55.912727,105.263636 -57.127273,104.927273 -58.336364,104.574545 -59.541818,104.209091 -60.743636,103.829091 -61.94,103.436364 -63.132727,103.029091 -64.32,102.607273 -65.503636,102.172727 -66.68,101.723636 -67.852727,101.261818 -69.02,100.787273 -70.181818,100.298182 -71.336364,99.796364 -72.487273,99.28 -73.630909,98.750909 -74.767273,98.209091 -75.898182,97.654545 -77.023636,97.085455 -78.141818,96.505455 -79.252727,95.910909 -80.356364,95.303636 -81.454545,94.685455 -82.543636,94.052727 -83.627273,93.407273 -84.701818,92.750909 -85.769091,92.081818 -86.829091,91.4 -87.88,90.705455 -88.923636,90 -89.96,89.281818 -90.985455,88.550909 -92.005455,87.809091 -93.014545,87.056364 -94.016364,86.290909 -95.007273,85.514545 -95.990909,84.727273 -96.181818,84.570909 -96.181818,23.256364"/>
<polygon id="0x55ccd48716d0" class="l0d0" points="-54.389091,-67.483636 -55.341818,-67.092727 -56.289091,-66.689091 -57.229091,-66.270909 -58.163636,-65.84 -59.092727,-65.396364 -60.014545,-64.94 -60.930909,-64.470909 -61.84,-63.987273 -62.741818,-63.492727 -63.636364,-62.983636 -64.523636,-62.463636 -65.403636,-61.929091 -66.276364,-61.383636 -67.141818,-60.825455 -67.998182,-60.254545 -68.847273,-59.672727 -69.687273,-59.078182 -70.518182,-58.472727 -71.341818,-57.854545 -72.156364,-57.225455 -72.961818,-56.583636 -73.758182,-55.932727 -74.543636,-55.269091 -75.321818,-54.594545 -76.089091,-53.909091 -76.847273,-53.212727 -77.596364,-52.505455 -78.332727,-51.789091 -79.061818,-51.06 -79.778182,-50.323636 -80.485455,-49.574545 -81.181818,-48.816364 -81.867273,-48.049091 -82.541818,-47.270909 -83.205455,-46.485455 -83.856364,-45.689091 -84.498182,-44.883636 -85.127273,-44.069091 -85.745455,-43.245455 -86.350909,-42.414545 -86.945455,-41.574545 -87.527273,-40.725455 -88.098182,-39.869091 -88.656364,-39.003636 -89.201818,-38.130909 -89.736364,-37.250909 -90.256364,-36.363636 -90.765455,-35.469091 -91.26,-34.567273 -91.743636,-33.658182 -92.212727,-32.741818 -92.669091,-31.82 -93.112727,-30.890909 -93.543636,-29.956364 -93.961818,-29.016364 -94.365455,-28.069091 -94.756364,-27.116364 -95.132727,-26.16 -95.496364,-25.196364 -95.845455,-24.229091 -96.181818,-23.256364 -96.181818,-84.570909 -95.990909,-84.727273 -95.007273,-85.514545 -94.016364,-86.290909 -93.014545,-87.056364 -92.005455,-87.809091 -90.985455,-88.550909 -89.96,-89.281818 -88.923636,-90 -87.88,-90.705455 -86.829091,-91.4 -85.769091,-92.081818 -84.701818,-92.750909 -83.627273,-93.407273 -82.543636,-94.052727 -81.454545,-94.685455 -80.356364,-95.303636 -79.252727,-95.910909 -78.141818,-96.505455 -77.023636,-97.085455 -75.898182,-97.654545 -74.767273,-98.209091 -73.630909,-98.750909 -72.487273,-99.28 -71.336364,-99.796364 -70.181818,-100.298182 -69.02,-100.787273 -67.852727,-101.261818 -66.68,-101.723636 -65.503636,-102.172727 -64.32,-102.607273 -63.132727,-103.029091 -61.94,-103.436364 -60.743636,-103.829091 -59.541818,-104.209091 -58.336364,-104.574545 -57.127273,-104.927273 -55.912727,-105.263636 -54.694545,-105.587273 -54.389091,-105.665455"/>
<polygon id="0x55ccd4940080" class="l0d0" points="-52.469091,68.223636 -51.501818,68.572727 -50.529091,68.909091 -49.550909,69.230909 -48.569091,69.54 -47.583636,69.834545 -46.592727,70.114545 -45.598182,70.38 -44.6,70.632727 -43.6,70.870909 -42.594545,71.094545 -41.587273,71.305455 -40.576364,71.5 -39.563636,71.681818 -38.547273,71.847273 -37.530909,72 -36.510909,72.138182 -35.489091,72.261818 -34.465455,72.370909 -33.44,72.465455 -32.414545,72.545455 -31.387273,72.610909 -30.36,72.661818 -29.330909,72.698182 -28.301818,72.72 -27.272727,72.727273 27.272727,72.727273 28.301818,72.72 29.330909,72.698182 30.36,72.661818 31.387273,72.610909 32.414545,72.545455 33.44,72.465455 34.465455,72.370909 35.489091,72.261818 36.510909,72.138182 37.530909,72 38.547273,71.847273 39.563636,71.681818 40.576364,71.5 41.587273,71.305455 42.594545,71.094545 43.6,70.870909 44.6,70.632727 45.598182,70.38 46.592727,70.114545 47.583636,69.834545 48.569091,69.54 49.550909,69.230909 50.529091,68.909091 51.501818,68.572727 52.469091,68.223636 53.432727,67.86 54.389091,67.483636 54.389091,105.665455 53.474545,105.898182 52.249091,106.192727 51.021818,106.474545 49.789091,106.741818 48.554545,106.994545 47.318182,107.232727 46.078182,107.458182 44.836364,107.667273 43.590909,107.863636 42.343636,108.045455 41.094545,108.210909 39.845455,108.363636 38.592727,108.501818 37.338182,108.625455 36.083636,108.734545 34.827273,108.829091 33.569091,108.909091 32.310909,108.974545 31.052727,109.025455 29.792727,109.061818 28.532727,109.083636 27.272727,109.090909 -27.272727,109.090909 -28.532727,109.083636 -29.792727,109.061818 -31.052727,109.025455 -32.310909,108.974545 -33.569091,108.909091 -34.827273,108.829091 -36.083636,108.734545 -37.338182,108.625455 -38.592727,108.501818 -39.845455,108.363636 -41.094545,108.210909 -42.343636,108.045455 -43.590909,107.863636 -44.836364,107.667273 -46.078182,107.458182 -47.318182,107.232727 -48.554545,106.994545 -49.789091,106.741818 -51.021818,106.474545 -52.249091,106.192727 -53.474545,105.898182 -54.389091,105.665455 -54.389091,67.483636 -53.432727,67.86"/>
<polygon id="0x55ccd475a480" class="l0d0" points="28.532727,-109.083636 29.792727,-109.061818 31.052727,-109.025455 32.310909,-108.974545 33.569091,-108.909091 34.827273,-108.829091 36.083636,-108.734545 37.338182,-108.625455 38.592727,-108.501818 39.845455,-108.363636 41.094545,-108.210909 42.343636,-108.045455 43.590909,-107.863636 44.836364,-107.667273 46.078182,-107.458182 47.318182,-107.232727 48.554545,-106.994545 49.789091,-106.741818 51.021818,-106.474545 52.249091,-106.192727 53.474545,-105.898182 54.389091,-105.665455 54.389091,-67.483636 53.432727,-67.86 52.469091,-68.223636 51.501818,-68.572727 50.529091,-68.909091 49.550909,-69.230909 48.569091,-69.54 47.583636,-69.834545 46.592727,-70.114545 45.598182,-70.38 44.6,-70.632727 43.6,-70.870909 42.594545,-71.094545 41.587273,-71.305455 40.576364,-71.5 39.563636,-71.681818 38.547273,-71.847273 37.530909,-72 36.510909,-72.138182 35.489091,-72.261818 34.465455,-72.370909 33.44,-72.465455 32.414545,-72.545455 31.387273,-72.610909 30.36,-72.661818 29.330909,-72.698182 28.301818,-72.72 27.272727,-72.727273 -27.272727,-72.727273 -28.301818,-72.72 -29.330909,-72.698182 -30.36,-72.661818 -31.387273,-72.610909 -32.414545,-72.545455 -33.44,-72.465455 -34.465455,-72.370909 -35.489091,-72.261818 -36.510909,-72.138182 -37.530909,-72 -38.547273,-71.847273 -39.563636,-71.681818 -40.576364,-71.5 -41.587273,-71.305455 -42.594545,-71.094545 -43.6,-70.870909 -44.6,-70.632727 -45.598182,-70.38 -46.592727,-70.114545 -47.583636,-69.834545 -48.569091,-69.54 -49.550909,-69.230909 -50.529091,-68.909091 -51.501818,-68.572727 -52.469091,-68.223636 -53.432727,-67.86 -54.389091,-67.483636 -54.389091,-105.665455 -53.474545,-105.898182 -52.249091,-106.192727 -51.021818,-106.474545 -49.789091,-106.741818 -48.554545,-106.994545 -47.318182,-107.232727 -46.078182,-107.458182 -44.836364,-107.667273 -43.590909,-107.863636 -42.343636,-108.045455 -41.094545,-108.210909 -39.845455,-108.363636 -38.592727,-108.501818 -37.338182,-108.625455 -36.083636,-108.734545 -34.827273,-108.829091 -33.569091,-108.909091 -32.310909,-108.974545 -31.052727,-109.025455 -29.792727,-109.061818 -28.532727,-109.083636 -27.272727,-109.090909 27.272727,-109.090909"/>
<polygon id="0x55ccd468c450" class="l0d0" points="96.181818,84.570909 95.990909,84.727273 95.007273,85.514545 94.016364,86.290909 93.014545,87.056364 92.005455,87.809091 90.985455,88.550909 89.96,89.281818 88.923636,90 87.88,90.705455 86.829091,91.4 85.769091,92.081818 84.701818,92.750909 83.627273,93.407273 82.543636,94.052727 81.454545,94.685455 80.356364,95.303636 79.252727,95.910909 78.141818,96.505455 77.023636,97.085455 75.898182,97.654545 74.767273,98.209091 73.630909,98.750909 72.487273,99.28 71.336364,99.796364 70.181818,100.298182 69.02,100.787273 67.852727,101.261818 66.68,101.723636 65.503636,102.172727 64.32,102.607273 63.132727,103.029091 61.94,103.436364 60.743636,103.829091 59.541818,104.209091 58.336364,104.574545 57.127273,104.927273 55.912727,105.263636 54.694545,105.587273 54.389091,105.665455 54.389091,67.483636 55.341818,67.092727 56.289091,66.689091 57.229091,66.270909 58.163636,65.84 59.092727,65.396364 60.014545,64.94 60.930909,64.470909 61.84,63.987273 62.741818,63.492727 63.636364,62.983636 64.523636,62.463636 65.403636,61.929091 66.276364,61.383636 67.141818,60.825455 67.998182,60.254545 68.847273,59.672727 69.687273,59.078182 70.518182,58.472727 71.341818,57.854545 72.156364,57.225455 72.961818,56.583636 73.758182,55.932727 74.543636,55.269091 75.321818,54.594545 76.089091,53.909091 76.847273,53.212727 77.596364,52.505455 78.332727,51.789091 79.061818,51.06 79.778182,50.323636 80.485455,49.574545 81.181818,48.816364 81.867273,48.049091 82.541818,47.270909 83.205455,46.485455 83.856364,45.689091 84.498182,44.883636 85.127273,44.069091 85.745455,43.245455 86.350909,42.414545 86.945455,41.574545 87.527273,40.725455 88.098182,39.869091 88.656364,39.003636 89.201818,38.130909 89.736364,37.250909 90.256364,36.363636 90.765455,35.469091 91.26,34.567273 91.743636,33.658182 92.212727,32.741818 92.669091,31.82 93.112727,30.890909 93.543636,29.956364 93.961818,29.016364 94.365455,28.069091 94.756364,27.116364 95.132727,26.16 95.496364,25.196364 95.845455,24.229091 96.181818,23.256364"/>
<polygon id="0x55ccd4803010" class="l0d0" points="54.694545,-105.587273 55.912727,-105.263636 57.127273,-104.927273 58.336364,-104.574545 59.541818,-104.209091 60.743636,-103.829091 61.94,-103.436364 63.132727,-103.029091 64.32,-102.607273 65.503636,-102.172727 66.68,-101.723636 67.852727,-101.261818 69.02,-100.787273 70.181818,-100.298182 71.336364,-99.796364 72.487273,-99.28 73.630909,-98.750909 74.767273,-98.209091 75.898182,-97.654545 77.023636,-97.085455 78.141818,-96.505455 79.252727,-95.910909 80.356364,-95.303636 81.454545,-94.685455 82.543636,-94.052727 83.627273,-93.407273 84.701818,-92.750909 85.769091,-92.081818 86.829091,-91.4 87.88,-90.705455 88.923636,-90 89.96,-89.281818 90.985455,-88.550909 92.005455,-87.809091 93.014545,-87.056364 94.016364,-86.290909 95.007273,-85.514545 95.990909,-84.727273 96.181818,-84.570909 96.181818,-23.256364 95.845455,-24.229091 95.496364,-25.196364 95.132727,-26.16 94.756364,-27.116364 94.365455,-28.069091 93.961818,-29.016364 93.543636,-29.956364 93.112727,-30.890909 92.669091,-31.82 92.212727,-32.741818 91.743636,-33.658182 91.26,-34.567273 90.765455,-35.469091 90.256364,-36.363636 89.736364,-37.250909 89.201818,-38.130909 88.656364,-39.003636 88.098182,-39.869091 87.527273,-40.725455 86.945455,-41.574545 86.350909,-42.414545 85.745455,-43.245455 85.127273,-44.069091 84.498182,-44.883636 83.856364,-45.689091 83.205455,-46.485455 82.541818,-47.270909 81.867273,-48.049091 81.181818,-48.816364 80.485455,-49.574545 79.778182,-50.323636 79.061818,-51.06 78.332727,-51.789091 77.596364,-52.505455 76.847273,-53.212727 76.089091,-53.909091 75.321818,-54.594545 74.543636,-55.269091 73.758182,-55.932727 72.961818,-56.583636 72.156364,-57.225455 71.341818,-57.854545 70.518182,-58.472727 69.687273,-59.078182 68.847273,-59.672727 67.998182,-60.254545 67.141818,-60.825455 66.276364,-61.383636 65.403636,-61.929091 64.523636,-62.463636 63.636364,-62.983636 62.741818,-63.492727 61.84,-63.987273 60.930909,-64.470909 60.014545,-64.94 59.092727,-65.396364 58.163636,-65.84 57.229091,-66.270909 56.289091,-66.689091 55.341818,-67.092727 54.389091,-67.483636 54.389091,-105.665455"/>
<polygon id="0x55ccd473d840" class="l0d0" points="-96.181818,-23.256364 -96.503636,-22.278182 -96.812727,-21.296364 -97.107273,-20.310909 -97.387273,-19.32 -97.652727,-18.325455 -97.905455,-17.327273 -98.143636,-16.327273 -98.367273,-15.321818 -98.578182,-14.314545 -98.772727,-13.303636 -98.954545,-12.290909 -99.12,-11.274545 -99.272727,-10.258182 -99.410909,-9.238182 -99.534545,-8.216364 -99.643636,-7.192727 -99.738182,-6.167273 -99.818182,-5.141818 -99.883636,-4.114545 -99.934545,-3.087273 -99.970909,-2.058182 -99.992727,-1.029091 -100,0 -136.363636,0 -136.356364,-1.26 -136.334545,-2.52 -136.298182,-3.78 -136.247273,-5.038182 -136.181818,-6.296364 -136.101818,-7.554545 -136.007273,-8.810909 -135.898182,-10.065455 -135.774545,-11.32 -135.636364,-12.572727 -135.483636,-13.821818 -135.318182,-15.070909 -135.136364,-16.318182 -134.94,-17.563636 -134.730909,-18.805455 -134.505455,-20.045455 -134.267273,-21.281818 -134.014545,-22.516364 -133.747273,-23.749091 -133.465455,-24.976364 -133.170909,-26.201818 -132.86,-27.421818 -132.536364,-28.64 -132.2,-29.854545 -131.847273,-31.063636 -131.481818,-32.269091 -131.101818,-33.470909 -130.709091,-34.667273 -130.301818,-35.86 -129.88,-37.047273 -129.445455,-38.230909 -128.996364,-39.407273 -128.534545,-40.58 -128.06,-41.747273 -127.570909,-42.909091 -127.069091,-44.063636 -126.552727,-45.214545 -126.023636,-46.358182 -125.481818,-47.494545 -124.927273,-48.625455 -124.358182,-49.750909 -123.778182,-50.869091 -123.183636,-51.98 -122.576364,-53.083636 -121.958182,-54.181818 -121.325455,-55.270909 -120.68,-56.354545 -120.023636,-57.429091 -119.354545,-58.496364 -118.672727,-59.556364 -117.978182,-60.607273 -117.272727,-61.650909 -116.554545,-62.687273 -115.823636,-63.712727 -115.081818,-64.732727 -114.329091,-65.741818 -113.563636,-66.743636 -112.787273,-67.734545 -112,-68.718182 -111.2,-69.692727 -110.389091,-70.656364 -109.567273,-71.612727 -108.734545,-72.558182 -107.892727,-73.494545 -107.038182,-74.42 -106.172727,-75.336364 -105.298182,-76.243636 -104.410909,-77.138182 -103.516364,-78.025455 -102.609091,-78.9 -101.692727,-79.765455 -100.767273,-80.62 -99.830909,-81.461818 -98.885455,-82.294545 -97.929091,-83.116364 -96.965455,-83.927273 -96.181818,-84.570909"/>
<polygon id="0x55ccd4873d90" class="l0d0" points="96.965455,-83.927273 97.929091,-83.116364 98.885455,-82.294545 99.830909,-81.461818 100.767273,-80.62 101.692727,-79.765455 102.609091,-78.9 103.516364,-78.025455 104.410909,-77.138182 105.298182,-76.243636 106.172727,-75.336364 107.038182,-74.42 107.892727,-73.494545 108.734545,-72.558182 109.567273,-71.612727 110.389091,-70.656364 111.2,-69.692727 112,-68.718182 112.787273,-67.734545 113.563636,-66.743636 114.329091,-65.741818 115.081818,-64.732727 115.823636,-63.712727 116.554545,-62.687273 117.272727,-61.650909 117.978182,-60.607273 118.672727,-59.556364 119.354545,-58.496364 120.023636,-57.429091 120.68,-56.354545 121.325455,-55.270909 121.958182,-54.181818 122.576364,-53.083636 123.183636,-51.98 123.778182,-50.869091 124.358182,-49.750909 124.927273,-48.625455 125.481818,-47.494545 126.023636,-46.358182 126.552727,-45.214545 127.069091,-44.063636 127.570909,-42.909091 128.06,-41.747273 128.534545,-40.58 128.996364,-39.407273 129.445455,-38.230909 129.88,-37.047273 130.301818,-35.86 130.709091,-34.667273 131.101818,-33.470909 131.481818,-32.269091 131.847273,-31.063636 132.2,-29.854545 132.536364,-28.64 132.86,-27.421818 133.170909,-26.201818 133.465455,-24.976364 133.747273,-23.749091 134.014545,-22.516364 134.267273,-21.281818 134.505455,-20.045455 134.730909,-18.805455 134.94,-17.563636 135.136364,-16.318182 135.318182,-15.070909 135.483636,-13.821818 135.636364,-12.572727 135.774545,-11.32 135.898182,-10.065455 136.007273,-8.810909 136.101818,-7.554545 136.181818,-6.296364 136.247273,-5.038182 136.298182,-3.78 136.334545,-2.52 136.356364,-1.26 136.363636,0 100,0 99.992727,-1.029091 99.970909,-2.058182 99.934545,-3.087273 99.883636,-4.114545 99.818182,-5.141818 99.738182,-6.167273 99.643636,-7.192727 99.534545,-8.216364 99.410909,-9.238182 99.272727,-10.258182 99.12,-11.274545 98.954545,-12.290909 98.772727,-13.303636 98.578182,-14.314545 98.367273,-15.321818 98.143636,-16.327273 97.905455,-17.327273 97.652727,-18.325455 97.387273,-19.32 97.107273,-20.310909 96.812727,-21.296364 96.503636,-22.278182 96.181818,-23.256364 96.181818,-84.570909"/>
<polygon id="0x55ccd47857f0" class="l0d0" points="136.356364,1.26 136.334545,2.52 136.298182,3.78 136.247273,5.038182 136.181818,6.296364 136.101818,7.554545 136.007273,8.810909 135.898182,10.065455 135.774545,11.32 135.636364,12.572727 135.483636,13.821818 135.318182,15.070909 135.136364,16.318182 134.94,17.563636 134.730909,18.805455 134.505455,20.045455 134.267273,21.281818 134.014545,22.516364 133.747273,23.749091 133.465455,24.976364 133.170909,26.201818 132.86,27.421818 132.536364,28.64 132.2,29.854545 131.847273,31.063636 131.481818,32.269091 131.101818,33.470909 130.709091,34.667273 130.301818,35.86 129.88,37.047273 129.445455,38.230909 128.996364,39.407273 128.534545,40.58 128.06,41.747273 127.570909,42.909091 127.069091,44.063636 126.552727,45.214545 126.023636,46.358182 125.481818,47.494545 124.927273,48.625455 124.358182,49.750909 123.778182,50.869091 123.183636,51.98 122.576364,53.083636 121.958182,54.181818 121.325455,55.270909 120.68,56.354545 120.023636,57.429091 119.354545,58.496364 118.672727,59.556364 117.978182,60.607273 117.272727,61.650909 116.554545,62.687273 115.823636,63.712727 115.081818,64.732727 114.329091,65.741818 113.563636,66.743636 112.787273,67.734545 112,68.718182 111.2,69.692727 110.389091,70.656364 109.567273,71.612727 108.734545,72.558182 107.892727,73.494545 107.038182,74.42 106.172727,75.336364 105.298182,76.243636 104.410909,77.138182 103.516364,78.025455 102.609091,78.9 101.692727,79.765455 100.767273,80.62 99.830909,81.461818 98.885455,82.294545 97.929091,83.116364 96.965455,83.927273 96.181818,84.570909 96.181818,23.256364 96.503636,22.278182 96.812727,21.296364 97.107273,20.310909 97.387273,19.32 97.652727,18.325455 97.905455,17.327273 98.143636,16.327273 98.367273,15.321818 98.578182,14.314545 98.772727,13.303636 98.954545,12.290909 99.12,11.274545 99.272727,10.258182 99.410909,9.238182 99.534545,8.216364 99.643636,7.192727 99.738182,6.167273 99.818182,5.141818 99.883636,4.114545 99.934545,3.087273 99.970909,2.058182 99.992727,1.029091 100,0 136.363636,0"/>
</g>
</svg>