<?xml version="1.0" encoding="UTF-8"?>
<svg xmlns="http://www.w3.org/2000/svg" xmlns:xlink="http://www.w3.org/1999/xlink" width="300" height="245.457455" viewBox="-150 -122.728727 300 245.457455">
<defs>
<style type="text/css">
.l0d1 {fill:none;stroke:black;stroke-dasharray:8,8;}
.l0d0 {stroke: #F38400; fill: #F38400; fill-opacity: 0.5;}
.l3t2 {stroke:red;fill:none;font-size:32px;}
</style>
</defs>
<rect x="-150" y="-122.728727" width="300" height="245.457455" fill="none" stroke="none"/>
<g id="fracture" transform="scale(1 -1)">
<polygon id="0x563dbc8ecfa0" class="l0d0" points="-99.984969,1.536384 -99.955878,2.560034 -99.912241,3.585502 -99.855877,4.607334 -99.783149,5.629166 -99.695875,6.650998 -99.595873,7.669193 -99.481326,8.687389 -99.350416,9.703766 -99.206777,10.718325 -99.048593,11.731066 -98.875864,12.741988 -98.690407,13.749274 -98.488586,14.752924 -98.274038,15.754756 -98.044944,16.752951 -97.803122,17.749328 -97.544937,18.74025 -97.274024,19.729354 -96.988566,20.713003 -96.69038,21.693017 -96.377649,22.669393 -96.377649,84.412035 -96.754017,84.104758 -97.715848,83.299292 -98.670407,82.484736 -99.614055,81.657452 -100.550432,80.819259 -101.47408,79.970157 -102.390456,79.111964 -103.295923,78.241043 -104.19048,77.361031 -105.075946,76.471929 -105.950504,75.570099 -106.81597,74.660995 -107.668708,73.740983 -108.512356,72.810062 -109.345094,71.870049 -110.166923,70.920946 -110.977843,69.962751 -111.776036,68.995465 -112.565137,68.017271 -113.341511,67.031803 -114.106976,66.037244 -114.861531,65.033594 -115.605178,64.020854 -116.336097,63.00084 -117.054288,61.971735 -117.76157,60.93354 -118.456125,59.888071 -119.13977,58.83533 -119.810688,57.775316 -120.468879,56.706211 -121.11616,55.629833 -121.750714,54.546182 -122.370723,53.455258 -122.979822,52.357062 -123.576193,51.253411 -124.159837,50.140669 -124.730754,49.022472 -125.287125,47.89882 -125.832587,46.767896 -126.363503,45.629699 -126.88351,44.486048 -127.388971,43.336941 -127.879887,42.182381 -128.358075,41.022365 -128.823536,39.855077 -129.276269,38.684152 -129.714457,37.507773 -130.139917,36.327757 -130.550832,35.140469 -130.949019,33.949544 -131.33266,32.754982 -131.701756,31.554966 -132.058124,30.351314 -132.399947,29.144025 -132.729042,27.931282 -133.043592,26.71672 -133.343596,25.498522 -133.630873,24.274869 -133.901785,23.049398 -134.159971,21.822109 -134.405428,20.589365 -134.634522,19.354804 -134.850889,18.118423 -135.050892,16.880225 -135.238167,15.63839 -135.410896,14.394737 -135.570899,13.149266 -135.714537,11.901977 -135.843629,10.654688 -135.959995,9.403762 -136.059996,8.152836 -136.14727,6.900092 -136.219998,5.647348 -136.276362,4.392786 -136.319999,3.138224 -136.349091,1.883661 -136.363636,0.627281 -136.363636,0.512734 -99.999515,0.512734"/>
<polygon id="0x563dbc958d20" class="l0d0" points="-96.05219,23.640315 -95.712185,24.607601 -95.359453,25.569432 -94.992176,26.525808 -94.612171,27.47673 -94.21762,28.422197 -93.810342,29.36221 -93.390336,30.296768 -92.957603,31.225871 -92.510324,32.147701 -92.050318,33.064077 -91.579403,33.97318 -91.093942,34.87501 -90.595753,35.771386 -90.086656,36.658671 -89.563012,37.540501 -89.02846,38.415058 -88.48118,39.280524 -87.921172,40.138717 -87.350256,40.989637 -86.766611,41.831467 -86.172058,42.666023 -85.564777,43.491489 -84.946587,44.307863 -84.31567,45.116965 -83.675661,45.915158 -83.022925,46.706077 -82.35928,47.486088 -81.684725,48.257007 -80.999262,49.018835 -80.302889,49.771573 -79.597425,50.513401 -78.881052,51.24432 -78.153769,51.967966 -77.415578,52.678884 -76.670113,53.380712 -75.911921,54.069812 -75.146456,54.749821 -74.370083,55.418921 -73.584617,56.077111 -72.790061,56.724393 -71.986414,57.358947 -71.173676,57.984409 -70.351847,58.597145 -69.522745,59.197153 -68.684552,59.786252 -67.839086,60.364441 -66.984529,60.929903 -66.120882,61.482638 -65.251779,62.024463 -64.373586,62.553561 -63.489937,63.069932 -62.597198,63.573575 -61.697186,64.064491 -60.79172,64.542679 -59.87898,65.009958 -58.960786,65.462691 -58.035319,65.902697 -57.104398,66.328157 -56.166203,66.742708 -55.222554,67.142713 -54.275269,67.529991 -54.275269,105.695955 -54.597092,105.614135 -55.811653,105.294131 -57.02076,104.957763 -58.226231,104.608668 -59.428065,104.245026 -60.626263,103.868658 -61.819006,103.477743 -63.008113,103.074102 -64.191765,102.655914 -65.369963,102.223181 -66.544524,101.779539 -67.711812,101.319533 -68.875464,100.848617 -70.033661,100.363156 -71.186404,99.86315 -72.331874,99.352234 -73.471889,98.826772 -74.606449,98.288583 -75.733737,97.737667 -76.85557,97.174023 -77.970131,96.595833 -79.079236,96.006735 -80.181069,95.404908 -81.275629,94.788537 -82.361098,94.161255 -83.441113,93.521247 -84.513854,92.868511 -85.579323,92.203048 -86.635701,91.526675 -87.684805,90.837575 -88.726638,90.135747 -89.759379,89.42301 -90.784847,88.697546 -91.801224,87.961173 -92.810328,87.21389 -93.808524,86.45388 -94.799446,85.681142 -95.781277,84.899314 -96.377649,84.412035 -96.377649,22.669393"/>
<polygon id="0x563dbca8dc40" class="l0d0" points="-54.275269,-67.529991 -55.222554,-67.142713 -56.166203,-66.742708 -57.104398,-66.328157 -58.035319,-65.902697 -58.960786,-65.462691 -59.87898,-65.009958 -60.79172,-64.542679 -61.697186,-64.064491 -62.597198,-63.573575 -63.489937,-63.069932 -64.373586,-62.553561 -65.251779,-62.024463 -66.120882,-61.482638 -66.984529,-60.929903 -67.839086,-60.364441 -68.684552,-59.786252 -69.522745,-59.197153 -70.351847,-58.597145 -71.173676,-57.984409 -71.986414,-57.358947 -72.790061,-56.724393 -73.584617,-56.077111 -74.370083,-55.418921 -75.146456,-54.749821 -75.911921,-54.069812 -76.670113,-53.380712 -77.415578,-52.678884 -78.153769,-51.967966 -78.881052,-51.24432 -79.597425,-50.513401 -80.302889,-49.771573 -80.999262,-49.018835 -81.684725,-48.257007 -82.35928,-47.486088 -83.022925,-46.706077 -83.675661,-45.915158 -84.31567,-45.116965 -84.946587,-44.307863 -85.564777,-43.491489 -86.172058,-42.666023 -86.766611,-41.831467 -87.350256,-40.989637 -87.921172,-40.138717 -88.48118,-39.280524 -89.02846,-38.415058 -89.563012,-37.540501 -90.086656,-36.658671 -90.595753,-35.771386 -91.093942,-34.87501 -91.579403,-33.97318 -92.050318,-33.064077 -92.510324,-32.147701 -92.957603,-31.225871 -93.390336,-30.296768 -93.810342,-29.36221 -94.21762,-28.422197 -94.612171,-27.47673 -94.992176,-26.525808 -95.359453,-25.569432 -95.712185,-24.607601 -96.05219,-23.640315 -96.377649,-22.669393 -96.377649,-84.412035 -95.781277,-84.899314 -94.799446,-85.681142 -93.808524,-86.45388 -92.810328,-87.21389 -91.801224,-87.961173 -90.784847,-88.697546 -89.759379,-89.42301 -88.726638,-90.135747 -87.684805,-90.837575 -86.635701,-91.526675 -85.579323,-92.203048 -84.513854,-92.868511 -83.441113,-93.521247 -82.361098,-94.161255 -81.275629,-94.788537 -80.181069,-95.404908 -79.079236,-96.006735 -77.970131,-96.595833 -76.85557,-97.174023 -75.733737,-97.737667 -74.606449,-98.288583 -73.471889,-98.826772 -72.331874,-99.352234 -71.186404,-99.86315 -70.033661,-100.363156 -68.875464,-100.848617 -67.711812,-101.319533 -66.544524,-101.779539 -65.369963,-102.223181 -64.191765,-102.655914 -63.008113,-103.074102 -61.819006,-103.477743 -60.626263,-103.868658 -59.428065,-104.245026 -58.226231,-104.608668 -57.02076,-104.957763 -55.811653,-105.294131 -54.597092,-105.614135 -54.275269,-105.695955"/>
<polygon id="0x563dbcb0d550" class="l0d0" points="-52.360698,68.264547 -51.397049,68.610006 -50.427945,68.944556 -49.455205,69.262742 -48.47701,69.5682 -47.495179,69.860931 -46.507893,70.139117 -45.518789,70.402757 -44.52423,70.651851 -43.527853,70.888218 -42.52784,71.110039 -41.52419,71.319133 -40.518722,71.511863 -39.509618,71.691865 -38.498695,71.857322 -37.485954,72.008233 -36.469577,72.144598 -35.4532,72.266418 -34.433186,72.37551 -33.413173,72.468239 -32.391341,72.54824 -31.369509,72.613695 -30.345859,72.662787 -29.322209,72.699151 -28.296741,72.72097 -27.273091,72.728242 28.296741,72.72097 29.322209,72.699151 30.345859,72.662787 31.369509,72.613695 32.391341,72.54824 33.413173,72.468239 34.433186,72.37551 35.4532,72.266418 36.469577,72.144598 37.485954,72.008233 38.498695,71.857322 39.509618,71.691865 40.518722,71.511863 41.52419,71.319133 42.52784,71.110039 43.527853,70.888218 44.52423,70.651851 45.518789,70.402757 46.507893,70.139117 47.495179,69.860931 48.47701,69.5682 49.455205,69.262742 50.427945,68.944556 51.397049,68.610006 52.360698,68.264547 53.320711,67.904542 54.275269,67.529991 54.597092,67.39908 54.597092,105.614135 53.380712,105.92323 52.160695,106.215962 50.935225,106.495965 49.709754,106.759605 48.478828,107.012336 47.246084,107.248703 46.011523,107.470524 44.773324,107.679618 43.533308,107.874166 42.289655,108.054168 41.046002,108.219625 39.798712,108.370536 38.551423,108.506901 37.302316,108.630539 36.05139,108.737813 34.798646,108.83236 33.545902,108.912361 32.293158,108.975998 31.038596,109.026908 29.784033,109.063272 28.527653,109.085091 -27.273091,109.092364 -28.527653,109.085091 -29.784033,109.063272 -31.038596,109.026908 -32.293158,108.975998 -33.545902,108.912361 -34.798646,108.83236 -36.05139,108.737813 -37.302316,108.630539 -38.551423,108.506901 -39.798712,108.370536 -41.046002,108.219625 -42.289655,108.054168 -43.533308,107.874166 -44.773324,107.679618 -46.011523,107.470524 -47.246084,107.248703 -48.478828,107.012336 -49.709754,106.759605 -50.935225,106.495965 -52.160695,106.215962 -53.380712,105.92323 -54.275269,105.695955 -54.275269,67.529991 -53.320711,67.904542"/>
<polygon id="0x563dbca6cd40" class="l0d0" points="-29.322209,-72.699151 -30.345859,-72.662787 -31.369509,-72.613695 -32.391341,-72.54824 -33.413173,-72.468239 -34.433186,-72.37551 -35.4532,-72.266418 -36.469577,-72.144598 -37.485954,-72.008233 -38.498695,-71.857322 -39.509618,-71.691865 -40.518722,-71.511863 -41.52419,-71.319133 -42.52784,-71.110039 -43.527853,-70.888218 -44.52423,-70.651851 -45.518789,-70.402757 -46.507893,-70.139117 -47.495179,-69.860931 -48.47701,-69.5682 -49.455205,-69.262742 -50.427945,-68.944556 -51.397049,-68.610006 -52.360698,-68.264547 -53.320711,-67.904542 -54.275269,-67.529991 -54.275269,-105.695955 -53.380712,-105.92323 -52.160695,-106.215962 -50.935225,-106.495965 -49.709754,-106.759605 -48.478828,-107.012336 -47.246084,-107.248703 -46.011523,-107.470524 -44.773324,-107.679618 -43.533308,-107.874166 -42.289655,-108.054168 -41.046002,-108.219625 -39.798712,-108.370536 -38.551423,-108.506901 -37.302316,-108.630539 -36.05139,-108.737813 -34.798646,-108.83236 -33.545902,-108.912361 -32.293158,-108.975998 -31.038596,-109.026908 -29.784033,-109.063272 -28.527653,-109.085091 27.273091,-109.092364 28.527653,-109.085091 29.784033,-109.063272 31.038596,-109.026908 32.293158,-108.975998 33.545902,-108.912361 34.798646,-108.83236 36.05139,-108.737813 37.302316,-108.630539 38.551423,-108.506901 39.798712,-108.370536 41.046002,-108.219625 42.289655,-108.054168 43.533308,-107.874166 44.773324,-107.679618 46.011523,-107.470524 47.246084,-107.248703 48.478828,-107.012336 49.709754,-106.759605 50.935225,-106.495965 52.160695,-106.215962 53.380712,-105.92323 54.597092,-105.614135 54.597092,-67.39908 54.275269,-67.529991 53.320711,-67.904542 52.360698,-68.264547 51.397049,-68.610006 50.427945,-68.944556 49.455205,-69.262742 48.47701,-69.5682 47.495179,-69.860931 46.507893,-70.139117 45.518789,-70.402757 44.52423,-70.651851 43.527853,-70.888218 42.52784,-71.110039 41.52419,-71.319133 40.518722,-71.511863 39.509618,-71.691865 38.498695,-71.857322 37.485954,-72.008233 36.469577,-72.144598 35.4532,-72.266418 34.433186,-72.37551 33.413173,-72.468239 32.391341,-72.54824 31.369509,-72.613695 30.345859,-72.662787 29.322209,-72.699151 28.296741,-72.72097 27.273091,-72.728242 -28.296741,-72.72097"/>
<polygon id="0x563dbc819b90" class="l0d0" points="96.377649,84.412035 95.781277,84.899314 94.799446,85.681142 93.808524,86.45388 92.810328,87.21389 91.801224,87.961173 90.784847,88.697546 89.759379,89.42301 88.726638,90.135747 87.684805,90.837575 86.635701,91.526675 85.579323,92.203048 84.513854,92.868511 83.441113,93.521247 82.361098,94.161255 81.275629,94.788537 80.181069,95.404908 79.079236,96.006735 77.970131,96.595833 76.85557,97.174023 75.733737,97.737667 74.606449,98.288583 73.471889,98.826772 72.331874,99.352234 71.186404,99.86315 70.033661,100.363156 68.875464,100.848617 67.711812,101.319533 66.544524,101.779539 65.369963,102.223181 64.191765,102.655914 63.008113,103.074102 61.819006,103.477743 60.626263,103.868658 59.428065,104.245026 58.226231,104.608668 57.02076,104.957763 55.811653,105.294131 54.597092,105.614135 54.597092,67.39908 55.222554,67.142713 56.166203,66.742708 57.104398,66.328157 58.035319,65.902697 58.960786,65.462691 59.87898,65.009958 60.79172,64.542679 61.697186,64.064491 62.597198,63.573575 63.489937,63.069932 64.373586,62.553561 65.251779,62.024463 66.120882,61.482638 66.984529,60.929903 67.839086,60.364441 68.684552,59.786252 69.522745,59.197153 70.351847,58.597145 71.173676,57.984409 71.986414,57.358947 72.790061,56.724393 73.584617,56.077111 74.370083,55.418921 75.146456,54.749821 75.911921,54.069812 76.670113,53.380712 77.415578,52.678884 78.153769,51.967966 78.881052,51.24432 79.597425,50.513401 80.302889,49.771573 80.999262,49.018835 81.684725,48.257007 82.35928,47.486088 83.022925,46.706077 83.675661,45.915158 84.31567,45.116965 84.946587,44.307863 85.564777,43.491489 86.172058,42.666023 86.766611,41.831467 87.350256,40.989637 87.921172,40.138717 88.48118,39.280524 89.02846,38.415058 89.563012,37.540501 90.086656,36.658671 90.595753,35.771386 91.093942,34.87501 91.579403,33.97318 92.050318,33.064077 92.510324,32.147701 92.957603,31.225871 93.390336,30.296768 93.810342,29.36221 94.21762,28.422197 94.612171,27.47673 94.992176,26.525808 95.359453,25.569432 95.712185,24.607601 96.05219,23.640315 96.377649,22.669393"/>
<polygon id="0x563dbc819c00" class="l0d0" points="55.811653,-105.294131 57.02076,-104.957763 58.226231,-104.608668 59.428065,-104.245026 60.626263,-103.868658 61.819006,-103.477743 63.008113,-103.074102 64.191765,-102.655914 65.369963,-102.223181 66.544524,-101.779539 67.711812,-101.319533 68.875464,-100.848617 70.033661,-100.363156 71.186404,-99.86315 72.331874,-99.352234 73.471889,-98.826772 74.606449,-98.288583 75.733737,-97.737667 76.85557,-97.174023 77.970131,-96.595833 79.079236,-96.006735 80.181069,-95.404908 81.275629,-94.788537 82.361098,-94.161255 83.441113,-93.521247 84.513854,-92.868511 85.579323,-92.203048 86.635701,-91.526675 87.684805,-90.837575 88.726638,-90.135747 89.759379,-89.42301 90.784847,-88.697546 91.801224,-87.961173 92.810328,-87.21389 93.808524,-86.45388 94.799446,-85.681142 95.781277,-84.899314 96.377649,-84.412035 96.377649,-22.669393 96.05219,-23.640315 95.712185,-24.607601 95.359453,-25.569432 94.992176,-26.525808 94.612171,-27.47673 94.21762,-28.422197 93.810342,-29.36221 93.390336,-30.296768 92.957603,-31.225871 92.510324,-32.147701 92.050318,-33.064077 91.579403,-33.97318 91.093942,-34.87501 90.595753,-35.771386 90.086656,-36.658671 89.563012,-37.540501 89.02846,-38.415058 88.48118,-39.280524 87.921172,-40.138717 87.350256,-40.989637 86.766611,-41.831467 86.172058,-42.666023 85.564777,-43.491489 84.946587,-44.307863 84.31567,-45.116965 83.675661,-45.915158 83.022925,-46.706077 82.35928,-47.486088 81.684725,-48.257007 80.999262,-49.018835 80.302889,-49.771573 79.597425,-50.513401 78.881052,-51.24432 78.153769,-51.967966 77.415578,-52.678884 76.670113,-53.380712 75.911921,-54.069812 75.146456,-54.749821 74.370083,-55.418921 73.584617,-56.077111 72.790061,-56.724393 71.986414,-57.358947 71.173676,-57.984409 70.351847,-58.597145 69.522745,-59.197153 68.684552,-59.786252 67.839086,-60.364441 66.984529,-60.929903 66.120882,-61.482638 65.251779,-62.024463 64.373586,-62.553561 63.489937,-63.069932 62.597198,-63.573575 61.697186,-64.064491 60.79172,-64.542679 59.87898,-65.009958 58.960786,-65.462691 58.035319,-65.902697 57.104398,-66.328157 56.166203,-66.742708 55.222554,-67.142713 54.597092,-67.39908 54.597092,-105.614135"/>
<polygon id="0x563dbc9792b0" class="l0d0" points="-96.377649,-22.669393 -96.69038,-21.693017 -96.988566,-20.713003 -97.274024,-19.729354 -97.544937,-18.74025 -97.803122,-17.749328 -98.044944,-16.752951 -98.274038,-15.754756 -98.488586,-14.752924 -98.690407,-13.749274 -98.875864,-12.741988 -99.048593,-11.731066 -99.206777,-10.718325 -99.350416,-9.703766 -99.481326,-8.687389 -99.595873,-7.669193 -99.695875,-6.650998 -99.783149,-5.629166 -99.855877,-4.607334 -99.912241,-3.585502 -99.955878,-2.560034 -99.984969,-1.536384 -99.999515,-0.512734 -99.999515,0.512734 -136.363636,0.512734 -136.363636,-0.627281 -136.349091,-1.883661 -136.319999,-3.138224 -136.276362,-4.392786 -136.219998,-5.647348 -136.14727,-6.900092 -136.059996,-8.152836 -135.959995,-9.403762 -135.843629,-10.654688 -135.714537,-11.901977 -135.570899,-13.149266 -135.410896,-14.394737 -135.238167,-15.63839 -135.050892,-16.880225 -134.850889,-18.118423 -134.634522,-19.354804 -134.405428,-20.589365 -134.159971,-21.822109 -133.901785,-23.049398 -133.630873,-24.274869 -133.343596,-25.498522 -133.043592,-26.71672 -132.729042,-27.931282 -132.399947,-29.144025 -132.058124,-30.351314 -131.701756,-31.554966 -131.33266,-32.754982 -130.949019,-33.949544 -130.550832,-35.140469 -130.139917,-36.327757 -129.714457,-37.507773 -129.276269,-38.684152 -128.823536,-39.855077 -128.358075,-41.022365 -127.879887,-42.182381 -127.388971,-43.336941 -126.88351,-44.486048 -126.363503,-45.629699 -125.832587,-46.767896 -125.287125,-47.89882 -124.730754,-49.022472 -124.159837,-50.140669 -123.576193,-51.253411 -122.979822,-52.357062 -122.370723,-53.455258 -121.750714,-54.546182 -121.11616,-55.629833 -120.468879,-56.706211 -119.810688,-57.775316 -119.13977,-58.83533 -118.456125,-59.888071 -117.76157,-60.93354 -117.054288,-61.971735 -116.336097,-63.00084 -115.605178,-64.020854 -114.861531,-65.033594 -114.106976,-66.037244 -113.341511,-67.031803 -112.565137,-68.017271 -111.776036,-68.995465 -110.977843,-69.962751 -110.166923,-70.920946 -109.345094,-71.870049 -108.512356,-72.810062 -107.668708,-73.740983 -106.81597,-74.660995 -105.950504,-75.570099 -105.075946,-76.471929 -104.19048,-77.361031 -103.295923,-78.241043 -102.390456,-79.111964 -101.47408,-79.970157 -100.550432,-80.819259 -99.614055,-81.657452 -98.670407,-82.484736 -97.715848,-83.299292 -96.754017,-84.104758 -96.377649,-84.412035"/>
<polygon id="0x563dbc925910" class="l0d0" points="96.754017,-84.104758 97.715848,-83.299292 98.670407,-82.484736 99.614055,-81.657452 100.550432,-80.819259 101.47408,-79.970157 102.390456,-79.111964 103.295923,-78.241043 104.19048,-77.361031 105.075946,-76.471929 105.950504,-75.570099 106.81597,-74.660995 107.668708,-73.740983 108.512356,-72.810062 109.345094,-71.870049 110.166923,-70.920946 110.977843,-69.962751 111.776036,-68.995465 112.565137,-68.017271 113.341511,-67.031803 114.106976,-66.037244 114.861531,-65.033594 115.605178,-64.020854 116.336097,-63.00084 117.054288,-61.971735 117.76157,-60.93354 118.456125,-59.888071 119.13977,-58.83533 119.810688,-57.775316 120.468879,-56.706211 121.11616,-55.629833 121.750714,-54.546182 122.370723,-53.455258 122.979822,-52.357062 123.576193,-51.253411 124.159837,-50.140669 124.730754,-49.022472 125.287125,-47.89882 125.832587,-46.767896 126.363503,-45.629699 126.88351,-44.486048 127.388971,-43.336941 127.879887,-42.182381 128.358075,-41.022365 128.823536,-39.855077 129.276269,-38.684152 129.714457,-37.507773 130.139917,-36.327757 130.550832,-35.140469 130.949019,-33.949544 131.33266,-32.754982 131.701756,-31.554966 132.058124,-30.351314 132.399947,-29.144025 132.729042,-27.931282 133.043592,-26.71672 133.343596,-25.498522 133.630873,-24.274869 133.901785,-23.049398 134.159971,-21.822109 134.405428,-20.589365 134.634522,-19.354804 134.850889,-18.118423 135.050892,-16.880225 135.238167,-15.63839 135.410896,-14.394737 135.570899,-13.149266 135.714537,-11.901977 135.843629,-10.654688 135.959995,-9.403762 136.059996,-8.152836 136.14727,-6.900092 136.219998,-5.647348 136.276362,-4.392786 136.319999,-3.138224 136.349091,-1.883661 136.363636,-0.627281 136.363636,0.512734 99.999515,0.512734 99.999515,-0.512734 99.984969,-1.536384 99.955878,-2.560034 99.912241,-3.585502 99.855877,-4.607334 99.783149,-5.629166 99.695875,-6.650998 99.595873,-7.669193 99.481326,-8.687389 99.350416,-9.703766 99.206777,-10.718325 99.048593,-11.731066 98.875864,-12.741988 98.690407,-13.749274 98.488586,-14.752924 98.274038,-15.754756 98.044944,-16.752951 97.803122,-17.749328 97.544937,-18.74025 97.274024,-19.729354 96.988566,-20.713003 96.69038,-21.693017 96.377649,-22.669393 96.377649,-84.412035"/>
<polygon id="0x563dbca96a80" class="l0d0" points="136.363636,0.627281 136.349091,1.883661 136.319999,3.138224 136.276362,4.392786 136.219998,5.647348 136.14727,6.900092 136.059996,8.152836 135.959995,9.403762 135.843629,10.654688 135.714537,11.901977 135.570899,13.149266 135.410896,14.394737 135.238167,15.63839 135.050892,16.880225 134.850889,18.118423 134.634522,19.354804 134.405428,20.589365 134.159971,21.822109 133.901785,23.049398 133.630873,24.274869 133.343596,25.498522 133.043592,26.71672 132.729042,27.931282 132.399947,29.144025 132.058124,30.351314 131.701756,31.554966 131.33266,32.754982 130.949019,33.949544 130.550832,35.140469 130.139917,36.327757 129.714457,37.507773 129.276269,38.684152 128.823536,39.855077 128.358075,41.022365 127.879887,42.182381 127.388971,43.336941 126.88351,44.486048 126.363503,45.629699 125.832587,46.767896 125.287125,47.89882 124.730754,49.022472 124.159837,50.140669 123.576193,51.253411 122.979822,52.357062 122.370723,53.455258 121.750714,54.546182 121.11616,55.629833 120.468879,56.706211 119.810688,57.775316 119.13977,58.83533 118.456125,59.888071 117.76157,60.93354 117.054288,61.971735 116.336097,63.00084 115.605178,64.020854 114.861531,65.033594 114.106976,66.037244 113.341511,67.031803 112.565137,68.017271 111.776036,68.995465 110.977843,69.962751 110.166923,70.920946 109.345094,71.870049 108.512356,72.810062 107.668708,73.740983 106.81597,74.660995 105.950504,75.570099 105.075946,76.471929 104.19048,77.361031 103.295923,78.241043 102.390456,79.111964 101.47408,79.970157 100.550432,80.819259 99.614055,81.657452 98.670407,82.484736 97.715848,83.299292 96.754017,84.104758 96.377649,84.412035 96.377649,22.669393 96.69038,21.693017 96.988566,20.713003 97.274024,19.729354 97.544937,18.74025 97.803122,17.749328 98.044944,16.752951 98.274038,15.754756 98.488586,14.752924 98.690407,13.749274 98.875864,12.741988 99.048593,11.731066 99.206777,10.718325 99.350416,9.703766 99.481326,8.687389 99.595873,7.669193 99.695875,6.650998 99.783149,5.629166 99.855877,4.607334 99.912241,3.585502 99.955878,2.560034 99.984969,1.536384 99.999515,0.512734 136.363636,0.512734"/>
</g>
</svg>