<?xml version="1.0" encoding="UTF-8"?>
<svg xmlns="http://www.w3.org/2000/svg" xmlns:xlink="http://www.w3.org/1999/xlink" width="300" height="194.428152" viewBox="-31.231672 -97.214076 300 194.428152">
<defs>
<style type="text/css">
.l1d0 {stroke: #A1CAF1; fill: #A1CAF1; fill-opacity: 0.5;}
.l0d0 {stroke: #F38400; fill: #F38400; fill-opacity: 0.5;}
.l3d0 {stroke: #C2B280; fill: #C2B280; fill-opacity: 0.5;}
.l2d0 {stroke: #BE0032; fill: #BE0032; fill-opacity: 0.5;}
</style>
</defs>
<rect x="-31.231672" y="-97.214076" width="300" height="194.428152" fill="none" stroke="none"/>
<g id="init1" transform="scale(1 -1)">
<polygon id="0x55585d22d720" class="l0d0" points="54.985337,-83.577713 109.970674,-83.577713 164.956012,-83.577713 219.941349,-83.577713 219.941349,-48.387097 164.956012,-48.387097 109.970674,-48.387097 54.985337,-48.387097 0,-48.387097 0,-83.577713"/>
<polygon id="0x55585d0ed120" class="l1d0" points="54.985337,-39.589443 109.970674,-39.589443 164.956012,-39.589443 219.941349,-39.589443 237.536657,-39.589443 237.536657,-4.398827 219.941349,-4.398827 164.956012,-4.398827 109.970674,-4.398827 54.985337,-4.398827 0,-4.398827 -17.595308,-4.398827 -17.595308,-39.589443 0,-39.589443"/>
<polygon id="0x55585d2e9520" class="l2d0" points="54.985337,4.398827 109.970674,4.398827 164.956012,4.398827 219.941349,4.398827 255.131965,4.398827 255.131965,39.589443 219.941349,39.589443 164.956012,39.589443 109.970674,39.589443 54.985337,39.589443 0,39.589443 -17.595308,39.589443 -17.595308,4.398827 0,4.398827"/>
<polygon id="0x55585d223310" class="l3d0" points="54.985337,48.387097 109.970674,48.387097 164.956012,48.387097 219.941349,48.387097 222.445422,48.566192 224.89852,49.09983 227.250704,49.97715 229.454091,51.18029 231.463825,52.684758 233.238995,54.459928 234.743464,56.469663 235.946604,58.67305 236.823923,61.025234 237.357562,63.478331 237.536657,65.982405 237.357562,68.486478 236.823923,70.939576 235.946604,73.29176 234.743464,75.495146 233.238995,77.504881 231.463825,79.280051 229.454091,80.78452 227.250704,81.98766 224.89852,82.864979 222.445422,83.398618 219.941349,83.577713 164.956012,83.577713 109.970674,83.577713 54.985337,83.577713 0,83.577713 -2.504073,83.398618 -4.957171,82.864979 -7.309355,81.98766 -9.512742,80.78452 -11.522476,79.280051 -13.297646,77.504881 -14.802115,75.495146 -16.005255,73.29176 -16.882574,70.939576 -17.416213,68.486478 -17.595308,65.982405 -17.416213,63.478331 -16.882574,61.025234 -16.005255,58.67305 -14.802115,56.469663 -13.297646,54.459928 -11.522476,52.684758 -9.512742,51.18029 -7.309355,49.97715 -4.957171,49.09983 -2.504073,48.566192 -0,48.387097"/>
</g>
</svg>