<?xml version="1.0" encoding="UTF-8"?>
<svg xmlns="http://www.w3.org/2000/svg" xmlns:xlink="http://www.w3.org/1999/xlink" width="300" height="105.586264" viewBox="-117.882422 -78.989807 300 105.586264">
<defs>
<style type="text/css">
.l0d0 {stroke: #F38400; fill: #F38400; fill-opacity: 0.5;}
</style>
</defs>
<rect x="-117.882422" y="-78.989807" width="300" height="105.586264" fill="none" stroke="none"/>
<g id="init" transform="scale(1 -1)">
<polygon id="0x55585d2bb280" class="l0d0" points="-12.947758,-0.565311 12.947758,0.565311 12.725808,5.648809 11.987788,11.254627 10.763997,16.774791 9.063749,22.167288 6.899984,27.391079 4.28917,32.406407 1.251175,37.175103 -2.190878,41.660874 -6.010793,45.82958 -10.1795,49.649496 -14.665271,53.091549 -19.433967,56.129543 -24.449295,58.740358 -29.673086,60.904123 -35.065583,62.604371 -40.585747,63.828162 -46.191565,64.566182 -64.222821,65.353443 -64.960718,48.45281 -65.403305,45.091028 -66.137207,41.780612 -67.156837,38.546757 -68.454437,35.414075 -70.02013,32.406407 -71.842,29.546643 -73.906183,26.856548 -76.196968,24.356594 -78.696921,22.065809 -81.387017,20.001627 -84.246781,18.179756 -87.254449,16.614063 -90.387131,15.316463 -93.620986,14.296833 -96.931401,13.562932 -100.293184,13.120345 -104.246059,12.947758 -103.115436,-12.947758 -98.031938,-12.725808 -92.42612,-11.987788 -86.905957,-10.763997 -81.513459,-9.063749 -76.289668,-6.899984 -71.27434,-4.28917 -66.505644,-1.251175 -62.019873,2.190878 -57.851167,6.010793 -54.031251,10.1795 -50.589198,14.665271 -47.551204,19.433967 -44.940389,24.449295 -42.776624,29.673086 -41.076376,35.065583 -39.852586,40.585747 -39.114566,46.191565 -39.457927,38.327304 -48.45281,38.720029 -45.091028,38.277442 -41.780612,37.543541 -38.546757,36.52391 -35.414075,35.226311 -32.406407,33.660618 -29.546643,31.838747 -26.856548,29.774564 -24.356594,27.483779 -22.065809,24.983826 -20.001627,22.293731 -18.179756,19.433967 -16.614063,16.426298 -15.316463,13.293616 -14.296833,10.059761 -13.562932,6.749346 -13.120345,3.387564"/>
<polygon id="0x55585d2bb280" class="l0d0" points="168.403159,3.179608 168.169182,6.351556 167.779847,9.508203 167.236091,12.641944 166.539225,15.745229 165.690928,18.810583 164.693242,21.83062 163.548572,24.798065 162.259676,27.70577 160.829657,30.546729 159.261962,33.314098 157.560366,36.001211 155.72897,38.601593 153.772186,41.108981 151.694726,43.517334 149.501597,45.82085 147.198081,48.013979 144.789728,50.091438 142.28234,52.048223 139.681958,53.879619 136.994845,55.581214 134.227476,57.14891 131.386517,58.578928 128.478812,59.867825 125.511367,61.012495 122.49133,62.010181 119.425976,62.858478 116.322691,63.555344 113.18895,64.0991 110.032304,64.488435 106.860355,64.722412 101.136039,64.800467 90.957205,64.800467 90.720781,64.800467 90.720654,54.621506 90.682118,50.109732 90.325451,46.310909 89.598153,42.565338 88.507226,38.90909 87.063178,35.377378 85.279915,32.004213 83.174611,28.822081 80.767541,25.861628 78.081886,23.151365 75.143511,20.717392 71.980715,18.583151 68.623956,16.769195 65.105562,15.292994 61.459416,14.168764 57.720635,13.407332 54.788996,13.072064 51.839356,12.960093 51.841391,-12.960093 56.162419,-12.815797 59.329741,-12.525843 62.47902,-12.080826 65.60267,-11.481816 68.693166,-10.730258 71.743061,-9.827962 74.745009,-8.777101 77.691778,-7.580207 80.576269,-6.240164 83.391532,-4.7602 86.130786,-3.14388 88.787431,-1.395099 91.355067,0.481932 93.827509,2.48269 96.198801,4.602354 98.463229,6.835819 100.615338,9.177704 102.649945,11.622368 104.562146,14.163919 106.347337,16.796237 108.001215,19.512979 109.519797,22.307601 110.899424,25.17337 112.136773,28.103381 113.228862,31.090578 114.173061,34.127762 114.967639,37.205944 118.559848,35.920587 122.008784,34.289346 125.281474,32.327772 128.346136,30.054863 131.173257,27.49251 133.73561,24.665389 136.008519,21.600726 137.970093,18.328037 139.601442,14.878839 140.886856,11.28635 141.813954,7.585166 142.373808,3.810934 142.561027,-0.001018 168.481214,0.001018"/>
</g>
</svg>