<?xml version="1.0" encoding="UTF-8"?>
<svg xmlns="http://www.w3.org/2000/svg" xmlns:xlink="http://www.w3.org/1999/xlink" width="304.998" height="354.978003" viewBox="-100.148769 -108.045393 304.998 354.978003">
<defs>
<style type="text/css">
.l0d0 {stroke: #F38400; fill: #F38400; fill-opacity: 0.5;}
</style>
</defs>
<rect x="-100.148769" y="-108.045393" width="304.998" height="354.978003" fill="none" stroke="none"/>
<g id="interpolation" transform="scale(1 -1)">
<polygon id="0x55d800c72590" class="l0d0" points="-1.39484,1.141132 1.39484,-1.141132 2.556862,0.279243 3.734502,1.512538 4.974831,2.622857 6.284823,3.620764 7.673723,4.51483 9.153067,5.311497 10.736769,6.015038 12.441382,6.627613 14.286709,7.14941 16.297011,7.578837 18.503299,7.912707 20.947764,8.146348 23.692978,8.273508 26.843699,8.285709 30.611732,8.169815 35.611106,7.896668 42.520817,7.512813 44.983348,7.428638 47.044258,7.39758 48.877208,7.408544 50.551842,7.456847 52.105774,7.539849 53.562408,7.655843 54.937654,7.80363 56.243,7.982333 57.487126,8.191294 58.676805,8.430018 59.81747,8.698141 60.913562,8.99541 61.968772,9.321665 62.986207,9.676831 63.968507,10.06091 64.917935,10.473978 65.836439,10.91618 66.725708,11.387726 67.587211,11.888896 68.422226,12.420034 69.231875,12.981554 70.017137,13.57394 70.77887,14.19775 71.517829,14.853622 72.244254,15.551481 73.447712,16.839036 74.670733,18.355652 75.762206,19.953529 76.720102,21.628225 77.544637,23.379284 78.235224,25.206344 78.790505,27.10903 79.208383,29.086784 79.486084,31.138654 79.620255,33.26302 79.60712,35.457265 79.442708,37.717416 79.123153,40.037753 78.64508,42.41043 78.006052,44.825137 77.205082,47.268837 76.243155,49.725653 75.123725,52.176936 73.862703,54.583298 73.643562,54.971807 72.059275,57.606849 70.345562,60.17182 68.511899,62.651568 66.558424,65.045906 64.485163,67.35432 62.292082,69.575958 59.979136,71.709619 57.546335,73.753752 54.993808,75.706451 52.321877,77.565457 49.531139,79.328171 46.622554,80.991666 43.59753,82.552707 40.458026,84.007786 37.206637,85.353159 33.846701,86.584896 30.38238,87.698937 26.81875,88.691168 23.161869,89.557493 19.418837,90.293925 15.597828,90.896685 11.708103,91.362298 7.759987,91.687696 3.765844,91.870278 -0.004363,91.910029 -2.046833,91.878605 -4.07522,91.810729 -6.095088,91.706445 -8.104909,91.565953 -10.103204,91.38949 -12.088542,91.177332 -14.059548,90.929792 -16.014903,90.647214 -17.953349,90.329974 -19.873687,89.978473 -21.774783,89.593137 -23.655564,89.174413 -25.515024,88.722766 -27.352218,88.238675 -29.166266,87.722632 -30.95635,87.175137 -32.721715,86.596698 -34.461665,85.987823 -36.175561,85.349025 -37.862823,84.680813 -39.522924,83.983693 -41.155388,83.258164 -42.759789,82.504717 -44.335747,81.723836 -45.882928,80.915989 -47.401037,80.081633 -48.889819,79.221212 -50.349052,78.335151 -51.778549,77.42386 -53.178152,76.487731 -54.547731,75.527136 -55.887178,74.542428 -57.196409,73.533941 -58.475358,72.501987 -59.723975,71.446858 -60.942226,70.368822 -62.130086,69.268128 -63.287542,68.145004 -64.414587,66.999653 -65.511219,65.832258 -66.577439,64.642981 -67.613251,63.431961 -68.618656,62.199317 -69.593657,60.945146 -70.538248,59.669524 -71.452423,58.372507 -72.339275,57.049489 -73.631812,54.992081 -75.208603,52.23803 -76.656196,49.414687 -77.973917,46.523392 -79.162912,43.561145 -80.223833,40.524643 -81.156829,37.410283 -81.96155,34.214148 -82.637142,30.932008 -83.182246,27.559305 -83.594995,24.091135 -83.873012,20.522231 -84.013405,16.846924 -84.01276,13.059101 -83.867125,9.152139 -83.571993,5.118815 -83.122265,0.951176 -82.512202,-3.359643 -81.73534,-7.823679 -80.784361,-12.452518 -79.650896,-17.259868 -78.325196,-22.262421 -76.795597,-27.481238 -75.048693,-32.940658 -73.784018,-36.647823 -72.49788,-40.111167 -71.08359,-43.502708 -69.548748,-46.806096 -67.897616,-50.01503 -66.135056,-53.122859 -64.266588,-56.122638 -62.298436,-59.007193 -60.237566,-61.769219 -58.091695,-64.401383 -55.869282,-66.896465 -53.586686,-69.240105 -52.412267,-70.366518 -51.232291,-71.447255 -50.040723,-72.488655 -48.8389,-73.490054 -47.628177,-74.45084 -46.409923,-75.370457 -45.185507,-76.248408 -43.9563,-77.084263 -42.723664,-77.877652 -41.488948,-78.628277 -40.253479,-79.335907 -39.018557,-80.000379 -37.78545,-80.621599 -36.555388,-81.199541 -35.329556,-81.734244 -34.109091,-82.225809 -32.895078,-82.674394 -31.688546,-83.080216 -30.490467,-83.44354 -29.301751,-83.764674 -28.123248,-84.04397 -26.955748,-84.281809 -25.799978,-84.478604 -24.656608,-84.634787 -23.526249,-84.750806 -22.409456,-84.82712 -21.306734,-84.864191 -20.21854,-84.86248 -19.145283,-84.822442 -18.087335,-84.744521 -17.045028,-84.629146 -16.018664,-84.476726 -15.008516,-84.287651 -14.014833,-84.062281 -13.03784,-83.800951 -12.077751,-83.503965 -11.13476,-83.171596 -10.209054,-82.804079 -9.300811,-82.401618 -8.410204,-81.964377 -7.537402,-81.49248 -6.682574,-80.986014 -5.84589,-80.445021 -5.027523,-79.869503 -4.227652,-79.259417 -3.446464,-78.614676 -2.684156,-77.935148 -1.92893,-77.209115 -0.512277,-75.686737 0.826378,-74.021687 1.491193,-73.0994 2.554357,-71.437258 3.475404,-69.714541 4.250052,-67.94183 4.882613,-66.112929 5.375943,-64.220296 5.731424,-62.254574 5.948851,-60.203964 6.026214,-58.053335 5.95933,-55.782867 5.741211,-53.365753 5.360904,-50.763914 4.801034,-47.919102 4.03183,-44.73146 2.99274,-40.994442 1.503726,-36.079827 0.063872,-31.352449 -0.673746,-28.785979 -1.213274,-26.76798 -1.64372,-25.013765 -1.99442,-23.431314 -2.280213,-21.975147 -2.510139,-20.61832 -2.690341,-19.343056 -2.825305,-18.136742 -2.918476,-16.989933 -2.972584,-15.895249 -2.989847,-14.846728 -2.972079,-13.839409 -2.920774,-12.869065 -2.837143,-11.932021 -2.722153,-11.025026 -2.576543,-10.14516 -2.400835,-9.289779 -2.195348,-8.456463 -1.960201,-7.642984 -1.695318,-6.84729 -1.400436,-6.067483 -1.075107,-5.301813 -0.718709,-4.548672 -0.330449,-3.806585 0.090628,-3.074212 0.538524,-2.361646 1.472125,-1.039524 -1.472125,1.039524 -2.461534,-0.361631 -2.998675,-1.216179 -3.490836,-2.072188 -3.945778,-2.941724 -4.364049,-3.825616 -4.746092,-4.724763 -5.092246,-5.640157 -5.402749,-6.572891 -5.677732,-7.524181 -5.917222,-8.49539 -6.12113,-9.488059 -6.289249,-10.503934 -6.421239,-11.545019 -6.516611,-12.613623 -6.57471,-13.712434 -6.594679,-14.844611 -6.575428,-16.013916 -6.515571,-17.224893 -6.413348,-18.483132 -6.266498,-19.795678 -6.072063,-21.171672 -5.82605,-22.623431 -5.522822,-24.168429 -5.153864,-25.833268 -4.704883,-27.663016 -4.14709,-29.749331 -3.392346,-32.375391 -1.944971,-37.127462 -0.468734,-41.999908 0.542641,-45.637249 1.27934,-48.690186 1.807313,-51.372926 2.160422,-53.78869 2.359797,-55.998097 2.419996,-58.041602 2.351387,-59.94885 2.161135,-61.74317 1.853572,-63.443915 1.430317,-65.067711 0.890285,-66.629089 0.229705,-68.140764 -0.557806,-69.613717 -1.491193,-71.072965 -2.042058,-71.837172 -3.239661,-73.326778 -4.499183,-74.680298 -5.133161,-75.289771 -5.793628,-75.878517 -6.468547,-76.43555 -7.157935,-76.961367 -7.86186,-77.456404 -8.580435,-77.921028 -9.313809,-78.355536 -10.062165,-78.760149 -10.825713,-79.135011 -11.604678,-79.480186 -12.399299,-79.79566 -13.209814,-80.081337 -14.036454,-80.337042 -14.879436,-80.562526 -15.738952,-80.757467 -16.615162,-80.921473 -17.508186,-81.05409 -18.418095,-81.15481 -19.344907,-81.223072 -20.288579,-81.258276 -21.249,-81.259786 -22.225991,-81.226942 -23.219295,-81.159067 -24.228577,-81.055475 -25.253422,-80.915483 -26.293332,-80.738415 -27.347728,-80.523617 -28.415944,-80.270459 -29.497234,-79.978345 -30.590773,-79.646725 -31.695654,-79.275093 -32.810899,-78.863003 -33.935455,-78.410067 -35.068206,-77.915966 -36.207972,-77.380449 -37.35352,-76.80334 -38.503564,-76.184538 -39.656778,-75.524021 -40.811799,-74.821845 -41.967236,-74.078145 -43.121675,-73.293132 -44.273688,-72.467096 -45.421841,-71.600397 -46.564697,-70.693467 -47.70083,-69.746803 -48.828823,-68.760966 -49.94728,-67.736575 -51.047475,-66.681351 -53.231232,-64.439195 -55.347865,-62.06287 -57.395068,-59.551734 -59.364082,-56.912816 -61.246938,-54.153272 -63.036457,-51.280244 -64.726237,-48.300743 -66.310611,-45.221551 -67.784594,-42.049149 -69.143819,-38.789655 -70.388348,-35.438359 -71.626321,-31.809467 -73.349248,-26.424981 -74.853179,-21.293736 -76.154153,-16.38449 -77.264282,-11.676116 -78.193771,-7.151873 -78.951463,-2.798 -79.545158,1.397168 -79.981826,5.443777 -80.26772,9.350851 -80.408462,13.126561 -80.409084,16.778415 -80.274051,20.313395 -80.007271,23.738053 -79.612094,27.058577 -79.091305,30.280837 -78.447116,33.410416 -77.681151,36.452619 -76.794439,39.412484 -75.787398,42.294774 -74.659836,45.103967 -73.410943,47.844242 -72.039297,50.519461 -70.540553,53.137193 -69.315661,55.086927 -68.482031,56.330547 -67.616509,57.558537 -66.722167,58.766299 -65.798958,59.953851 -64.846822,61.121184 -63.865696,62.268268 -62.855511,63.395042 -61.816194,64.501424 -60.747673,65.587301 -59.649876,66.652536 -58.522737,67.696964 -57.366196,68.720393 -56.180201,69.722604 -54.964714,70.703352 -53.719711,71.662365 -52.445184,72.599346 -51.141147,73.513971 -49.807638,74.405893 -48.44472,75.274741 -47.052485,76.120119 -45.63106,76.941613 -44.180605,77.738786 -42.701319,78.511182 -41.193443,79.258329 -39.657261,79.979739 -38.093107,80.674909 -36.501362,81.343325 -34.882461,81.984464 -33.236895,82.597794 -31.565212,83.182779 -29.868019,83.738881 -28.145986,84.265562 -26.399846,84.762287 -24.630395,85.228528 -22.838498,85.663765 -21.025083,86.067491 -19.191147,86.439214 -17.337754,86.778462 -15.466032,87.084782 -13.577176,87.35775 -11.672445,87.596967 -9.753157,87.802066 -7.82069,87.972716 -5.876481,88.108622 -3.922016,88.209529 -1.95883,88.275223 0.004363,88.305428 3.664518,88.266837 7.529586,88.090155 11.345756,87.775632 15.102646,87.32592 18.789897,86.74426 22.398252,86.034325 25.919582,85.200113 29.346879,84.245842 32.674228,83.175847 35.89675,81.994486 39.010537,80.70605 42.012566,79.314687 44.900612,77.824332 47.673148,76.238648 50.329248,74.560975 52.868486,72.79429 55.29084,70.941175 57.596591,69.003794 59.786237,66.983876 61.860397,64.882707 63.819738,62.701134 65.664891,60.439565 67.396383,58.097987 69.014578,55.675981 70.528803,53.157467 70.696024,52.861007 71.885776,50.590647 72.923208,48.31892 73.811755,46.049519 74.548451,43.801917 75.133102,41.592683 75.567788,39.43534 75.8563,37.340407 76.003594,35.31557 76.015265,33.365949 75.897062,31.494403 75.65446,29.70187 75.292278,27.98772 74.814358,26.350114 74.223301,24.786377 73.520275,23.293365 72.704899,21.867838 71.775213,20.50681 70.724653,19.204056 69.677304,18.083519 69.072084,17.502099 68.43984,16.940943 67.789108,16.408036 67.118678,15.902277 66.427175,15.422695 65.713047,14.968451 64.974567,14.538849 64.209816,14.13333 63.416673,13.751482 62.592792,13.393035 61.735574,13.057863 60.842124,12.745978 59.9092,12.457532 58.933123,12.192812 57.909668,11.95224 56.833901,11.736374 55.699934,11.545915 54.50057,11.381721 53.226734,11.244832 51.866554,11.136519 50.403736,11.058383 48.81446,11.012542 47.060636,11.002051 45.072078,11.032019 42.682362,11.113705 35.809383,11.49552 30.765474,11.771099 26.892138,11.890233 23.602571,11.877494 20.692756,11.74271 18.061854,11.491249 15.650309,11.126318 13.418957,10.649672 11.340225,10.061876 9.393868,9.362427 7.564655,8.549821 5.841002,7.621586 4.214077,6.574299 2.677177,5.403541 1.225271,4.103822 -0.145329,2.668448"/>
<polygon id="0x55d800bb5f30" class="l0d0" points="106.3273,-144.14688 109.931248,-144.19785 109.948789,-142.957611 109.998933,-141.810147 110.080035,-140.727194 110.190179,-139.705827 110.327548,-138.743188 110.490428,-137.836475 110.677217,-136.982939 110.886436,-136.179878 111.116747,-135.424629 111.366961,-134.714573 111.636065,-134.047126 111.923233,-133.419753 112.227851,-132.829968 112.549532,-132.275351 112.875514,-131.773015 113.617649,-130.801615 114.417007,-129.955901 115.295398,-129.204122 116.2645,-128.536408 117.339104,-127.946992 118.536441,-127.434222 119.875755,-127.000225 121.378295,-126.650383 123.067877,-126.392786 124.972166,-126.237843 127.125035,-126.198147 129.57089,-126.288801 132.373198,-126.528571 135.633825,-126.943007 139.547004,-127.573712 144.615685,-128.516018 149.302624,-129.428491 153.775457,-130.262653 156.390431,-130.705164 158.572499,-131.034793 160.49679,-131.286707 162.237133,-131.476156 163.834225,-131.611825 165.313835,-131.699419 166.693788,-131.743026 167.987201,-131.745751 169.204168,-131.710041 170.352736,-131.637868 171.439482,-131.530845 172.469892,-131.390293 173.448602,-131.217289 174.379567,-131.012705 175.266178,-130.77723 176.111344,-130.511398 176.917558,-130.215607 177.686941,-129.890137 178.42129,-129.535171 179.122109,-129.150807 179.790648,-128.737072 180.44087,-128.284937 181.408415,-127.503872 182.741158,-126.221739 183.938606,-124.85457 185.004224,-123.40185 185.938529,-121.864791 186.741199,-120.244412 187.411101,-118.541622 187.946319,-116.757353 188.344184,-114.892762 188.60134,-112.949501 188.713867,-110.930065 188.677485,-108.838186 188.487835,-106.679264 188.140873,-104.460775 187.633321,-102.192632 186.96319,-99.887437 186.130306,-97.560564 185.136797,-95.230029 183.987467,-92.916106 182.693959,-90.647651 181.715355,-89.107925 179.970329,-86.609693 178.105553,-84.196351 176.121256,-81.868393 174.014745,-79.623275 171.782748,-77.458778 169.421394,-75.373001 166.926191,-73.36436 164.291995,-71.431577 161.512977,-69.573669 158.582564,-67.789933 155.493369,-66.07993 152.237091,-64.443456 148.804372,-62.880509 145.184595,-61.391251 141.36559,-59.975944 137.33321,-58.634879 133.070678,-57.368272 128.557596,-56.176118 123.768343,-55.057978 118.669377,-54.012638 113.216159,-53.037863 108.384567,-52.280494 104.298601,-51.751448 102.235667,-51.539799 100.182359,-51.365893 98.133561,-51.229072 96.092057,-51.1294 94.060602,-51.066852 92.041904,-51.041316 90.038608,-51.052592 88.053279,-51.100397 86.088391,-51.184365 84.146308,-51.304054 82.229278,-51.458949 80.33942,-51.648469 78.478716,-51.871972 76.649005,-52.128764 74.851977,-52.418101 73.089171,-52.739201 71.361975,-53.09125 69.671624,-53.473407 68.019203,-53.884814 66.40565,-54.324599 64.831762,-54.791888 63.298197,-55.285807 61.805486,-55.805491 60.354035,-56.350086 58.944137,-56.918758 57.575977,-57.510694 56.249644,-58.125109 54.965137,-58.761248 53.722378,-59.41839 52.521217,-60.095849 51.361444,-60.792978 50.242797,-61.50917 49.16497,-62.243861 48.127622,-62.996525 47.130388,-63.766683 46.172879,-64.553896 45.254698,-65.357769 44.375441,-66.177947 43.534704,-67.014119 42.732091,-67.866012 41.967217,-68.733393 41.239715,-69.616069 40.549235,-70.513881 39.895455,-71.426709 39.278079,-72.354466 38.69684,-73.2971 38.151505,-74.254591 37.641876,-75.226951 37.167793,-76.214225 36.729133,-77.216487 36.325814,-78.233843 35.957795,-79.266426 35.625078,-80.314401 35.327711,-81.37796 35.065786,-82.457326 34.839442,-83.552746 34.648866,-84.664497 34.494294,-85.79288 34.374504,-86.952813 34.250044,-89.261889 34.240937,-90.097913 34.240937,-112.63466 34.240937,-135.161592 34.240937,-157.688525 34.240937,-180.237713 34.31388,-183.19053 34.532682,-186.108097 34.894366,-188.966865 35.396636,-191.765133 36.037281,-194.500891 36.814131,-197.171793 37.725,-199.77513 38.767618,-202.307809 39.939561,-204.766331 41.238172,-207.146783 42.66047,-209.444839 44.203064,-211.655769 45.862061,-213.774468 47.632977,-215.795494 49.510658,-217.713133 51.489211,-219.521476 53.561959,-221.214523 55.72142,-222.786294 57.959314,-224.230963 60.266614,-225.542995 62.622107,-226.711572 63.836491,-227.250799 65.050023,-227.748663 66.273047,-228.209913 67.504208,-228.634155 68.742143,-229.021047 69.985492,-229.370298 71.2329,-229.68167 72.483029,-229.954978 73.734556,-230.190088 74.986183,-230.386918 76.236644,-230.545432 77.484702,-230.665645 78.729163,-230.747614 79.968869,-230.791436 81.20271,-230.797247 82.42962,-230.765216 83.648583,-230.695544 84.858629,-230.588454 86.05884,-230.444195 87.248346,-230.26303 88.426326,-230.045238 89.592009,-229.791107 90.744666,-229.500929 91.883618,-229.175001 93.008224,-228.813616 94.117887,-228.417063 95.212045,-227.985624 96.290172,-227.519569 97.351777,-227.019155 98.396397,-226.484624 99.423593,-225.9162 100.432956,-225.314088 101.424094,-224.67847 102.396634,-224.009507 103.35022,-223.307336 104.284509,-222.572068 105.199167,-221.80379 106.093869,-221.00256 106.968296,-220.168413 107.822131,-219.301353 108.655551,-218.400827 109.51874,-217.407063 110.920125,-215.624662 112.178489,-213.781819 113.291422,-211.885721 114.264488,-209.930969 115.10204,-207.911139 115.807249,-205.818524 116.382105,-203.643795 116.827373,-201.375525 117.1425,-198.999529 117.325447,-196.497871 117.372409,-193.847299 117.277326,-191.016565 117.030947,-187.961509 116.618892,-184.615034 116.017013,-180.86367 115.177745,-176.479345 113.970458,-170.820393 112.527262,-164.176652 111.869206,-160.9449 111.392542,-158.406986 111.014718,-156.19148 110.709587,-154.182539 110.464194,-152.323751 110.270786,-150.582035 110.124181,-148.935768 110.020657,-147.369757 109.957491,-145.874857 109.931221,-144.145001 106.327327,-144.19973 106.354337,-145.978322 106.421371,-147.564741 106.530433,-149.214534 106.684165,-150.940829 106.886015,-152.758564 107.140876,-154.689076 107.456197,-156.765106 107.844601,-159.042649 108.331898,-161.637179 109.000112,-164.918817 110.446871,-171.578961 111.644845,-177.19426 112.466797,-181.488127 113.049655,-185.120933 113.444393,-188.326775 113.677886,-191.222045 113.767028,-193.875892 113.723469,-196.33438 113.555529,-198.630825 113.269043,-200.790877 112.867725,-202.835256 112.353319,-204.781298 111.725639,-206.643855 110.982581,-208.435804 110.12014,-210.168327 109.132447,-211.851055 108.011854,-213.492136 106.739808,-215.110032 105.971679,-215.994356 105.214791,-216.812188 104.439679,-217.599305 103.647078,-218.355396 102.837217,-219.080648 102.010311,-219.775218 101.166569,-220.439227 100.306195,-221.072762 99.429389,-221.675873 98.536355,-222.248577 97.627302,-222.790853 96.702448,-223.302642 95.762028,-223.783855 94.806294,-224.234364 93.835523,-224.654011 92.850018,-225.042607 91.850116,-225.399935 90.836191,-225.725753 89.808655,-226.019798 88.767967,-226.281788 87.714633,-226.511426 86.649212,-226.708407 85.572313,-226.872422 84.484604,-227.003159 83.38681,-227.100314 82.279714,-227.163593 81.164156,-227.192716 80.041038,-227.187426 78.911314,-227.147492 77.775998,-227.072713 76.636154,-226.962923 75.492896,-226.817998 74.347384,-226.637856 73.200818,-226.422464 72.054434,-226.171837 70.909498,-225.886043 69.7673,-225.565205 68.629147,-225.209498 67.496359,-224.819154 66.370258,-224.394458 65.252164,-223.935748 64.15508,-223.448606 61.959711,-222.359467 59.829029,-221.147868 57.760955,-219.812826 55.764246,-218.359515 53.84689,-216.793394 52.016055,-215.120061 50.278084,-213.345106 48.638518,-211.47398 47.102152,-209.511894 45.673116,-207.463721 44.354966,-205.333939 43.150786,-203.126586 42.063298,-200.845238 41.094962,-198.493 40.248075,-196.072526 39.524861,-193.586034 38.927554,-191.035343 38.458461,-188.421913 38.120023,-185.746887 37.914858,-183.011139 37.845246,-180.193201 37.845246,-157.688525 37.845246,-135.161592 37.845246,-112.63466 37.845246,-90.117544 37.853296,-89.378569 37.968829,-87.235108 38.073382,-86.222713 38.2116,-85.213721 38.381584,-84.222095 38.583021,-83.247217 38.815673,-82.288484 39.07938,-81.34531 39.374063,-80.417131 39.699719,-79.503411 40.056421,-78.603645 40.444319,-77.717366 40.863633,-76.844147 41.314654,-75.983609 41.797735,-75.135422 42.313292,-74.29931 42.861792,-73.475057 43.443754,-72.662503 44.059738,-71.861555 44.710341,-71.072182 45.396185,-70.294421 46.117917,-69.528375 46.876196,-68.774213 47.671687,-68.032173 48.505051,-67.302558 49.376941,-66.585736 50.28799,-65.882139 51.238804,-65.19226 52.229955,-64.516652 53.261969,-63.855924 54.335323,-63.210741 55.45043,-62.581817 56.607635,-61.969915 57.807205,-61.375839 59.049322,-60.800437 60.33407,-60.244589 61.661433,-59.709207 63.03128,-59.19523 64.443365,-58.703616 65.897311,-58.23534 67.392609,-57.791384 68.928611,-57.372736 70.50452,-56.98038 72.119392,-56.615287 73.772127,-56.278415 75.461469,-55.970696 77.186003,-55.693031 78.944158,-55.446282 80.734207,-55.231266 82.554271,-55.048745 84.402326,-54.899423 86.276205,-54.783938 88.173615,-54.702854 90.092138,-54.656657 92.029252,-54.645753 93.982339,-54.670459 95.948702,-54.731003 97.92558,-54.82752 99.910165,-54.960053 101.899622,-55.128551 103.88319,-55.332058 107.873981,-55.84878 112.619892,-56.592719 117.990224,-57.552677 122.99654,-58.579023 127.687425,-59.674198 132.096864,-60.838973 136.250881,-62.073335 140.170276,-63.376824 143.872252,-64.748761 147.371427,-66.188401 150.680499,-67.695049 153.810679,-69.268152 156.77199,-70.907366 159.573468,-72.612619 162.2233,-74.384161 164.728916,-76.222601 167.097046,-78.128948 169.333758,-80.104629 171.444473,-82.151512 173.433968,-84.271915 175.306378,-86.468607 177.065185,-88.744807 178.715558,-91.107532 179.605705,-92.50808 180.805317,-94.611867 181.86222,-96.739708 182.772824,-98.875771 183.532768,-100.998865 184.140708,-103.090128 184.59796,-105.133493 184.908005,-107.115928 185.075922,-109.027461 185.107813,-110.861047 185.010227,-112.612329 184.789631,-114.279316 184.451917,-115.862012 184.00197,-117.362011 183.443308,-118.782047 182.777798,-120.125535 182.005489,-121.396088 181.124543,-122.597052 180.131299,-123.731074 179.022498,-124.797768 178.277254,-125.399378 177.812017,-125.722882 177.305877,-126.036114 176.769291,-126.330405 176.199592,-126.605784 175.593924,-126.861997 174.949254,-127.09852 174.262351,-127.314573 173.52977,-127.509139 172.747802,-127.68098 171.912412,-127.82865 171.019147,-127.950495 170.063004,-128.044656 169.038243,-128.109049 167.938126,-128.141331 166.754519,-128.138837 165.477289,-128.098476 164.093309,-128.016543 162.584746,-127.888394 160.925794,-127.707806 159.075661,-127.4656 156.960349,-127.146055 154.406587,-126.713903 149.977416,-125.887883 145.289472,-124.975215 140.163244,-124.022211 136.14796,-123.375048 132.754224,-122.943694 129.791402,-122.69019 127.158587,-122.592606 124.792615,-122.636232 122.649593,-122.8106 120.696981,-123.108298 118.909817,-123.524411 117.268799,-124.056173 115.759253,-124.70265 114.370462,-125.464396 113.095088,-126.343131 111.928547,-127.341526 110.868344,-128.463212 109.927377,-129.694869 109.476951,-130.388972 109.065853,-131.097754 108.681561,-131.841802 108.324246,-132.622423 107.994169,-133.441099 107.691681,-134.299496 107.417241,-135.199456 107.171422,-136.143001 106.954918,-137.132322 106.768552,-138.169777 106.613279,-139.257881 106.490188,-140.399297 106.400506,-141.596831 106.345593,-142.853424"/>
</g>
</svg>