<?xml version="1.0" encoding="UTF-8"?>
<svg xmlns="http://www.w3.org/2000/svg" xmlns:xlink="http://www.w3.org/1999/xlink" width="312.174405" height="433.918454" viewBox="-115.919488 -125.159215 312.174405 433.918454">
<defs>
<style type="text/css">
.l0d1 {fill:none;stroke:black;stroke-dasharray:8,8;}
.l0d0 {stroke: #F38400; fill: #F38400; fill-opacity: 0.5;}
</style>
</defs>
<rect x="-115.919488" y="-125.159215" width="312.174405" height="433.918454" fill="none" stroke="none"/>
<g id="interpolation" transform="scale(1 -1)">
<polygon id="0x56358e3e15e0" class="l0d0" points="0,0 1.410876,1.724556 2.901732,3.28587 4.476833,4.695871 6.142416,5.964655 7.906834,7.10045 9.780759,8.10961 11.777496,8.996637 13.913508,9.76424 16.209292,10.413412 18.690886,10.943513 21.392563,11.352349 24.361924,11.636159 27.670418,11.78941 31.438329,11.804002 35.908937,11.666498 41.784793,11.345464 49.848401,10.897506 52.687225,10.800469 55.056379,10.764765 57.154833,10.777317 59.064395,10.832397 60.829354,10.926671 62.477341,11.057902 64.027195,11.224454 65.492584,11.425067 66.883895,11.658748 68.209302,11.924707 69.475427,12.222321 70.687756,12.551115 71.850921,12.910747 72.96889,13.301008 74.045107,13.721808 75.082587,14.173185 76.083992,14.655298 77.051682,15.168428 77.987757,15.71298 78.894088,16.289481 79.772342,16.898581 80.623999,17.541054 81.450367,18.217795 82.252593,18.929821 83.031677,19.678268 84.348519,21.08713 85.678685,22.736612 86.861171,24.467729 87.89863,26.281525 88.792334,28.179479 89.542164,30.163277 90.146642,32.234536 90.603018,34.394497 90.907423,36.643678 91.055075,38.981499 91.040563,41.405882 90.858198,43.912828 90.502447,46.495996 89.968434,49.146299 89.252517,51.851551 88.3529,54.596213 87.270274,57.361301 86.008395,60.124514 84.574562,62.860646 84.348519,63.261389 82.535724,66.276495 80.586381,69.194142 78.500575,72.014875 76.278175,74.738828 73.918888,77.36571 71.422324,79.894782 68.788068,82.324848 66.015763,84.654246 63.105192,86.88085 60.05638,89.002072 56.86969,91.014882 53.545931,92.915825 50.08647,94.701054 46.493346,96.366374 42.769379,97.907293 38.91829,99.319084 34.944801,100.596862 30.854736,101.735669 26.6551,102.730574 22.354146,103.576776 17.961414,104.269725 13.487736,104.805238 8.945215,105.179626 4.347158,105.389815 0,105.435649 -2.343526,105.399593 -4.678809,105.321447 -7.004006,105.2014 -9.317325,105.039693 -11.617029,104.836613 -13.901444,104.592495 -16.168957,104.307716 -18.418025,103.982693 -20.647176,103.617876 -22.855011,103.213751 -25.040203,102.770832 -27.201505,102.289654 -29.337743,101.77078 -31.447823,101.214785 -33.530723,100.622262 -35.585499,99.993812 -37.61128,99.330044 -39.607267,98.631573 -41.572731,97.899011 -43.507012,97.132972 -45.409515,96.33406 -47.279708,95.502875 -49.117116,94.640006 -50.921324,93.746027 -52.691968,92.8215 -54.428737,91.86697 -56.131363,90.88296 -57.799623,89.869975 -59.433335,88.828499 -61.032351,87.758992 -62.596559,86.661888 -64.125873,85.537598 -65.620236,84.386506 -67.079614,83.208968 -68.503992,82.005313 -69.893372,80.775845 -71.24777,79.520834 -72.567213,78.240527 -73.851736,76.93514 -75.10138,75.60486 -76.316188,74.249846 -77.496204,72.87023 -78.64147,71.466115 -79.752024,70.037577 -80.827898,68.584665 -81.869115,67.107401 -82.875689,65.605781 -84.348519,63.261389 -86.147871,60.11861 -87.797276,56.901658 -89.298882,53.606889 -90.654192,50.230289 -91.864059,46.767481 -92.928686,43.213735 -93.847621,39.563975 -94.619763,35.812778 -95.243367,31.954372 -95.716047,27.982625 -96.034782,23.891018 -96.195922,19.672616 -96.19518,15.320008 -96.027634,10.825236 -95.687702,6.179679 -95.169114,1.373906 -94.464851,-3.602549 -93.567056,-8.761496 -92.466881,-14.116537 -91.154259,-19.683743 -89.617515,-25.482674 -87.842738,-31.538012 -85.812702,-37.882274 -84.348519,-42.17426 -82.867945,-46.161187 -81.24529,-50.052397 -79.484967,-53.841079 -77.592024,-57.519968 -75.572221,-61.081381 -73.432104,-64.517286 -71.179059,-67.819385 -68.821362,-70.979225 -66.36819,-73.98833 -63.829617,-76.838362 -61.216562,-79.521298 -59.885792,-80.797671 -58.541086,-82.029284 -57.184019,-83.215325 -55.81619,-84.355046 -54.439221,-85.447759 -53.054746,-86.492849 -51.664409,-87.489773 -50.269849,-88.438066 -48.872699,-89.337346 -47.474575,-90.187312 -46.077068,-90.987751 -44.681736,-91.738534 -43.290097,-92.439621 -41.903621,-93.091054 -40.523724,-93.692959 -39.151761,-94.245542 -37.789022,-94.749083 -36.436722,-95.203935 -35.096003,-95.610514 -33.767928,-95.969297 -32.453478,-96.280811 -31.153551,-96.545628 -29.868961,-96.764358 -28.600439,-96.937636 -27.348635,-97.06612 -26.114116,-97.150479 -24.897373,-97.191382 -23.698824,-97.189498 -22.518813,-97.145477 -21.357622,-97.059952 -20.215472,-96.933525 -19.092528,-96.766763 -17.988908,-96.560192 -16.904687,-96.314288 -15.839906,-96.029476 -14.794573,-95.706122 -13.768679,-95.344532 -12.762196,-94.944946 -11.775089,-94.507539 -10.807321,-94.032415 -9.858857,-93.519611 -8.929674,-92.969091 -8.019765,-92.380751 -7.129142,-91.754419 -6.257847,-91.089855 -5.405947,-90.386753 -4.573547,-89.644746 -3.760789,-88.863403 -2.195084,-87.18085 -0.711237,-85.335208 0,-84.348519 1.168089,-82.52234 2.167686,-80.652702 3.007371,-78.731161 3.693401,-76.747667 4.229652,-74.690369 4.617568,-72.54529 4.856082,-70.295801 4.941483,-67.921727 4.867133,-65.397823 4.622877,-62.691062 4.193789,-59.755496 3.557343,-56.521583 2.676309,-52.870513 1.476678,-48.556119 -0.258152,-42.830167 -1.947335,-37.284184 -2.820446,-34.246277 -3.462437,-31.845035 -3.976949,-29.748225 -4.397987,-27.848387 -4.742596,-26.092546 -5.021046,-24.449373 -5.240228,-22.898246 -5.405105,-21.424579 -5.519421,-20.017497 -5.586096,-18.668563 -5.607459,-17.371016 -5.58538,-16.119297 -5.521373,-14.908731 -5.416647,-13.73532 -5.272151,-12.595589 -5.088602,-11.48648 -4.866507,-10.405273 -4.606172,-9.349529 -4.307718,-8.317045 -3.971087,-7.305822 -3.596046,-6.314039 -3.182196,-5.340032 -2.728974,-4.382281 -2.235656,-3.439396 -1.701362,-2.510108 -1.125063,-1.593262"/>
<polygon id="0x56358e283610" class="l0d1" points="0,0 84.348519,21.08713 84.348519,63.261389 0,105.435649 -84.348519,63.261389 -84.348519,-42.17426 0,-84.348519"/>
<polygon id="0x56358e504390" class="l0d0" points="84.348519,-189.784168 84.369484,-188.301822 84.430948,-186.89532 84.530866,-185.561113 84.667321,-184.29577 84.838532,-183.095976 85.04286,-181.958534 85.278807,-180.880365 85.545029,-179.858507 85.840335,-178.890122 86.163695,-177.972493 86.514248,-177.103032 86.891305,-176.27928 87.294354,-175.498917 87.723069,-174.759761 88.177309,-174.05978 89.162014,-172.770875 90.249956,-171.619841 91.44635,-170.595896 92.759488,-169.691141 94.200705,-168.900639 95.784377,-168.222418 97.528029,-167.657397 99.452682,-167.209272 101.583559,-166.884395 103.951451,-166.691731 106.595215,-166.642983 109.566507,-166.753113 112.939415,-167.041704 116.832573,-167.536536 121.471147,-168.284157 127.435711,-169.393014 132.920518,-170.460819 138.128665,-171.432114 141.152651,-171.943839 143.666847,-172.32364 145.875086,-172.612726 147.863856,-172.829218 149.680829,-172.983566 151.356182,-173.082748 152.910776,-173.131874 154.359964,-173.134927 155.715582,-173.095148 156.987095,-173.01525 158.182295,-172.897546 159.307747,-172.74403 160.369092,-172.556419 161.371249,-172.33619 162.318562,-172.084593 163.214904,-171.802665 164.063749,-171.491233 164.868227,-171.150917 165.631165,-170.782131 166.355113,-170.385082 167.042363,-169.959768 167.694966,-169.505977 168.697039,-168.697039 170.125471,-167.32285 171.407143,-165.85952 172.545987,-164.306973 173.544448,-162.664371 174.403411,-160.93035 175.122186,-159.10333 175.69856,-157.181859 176.128913,-155.165012 176.408424,-153.052825 176.531351,-150.846754 176.491408,-148.550147 176.282212,-146.168714 175.897828,-143.710949 175.333366,-141.188487 174.585626,-138.616326 173.653737,-136.012857 172.539729,-133.399659 171.248965,-130.800991 169.790358,-128.242996 168.697039,-126.522779 166.710549,-123.67886 164.59056,-120.935228 162.33418,-118.288067 159.937799,-115.734004 157.397081,-113.270122 154.706967,-110.893953 151.861658,-108.603477 148.854594,-106.39711 145.678427,-104.273688 142.324965,-102.232444 138.785097,-100.272973 135.048678,-98.395199 131.104371,-96.599323 126.939405,-94.885761 122.539231,-93.255075 117.887018,-91.70787 112.962888,-90.24467 107.742738,-88.86574 102.196352,-87.570833 96.284223,-86.358787 89.951869,-85.226864 84.348519,-84.348519 79.623186,-83.736689 77.255767,-83.493801 74.890534,-83.293476 72.53079,-83.13589 70.179822,-83.021108 67.840886,-82.949093 65.51718,-82.919699 63.211829,-82.932676 60.927868,-82.987672 58.668218,-83.084236 56.435676,-83.221825 54.232901,-83.399808 52.062399,-83.617472 49.926514,-83.87403 47.827421,-84.168628 45.767119,-84.500354 43.747429,-84.868247 41.769989,-85.271303 39.836257,-85.708483 37.947512,-86.178728 36.104855,-86.680957 34.309217,-87.214083 32.561364,-87.777019 30.861904,-88.368682 29.211294,-88.988003 27.60985,-89.633934 26.057757,-90.305449 24.555077,-91.001555 23.10176,-91.721296 21.697653,-92.463755 20.342513,-93.228058 19.036014,-94.013382 17.777763,-94.818954 16.5673,-95.644054 15.40412,-96.488019 14.287672,-97.350244 13.217377,-98.230185 12.192629,-99.127357 11.212812,-100.041338 10.277303,-100.971767 9.38548,-101.918348 8.536732,-102.880844 7.730468,-103.859081 6.966117,-104.852947 6.243142,-105.862387 5.561041,-106.887407 4.919358,-107.928068 4.317679,-108.984486 3.755649,-110.056829 3.232963,-111.145316 2.749383,-112.250214 2.30473,-113.371832 1.898893,-114.510523 1.531831,-115.666679 1.203572,-116.840725 0.914219,-118.033121 0.663944,-119.244355 0.452997,-120.474943 0.281699,-121.725422 0.150447,-122.996349 0.010038,-125.601321 0,-126.522779 0,-152.881691 0,-179.240603 -0,-205.599516 0,-231.958428 0.083402,-235.334628 0.331446,-238.642118 0.741055,-241.879683 1.309354,-245.045815 2.033622,-248.138669 2.911239,-251.156019 3.93962,-254.095217 5.116135,-256.953153 6.438023,-259.72623 7.902289,-262.410341 9.505597,-265.000862 11.244159,-267.492664 13.113617,-269.880141 15.108931,-272.157257 17.22428,-274.317622 19.452974,-276.354588 21.787398,-278.261375 24.218979,-280.031209 26.7382,-281.657488 29.334656,-283.133947 31.997153,-284.454832 33.349485,-285.055312 34.71361,-285.614959 36.087974,-286.133284 37.47101,-286.609861 38.861148,-287.04432 40.25682,-287.436359 41.656469,-287.785732 43.058557,-288.092262 44.461569,-288.35583 45.864024,-288.576378 47.264476,-288.753907 48.661527,-288.88847 50.053823,-288.980176 51.440066,-289.029178 52.819013,-289.035673 54.189481,-288.999895 55.55035,-288.922111 56.900559,-288.802617 58.239114,-288.641729 59.565082,-288.439781 60.877591,-288.197117 62.175834,-287.914086 63.459058,-287.591039 64.726569,-287.228321 65.977724,-286.826271 67.211932,-286.38521 68.428645,-285.905446 69.62736,-285.387263 70.807611,-284.830922 71.968965,-284.236658 73.111018,-283.604676 74.233394,-282.935148 75.335735,-282.228215 76.417701,-281.483984 77.478965,-280.702524 78.519207,-279.883873 79.538115,-279.028029 80.535376,-278.134956 81.510676,-277.204581 82.463697,-276.236799 83.394111,-275.231469 84.348519,-274.132688 85.912619,-272.143332 87.304435,-270.105051 88.533413,-268.011247 89.607283,-265.853995 90.532024,-263.6239 91.311835,-261.309914 91.949112,-258.899043 92.44441,-256.375914 92.796386,-253.722084 93.001673,-250.914938 93.054633,-247.925866 92.946851,-244.717093 92.666101,-241.235835 92.194083,-237.402381 91.500949,-233.082248 90.529047,-228.005043 89.121841,-221.409005 87.431063,-213.625522 86.655125,-209.814843 86.091156,-206.812089 85.642872,-204.183416 85.279875,-201.79349 84.987199,-199.576548 84.755952,-197.494079 84.580239,-195.520951 84.455865,-193.639534 84.379691,-191.836798"/>
<polygon id="0x56358e4c5e80" class="l0d1" points="84.348519,-189.784168 168.697039,-168.697039 168.697039,-126.522779 84.348519,-84.348519 0,-126.522779 0,-231.958428 84.348519,-274.132688"/>
</g>
</svg>