<?xml version="1.0" encoding="UTF-8"?>
<svg xmlns="http://www.w3.org/2000/svg" xmlns:xlink="http://www.w3.org/1999/xlink" width="304.996068" height="354.956748" viewBox="-100.155563 -108.038626 304.996068 354.956748">
<defs>
<style type="text/css">
.l0d0 {stroke: #F38400; fill: #F38400; fill-opacity: 0.5;}
</style>
</defs>
<rect x="-100.155563" y="-108.038626" width="304.996068" height="354.956748" fill="none" stroke="none"/>
<g id="interpolation" transform="scale(1 -1)">
<polygon id="0x55585d18fc40" class="l0d0" points="2.184755,-0.150288 2.957595,0.722759 3.75433,1.533767 4.574589,2.285579 5.418135,2.980956 6.284836,3.622541 7.174623,4.212832 8.087454,4.754175 9.023266,5.248756 9.981942,5.69862 10.963283,6.105685 11.966988,6.471773 12.992643,6.798633 14.039725,7.087968 15.107605,7.341462 17.30278,7.747663 19.571491,8.030905 21.906205,8.205315 24.298924,8.28557 26.741467,8.286871 29.225661,8.224869 34.286974,7.975334 39.420845,7.6684 41.996593,7.535485 44.568868,7.439146 47.13092,7.396855 49.676163,7.426401 52.198099,7.545965 54.690172,7.774199 57.14556,8.130287 58.357215,8.362416 59.556851,8.633933 60.743385,8.94736 61.915643,9.305219 63.07235,9.710019 64.212125,10.164231 65.333476,10.670264 66.43481,11.23044 67.514444,11.846965 68.570633,12.521907 69.601603,13.257189 70.605591,14.054575 71.580883,14.91569 72.525856,15.84203 73.438816,16.834777 74.274162,17.843476 75.04494,18.88115 75.751998,19.946105 76.396082,21.036378 76.978036,22.149988 77.498806,23.284952 77.959435,24.439315 78.361052,25.611158 78.704862,26.798621 78.992131,27.999906 79.224169,29.213285 79.402316,30.437103 79.527929,31.669769 79.60237,32.909759 79.626999,34.155602 79.603161,35.405881 79.532185,36.659219 79.415381,37.914275 79.254034,39.169736 79.049407,40.424311 78.802738,41.676727 78.515242,42.925722 78.188113,44.170044 77.822522,45.408444 77.41962,46.639677 76.980541,47.862499 75.998302,50.277929 74.884553,52.644742 73.647853,54.95283 72.234843,57.316929 70.736087,59.599333 69.154422,61.800267 67.49274,63.91993 65.753948,65.958557 63.940956,67.916419 62.056676,69.793828 60.104014,71.591128 58.085865,73.308699 56.005111,74.946949 53.864617,76.506314 51.667228,77.987253 49.415767,79.390239 47.113037,80.715766 44.761821,81.964332 42.364879,83.136448 39.924953,84.232626 37.444766,85.253381 34.927025,86.199227 32.374419,87.070676 29.789626,87.868237 27.17531,88.592414 24.534126,89.243704 21.868718,89.8226 19.181721,90.329586 16.475767,90.765139 13.753476,91.129732 11.01747,91.423826 8.27036,91.647878 5.514759,91.802336 2.753275,91.887641 -0.011416,91.904229 -2.757346,91.853315 -5.49896,91.735352 -8.233926,91.54996 -10.959841,91.296756 -13.674296,90.975349 -16.37488,90.585343 -19.059178,90.126334 -21.724772,89.597915 -24.369236,88.999669 -26.990139,88.331178 -29.585043,87.592014 -32.151501,86.781746 -34.687057,85.89994 -37.189244,84.946155 -39.655584,83.919951 -42.083584,82.820884 -44.470739,81.648512 -46.814528,80.402393 -49.112414,79.08209 -51.361841,77.687173 -53.56024,76.21722 -55.70502,74.671821 -57.793577,73.050582 -59.823288,71.353125 -61.791518,69.579095 -63.695618,67.72816 -65.532932,65.800015 -67.300797,63.794384 -68.99655,61.71102 -70.61753,59.549709 -72.161085,57.310264 -73.624516,54.992631 -75.125448,52.378294 -76.496775,49.728258 -77.741633,47.044606 -78.863159,44.329519 -79.864553,41.585162 -80.749072,38.813676 -81.520024,36.017162 -82.180758,33.197682 -82.734655,30.357251 -83.185122,27.497835 -83.535578,24.621355 -83.789452,21.729685 -83.950173,18.824657 -84.021165,15.908066 -84.005844,12.981676 -83.907612,10.047221 -83.729861,7.106412 -83.475965,4.160942 -83.149284,1.21249 -82.753161,-1.737279 -82.290928,-4.686704 -81.765898,-7.634132 -81.181374,-10.577912 -80.540645,-13.516395 -79.846991,-16.447929 -79.103679,-19.370864 -78.313971,-22.283546 -77.481118,-25.184316 -76.608365,-28.071513 -75.698951,-30.943472 -73.783084,-36.634956 -73.061256,-38.629957 -72.302138,-40.589441 -71.506845,-42.512987 -70.6765,-44.400144 -69.812228,-46.250466 -68.915149,-48.063505 -67.986384,-49.838816 -67.027052,-51.575954 -66.038268,-53.274476 -65.021146,-54.93394 -63.9768,-56.553904 -62.906339,-58.133928 -61.810869,-59.67357 -60.691495,-61.17239 -59.549317,-62.629948 -58.385434,-64.045802 -57.200939,-65.419511 -55.996924,-66.750632 -54.774476,-68.038721 -53.534677,-69.283334 -52.278606,-70.484021 -51.007339,-71.640333 -49.721945,-72.751817 -48.42349,-73.818015 -47.113036,-74.838466 -45.79164,-75.812704 -44.460354,-76.740256 -43.120226,-77.620643 -41.7723,-78.453379 -40.417617,-79.237967 -39.057214,-79.973903 -37.692125,-80.66067 -36.323385,-81.29774 -34.952027,-81.884568 -33.579086,-82.4206 -32.205601,-82.90526 -30.832618,-83.337957 -29.46119,-83.718083 -28.092385,-84.04501 -26.727287,-84.31809 -25.367001,-84.536657 -24.012659,-84.700028 -22.665425,-84.807505 -21.326502,-84.858379 -19.997133,-84.851932 -18.678614,-84.787449 -17.37229,-84.664218 -16.079562,-84.481547 -14.80189,-84.238769 -13.540787,-83.935257 -12.297815,-83.570431 -11.074583,-83.143775 -9.872728,-82.654838 -8.69391,-82.103248 -7.53979,-81.488713 -6.412016,-80.811021 -5.312208,-80.070033 -4.241937,-79.265681 -3.202718,-78.397951 -2.195993,-77.46687 -1.223131,-76.472493 -0.285421,-75.414884 0.615926,-74.294104 1.479621,-73.110409 2.201006,-72.01477 2.853186,-70.905545 3.437943,-69.78356 3.957019,-68.649946 4.412288,-67.505891 4.805764,-66.352599 5.139604,-65.191252 5.416091,-64.022975 5.637624,-62.84881 5.806686,-61.669695 5.925823,-60.486456 5.997614,-59.299808 6.024655,-58.110357 6.009533,-56.918611 5.954818,-55.725 5.736728,-53.333556 5.39026,-50.938327 4.934681,-48.541154 4.388703,-46.143711 3.770582,-43.747709 3.098216,-41.355008 1.661067,-36.588059 0.21607,-31.862479 -0.466673,-29.522472 -1.100467,-27.202049 -1.668748,-24.904807 -2.155255,-22.634544 -2.544124,-20.39517 -2.819992,-18.19057 -2.96809,-16.024362 -2.989778,-14.956629 -2.974255,-13.899549 -2.919826,-12.853329 -2.824804,-11.818083 -2.687493,-10.793815 -2.506168,-9.780419 -2.279047,-8.77767 -2.004265,-7.785239 -1.67985,-6.802706 -1.303702,-5.829585 -0.873577,-4.865363 -0.38709,-3.909533 0.158282,-2.961636 0.765179,-2.021299 1.436505,-1.088034 -1.436505,1.088034 -2.212712,0.008879 -2.918821,-1.08523 -3.556215,-2.193111 -4.126541,-3.313691 -4.63156,-4.445817 -5.073173,-5.588284 -5.453422,-6.73988 -5.774493,-7.899425 -6.0387,-9.065801 -6.248463,-10.23798 -6.406286,-11.415043 -6.51473,-12.596186 -6.576384,-13.780716 -6.593848,-14.968049 -6.569712,-16.157696 -6.506541,-17.349247 -6.406871,-18.54236 -6.107988,-20.932137 -5.692575,-23.325068 -5.17956,-25.719461 -4.587362,-28.113652 -3.934006,-30.505862 -2.514487,-35.276189 -1.060337,-40.011672 0.29169,-44.68939 0.887399,-46.998302 1.407634,-49.282367 1.836363,-51.53772 2.158012,-53.76046 2.357564,-55.946851 2.420605,-58.09362 2.396585,-59.151348 2.333267,-60.198361 2.228961,-61.234569 2.081961,-62.259987 1.890526,-63.274747 1.652855,-64.279088 1.36706,-65.273357 1.031138,-66.25798 0.642962,-67.233444 0.200258,-68.200254 -0.299384,-69.158902 -0.858509,-70.109822 -1.479621,-71.053143 -2.245127,-72.102339 -3.039111,-73.089665 -3.860622,-74.016256 -4.708628,-74.88305 -5.582175,-75.69099 -6.48039,-76.441007 -7.402473,-77.134008 -8.347696,-77.770857 -9.315389,-78.352361 -10.304927,-78.879263 -11.315718,-79.352227 -12.34718,-79.771839 -13.398729,-80.138603 -14.469763,-80.45295 -15.559645,-80.715239 -16.667697,-80.925769 -17.793189,-81.084791 -18.935338,-81.192515 -20.093303,-81.249127 -21.266188,-81.254795 -22.453044,-81.209679 -23.652874,-81.113942 -24.864637,-80.967751 -26.087255,-80.771286 -27.319618,-80.524742 -28.560588,-80.228331 -29.809008,-79.882284 -31.063702,-79.48685 -32.323482,-79.042299 -33.587151,-78.548917 -34.853505,-78.007009 -36.121337,-77.416895 -37.389439,-76.77891 -38.656601,-76.093404 -39.921616,-75.360739 -41.18328,-74.581286 -42.440389,-73.755428 -43.691747,-72.883557 -44.936157,-71.966071 -46.172432,-71.003376 -47.399384,-69.995884 -48.615833,-68.94401 -49.820603,-67.848176 -51.012522,-66.708807 -52.190421,-65.526329 -53.353137,-64.301174 -54.499511,-63.033773 -55.628389,-61.724562 -56.738617,-60.373974 -57.829048,-58.982447 -58.898537,-57.550417 -59.945943,-56.078322 -60.970128,-54.5666 -61.969957,-53.015687 -62.944295,-51.42602 -63.892014,-49.798035 -64.811984,-48.13217 -65.703081,-46.428857 -66.56418,-44.688531 -67.394159,-42.911624 -68.191897,-41.098567 -68.956275,-39.249791 -69.686175,-37.365723 -70.380469,-35.44682 -72.269912,-29.8339 -73.16551,-27.005582 -74.024156,-24.165066 -74.842701,-21.314144 -75.618003,-18.454614 -76.346926,-15.588277 -77.026342,-12.716938 -77.653133,-9.842405 -78.224189,-6.966486 -78.736412,-4.09099 -79.186718,-1.217726 -79.572033,1.651501 -79.889298,4.514891 -80.135472,7.370653 -80.307525,10.217005 -80.402444,13.052181 -80.417233,15.874434 -80.348907,18.682038 -80.194494,21.473299 -79.951031,24.246552 -79.615558,27.00017 -79.185116,29.73257 -78.656737,32.442212 -78.02744,35.127603 -77.294219,37.7873 -76.454036,40.419904 -75.503809,43.02406 -74.440409,45.598448 -73.260647,48.141775 -71.961274,50.652762 -70.539036,53.130034 -69.153145,55.32488 -67.691716,57.445174 -66.156933,59.491554 -64.551028,61.464528 -62.876225,63.364575 -61.134743,65.192144 -59.328804,66.94765 -57.460635,68.631484 -55.532471,70.244008 -53.54656,71.78556 -51.505164,73.256457 -49.410561,74.656998 -47.265046,75.987468 -45.070931,77.248138 -42.830545,78.439272 -40.546235,79.561127 -38.220364,80.613956 -35.855309,81.59801 -33.453463,82.51354 -31.01723,83.360798 -28.549027,84.140039 -26.051282,84.851522 -23.526432,85.495509 -20.976922,86.072269 -18.405205,86.582075 -15.813739,87.025205 -13.204989,87.401946 -10.581424,87.712589 -7.945516,87.95743 -5.299742,88.136773 -2.646581,88.250929 0.011416,88.300212 2.686938,88.284163 5.358399,88.20164 8.023169,88.052276 10.67855,87.835708 13.321848,87.551582 15.950371,87.199552 18.56143,86.779276 21.152343,86.290424 23.720433,85.73267 26.263031,85.105696 28.777474,84.40919 31.26111,83.642849 33.711298,82.806372 36.125409,81.899465 38.500828,80.921837 40.834953,79.873201 43.125203,78.753268 45.369013,77.561747 47.563837,76.298345 49.707152,74.962759 51.796453,73.554679 53.82926,72.073775 55.803111,70.519704 57.715563,68.892098 59.564193,67.190563 61.34659,65.414675 63.060355,63.563977 64.703091,61.637976 66.272406,59.636141 67.765897,57.557904 69.181151,55.402661 70.515699,53.169835 71.664857,51.025169 72.697702,48.830348 73.605898,46.597097 74.381297,44.337262 75.016002,42.06272 75.278207,40.923641 75.502414,39.785328 75.687726,38.649249 75.83327,37.51686 75.938196,36.389598 76.001677,35.268882 76.02291,34.156099 76.001113,33.052602 75.935521,31.959702 75.825378,30.87866 75.669935,29.81068 75.468438,28.756901 75.220114,27.718397 74.924162,26.696169 74.579735,25.691149 74.185926,24.704206 73.741752,23.736153 73.246143,22.787761 72.697934,21.859779 72.095858,20.952954 71.438547,20.068053 70.724736,19.206111 69.937063,18.34954 69.125981,17.554423 68.29163,16.817733 67.43422,16.136756 66.553873,15.508902 65.650657,14.931727 64.724634,14.40294 63.775892,13.920401 62.804584,13.482104 61.810947,13.086158 60.795326,12.730762 59.758173,12.414176 58.700047,12.134696 57.621608,11.890636 56.523605,11.680305 54.272272,11.353978 51.953306,11.14173 49.574554,11.029057 47.144135,11.00092 44.670219,11.04181 39.624079,11.266754 34.498623,11.573202 29.352817,11.826714 26.789706,11.890637 24.24201,11.889209 21.716228,11.804393 19.218848,11.6177 16.756543,11.310118 15.540747,11.1049 14.336454,10.862084 13.144693,10.579153 11.966573,10.253577 10.8033,9.882827 9.656183,9.464397 8.526644,8.995825 7.416215,8.47472 6.32653,7.89879 5.259307,7.265867 4.216318,6.573929 3.199352,5.821107 2.210176,5.005691 1.250492,4.126112 0.321895,3.180918 -0.57415,2.168742 -1.436158,1.088492 1.436158,-1.088492"/>
<polygon id="0x55585d18fc40" class="l0d0" points="109.962808,-142.369936 110.075004,-140.697398 110.257994,-139.143242 110.508269,-137.704539 110.822153,-136.378009 111.195885,-135.159893 111.625762,-134.04582 112.108362,-133.03074 112.640797,-132.108934 113.220982,-131.274174 113.847808,-130.520016 114.52117,-129.840208 115.241784,-129.229091 116.01085,-128.681902 116.829637,-128.194893 117.699099,-127.765254 118.619627,-127.390899 119.590931,-127.070205 120.612059,-126.801755 121.681491,-126.584147 122.797265,-126.415864 123.957108,-126.29521 125.158545,-126.220283 126.398989,-126.188982 127.675798,-126.199024 130.327947,-126.333256 133.094134,-126.602065 135.954168,-126.983159 138.888613,-127.453386 144.906488,-128.566209 151.005289,-129.747859 154.04295,-130.303486 157.051454,-130.802764 160.01559,-131.220685 162.920876,-131.531759 165.753635,-131.709699 167.138759,-131.74019 168.500961,-131.726913 169.838692,-131.666094 171.150377,-131.553779 172.434355,-131.385804 173.688794,-131.157781 174.911584,-130.86511 176.100199,-130.503027 177.25155,-130.066714 178.361859,-129.551487 179.426605,-128.95305 180.440582,-128.267801 181.397752,-127.493431 182.377391,-126.572526 183.282913,-125.609567 184.115029,-124.606777 184.874199,-123.566855 185.561048,-122.492591 186.176383,-121.386822 186.721199,-120.252381 187.196666,-119.092054 187.604106,-117.908541 187.944968,-116.704436 188.220793,-115.482208 188.433183,-114.244201 188.583772,-112.992633 188.674203,-111.729615 188.706107,-110.457152 188.681093,-109.177173 188.600733,-107.891532 188.466561,-106.602034 188.280069,-105.31044 188.042707,-104.018485 187.755884,-102.72788 187.420971,-101.440326 187.039301,-100.157515 186.612177,-98.881139 186.140869,-97.61289 185.626622,-96.354465 185.070654,-95.107567 184.474161,-93.873906 183.838318,-92.6552 183.164282,-91.453176 182.453191,-90.269573 181.706215,-89.106209 180.16977,-86.893316 178.556826,-84.768151 176.870213,-82.729003 175.112829,-80.774172 173.28758,-78.901904 171.397371,-77.110386 169.445097,-75.397749 167.433631,-73.762075 165.36582,-72.201399 163.244481,-70.713721 161.072398,-69.29701 158.852319,-67.94921 156.586959,-66.668251 154.279,-65.45205 151.931094,-64.298519 149.545865,-63.205571 147.125913,-62.171117 144.673817,-61.193077 142.192136,-60.269375 139.683417,-59.397946 137.150193,-58.576731 134.594985,-57.803684 132.02031,-57.076766 129.428677,-56.393948 126.822592,-55.753214 124.204558,-55.152551 121.577077,-54.58996 116.303781,-53.571027 112.342625,-52.891995 108.385597,-52.278573 105.013061,-51.831153 101.639646,-51.483007 98.272083,-51.234459 94.917122,-51.085865 91.581508,-51.037609 88.271974,-51.090108 84.995247,-51.243808 81.758047,-51.499199 78.567085,-51.856809 75.429069,-52.317218 72.350705,-52.881061 69.338704,-53.549034 66.399792,-54.321909 63.54072,-55.200534 60.768282,-56.185847 58.089339,-57.278879 55.510851,-58.480752 54.261487,-59.122878 53.03991,-59.792674 51.847036,-60.4903 50.683794,-61.215919 49.551131,-61.969695 48.450009,-62.751788 47.381413,-63.562355 46.346345,-64.401547 45.345829,-65.269502 44.380911,-66.166344 43.452657,-67.092179 42.562155,-68.047089 41.710509,-69.03113 40.89884,-70.044326 40.128278,-71.086664 39.399962,-72.158097 38.715029,-73.258532 38.074613,-74.38784 37.479833,-75.545848 36.931787,-76.732347 36.431549,-77.947092 35.980157,-79.18981 35.578615,-80.460206 35.227881,-81.75797 34.928872,-83.082787 34.682461,-84.434343 34.489479,-85.812337 34.350717,-87.216482 34.26693,-88.646521 34.238844,-90.101999 34.238844,-112.627775 34.238844,-135.153331 34.238844,-157.678886 34.238844,-180.204441 34.275421,-182.307046 34.384057,-184.374345 34.563099,-186.40565 34.810882,-188.400266 35.125727,-190.3575 35.505941,-192.276655 35.949818,-194.157036 36.455641,-195.997954 37.021679,-197.798722 37.646191,-199.558662 38.327425,-201.277103 39.063622,-202.953383 39.853015,-204.58685 40.693834,-206.176864 41.584301,-207.722794 42.522641,-209.224021 43.507073,-210.679936 44.53582,-212.089941 45.607107,-213.453447 46.71916,-214.769875 47.870211,-216.038651 49.058494,-217.259212 50.282252,-218.430997 51.539731,-219.553452 52.829183,-220.626026 54.148869,-221.64817 55.497054,-222.619335 56.872008,-223.538974 58.27201,-224.406537 59.695341,-225.221474 61.140288,-225.98323 62.605142,-226.691245 64.088197,-227.344957 65.587751,-227.943795 67.102099,-228.487184 68.629541,-228.974541 70.168371,-229.405275 71.716884,-229.778787 73.273367,-230.094472 74.836105,-230.351714 76.403371,-230.549892 77.97343,-230.688378 79.544535,-230.766535 81.114926,-230.783724 82.682826,-230.739302 84.24644,-230.632624 85.803954,-230.463047 87.353534,-230.22993 88.893325,-229.932643 90.421447,-229.570563 91.936002,-229.143083 93.435069,-228.649615 94.916707,-228.089592 96.37896,-227.462474 97.819858,-226.767751 99.237422,-226.004943 100.629672,-225.173606 101.994625,-224.27333 103.33031,-223.30374 104.634766,-222.264493 105.906055,-221.155279 107.14226,-219.975813 108.341494,-218.725834 109.501744,-217.405287 110.303983,-216.415168 111.056721,-215.412755 111.761011,-214.398284 112.417765,-213.372223 113.027925,-212.335071 113.592465,-211.287358 114.112397,-210.22963 114.588778,-209.162445 115.022704,-208.086361 115.415319,-207.001931 115.767803,-205.909694 116.081374,-204.810165 116.357285,-203.703834 116.801252,-201.472569 117.110139,-199.219168 117.294538,-196.946376 117.365049,-194.656466 117.332183,-192.351332 117.206296,-190.032588 116.997568,-187.701666 116.716002,-185.359895 116.371435,-183.008559 115.973564,-180.648941 115.056094,-175.910178 112.996729,-166.395056 112.002485,-161.644334 111.546073,-159.276829 111.128771,-156.917063 110.759462,-154.566971 110.44694,-152.228512 110.199893,-149.903652 110.026899,-147.59433 109.950838,-145.873668 109.924709,-144.163432 106.32062,-144.163673 106.348384,-145.982189 106.428828,-147.80253 106.610713,-150.231127 106.868775,-152.660017 107.193196,-155.087738 107.574268,-157.512855 108.002392,-159.933928 108.468052,-162.349488 109.474314,-167.157976 111.526335,-176.638367 112.425418,-181.281491 112.811653,-183.571948 113.143886,-185.838904 113.413418,-188.080243 113.611689,-190.293849 113.730309,-192.477649 113.76106,-194.629673 113.695905,-196.748136 113.526957,-198.83153 113.246423,-200.878728 112.846499,-202.889073 112.319223,-204.862434 111.656302,-206.799198 111.271247,-207.754095 110.848932,-208.700168 110.388157,-209.637551 109.887675,-210.566375 109.346203,-211.486763 108.762413,-212.398817 108.134948,-213.302614 107.46242,-214.198194 106.743585,-215.085371 105.686701,-216.288308 104.597297,-217.423829 103.476762,-218.492951 102.326615,-219.49648 101.148347,-220.435204 99.943423,-221.309881 98.71329,-222.12124 97.459379,-222.869976 96.183117,-223.556748 94.885927,-224.182183 93.569235,-224.746872 92.234477,-225.251375 90.883103,-225.696221 89.516579,-226.081915 88.136388,-226.408937 86.744036,-226.677752 85.341052,-226.888808 83.928985,-227.042543 82.509405,-227.139388 81.083905,-227.179769 79.654096,-227.164112 78.221607,-227.092844 76.788082,-226.966395 75.35518,-226.785201 73.924572,-226.549702 72.497937,-226.260348 71.076963,-225.917594 69.663346,-225.521904 68.258785,-225.07375 66.86498,-224.573611 65.483635,-224.021975 64.116453,-223.419335 62.765135,-222.766193 61.431383,-222.063055 60.116892,-221.310432 58.823354,-220.508841 57.552458,-219.658799 56.305887,-218.760829 55.085316,-217.815453 53.892418,-216.823192 52.728856,-215.784568 51.59629,-214.700101 50.496372,-213.570304 49.430748,-212.39569 48.401059,-211.176764 47.408944,-209.914023 46.456033,-208.607958 45.543956,-207.259051 44.674342,-205.867773 43.848818,-204.434586 43.06901,-202.959942 42.33655,-201.444279 41.653071,-199.888027 41.020213,-198.291605 40.43962,-196.655422 39.912948,-194.979876 39.441862,-193.265359 39.028035,-191.512255 38.673156,-189.720945 38.378924,-187.891804 38.147052,-186.025207 37.979268,-184.121529 37.87731,-182.181146 37.842933,-180.204441 37.842933,-157.678886 37.842933,-135.153331 37.842933,-112.627775 37.842933,-90.102442 37.868302,-88.78643 37.943722,-87.498921 38.068179,-86.239381 38.240689,-85.007465 38.460306,-83.802806 38.72612,-82.62502 39.037266,-81.47371 39.39292,-80.348477 39.792304,-79.248929 40.234681,-78.174687 40.719352,-77.125396 41.245649,-76.100729 41.812934,-75.100391 42.420586,-74.12413 43.067999,-73.17173 43.754572,-72.243018 44.479704,-71.337862 45.242788,-70.456168 46.043205,-69.597876 46.88032,-68.762959 47.753482,-67.951416 48.662017,-67.163271 49.605234,-66.398564 50.582417,-65.65735 51.592829,-64.939698 52.635716,-64.245681 53.710301,-63.575377 54.815792,-62.928866 57.116242,-61.707542 59.530428,-60.58232 62.051533,-59.553744 64.672604,-58.622273 67.386591,-57.788273 70.186377,-57.05202 73.0648,-56.413698 76.014673,-55.873413 79.028798,-55.431201 82.099968,-55.087032 85.220978,-54.840821 88.38463,-54.692435 91.58373,-54.641698 94.811093,-54.688394 98.059542,-54.832275 101.321909,-55.073062 104.591032,-55.410447 107.859732,-55.844091 111.763196,-56.449201 115.66428,-57.117927 120.847127,-58.119355 123.42481,-58.671279 125.989912,-59.259793 128.539868,-59.886723 131.072112,-60.553888 133.584083,-61.263096 136.073223,-62.016149 138.53698,-62.814836 140.972808,-63.660938 143.378173,-64.556225 145.750553,-65.502459 148.08744,-66.501394 150.386346,-67.554776 152.644802,-68.664347 154.860365,-69.831845 157.030619,-71.059011 159.153179,-72.347592 161.225692,-73.699344 163.245838,-75.11604 165.211335,-76.599478 167.119929,-78.151484 168.969403,-79.773922 170.75756,-81.468703 172.482228,-83.237786 174.141244,-85.083186 175.732447,-87.006976 177.253667,-89.011286 178.702667,-91.098232 179.391796,-92.171498 180.047485,-93.262882 180.66857,-94.37047 181.253856,-95.492268 181.802167,-96.626268 182.312347,-97.770458 182.783257,-98.922813 183.213786,-100.081303 183.602844,-101.243893 183.949369,-102.408541 184.252332,-103.573207 184.510732,-104.735849 184.723609,-105.894435 184.890039,-107.046945 185.009139,-108.191379 185.080069,-109.325765 185.10203,-110.448174 185.074263,-111.556731 184.996042,-112.649627 184.866667,-113.725139 184.685448,-114.781641 184.451687,-115.817619 184.164653,-116.831685 183.823555,-117.822575 183.427508,-118.789148 182.975503,-119.730373 182.466378,-120.645303 181.898793,-121.533037 181.271224,-122.392679 180.581964,-123.223287 179.82914,-124.023825 179.011129,-124.792786 178.297761,-125.36991 177.535265,-125.885105 176.721834,-126.34216 175.856496,-126.743571 174.938959,-127.091139 173.969678,-127.386278 172.949797,-127.630269 171.88102,-127.824445 170.76547,-127.970303 169.605548,-128.069554 168.403822,-128.124134 167.16295,-128.136183 165.885617,-128.108027 164.574497,-128.042146 161.861425,-127.807726 159.044315,-127.454844 156.142937,-127.006441 153.176288,-126.486085 147.119817,-125.325509 141.014413,-124.16711 137.984553,-123.650077 134.990736,-123.207635 132.047748,-122.865122 129.169632,-122.648547 127.759083,-122.595897 126.369691,-122.585012 125.003039,-122.619551 123.660721,-122.703329 122.344379,-122.840343 121.055772,-123.03479 119.796857,-123.291071 118.569906,-123.613767 117.377628,-124.007573 116.223305,-124.477171 115.11088,-125.027034 114.044971,-125.661178 113.03077,-126.382887 112.073773,-127.194512 111.179414,-128.097388 110.352641,-129.091955 109.59758,-130.178057 108.917355,-131.355349 108.314111,-132.623701 107.789195,-133.983491 107.343413,-135.435767 106.977297,-136.982257 106.691316,-138.625299 106.486026,-140.36771 106.362152,-142.212661 106.32062,-144.163313 109.924709,-144.163793"/>
</g>
</svg>