<?xml version="1.0" encoding="UTF-8"?>
<svg xmlns="http://www.w3.org/2000/svg" xmlns:xlink="http://www.w3.org/1999/xlink" width="324.793388" height="572.727273" viewBox="-38.429752 -534.297521 324.793388 572.727273">
<defs>
<style type="text/css">
.l10d0 {stroke: #F6A600; fill: #F6A600; fill-opacity: 0.5;}
.l1d0 {stroke: #A1CAF1; fill: #A1CAF1; fill-opacity: 0.5;}
.l2d0 {stroke: #BE0032; fill: #BE0032; fill-opacity: 0.5;}
</style>
<g id="Device">
<use transform="translate(-99.173554 -74.380165) rotate(90)" xlink:href="#Grating"/>
<use transform="translate(-99.173554 74.380165) rotate(90)" xlink:href="#Grating"/>
<use transform="translate(99.173554 74.380165) rotate(-90)" xlink:href="#Grating"/>
<use transform="translate(99.173554 -74.380165) rotate(-90)" xlink:href="#Grating"/>
<use transform="translate(0 0)" xlink:href="#Waveguide"/>
<use transform="translate(0 0) scale(1 -1)" xlink:href="#Waveguide"/>
<use transform="translate(0 0) rotate(180)" xlink:href="#Waveguide"/>
<use transform="translate(0 0) rotate(180) scale(1 -1)" xlink:href="#Waveguide"/>
<use transform="translate(-19.834711 0)" xlink:href="#MZI"/>
</g>
<g id="Waveguide">
<polygon id="0x558e76202f10" class="l1d0" points="-109.090909,-69.421488 -109.090909,-79.338843 -99.173554,-79.338843 -99.173554,-79.338843 -99.173554,-79.338843 -99.173554,-79.338843 -49.586777,-74.504132 -49.586777,-74.504132 -49.586777,-74.504132 -49.586777,-74.504132 -42.14876,-74.504132 -41.609295,-74.484865 -41.072578,-74.427162 -40.541345,-74.331317 -40.018303,-74.197819 -39.506118,-74.027347 -39.007399,-73.820771 -38.524687,-73.579143 -38.060443,-73.303694 -37.617033,-72.995828 -37.196714,-72.657115 -36.801631,-72.289279 -36.433795,-71.894195 -36.095081,-71.473877 -35.787215,-71.030466 -35.511766,-70.566222 -35.270138,-70.08351 -35.063562,-69.584791 -34.89309,-69.072606 -34.759592,-68.549564 -34.663747,-68.018331 -34.606044,-67.481614 -34.586777,-66.942149 -34.586777,-7.933884 -34.566325,-7.387305 -34.505085,-6.843782 -34.403398,-6.306355 -34.261834,-5.77803 -34.081184,-5.261762 -33.862458,-4.760437 -33.60688,-4.27686 -33.315879,-3.813733 -32.991082,-3.373649 -32.634305,-2.959067 -32.247544,-2.572307 -31.832963,-2.21553 -31.392878,-1.890733 -30.929752,-1.599732 -30.446174,-1.344153 -29.94485,-1.125428 -29.428581,-0.944777 -28.900256,-0.803213 -28.36283,-0.701527 -27.819307,-0.640286 -27.272727,-0.619835 -19.834711,-0.619835 -19.834711,-0.371901 -27.272727,-0.371901 -27.812193,-0.391168 -28.34891,-0.448871 -28.880142,-0.544716 -29.403184,-0.678214 -29.91537,-0.848686 -30.414089,-1.055262 -30.8968,-1.29689 -31.361044,-1.572339 -31.804455,-1.880205 -32.224773,-2.218919 -32.619857,-2.586755 -32.987693,-2.981838 -33.326407,-3.402156 -33.634273,-3.845567 -33.909721,-4.309811 -34.151349,-4.792523 -34.357926,-5.291242 -34.528397,-5.803427 -34.661896,-6.326469 -34.757741,-6.857702 -34.815444,-7.394419 -34.834711,-7.933884 -34.834711,-66.942149 -34.855162,-67.488728 -34.916403,-68.032251 -35.018089,-68.569678 -35.159653,-69.098003 -35.340304,-69.614271 -35.559029,-70.115596 -35.814608,-70.599174 -36.105609,-71.0623 -36.430406,-71.502384 -36.787183,-71.916966 -37.173943,-72.303727 -37.588525,-72.660503 -38.028609,-72.9853 -38.491736,-73.276302 -38.975313,-73.53188 -39.476638,-73.750606 -39.992906,-73.931256 -40.521231,-74.07282 -41.058658,-74.174506 -41.602181,-74.235747 -42.14876,-74.256198 -49.586777,-74.256198 -49.586777,-74.256198 -49.586777,-74.256198 -49.586777,-74.256198 -99.173554,-69.421488 -99.173554,-69.421488 -99.173554,-69.421488 -99.173554,-69.421488"/>
</g>
<g id="Alignment Mark">
<polygon id="0x558e7600bbe0" class="l1d0" points="12.396694,0.743802 0.743802,0.743802 0.743802,12.396694 -0.743802,12.396694 -0.743802,0.743802 -12.396694,0.743802 -12.396694,-0.743802 -0.743802,-0.743802 -0.743802,-12.396694 0.743802,-12.396694 0.743802,-0.743802 12.396694,-0.743802"/>
</g>
<g id="Grating">
<polygon id="0x558e76143f60" class="l2d0" points="-6.198347,0 6.198347,0 6.198347,0.153719 -6.198347,0.153719"/>
<polygon id="0x558e7622c240" class="l2d0" points="-6.198347,0.307438 6.198347,0.307438 6.198347,0.461157 -6.198347,0.461157"/>
<polygon id="0x558e76271950" class="l2d0" points="-6.198347,0.614876 6.198347,0.614876 6.198347,0.768595 -6.198347,0.768595"/>
<polygon id="0x558e7624e160" class="l2d0" points="-6.198347,0.922314 6.198347,0.922314 6.198347,1.076033 -6.198347,1.076033"/>
<polygon id="0x558e7629c240" class="l2d0" points="-6.198347,1.229752 6.198347,1.229752 6.198347,1.383471 -6.198347,1.383471"/>
<polygon id="0x558e762aff30" class="l2d0" points="-6.198347,1.53719 6.198347,1.53719 6.198347,1.690909 -6.198347,1.690909"/>
<polygon id="0x558e762d22d0" class="l2d0" points="-6.198347,1.844628 6.198347,1.844628 6.198347,1.998347 -6.198347,1.998347"/>
<polygon id="0x558e762d8020" class="l2d0" points="-6.198347,2.152066 6.198347,2.152066 6.198347,2.305785 -6.198347,2.305785"/>
<polygon id="0x558e761597f0" class="l2d0" points="-6.198347,2.459504 6.198347,2.459504 6.198347,2.613223 -6.198347,2.613223"/>
<polygon id="0x558e762601d0" class="l2d0" points="-6.198347,2.766942 6.198347,2.766942 6.198347,2.920661 -6.198347,2.920661"/>
<polygon id="0x558e762c4f70" class="l2d0" points="-6.198347,3.07438 6.198347,3.07438 6.198347,3.228099 -6.198347,3.228099"/>
<polygon id="0x558e7620fbf0" class="l2d0" points="-6.198347,3.381818 6.198347,3.381818 6.198347,3.535537 -6.198347,3.535537"/>
<polygon id="0x558e7626de50" class="l2d0" points="-6.198347,3.689256 6.198347,3.689256 6.198347,3.842975 -6.198347,3.842975"/>
<polygon id="0x558e75fac400" class="l2d0" points="-6.198347,3.996694 6.198347,3.996694 6.198347,4.150413 -6.198347,4.150413"/>
<polygon id="0x558e7629dcd0" class="l2d0" points="-6.198347,4.304132 6.198347,4.304132 6.198347,4.457851 -6.198347,4.457851"/>
<polygon id="0x558e760b6f40" class="l2d0" points="-6.198347,4.61157 6.198347,4.61157 6.198347,4.765289 -6.198347,4.765289"/>
<polygon id="0x558e760c61d0" class="l2d0" points="-6.198347,4.919008 6.198347,4.919008 6.198347,5.072727 -6.198347,5.072727"/>
<polygon id="0x558e7618c9d0" class="l2d0" points="-6.198347,5.226446 6.198347,5.226446 6.198347,5.380165 -6.198347,5.380165"/>
<polygon id="0x558e760d90c0" class="l2d0" points="-6.198347,5.533884 6.198347,5.533884 6.198347,5.687603 -6.198347,5.687603"/>
<polygon id="0x558e7612a730" class="l2d0" points="-6.198347,5.841322 6.198347,5.841322 6.198347,5.995041 -6.198347,5.995041"/>
<polygon id="0x558e760d1dc0" class="l2d0" points="-6.198347,6.14876 6.198347,6.14876 6.198347,6.302479 -6.198347,6.302479"/>
<polygon id="0x558e761876f0" class="l2d0" points="-6.198347,6.456198 6.198347,6.456198 6.198347,6.609917 -6.198347,6.609917"/>
<polygon id="0x558e761f5530" class="l2d0" points="-6.198347,6.763636 6.198347,6.763636 6.198347,6.917355 -6.198347,6.917355"/>
<polygon id="0x558e76206630" class="l2d0" points="-6.198347,7.071074 6.198347,7.071074 6.198347,7.224793 -6.198347,7.224793"/>
<polygon id="0x558e76277d60" class="l2d0" points="-6.198347,7.378512 6.198347,7.378512 6.198347,7.532231 -6.198347,7.532231"/>
<polygon id="0x558e762a8a40" class="l2d0" points="-6.198347,7.68595 6.198347,7.68595 6.198347,7.839669 -6.198347,7.839669"/>
<polygon id="0x558e762cf250" class="l2d0" points="-6.198347,7.993388 6.198347,7.993388 6.198347,8.147107 -6.198347,8.147107"/>
<polygon id="0x558e761675f0" class="l2d0" points="-6.198347,8.300826 6.198347,8.300826 6.198347,8.454545 -6.198347,8.454545"/>
<polygon id="0x558e761ec9f0" class="l2d0" points="-6.198347,8.608264 6.198347,8.608264 6.198347,8.761983 -6.198347,8.761983"/>
<polygon id="0x558e761eae90" class="l2d0" points="-6.198347,8.915702 6.198347,8.915702 6.198347,9.069421 -6.198347,9.069421"/>
<polygon id="0x558e762090c0" class="l2d0" points="-6.198347,9.22314 6.198347,9.22314 6.198347,9.37686 -6.198347,9.37686"/>
<polygon id="0x558e76209d70" class="l2d0" points="-6.198347,9.530579 6.198347,9.530579 6.198347,9.684298 -6.198347,9.684298"/>
</g>
<g id="Directinal Coupler">
<polygon id="0x558e76202f10" class="l1d0" points="0,-0.371901 0,-0.619835 0.012397,-0.619835 0.024793,-0.619835 0.03719,-0.619835 0.056329,-0.619835 0.209962,-0.603075 0.364492,-0.558682 0.644795,-0.435859 0.909946,-0.319674 1.028143,-0.285719 1.147238,-0.272727 1.190083,-0.272727 1.239669,-0.272727 1.289256,-0.272727 1.332101,-0.272727 1.451195,-0.285719 1.569393,-0.319674 1.834544,-0.435859 2.114847,-0.558682 2.269377,-0.603075 2.42301,-0.619835 2.442149,-0.619835 2.454545,-0.619835 2.466942,-0.619835 2.479339,-0.619835 2.479339,-0.371901 2.466942,-0.371901 2.454545,-0.371901 2.442149,-0.371901 2.436494,-0.371901 2.3174,-0.358909 2.199202,-0.324954 1.934051,-0.208769 1.653748,-0.085946 1.499218,-0.041553 1.345585,-0.024793 1.289256,-0.024793 1.239669,-0.024793 1.190083,-0.024793 1.133754,-0.024793 0.980121,-0.041553 0.825591,-0.085946 0.545288,-0.208769 0.280137,-0.324954 0.161939,-0.358909 0.042845,-0.371901 0.03719,-0.371901 0.024793,-0.371901 0.012397,-0.371901"/>
<polygon id="0x558e76202f10" class="l1d0" points="0,0.619835 0,0.371901 0.012397,0.371901 0.024793,0.371901 0.03719,0.371901 0.042845,0.371901 0.161939,0.358909 0.280137,0.324954 0.545288,0.208769 0.825591,0.085946 0.980121,0.041553 1.133754,0.024793 1.190083,0.024793 1.239669,0.024793 1.289256,0.024793 1.345585,0.024793 1.499218,0.041553 1.653748,0.085946 1.934051,0.208769 2.199202,0.324954 2.3174,0.358909 2.436494,0.371901 2.442149,0.371901 2.454545,0.371901 2.466942,0.371901 2.479339,0.371901 2.479339,0.619835 2.466942,0.619835 2.454545,0.619835 2.442149,0.619835 2.42301,0.619835 2.269377,0.603075 2.114847,0.558682 1.834544,0.435859 1.569393,0.319674 1.451195,0.285719 1.332101,0.272727 1.289256,0.272727 1.239669,0.272727 1.190083,0.272727 1.147238,0.272727 1.028143,0.285719 0.909946,0.319674 0.644795,0.435859 0.364492,0.558682 0.209962,0.603075 0.056329,0.619835 0.03719,0.619835 0.024793,0.619835 0.012397,0.619835"/>
</g>
<g id="MZI">
<polygon id="0x558e762f6ab0" class="l1d0" points="2.479339,0.619835 2.479339,0.371901 4.960878,0.371901 5.498122,0.390981 6.035038,0.448957 6.565877,0.54474 7.089158,0.678333 7.601376,0.848736 8.099951,1.055426 8.582876,1.296888 9.04724,1.572179 9.490394,1.880219 9.910786,2.218952 10.306063,2.586499 10.67361,2.981776 11.012343,3.402168 11.320383,3.845322 11.595674,4.309686 11.837136,4.792611 12.043826,5.291186 12.214229,5.803404 12.347822,6.326685 12.443605,6.857524 12.501581,7.39444 12.520661,7.931684 12.520661,12.394494 12.539267,12.918407 12.59534,13.437689 12.687987,13.951148 12.817204,14.457288 12.982007,14.952674 13.18193,15.434925 13.415509,15.902083 13.681705,16.351107 13.979616,16.779689 14.307329,17.186404 14.662757,17.568648 15.045001,17.924076 15.451716,18.251789 15.880297,18.5497 16.329322,18.815896 16.79648,19.049475 17.278731,19.249397 17.774116,19.414201 18.280257,19.543418 18.793716,19.636065 19.312998,19.692138 19.834711,19.710666 20.356423,19.692138 20.875705,19.636065 21.389165,19.543418 21.895305,19.414201 22.390691,19.249397 22.872942,19.049475 23.3401,18.815896 23.789124,18.5497 24.217705,18.251789 24.62442,17.924076 25.006664,17.568648 25.362093,17.186404 25.689806,16.779689 25.987716,16.351107 26.253913,15.902083 26.487492,15.434925 26.687414,14.952674 26.852217,14.457288 26.981434,13.951148 27.074081,13.437689 27.130154,12.918407 27.14876,12.394494 27.14876,7.931684 27.16784,7.39444 27.225817,6.857524 27.3216,6.326685 27.455193,5.803404 27.625596,5.291186 27.832285,4.792611 28.073748,4.309686 28.349038,3.845322 28.657079,3.402168 28.995812,2.981776 29.363359,2.586499 29.758635,2.218952 30.179027,1.880219 30.622182,1.572179 31.086546,1.296888 31.569471,1.055426 32.068046,0.848736 32.580264,0.678333 33.103545,0.54474 33.634383,0.448957 34.1713,0.390981 34.708543,0.371901 37.190083,0.371901 37.190083,0.619835 34.712944,0.619835 34.189031,0.638441 33.669749,0.694514 33.15629,0.787161 32.65015,0.916378 32.154764,1.081181 31.672513,1.281103 31.205355,1.514682 30.756331,1.780879 30.327749,2.078789 29.921034,2.406502 29.53879,2.761931 29.183362,3.144175 28.855649,3.55089 28.557738,3.979471 28.291542,4.428495 28.057963,4.895653 27.858041,5.377905 27.693237,5.87329 27.56402,6.37943 27.471373,6.89289 27.4153,7.412172 27.396694,7.936085 27.396694,12.398895 27.377615,12.936138 27.319638,13.473055 27.223855,14.003893 27.090262,14.527174 26.919859,15.039392 26.713169,15.537967 26.471707,16.020892 26.196416,16.485256 25.888376,16.928411 25.549643,17.348803 25.182096,17.744079 24.786819,18.111626 24.366427,18.450359 23.923273,18.7584 23.458909,19.03369 22.975984,19.275153 22.477409,19.481842 21.965191,19.652245 21.44191,19.785838 20.911071,19.881621 20.374155,19.939598 19.834711,19.958756 19.295266,19.939598 18.75835,19.881621 18.227512,19.785838 17.704231,19.652245 17.192013,19.481842 16.693438,19.275153 16.210513,19.03369 15.746149,18.7584 15.302994,18.450359 14.882602,18.111626 14.487326,17.744079 14.119779,17.348803 13.781046,16.928411 13.473005,16.485256 13.197715,16.020892 12.956252,15.537967 12.749563,15.039392 12.57916,14.527174 12.445567,14.003893 12.349784,13.473055 12.291807,12.936138 12.272727,12.398895 12.272727,7.936085 12.254121,7.412172 12.198048,6.89289 12.105401,6.37943 11.976184,5.87329 11.811381,5.377905 11.611459,4.895653 11.37788,4.428495 11.111683,3.979471 10.813773,3.55089 10.48606,3.144175 10.130631,2.761931 9.748387,2.406502 9.341672,2.078789 8.913091,1.780879 8.464067,1.514682 7.996909,1.281103 7.514657,1.081181 7.019272,0.916378 6.513132,0.787161 5.999672,0.694514 5.48039,0.638441 4.956477,0.619835"/>
<polygon id="0x558e76202f10" class="l1d0" points="2.479339,-0.371901 2.479339,-0.619835 4.956477,-0.619835 5.48039,-0.638441 5.999672,-0.694514 6.513132,-0.787161 7.019272,-0.916378 7.514657,-1.081181 7.996909,-1.281103 8.464067,-1.514682 8.913091,-1.780879 9.341672,-2.078789 9.748387,-2.406502 10.130631,-2.761931 10.48606,-3.144175 10.813773,-3.55089 11.111683,-3.979471 11.37788,-4.428495 11.611459,-4.895653 11.811381,-5.377905 11.976184,-5.87329 12.105401,-6.37943 12.198048,-6.89289 12.254121,-7.412172 12.272727,-7.936085 12.272727,-12.398895 12.291807,-12.936138 12.349784,-13.473055 12.445567,-14.003893 12.57916,-14.527174 12.749563,-15.039392 12.956252,-15.537967 13.197715,-16.020892 13.473005,-16.485256 13.781046,-16.928411 14.119779,-17.348803 14.487326,-17.744079 14.882602,-18.111626 15.302994,-18.450359 15.746149,-18.7584 16.210513,-19.03369 16.693438,-19.275153 17.192013,-19.481842 17.704231,-19.652245 18.227512,-19.785838 18.75835,-19.881621 19.295266,-19.939598 19.834711,-19.958756 20.374155,-19.939598 20.911071,-19.881621 21.44191,-19.785838 21.965191,-19.652245 22.477409,-19.481842 22.975984,-19.275153 23.458909,-19.03369 23.923273,-18.7584 24.366427,-18.450359 24.786819,-18.111626 25.182096,-17.744079 25.549643,-17.348803 25.888376,-16.928411 26.196416,-16.485256 26.471707,-16.020892 26.713169,-15.537967 26.919859,-15.039392 27.090262,-14.527174 27.223855,-14.003893 27.319638,-13.473055 27.377615,-12.936138 27.396694,-12.398895 27.396694,-7.936085 27.4153,-7.412172 27.471373,-6.89289 27.56402,-6.37943 27.693237,-5.87329 27.858041,-5.377905 28.057963,-4.895653 28.291542,-4.428495 28.557738,-3.979471 28.855649,-3.55089 29.183362,-3.144175 29.53879,-2.761931 29.921034,-2.406502 30.327749,-2.078789 30.756331,-1.780879 31.205355,-1.514682 31.672513,-1.281103 32.154764,-1.081181 32.65015,-0.916378 33.15629,-0.787161 33.669749,-0.694514 34.189031,-0.638441 34.712944,-0.619835 37.190083,-0.619835 37.190083,-0.371901 34.708543,-0.371901 34.1713,-0.390981 33.634383,-0.448957 33.103545,-0.54474 32.580264,-0.678333 32.068046,-0.848736 31.569471,-1.055426 31.086546,-1.296888 30.622182,-1.572179 30.179027,-1.880219 29.758635,-2.218952 29.363359,-2.586499 28.995812,-2.981776 28.657079,-3.402168 28.349038,-3.845322 28.073748,-4.309686 27.832285,-4.792611 27.625596,-5.291186 27.455193,-5.803404 27.3216,-6.326685 27.225817,-6.857524 27.16784,-7.39444 27.14876,-7.931684 27.14876,-12.394494 27.130154,-12.918407 27.074081,-13.437689 26.981434,-13.951148 26.852217,-14.457288 26.687414,-14.952674 26.487492,-15.434925 26.253913,-15.902083 25.987716,-16.351107 25.689806,-16.779689 25.362093,-17.186404 25.006664,-17.568648 24.62442,-17.924076 24.217705,-18.251789 23.789124,-18.5497 23.3401,-18.815896 22.872942,-19.049475 22.390691,-19.249397 21.895305,-19.414201 21.389165,-19.543418 20.875705,-19.636065 20.356423,-19.692138 19.834711,-19.710666 19.312998,-19.692138 18.793716,-19.636065 18.280257,-19.543418 17.774116,-19.414201 17.278731,-19.249397 16.79648,-19.049475 16.329322,-18.815896 15.880297,-18.5497 15.451716,-18.251789 15.045001,-17.924076 14.662757,-17.568648 14.307329,-17.186404 13.979616,-16.779689 13.681705,-16.351107 13.415509,-15.902083 13.18193,-15.434925 12.982007,-14.952674 12.817204,-14.457288 12.687987,-13.951148 12.59534,-13.437689 12.539267,-12.918407 12.520661,-12.394494 12.520661,-7.931684 12.501581,-7.39444 12.443605,-6.857524 12.347822,-6.326685 12.214229,-5.803404 12.043826,-5.291186 11.837136,-4.792611 11.595674,-4.309686 11.320383,-3.845322 11.012343,-3.402168 10.67361,-2.981776 10.306063,-2.586499 9.910786,-2.218952 9.490394,-1.880219 9.04724,-1.572179 8.582876,-1.296888 8.099951,-1.055426 7.601376,-0.848736 7.089158,-0.678333 6.565877,-0.54474 6.035038,-0.448957 5.498122,-0.390981 4.960878,-0.371901"/>
<polygon id="0x558e762f6ab0" class="l10d0" points="11.900826,9.917355 12.892562,9.917355 12.892562,12.387892 12.910458,12.89181 12.963675,13.38464 13.051618,13.872031 13.174271,14.35246 13.330675,14.822597 13.520446,15.280362 13.742199,15.723869 13.994756,16.149884 14.277471,16.556606 14.588653,16.942805 14.925904,17.305501 15.2886,17.642752 15.674799,17.953934 16.081521,18.236649 16.507536,18.489205 16.951043,18.710959 17.408808,18.90073 17.878945,19.057134 18.359374,19.179787 18.846765,19.26773 19.339595,19.320947 19.834711,19.33853 20.329826,19.320947 20.822657,19.26773 21.310047,19.179787 21.790476,19.057134 22.260613,18.90073 22.718378,18.710959 23.161886,18.489205 23.587901,18.236649 23.994622,17.953934 24.380822,17.642752 24.743517,17.305501 25.080768,16.942805 25.391951,16.556606 25.674666,16.149884 25.927222,15.723869 26.148976,15.280362 26.338747,14.822597 26.495151,14.35246 26.617804,13.872031 26.705747,13.38464 26.758963,12.89181 26.77686,12.387892 26.77686,9.917355 27.768595,9.917355 27.768595,12.405497 27.748805,12.962736 27.687972,13.526104 27.587486,14.083011 27.447329,14.632003 27.268526,15.169469 27.051685,15.692531 26.798398,16.199106 26.509466,16.686479 26.186231,17.151493 25.830967,17.592401 25.445243,18.007227 25.030418,18.392951 24.58951,18.748215 24.124496,19.07145 23.637122,19.360381 23.130547,19.613669 22.607486,19.830509 22.07002,20.009312 21.521027,20.149469 20.96412,20.249956 20.400752,20.310789 19.834711,20.330891 19.268669,20.310789 18.705301,20.249956 18.148394,20.149469 17.599402,20.009312 17.061936,19.830509 16.538874,19.613669 16.032299,19.360381 15.544926,19.07145 15.079911,18.748215 14.639004,18.392951 14.224178,18.007227 13.838454,17.592401 13.48319,17.151493 13.159955,16.686479 12.871024,16.199106 12.617736,15.692531 12.400896,15.169469 12.222093,14.632003 12.081936,14.083011 11.981449,13.526104 11.920616,12.962736 11.900826,12.405497"/>
<polygon id="0x558e76202f10" class="l10d0" points="12.892562,-9.917355 11.900826,-9.917355 11.900826,-12.405497 11.920616,-12.962736 11.981449,-13.526104 12.081936,-14.083011 12.222093,-14.632003 12.400896,-15.169469 12.617736,-15.692531 12.871024,-16.199106 13.159955,-16.686479 13.48319,-17.151493 13.838454,-17.592401 14.224178,-18.007227 14.639004,-18.392951 15.079911,-18.748215 15.544926,-19.07145 16.032299,-19.360381 16.538874,-19.613669 17.061936,-19.830509 17.599402,-20.009312 18.148394,-20.149469 18.705301,-20.249956 19.268669,-20.310789 19.834711,-20.330891 20.400752,-20.310789 20.96412,-20.249956 21.521027,-20.149469 22.07002,-20.009312 22.607486,-19.830509 23.130547,-19.613669 23.637122,-19.360381 24.124496,-19.07145 24.58951,-18.748215 25.030418,-18.392951 25.445243,-18.007227 25.830967,-17.592401 26.186231,-17.151493 26.509466,-16.686479 26.798398,-16.199106 27.051685,-15.692531 27.268526,-15.169469 27.447329,-14.632003 27.587486,-14.083011 27.687972,-13.526104 27.748805,-12.962736 27.768595,-12.405497 27.768595,-9.917355 26.77686,-9.917355 26.77686,-12.387892 26.758963,-12.89181 26.705747,-13.38464 26.617804,-13.872031 26.495151,-14.35246 26.338747,-14.822597 26.148976,-15.280362 25.927222,-15.723869 25.674666,-16.149884 25.391951,-16.556606 25.080768,-16.942805 24.743517,-17.305501 24.380822,-17.642752 23.994622,-17.953934 23.587901,-18.236649 23.161886,-18.489205 22.718378,-18.710959 22.260613,-18.90073 21.790476,-19.057134 21.310047,-19.179787 20.822657,-19.26773 20.329826,-19.320947 19.834711,-19.33853 19.339595,-19.320947 18.846765,-19.26773 18.359374,-19.179787 17.878945,-19.057134 17.408808,-18.90073 16.951043,-18.710959 16.507536,-18.489205 16.081521,-18.236649 15.674799,-17.953934 15.2886,-17.642752 14.925904,-17.305501 14.588653,-16.942805 14.277471,-16.556606 13.994756,-16.149884 13.742199,-15.723869 13.520446,-15.280362 13.330675,-14.822597 13.174271,-14.35246 13.051618,-13.872031 12.963675,-13.38464 12.910458,-12.89181 12.892562,-12.387892"/>
<use transform="translate(0 0)" xlink:href="#Directinal Coupler"/>
<use transform="translate(37.190083 0)" xlink:href="#Directinal Coupler"/>
</g>
</defs>
<rect x="-38.429752" y="-534.297521" width="324.793388" height="572.727273" fill="none" stroke="none"/>
<g id="layout" transform="scale(1 -1)">
<use transform="translate(123.966942 123.966942)" xlink:href="#Device"/>
<use transform="translate(123.966942 371.900826)" xlink:href="#Device"/>
<use transform="translate(0 0)" xlink:href="#Alignment Mark"/>
<use transform="translate(0 247.933884)" xlink:href="#Alignment Mark"/>
<use transform="translate(0 495.867769)" xlink:href="#Alignment Mark"/>
<use transform="translate(247.933884 0)" xlink:href="#Alignment Mark"/>
<use transform="translate(247.933884 247.933884)" xlink:href="#Alignment Mark"/>
<use transform="translate(247.933884 495.867769)" xlink:href="#Alignment Mark"/>
</g>
</svg>