<?xml version="1.0" encoding="UTF-8"?>
<svg xmlns="http://www.w3.org/2000/svg" xmlns:xlink="http://www.w3.org/1999/xlink" width="335.35742" height="688.931617" viewBox="-53.681355 -404.998404 335.35742 688.931617">
<defs>
<style type="text/css">
.l0d1 {fill:none;stroke:black;stroke-dasharray:8,8;}
.l0d0 {stroke: #F38400; fill: #F38400; fill-opacity: 0.5;}
.l1d0 {stroke: #A1CAF1; fill: #A1CAF1; fill-opacity: 0.5;}
</style>
</defs>
<rect x="-53.681355" y="-404.998404" width="335.35742" height="688.931617" fill="none" stroke="none"/>
<g id="offset" transform="scale(1 -1)">
<polygon id="0x557310722650" class="l0d1" points="42.749008,42.749008 42.749008,85.498016 56.998678,85.498016 56.998678,42.749008 85.498016,42.749008 85.498016,85.498016 99.747686,85.498016 99.747686,99.747686 85.498016,99.747686 85.498016,142.496694 99.747686,142.496694 99.747686,156.746363 85.498016,156.746363 85.498016,199.495372 56.998678,199.495372 56.998678,156.746363 42.749008,156.746363 42.749008,199.495372 14.249669,199.495372 14.249669,156.746363 0,156.746363 0,142.496694 14.249669,142.496694 14.249669,99.747686 42.749008,99.747686 42.749008,142.496694 56.998678,142.496694 56.998678,99.747686 42.749008,99.747686 14.249669,99.747686 0,99.747686 0,85.498016 14.249669,85.498016 14.249669,42.749008"/>
<polygon id="0x55731037fb00" class="l0d1" points="170.996033,42.749008 170.996033,113.997355 199.495372,113.997355 199.495372,42.749008 227.994711,42.749008 227.994711,170.996033 213.745041,170.996033 213.745041,185.245702 199.495372,185.245702 199.495372,199.495372 170.996033,199.495372 170.996033,185.245702 156.746363,185.245702 156.746363,170.996033 142.496694,170.996033 142.496694,128.247025 170.996033,128.247025 170.996033,170.996033 199.495372,170.996033 199.495372,128.247025 170.996033,128.247025 142.496694,128.247025 142.496694,42.749008"/>
<polygon id="0x5573106b0db0" class="l0d1" points="113.997355,250.794182 227.994711,250.794182 227.095807,265.081839 224.413274,279.144171 219.989416,292.759407 213.893999,305.712826 206.223153,317.800146 197.097851,328.830741 186.662004,338.630653 175.080193,347.045332 162.535068,353.942073 149.224475,359.212109 135.35833,362.77233 121.155308,364.566589 106.839402,364.566589 92.636381,362.77233 78.770235,359.212109 65.459642,353.942073 52.914518,347.045332 41.332706,338.630653 30.89686,328.830741 21.771558,317.800146 14.100711,305.712826 8.005295,292.759407 3.581437,279.144171 0.898903,265.081839 0,250.794182"/>
<polygon id="0x5573105cac90" class="l0d0" points="236.179721,266.229423 233.261388,281.413871 228.496299,296.11953 221.907252,310.118405 213.608244,323.182502 203.758873,335.083826 192.473135,345.68558 179.979024,354.75977 166.413339,362.215197 152.049672,367.892265 137.07042,371.745376 121.726376,373.683331 106.268335,373.683331 90.924291,371.745376 75.945038,367.892265 61.581371,362.215197 48.015686,354.75977 35.521576,345.68558 24.235838,335.083826 14.386466,323.182502 6.087459,310.118405 -0.501588,296.11953 -5.266678,281.413871 -8.18501,266.229423 -9.712575,241.674393 237.707285,241.674393"/>
<polygon id="0x5573105cad00" class="l0d0" points="5.129881,165.866152 -9.119788,165.866152 -9.119788,133.376906 5.129881,133.376906 5.129881,108.867474 -9.119788,108.867474 -9.119788,76.378228 5.129881,76.378228 5.129881,33.62922 94.617805,33.62922 94.617805,76.378228 108.867474,76.378228 108.867474,108.867474 94.617805,108.867474 94.617805,133.376906 108.867474,133.376906 108.867474,165.866152 94.617805,165.866152 94.617805,208.61516 5.129881,208.61516"/>
<polygon id="0x55731063a2a0" class="l0d0" points="180.115821,33.62922 180.115821,104.877567 190.375583,104.877567 190.375583,33.62922 237.114499,33.62922 237.114499,180.115821 222.86483,180.115821 222.86483,194.365491 208.61516,194.365491 208.61516,208.61516 161.876244,208.61516 161.876244,194.365491 147.626575,194.365491 147.626575,180.115821 133.376906,180.115821 133.376906,137.366813 180.115821,137.366813 180.115821,161.876244 190.375583,161.876244 190.375583,137.366813 180.115821,137.366813 133.376906,137.366813 133.376906,33.62922"/>
<polygon id="0x55731063a310" class="l0d0" points="250.360992,-24.805825 214.497424,-4.856287 113.997355,-185.724491 13.497287,-4.856287 -22.366281,-24.805825 104.216382,-252.618139 123.778328,-252.618139"/>
<polygon id="0x55731071a630" class="l1d0" points="218.054141,263.881078 215.546199,276.990774 211.533492,289.325288 205.947622,301.203812 198.742989,312.535149 190.51238,322.498518 180.799805,331.618306 170.220851,339.301728 158.547522,345.70838 146.304206,350.541867 133.764497,353.779392 120.563603,355.443754 107.431108,355.443754 94.230214,353.779392 81.690505,350.541867 69.447189,345.70838 57.77386,339.301728 47.194905,331.618306 37.48233,322.498518 29.251721,312.535149 22.047089,301.203812 16.461218,289.325288 12.448511,276.990774 9.940569,263.881078 9.689775,259.91397 218.304935,259.91397"/>
<polygon id="0x5573104b0530" class="l1d0" points="190.375583,190.375583 180.115821,190.375583 180.115821,180.115821 190.375583,180.115821"/>
<polygon id="0x557310652310" class="l1d0" points="66.118466,190.375583 66.118466,51.868797 76.378228,51.868797 76.378228,190.375583"/>
<polygon id="0x5573104ab030" class="l1d0" points="23.369458,190.375583 23.369458,51.868797 33.62922,51.868797 33.62922,190.375583"/>
<polygon id="0x5573105a3e30" class="l1d0" points="218.874922,51.868797 218.874922,161.876244 208.61516,161.876244 208.61516,51.868797"/>
<polygon id="0x5573104ae440" class="l1d0" points="151.616482,161.876244 151.616482,51.868797 161.876244,51.868797 161.876244,161.876244"/>
<polygon id="0x55731066e900" class="l1d0" points="225.555167,-31.873661 221.56526,-29.662112 119.355231,-213.631044 108.63948,-213.631044 6.429451,-29.662112 2.439543,-31.873661 113.997355,-232.668602"/>
<polygon id="0x55731072b2f0" class="l0d1" points="9.965162,-17.26327 -9.965162,-28.335672 109.568394,-243.496073 118.426316,-243.496073 237.959872,-28.335672 218.029549,-17.26327 113.997355,-204.521218"/>
</g>
</svg>