<?xml version="1.0" encoding="UTF-8"?>
<svg xmlns="http://www.w3.org/2000/svg" xmlns:xlink="http://www.w3.org/1999/xlink" width="300" height="250.170998" viewBox="-47.841306 -179.467977 300 250.170998">
<defs>
<style type="text/css">
.l0d0 {stroke: #F38400; fill: #F38400; fill-opacity: 0.5;}
</style>
</defs>
<rect x="-47.841306" y="-179.467977" width="300" height="250.170998" fill="none" stroke="none"/>
<g id="pads" transform="scale(1 -1)">
<polygon id="0x564e37da09e0" class="l0d0" points="34.773686,-35.948968 33.749112,-36.361207 32.671407,-36.602543 31.568871,-36.666637 30.470461,-36.551808 29.40502,-36.26107 28.40053,-35.802058 27.097948,-35.179033 25.72685,-34.726295 24.309393,-34.451163 22.868485,-34.358081 21.42741,-34.448554 20.009458,-34.721121 18.637543,-35.171376 17.333835,-35.792042 16.119403,-36.573091 15.013873,-37.501899 14.03511,-38.563456 13.198933,-39.740609 12.518853,-41.014333 12.005861,-42.364044 11.668247,-43.76793 11.511467,-45.203305 11.538055,-46.646972 11.747581,-48.075601 12.13666,-49.466104 12.699003,-50.796011 13.425522,-52.043829 14.304478,-53.189394 15.321665,-54.214192 16.460646,-55.101663 17.703013,-55.837464 19.028691,-56.409705 20.416255,-56.809138 21.843282,-57.029308 23.286711,-57.066657 24.723215,-56.920582 26.129579,-56.593443 27.483077,-56.090526 28.761835,-55.41996 29.945188,-54.59258 31.014012,-53.621759 31.951036,-52.523183 32.741115,-51.314607 33.371483,-50.015562 33.831952,-48.647042 34.115081,-47.231161 34.350566,-46.152162 34.75724,-45.125366 35.324423,-44.17774 36.03722,-43.334169 36.876911,-42.616806 37.821446,-42.04449 47.098752,-37.405837 47.726547,-37.000301 48.250829,-36.467652 48.646375,-35.833515 48.894158,-35.128398 57.533667,2.098928 112.835547,29.749868 113.467704,30.158962 113.994579,30.696906 114.390445,31.33743 114.63597,32.049257 114.719166,32.797628 114.719166,89.730833 181.001965,89.730833 212.066124,75.751962 213.033213,75.218643 213.901462,74.536121 214.648069,73.722321 215.253426,72.798614 215.701637,71.789258 215.98093,70.72076 216.321566,69.317604 216.837464,67.969001 217.520285,66.696745 218.358996,65.521396 219.340043,64.461948 220.44757,63.535523 221.663681,62.757092 222.968723,62.139234 224.341605,61.691935 225.760141,61.422423 227.201407,61.335053 228.642111,61.431238 230.058972,61.709422 231.429092,62.165111 232.730329,62.79094 233.941656,63.576796 235.043496,64.509979 236.018043,65.575408 236.849548,66.755865 237.524575,68.032274 238.032213,69.384008 238.364259,70.789222 238.515349,72.225207 238.483038,73.668757 238.267851,75.096544 237.873264,76.485494 237.305655,77.813162 236.574195,79.058091 235.690706,80.200162 234.669465,81.220921 233.526975,82.10387 232.281701,82.834741 230.953766,83.401723 229.564629,83.795653 228.136741,84.010165 226.693175,84.041793 225.257262,83.890025 223.852205,83.557314 222.500711,83.049037 221.224621,82.373407 220.239686,81.873812 219.186989,81.539865 218.094175,81.380335 216.989943,81.399412 215.903292,81.596596 214.862759,81.966707 183.131651,96.245706 182.681244,96.411332 182.212036,96.51204 181.733333,96.545833 111.311666,96.545833 110.553426,96.4604 109.833208,96.208385 109.187125,95.802424 108.647576,95.262875 108.241615,94.616792 107.9896,93.896573 107.904166,93.138333 107.904166,34.903579 53.052735,7.477863 52.42494,7.072327 51.900658,6.539678 51.505111,5.905541 51.257329,5.200424 42.617819,-32.026902"/>
<polygon id="0x564e3804ec70" class="l0d0" points="19.534883,-5.471362 18.510309,-5.883601 17.432603,-6.124936 16.330068,-6.189031 15.231657,-6.074201 14.166217,-5.783463 13.161727,-5.324452 11.859145,-4.701426 10.488046,-4.248689 9.07059,-3.973556 7.629682,-3.880475 6.188607,-3.970948 4.770655,-4.243514 3.398739,-4.693769 2.095032,-5.314436 0.8806,-6.095484 -0.22493,-7.024292 -1.203693,-8.08585 -2.039871,-9.263002 -2.719951,-10.536726 -3.232943,-11.886437 -3.570557,-13.290324 -3.727336,-14.725699 -3.700748,-16.169366 -3.491222,-17.597995 -3.102143,-18.988498 -2.539801,-20.318404 -1.813281,-21.566223 -0.934325,-22.711787 0.082862,-23.736585 1.221842,-24.624056 2.46421,-25.359857 3.789888,-25.932098 5.177452,-26.331531 6.604479,-26.551702 8.047908,-26.589051 9.484411,-26.442975 10.890776,-26.115836 12.244274,-25.61292 13.523032,-24.942354 14.706385,-24.114974 15.775209,-23.144152 16.712232,-22.045577 17.502312,-20.837001 18.13268,-19.537956 18.593149,-18.169435 18.876278,-16.753554 19.111763,-15.674555 19.518437,-14.64776 20.085619,-13.700134 20.798416,-12.856562 21.638108,-12.139199 22.582643,-11.566883 31.859949,-6.928231 32.235261,-6.709626 32.579717,-6.445055 32.887719,-6.138817 50.595312,13.868554 99.205547,38.173671 99.837704,38.582765 100.364579,39.120709 100.760445,39.761233 101.00597,40.47306 101.089166,41.221432 101.089166,103.360833 181.479192,103.360833 211.801772,98.812446 212.877085,98.560662 213.897609,98.138499 214.836545,97.557043 215.669235,96.831564 216.373811,95.981114 216.93177,95.028028 217.639326,93.76936 218.500848,92.610627 219.502413,91.570556 220.627835,90.665953 221.858928,89.911439 223.175795,89.319205 224.557157,88.898823 225.980689,88.657086 227.423387,88.597901 228.861937,88.722225 230.27309,89.028048 231.634042,89.510427 232.9228,90.161568 234.118536,90.970948 235.201928,91.925487 236.155466,93.009759 236.963741,94.206242 237.613692,95.495601 238.094815,96.856998 238.399335,98.268433 238.52233,99.707097 238.461813,101.149739 238.218762,102.573048 237.797105,103.954021 237.203656,105.270341 236.448005,106.500737 235.542363,107.625323 234.501368,108.625927 233.34184,109.486379 232.082519,110.192773 230.743756,110.733693 229.347186,111.100399 227.915378,111.286963 226.47147,111.290371 225.038797,111.110569 223.640511,110.750461 222.299209,110.215867 221.036568,109.515426 219.872991,108.660459 218.827283,107.66478 218.014245,106.917343 217.091157,106.311043 216.082259,105.861802 215.014047,105.581419 213.914573,105.477255 212.812712,105.552047 182.238803,110.138134 182.071006,110.159061 181.902378,110.171637 181.733333,110.175833 97.681666,110.175833 96.923426,110.0904 96.203208,109.838384 95.557125,109.432424 95.017576,108.892875 94.611615,108.246792 94.3596,107.526573 94.274166,106.768333 94.274166,43.327382 46.957214,19.668906 46.581901,19.450301 46.237446,19.185731 45.929443,18.879493 28.22185,-1.127878"/>
<polygon id="0x564e37d8fb60" class="l0d0" points="4.296079,25.006244 3.271506,24.594006 2.1938,24.35267 1.091265,24.288576 -0.007146,24.403405 -1.072586,24.694143 -2.077076,25.153155 -3.379659,25.77618 -4.750757,26.228918 -6.168213,26.50405 -7.609122,26.597132 -9.050196,26.506658 -10.468148,26.234092 -11.840064,25.783837 -13.143772,25.163171 -14.358203,24.382122 -15.463733,23.453314 -16.442496,22.391757 -17.278674,21.214604 -17.958754,19.94088 -18.471746,18.591169 -18.80936,17.187282 -18.966139,15.751908 -18.939551,14.308241 -18.730025,12.879612 -18.340947,11.489109 -17.778604,10.159202 -17.052084,8.911384 -16.173129,7.765819 -15.155942,6.741021 -14.016961,5.85355 -12.774593,5.117749 -11.448915,4.545508 -10.061351,4.146075 -8.634324,3.925905 -7.190896,3.888556 -5.754392,4.034631 -4.348027,4.36177 -2.99453,4.864687 -1.715772,5.535253 -0.532419,6.362632 0.536406,7.333454 1.473429,8.43203 2.263509,9.640606 2.893877,10.939651 3.354346,12.308171 3.637475,13.724052 3.87296,14.803051 4.279633,15.829847 4.846816,16.777473 5.559613,17.621044 6.399305,18.338407 7.34384,18.910723 16.030807,23.254207 42.66126,25.415859 43.091052,25.478518 43.509382,25.59534 43.909453,25.764427 85.575547,46.597474 86.207704,47.006569 86.734579,47.544512 87.130445,48.185036 87.37597,48.896864 87.459166,49.645235 87.459166,116.990833 181.733333,116.990833 181.902378,116.995029 182.071006,117.007606 182.238803,117.028532 212.812712,121.614619 213.914573,121.689411 215.014047,121.585248 216.082259,121.304864 217.091157,120.855623 218.014245,120.249323 218.827283,119.501886 219.872991,118.506207 221.036568,117.65124 222.299209,116.950799 223.640511,116.416205 225.038797,116.056097 226.47147,115.876295 227.915378,115.879703 229.347186,116.066268 230.743756,116.432973 232.082519,116.973893 233.34184,117.680287 234.501368,118.540739 235.542363,119.541343 236.448005,120.66593 237.203656,121.896325 237.797105,123.212645 238.218762,124.593618 238.461813,126.016927 238.52233,127.45957 238.399335,128.898233 238.094815,130.309668 237.613692,131.671065 236.963741,132.960424 236.155466,134.156907 235.201928,135.241179 234.118536,136.195718 232.9228,137.005098 231.634042,137.656239 230.27309,138.138619 228.861937,138.444441 227.423387,138.568765 225.980689,138.50958 224.557157,138.267843 223.175795,137.847461 221.858928,137.255228 220.627835,136.500713 219.502413,135.59611 218.500848,134.556039 217.639326,133.397306 216.93177,132.138638 216.373811,131.185552 215.669235,130.335102 214.836545,129.609623 213.897609,129.028167 212.877085,128.606004 211.801772,128.35422 181.479192,123.805833 84.051666,123.805833 83.293426,123.7204 82.573208,123.468384 81.927125,123.062424 81.387576,122.522875 80.981615,121.876792 80.7296,121.156573 80.644166,120.398333 80.644166,51.751186 41.452031,32.155118 14.821578,29.993466 14.391786,29.930806 13.973456,29.813984 13.573385,29.644897"/>
<polygon id="0x564e38030f90" class="l0d0" points="-10.942724,55.483851 -11.967298,55.071612 -13.045003,54.830277 -14.147538,54.766182 -15.245949,54.881012 -16.31139,55.17175 -17.31588,55.630761 -18.618462,56.253787 -19.98956,56.706524 -21.407017,56.981657 -22.847925,57.074738 -24.288999,56.984265 -25.706952,56.711699 -27.078867,56.261444 -28.382575,55.640777 -29.597007,54.859729 -30.702537,53.930921 -31.681299,52.869363 -32.517477,51.692211 -33.197557,50.418487 -33.710549,49.068776 -34.048163,47.664889 -34.204943,46.229514 -34.178355,44.785847 -33.968828,43.357218 -33.57975,41.966715 -33.017407,40.636809 -32.290887,39.38899 -31.411932,38.243426 -30.394745,37.218628 -29.255764,36.331157 -28.013396,35.595356 -26.687719,35.023115 -25.300154,34.623682 -23.873127,34.403511 -22.429699,34.366162 -20.993195,34.512238 -19.586831,34.839377 -18.233333,35.342293 -16.954575,36.012859 -15.771222,36.840239 -14.702397,37.811061 -13.765374,38.909636 -12.975294,40.118212 -12.344927,41.417257 -11.884457,42.785778 -11.601328,44.201659 -11.365844,45.280658 -10.95917,46.307453 -10.391987,47.255079 -9.67919,48.098651 -8.839498,48.816014 -7.894963,49.38833 -0.05083,53.310396 34.914737,37.885609 35.6275,37.660764 36.372137,37.596719 37.112825,37.696556 37.813932,37.95547 71.945547,55.021277 72.577704,55.430372 73.104579,55.968316 73.500445,56.60884 73.74597,57.320667 73.829166,58.069038 73.829166,130.620833 181.733333,130.620833 182.212036,130.654626 182.681244,130.755334 183.131651,130.92096 214.862759,145.199959 215.903292,145.57007 216.989943,145.767254 218.094175,145.786331 219.186989,145.626801 220.239686,145.292854 221.224621,144.793259 222.500711,144.117629 223.852205,143.609352 225.257262,143.276641 226.693175,143.124873 228.136741,143.156501 229.564629,143.371013 230.953766,143.764943 232.281701,144.331925 233.526975,145.062796 234.669465,145.945745 235.690706,146.966504 236.574195,148.108576 237.305655,149.353504 237.873264,150.681172 238.267851,152.070122 238.483038,153.497909 238.515349,154.941459 238.364259,156.377444 238.032213,157.782658 237.524575,159.134392 236.849548,160.410801 236.018043,161.591259 235.043496,162.656687 233.941656,163.58987 232.730329,164.375726 231.429092,165.001555 230.058972,165.457244 228.642111,165.735429 227.201407,165.831613 225.760141,165.744243 224.341605,165.474731 222.968723,165.027432 221.663681,164.409574 220.44757,163.631143 219.340043,162.704718 218.358996,161.645271 217.520285,160.469922 216.837464,159.197665 216.321566,157.849062 215.98093,156.445906 215.701637,155.377408 215.253426,154.368052 214.648069,153.444345 213.901462,152.630545 213.033213,151.948024 212.066124,151.414704 181.001965,137.435833 70.421666,137.435833 69.663426,137.3504 68.943208,137.098384 68.297125,136.692424 67.757576,136.152875 67.351615,135.506792 67.0996,134.786573 67.014167,134.028333 67.014167,60.174989 36.199343,44.767577 1.233776,60.192365 0.521013,60.417209 -0.223624,60.481254 -0.964312,60.381418 -1.665419,60.122504"/>
</g>
</svg>