<?xml version="1.0" encoding="UTF-8"?>
<svg xmlns="http://www.w3.org/2000/svg" xmlns:xlink="http://www.w3.org/1999/xlink" width="300" height="266.03691" viewBox="-166.728508 -150.281271 300 266.03691">
<defs>
<style type="text/css">
.l0d0 {stroke: #F38400; fill: #F38400; fill-opacity: 0.5;}
</style>
</defs>
<rect x="-166.728508" y="-150.281271" width="300" height="266.03691" fill="none" stroke="none"/>
<g id="parametric" transform="scale(1 -1)">
<polygon id="0x55585d123dd0" class="l0d0" points="5.990449,-6.266916 8.672417,-6.048322 12.640048,-5.39821 15.78506,-4.520424 18.461358,-3.453445 20.79911,-2.22486 22.861765,-0.857608 24.685824,0.628228 26.295079,2.214824 27.706664,3.886384 28.933892,5.628975 29.98766,7.43036 30.87719,9.279801 31.610444,11.167855 32.194374,13.08617 32.6351,15.027292 32.938041,16.984498 33.108025,18.951653 33.066028,22.893501 32.539231,26.811479 31.553317,30.668076 30.131263,34.428306 28.294655,38.058972 26.06464,41.528321 23.462624,44.805909 20.510748,47.862608 17.232209,50.670691 13.651467,53.203954 9.794349,55.437862 5.688097,57.349701 1.361344,58.918731 -3.155933,60.126328 -7.832517,60.956128 -12.636062,61.394148 -17.533241,61.428897 -22.48991,61.051475 -27.471279,60.255654 -32.442105,59.037946 -37.366893,57.397647 -42.210098,55.336872 -46.936338,52.860566 -51.510608,49.976502 -55.898501,46.69526 -60.066417,43.030184 -63.981782,38.997328 -67.613259,34.61538 -70.930951,29.905572 -73.906603,24.891567 -76.513792,19.599343 -78.728113,14.057046 -80.527345,8.294839 -81.891618,2.344735 -82.803557,-3.759587 -83.248419,-9.982969 -83.214208,-16.288985 -82.691784,-22.640147 -81.674947,-28.998132 -80.160509,-35.324006 -78.148346,-41.578462 -75.641433,-47.722056 -72.64586,-53.715451 -70.967582,-56.64362 -69.170833,-59.519659 -67.257246,-62.338791 -65.228645,-65.096288 -63.087045,-67.787484 -60.834645,-70.407778 -58.473832,-72.952647 -56.007172,-75.417647 -53.437414,-77.798425 -50.767481,-80.090722 -48.00047,-82.290386 -45.139645,-84.393373 -42.188439,-86.395755 -39.150444,-88.293729 -36.029407,-90.083624 -32.829229,-91.761901 -29.553957,-93.325167 -26.20778,-94.770178 -22.795022,-96.093841 -19.320138,-97.293225 -15.787707,-98.365564 -12.202426,-99.308263 -8.569105,-100.1189 -4.892657,-100.795236 -1.178097,-101.335213 2.569472,-101.736963 6.344861,-101.99881 10.142803,-102.119275 13.957961,-102.097077 17.784939,-101.931137 21.618282,-101.620584 25.452491,-101.16475 29.282028,-100.563182 33.101322,-99.815634 36.904781,-98.922076 40.686799,-97.882694 44.441762,-96.697885 48.164059,-95.368268 51.848088,-93.894674 55.488267,-92.278153 59.07904,-90.519971 62.614887,-88.621609 66.09033,-86.584763 69.499945,-84.411345 72.838367,-82.103475 76.1003,-79.663485 79.280524,-77.093917 82.373904,-74.397514 85.375399,-71.577226 88.280067,-68.636198 91.083076,-65.577774 93.77971,-62.40549 96.365375,-59.123067 98.835611,-55.734414 101.186096,-52.243616 103.412651,-48.654932 105.511254,-44.972792 107.478039,-41.201787 109.309307,-37.346666 111.001531,-33.412332 112.551362,-29.403829 113.955637,-25.326344 115.211381,-21.185192 116.315816,-16.985817 117.266361,-12.733777 118.060645,-8.434743 118.696503,-4.094487 119.171987,0.281123 119.485365,4.686131 119.635129,9.114505 119.619994,13.560141 119.438906,18.016871 119.091041,22.478476 118.575809,26.938692 117.892855,31.391218 117.042064,35.829726 116.023559,40.24787 114.837702,44.639294 113.485099,48.997644 111.966596,53.316574 110.28328,57.589755 108.436481,61.810888 106.42777,65.97371 104.258958,70.072003 101.932092,74.099604 99.449461,78.050416 96.813584,81.918414 94.027216,85.697657 91.093342,89.382293 88.015172,92.966573 84.796141,96.444854 81.439904,99.811615 77.950332,103.061456 74.331507,106.189117 70.587717,109.189478 66.723454,112.05757 62.743405,114.788583 58.652447,117.377876 54.455644,119.82098 50.158237,122.113607 45.76564,124.25166 41.283431,126.231234 36.717347,128.048631 32.073276,129.700356 27.35725,131.183132 22.575434,132.493902 17.734123,133.629832 12.839729,134.588323 7.898775,135.367009 2.917888,135.963765 -2.096214,136.376713 -7.13673,136.60422 -12.196783,136.644907 -17.269429,136.497653 -22.347672,136.161592 -27.424468,135.636121 -32.492734,134.920899 -37.545366,134.015852 -42.575238,132.921172 -47.57522,131.637316 -52.538187,130.165014 -57.457024,128.505261 -62.324642,126.659323 -67.133986,124.628733 -71.878044,122.415293 -76.549859,120.02107 -81.142537,117.448396 -85.64926,114.699867 -90.063293,111.778337 -94.377997,108.686919 -98.586836,105.428983 -102.683388,102.008146 -106.661355,98.428276 -110.514571,94.693481 -114.237014,90.80811 -117.822813,86.776745 -121.266256,82.604195 -124.561805,78.295494 -127.704094,73.85589 -130.687949,69.290843 -133.508389,64.606017 -136.160635,59.807272 -138.640119,54.900658 -140.942491,49.892405 -143.063627,44.78892 -144.999635,39.596773 -146.746861,34.322695 -148.301895,28.973561 -149.661582,23.556391 -150.823019,18.07833 -151.783568,12.54665 -152.540858,6.96873 -153.092144,1.36413 -102.122234,-1.36413 -101.88991,4.282286 -101.561668,8.022939 -101.095214,11.745092 -100.491471,15.443607 -99.751552,19.113386 -98.87676,22.749383 -97.868589,26.346608 -96.728715,29.900138 -95.459001,33.405119 -94.061486,36.856774 -92.53839,40.250414 -90.892102,43.58144 -89.125183,46.84535 -87.24036,50.037746 -85.24052,53.154343 -83.128708,56.19097 -80.90812,59.143577 -78.582101,62.008245 -76.154137,64.781185 -73.627851,67.458748 -71.006999,70.037428 -68.295461,72.513865 -65.497237,74.884855 -62.616444,77.147348 -59.657303,79.298456 -56.624139,81.335456 -53.521371,83.255793 -50.353508,85.057085 -47.125139,86.737122 -43.84093,88.293875 -40.505612,89.725492 -37.123982,91.030307 -33.700886,92.206835 -30.241221,93.25378 -26.749922,94.170032 -23.231957,94.954671 -19.692318,95.606966 -16.136018,96.126378 -12.568079,96.512556 -8.993524,96.765344 -5.417378,96.884772 -1.844649,96.871065 1.71967,96.724634 5.270613,96.446079 8.803245,96.036189 12.312673,95.495936 15.79405,94.826478 19.242582,94.029152 22.653537,93.105477 26.022249,92.057147 29.344126,90.886028 32.614659,89.594159 35.829422,88.183746 38.984085,86.657156 42.074416,85.016918 45.096288,83.265715 48.045686,81.406382 50.918711,79.4419 53.711583,77.375391 56.420654,75.210116 59.042404,72.949465 61.573452,70.596958 64.010557,68.156232 66.350625,65.631043 68.590712,63.025253 70.728026,60.34283 72.759934,57.587837 76.497807,51.876851 79.786539,45.926517 82.611048,39.772201 84.959041,33.450202 86.821065,26.99753 88.190548,20.451687 89.063821,13.850436 89.440117,7.231583 89.321567,0.63275 88.713158,-5.908848 87.622695,-12.356619 86.06073,-18.674809 84.040481,-24.82871 81.577742,-30.784858 78.690765,-36.511227 75.400135,-41.977409 71.728634,-47.154787 67.701086,-52.016691 63.344192,-56.538552 58.686361,-60.698025 53.75752,-64.475118 48.588929,-67.852289 43.212973,-70.814538 37.662963,-73.349478 31.972928,-75.447391 26.177394,-77.10127 20.311176,-78.306835 14.40916,-79.062546 8.506088,-79.369585 2.636346,-79.231833 -3.166248,-78.655821 -8.868647,-77.65067 -14.438773,-76.228015 -19.845714,-74.401909 -25.0599,-72.188724 -30.053284,-69.607018 -34.799506,-66.677413 -39.274038,-63.422439 -43.454334,-59.866383 -47.319951,-56.035116 -50.852662,-51.955918 -54.03656,-47.657295 -56.858132,-43.16878 -59.306338,-38.520741 -61.372652,-33.744176 -63.051104,-28.870508 -64.338298,-23.931378 -65.233413,-18.958435 -65.738187,-13.98313 -65.856891,-9.036512 -65.596281,-4.149026 -64.96553,0.649689 -63.97616,5.330984 -62.641941,9.867391 -60.978787,14.232795 -59.004638,18.402605 -56.739322,22.353907 -54.204415,26.065615 -51.423083,29.5186 -48.419916,32.695814 -45.220756,35.582399 -41.852512,38.165781 -38.342976,40.435745 -34.720622,42.384508 -31.014419,44.006762 -27.253619,45.299713 -23.467563,46.2631 -19.685476,46.899201 -15.936263,47.212823 -12.248313,47.211278 -8.649298,46.904349 -5.165983,46.304239 -1.824034,45.425511 1.352162,44.285018 4.33968,42.901818 7.117228,41.297091 9.665317,39.494039 11.966426,37.517785 14.00517,35.395262 15.768462,33.155092 17.245683,30.827452 18.428857,28.44391 19.312813,26.037206 19.895338,23.640942 20.177242,21.289107 20.162206,19.015318 19.856096,16.851627 19.26507,14.826696 18.391013,12.963291 17.221294,11.275486 15.706193,9.767382 13.705983,8.438 12.422716,7.843277 10.829544,7.302976 8.703543,6.833266 5.286629,6.474525 -0.006013,6.380357 0.006013,-6.380357"/>
</g>
</svg>