<?xml version="1.0" encoding="UTF-8"?>
<svg xmlns="http://www.w3.org/2000/svg" xmlns:xlink="http://www.w3.org/1999/xlink" width="300" height="235.879853" viewBox="-200.882395 -99.595005 300 235.879853">
<defs>
<style type="text/css">
.l0d0 {stroke: #F38400; fill: #F38400; fill-opacity: 0.5;}
</style>
</defs>
<rect x="-200.882395" y="-99.595005" width="300" height="235.879853" fill="none" stroke="none"/>
<g id="parametric" transform="scale(1 -1)">
<polygon id="0x56358e283610" class="l0d0" points="-85.481242,0 -84.813419,0.051483 -84.145597,0.205808 -83.477775,0.462603 -82.809953,0.821249 -81.474308,1.840397 -80.138664,3.253436 -78.80302,5.046758 -77.467375,7.203093 -76.131731,9.701674 -74.796086,12.518438 -73.460442,15.626258 -70.789153,22.592832 -68.117864,30.333673 -62.775287,46.929934 -60.103998,55.147568 -57.432709,62.88841 -54.76142,69.854984 -53.425776,72.962804 -52.090132,75.779567 -50.754487,78.278148 -49.418843,80.434483 -48.083198,82.227805 -46.747554,83.640845 -45.41191,84.659992 -44.744087,85.018639 -44.076265,85.275434 -43.408443,85.429759 -42.740621,85.481242 -42.072799,85.429759 -41.404976,85.275434 -40.737154,85.018639 -40.069332,84.659992 -38.733688,83.640845 -37.398043,82.227805 -36.062399,80.434483 -34.726754,78.278148 -33.39111,75.779567 -32.055466,72.962804 -30.719821,69.854984 -28.048532,62.88841 -25.377244,55.147568 -20.034666,38.551307 -17.363377,30.333673 -14.692088,22.592832 -12.0208,15.626258 -10.685155,12.518438 -9.349511,9.701674 -8.013866,7.203093 -6.678222,5.046758 -5.342578,3.253436 -4.006933,1.840397 -2.671289,0.821249 -2.003467,0.462603 -1.335644,0.205808 -0.667822,0.051483 0,0 0.667822,0.051483 1.335644,0.205808 2.003467,0.462603 2.671289,0.821249 4.006933,1.840397 5.342578,3.253436 6.678222,5.046758 8.013866,7.203093 9.349511,9.701674 10.685155,12.518438 12.0208,15.626258 14.692088,22.592832 17.363377,30.333673 22.705955,46.929934 25.377244,55.147568 28.048532,62.88841 30.719821,69.854984 32.055466,72.962804 33.39111,75.779567 34.726754,78.278148 36.062399,80.434483 37.398043,82.227805 38.733688,83.640845 40.069332,84.659992 40.737154,85.018639 41.404976,85.275434 42.072799,85.429759 42.740621,85.481242 43.408443,85.429759 44.076265,85.275434 44.744087,85.018639 45.41191,84.659992 46.747554,83.640845 48.083198,82.227805 49.418843,80.434483 50.754487,78.278148 52.090132,75.779567 53.425776,72.962804 54.76142,69.854984 57.432709,62.88841 60.103998,55.147568 65.446576,38.551307 68.117864,30.333673 70.789153,22.592832 73.460442,15.626258 74.796086,12.518438 76.131731,9.701674 77.467375,7.203093 78.80302,5.046758 80.138664,3.253436 81.474308,1.840397 82.809953,0.821249 83.477775,0.462603 84.145597,0.205808 84.813419,0.051483 85.481242,0 84.53677,-0.097802 83.845166,-0.292212 82.981114,-0.678351 81.817201,-1.443594 80.937284,-2.201943 79.541658,-3.702822 78.39501,-5.186505 76.469038,-8.111757 74.802309,-10.989203 71.829377,-16.621442 66.363054,-27.45859 63.653723,-32.679277 60.898165,-37.771789 58.073254,-42.736448 55.164682,-47.57249 52.163568,-52.278439 49.064585,-56.852354 45.864862,-61.291989 42.563289,-65.594902 39.160073,-69.758543 35.656422,-73.780314 32.054336,-77.657611 28.356443,-81.387868 24.565888,-84.96858 20.686242,-88.397334 16.721431,-91.671818 12.675684,-94.78985 8.553485,-97.749379 4.359537,-100.548506 0.098733,-103.18549 -4.223874,-105.658753 -8.603093,-107.966893 -13.033612,-110.108684 -17.510023,-112.083086 -22.026833,-113.889245 -26.578481,-115.526498 -31.159354,-116.994375 -35.763795,-118.292604 -40.386119,-119.421105 -45.020625,-120.380001 -49.661604,-121.169611 -54.303352,-121.79045 -58.940179,-122.243235 -63.566417,-122.528877 -68.176433,-122.648485 -72.764634,-122.603359 -77.325478,-122.394996 -81.853481,-122.025079 -86.343225,-121.49548 -90.789368,-120.808256 -95.186648,-119.965647 -99.529893,-118.970067 -103.814027,-117.824109 -108.034075,-116.530534 -112.185174,-115.092269 -116.262573,-113.512406 -120.261647,-111.79419 -124.177895,-109.941022 -128.006949,-107.95645 -131.744581,-105.844161 -135.386705,-103.607982 -138.929383,-101.251871 -142.36883,-98.77991 -145.701418,-96.196301 -148.92368,-93.50536 -152.032312,-90.71151 -155.024181,-87.819274 -157.896324,-84.833272 -160.645953,-81.758209 -163.270457,-78.598873 -165.767406,-75.360128 -168.13455,-72.046904 -170.369824,-68.664194 -172.471349,-65.217043 -174.437434,-61.710545 -176.266574,-58.149836 -177.957455,-54.540082 -179.508952,-50.886479 -180.920131,-47.194241 -182.190246,-43.468595 -183.318745,-39.714773 -184.305262,-35.938008 -185.149622,-32.143522 -185.851838,-28.336525 -186.41211,-24.522205 -186.830823,-20.705719 -187.108546,-16.892191 -187.246031,-13.086706 -187.244209,-9.294297 -187.104187,-5.519945 -186.827251,-1.768569 -186.414855,1.954976 -185.868624,5.64591 -185.190348,9.299531 -184.381982,12.91122 -183.445636,16.476449 -182.383576,19.990785 -181.198221,23.449896 -179.892135,26.849554 -178.468023,30.185642 -176.928731,33.45416 -175.277234,36.651226 -173.51664,39.773082 -171.650176,42.816101 -169.681189,45.776786 -167.613139,48.651777 -165.449592,51.437853 -163.194218,54.131938 -160.85078,56.7311 -158.423136,59.232559 -155.915226,61.633684 -153.331068,63.932002 -150.674756,66.125192 -147.95045,68.211097 -145.162369,70.187718 -142.314788,72.053218 -139.412033,73.805924 -136.458469,75.444329 -133.4585,76.96709 -130.416559,78.37303 -127.337103,79.661142 -124.224607,80.830582 -121.083558,81.880676 -117.918447,82.810915 -114.733767,83.620957 -111.534001,84.310625 -108.323623,84.879907 -105.107084,85.328956 -101.888814,85.658085 -98.67321,85.867769 -95.464635,85.958641 -92.267408,85.931492 -89.085802,85.787267 -85.481242,85.481242"/>
</g>
</svg>