<?xml version="1.0" encoding="UTF-8"?>
<svg xmlns="http://www.w3.org/2000/svg" xmlns:xlink="http://www.w3.org/1999/xlink" width="300" height="272.529461" viewBox="-162.850788 -150.732981 300 272.529461">
<defs>
<style type="text/css">
.l0d0 {stroke: #F38400; fill: #F38400; fill-opacity: 0.5;}
</style>
</defs>
<rect x="-162.850788" y="-150.732981" width="300" height="272.529461" fill="none" stroke="none"/>
<g id="parametric" transform="scale(1 -1)">
<polygon id="0x55d800bb5f30" class="l0d0" points="-0.130808,7.105348 0.130808,-7.105348 6.720408,-6.984034 12.007522,-6.424624 15.898063,-5.564548 19.117715,-4.474675 21.899595,-3.189896 24.343446,-1.738043 26.502246,-0.143122 28.408483,1.573612 30.084474,3.393271 31.546973,5.299141 32.885565,7.395813 34.788071,11.379761 36.072001,15.653438 36.726528,20.008773 36.796126,24.390251 36.317014,28.750143 35.319848,33.045645 33.831797,37.237162 31.878131,41.287344 29.48338,45.160613 26.672173,48.822961 23.469819,52.241938 19.902696,55.386721 15.998502,58.228251 11.786386,60.739382 7.297002,62.895055 2.562496,64.672456 -2.38356,66.051184 -7.50627,67.013389 -12.769555,67.543916 -18.136311,67.630417 -23.568598,67.263457 -29.027835,66.436594 -34.475019,65.146447 -39.870944,63.392741 -45.176436,61.178328 -50.352589,58.5092 -55.361001,55.394468 -60.164017,51.846331 -64.724966,47.88002 -69.008399,43.513726 -72.980313,38.768505 -76.608385,33.668165 -79.862178,28.239139 -82.713351,22.510337 -85.135855,16.512979 -87.106113,10.280421 -88.603188,3.847955 -89.608937,-2.74739 -90.108149,-9.467078 -90.088663,-16.271285 -89.54147,-23.119147 -88.460801,-29.969003 -86.844184,-36.778654 -84.692494,-43.505615 -82.009974,-50.107386 -78.80424,-56.541711 -75.086262,-62.766846 -70.87033,-68.741822 -66.173991,-74.426706 -61.017973,-79.782857 -55.426085,-84.773176 -49.425101,-89.362352 -43.044621,-93.517089 -36.316915,-97.206335 -29.276752,-100.40149 -21.961211,-103.076601 -14.409476,-105.208551 -6.662619,-106.77722 1.236638,-107.765639 9.244155,-108.160117 17.247719,-107.9521 21.358503,-107.612904 25.401177,-107.125865 29.436349,-106.485202 33.458126,-105.690848 37.460604,-104.742963 41.437874,-103.641933 45.384033,-102.388373 49.293188,-100.983129 53.15947,-99.427273 56.977042,-97.722104 60.740104,-95.86915 64.442906,-93.870164 68.079757,-91.727122 71.645028,-89.442223 75.133169,-87.017887 78.53871,-84.456749 81.856274,-81.761659 85.080584,-78.935679 88.206472,-75.982077 91.228886,-72.904327 94.142897,-69.706101 96.943711,-66.391265 99.626671,-62.963875 102.18727,-59.428174 104.621154,-55.788583 106.924132,-52.049697 109.092181,-48.216278 111.121452,-44.29325 113.008281,-40.285693 114.749189,-36.198834 116.340893,-32.038042 117.780306,-27.808818 119.06455,-23.516792 120.190955,-19.167712 121.157065,-14.767436 121.960645,-10.321925 122.599683,-5.837236 123.072393,-1.31951 123.377221,3.225032 123.512848,7.790103 123.478191,12.369354 123.272408,16.956387 122.894896,21.544759 122.345299,26.127997 121.623506,30.699603 120.72965,35.253068 119.664115,39.781874 118.427529,44.279511 117.020772,48.739481 115.444969,53.155311 113.701494,57.520562 111.791964,61.828835 109.718245,66.073785 107.482444,70.249128 105.086908,74.34865 102.534226,78.366219 99.827219,82.29579 96.968945,86.131416 93.962687,89.867261 90.811957,93.4976 87.520487,97.016835 84.092227,100.419503 80.531337,103.700281 76.842185,106.853995 73.029341,109.875631 69.097571,112.760339 65.05183,115.503445 60.897256,118.100452 56.639165,120.547055 52.283041,122.83914 47.834531,124.972799 43.299438,126.944327 38.683713,128.750238 33.993443,130.387261 29.23485,131.852354 24.414276,133.142703 19.53818,134.255733 14.613125,135.189105 9.645769,135.940727 4.642861,136.508754 -0.388776,136.891593 -5.442248,137.087908 -10.510602,137.096617 -15.586836,136.916902 -20.663909,136.548206 -25.73475,135.990237 -30.792268,135.242967 -35.829362,134.306637 -40.838933,133.181754 -45.813891,131.869094 -50.747166,130.369698 -55.631721,128.684877 -60.460557,126.816206 -65.226729,124.765526 -69.923351,122.53494 -74.543608,120.126815 -79.080767,117.543774 -83.528184,114.788697 -87.879318,111.864717 -92.127735,108.775215 -96.267123,105.523819 -100.291298,102.114397 -104.194215,98.551055 -107.969975,94.838129 -111.612836,90.980182 -115.11722,86.981998 -118.477724,82.848573 -121.689125,78.585114 -124.746389,74.197029 -127.644682,69.68992 -130.37937,65.069576 -132.946037,60.341968 -135.340481,55.513236 -137.558728,50.589688 -139.597036,45.577783 -141.451901,40.48413 -143.120062,35.315476 -144.59851,30.078697 -145.884486,24.780788 -146.975495,19.428856 -147.869301,14.030108 -148.568112,8.559178 -149.214425,0.573271 -135.047641,-0.573271 -134.427869,7.084702 -133.804087,11.968239 -132.996248,16.847726 -132.010377,21.683911 -130.848564,26.470295 -129.51314,31.200474 -128.006668,35.868147 -126.331939,40.467126 -124.491971,44.991343 -122.489997,49.434859 -120.329466,53.791872 -118.014033,58.056726 -115.547558,62.223914 -112.934094,66.28809 -110.177883,70.244073 -107.283352,74.086856 -104.2551,77.81161 -101.097898,81.413691 -97.816675,84.888647 -94.416515,88.232224 -90.902647,91.440366 -87.280438,94.509229 -83.555382,97.435176 -79.733098,100.214789 -75.819315,102.844868 -71.819867,105.322438 -67.740682,107.644751 -63.587777,109.809287 -59.367245,111.813761 -55.085248,113.656121 -50.748008,115.334554 -46.361797,116.847482 -41.932929,118.193571 -37.46775,119.371724 -32.97263,120.381089 -28.453951,121.221052 -23.918102,121.891243 -19.371467,122.391532 -14.820415,122.722028 -10.271294,122.883082 -5.730422,122.875278 -1.204074,122.699441 3.301522,122.356626 7.780199,121.84812 12.225852,121.175439 16.632453,120.340321 20.994058,119.344731 25.304814,118.190847 29.558966,116.881063 33.750866,115.417984 37.874983,113.804416 41.925907,112.043369 45.898357,110.138045 49.787188,108.091838 53.5874,105.908322 57.294143,103.591252 60.90272,101.144554 64.4086,98.572317 67.807419,95.878792 71.094985,93.068378 74.267286,90.145622 77.320495,87.115206 80.250971,83.981943 83.05527,80.75077 85.73014,77.426737 88.272535,74.015001 90.67961,70.52082 92.948728,66.949542 95.077465,63.306597 97.063607,59.597492 98.905157,55.827798 100.600334,52.003145 102.147578,48.129212 103.545547,44.211721 104.793121,40.256424 105.889401,36.269099 106.833709,32.255538 107.625593,28.22154 108.264816,24.172904 108.751368,20.115418 109.085454,16.054852 109.2675,11.996949 109.298147,7.947416 109.178254,3.91192 108.908888,-0.103927 108.491329,-4.094569 107.927063,-8.054519 107.21778,-11.978365 106.365371,-15.860777 105.371922,-19.696512 104.239712,-23.48043 102.97121,-27.207489 101.569066,-30.872763 100.036112,-34.47144 98.375352,-37.998836 96.589958,-41.450394 94.683267,-44.821696 92.658771,-48.108466 90.520115,-51.306578 88.271089,-54.412055 85.915622,-57.421084 83.457774,-60.330012 80.901731,-63.135355 78.2518,-65.833803 75.512396,-68.422222 72.688042,-70.897656 69.783356,-73.257336 66.803047,-75.498678 63.751907,-77.61929 60.6348,-79.61697 57.456661,-81.489713 54.222481,-83.235709 50.937306,-84.853349 47.606222,-86.341222 44.234353,-87.698118 40.826852,-88.92303 37.38889,-90.015153 33.92565,-90.973883 30.442322,-91.798822 26.944089,-92.489768 23.436125,-93.046727 19.923584,-93.469899 16.478067,-93.7542 9.409417,-93.937918 2.470401,-93.596078 -4.366628,-92.740574 -11.063538,-91.38451 -17.583559,-89.543826 -23.891493,-87.237171 -29.953917,-84.485761 -35.739367,-81.313216 -41.218513,-77.745395 -46.364317,-73.810207 -51.152179,-69.537417 -55.560062,-64.95844 -59.568605,-60.106129 -63.161214,-55.01455 -66.324139,-49.718756 -69.046533,-44.254559 -71.320485,-38.658286 -73.141047,-32.966552 -74.506229,-27.216017 -75.416987,-21.443152 -75.877183,-15.684006 -75.893536,-9.973978 -75.475547,-4.347593 -74.635411,1.161714 -73.387917,6.521807 -71.750322,11.702049 -69.742216,16.673487 -67.385377,21.409033 -64.703607,25.883627 -61.722555,30.074386 -58.469537,33.960746 -54.973338,37.524578 -51.264011,40.750298 -47.372666,43.624955 -43.331258,46.138308 -39.172363,48.282878 -34.928958,50.053996 -30.634195,51.449818 -26.321181,52.47134 -22.022748,53.122386 -17.771234,53.409583 -13.598268,53.342324 -9.534553,52.932711 -5.609659,52.195493 -1.851821,51.147985 1.712257,49.809978 5.057591,48.203645 8.161102,46.35343 11.001789,44.285936 13.560908,42.029811 15.822142,39.615617 17.771776,37.075698 19.398875,34.444028 20.69547,31.756032 21.65674,29.048345 22.281173,26.358468 22.57065,23.724239 22.530283,21.182974 22.167676,18.77012 21.490826,16.517166 20.436032,14.308371 19.897493,13.464842 19.197435,12.552555 18.403758,11.690843 17.502563,10.879238 16.471163,10.117239 15.272564,9.405171 13.844587,8.745676 12.074151,8.146373 9.71859,7.625632 5.84019,7.215273"/>
</g>
</svg>