<?xml version="1.0" encoding="UTF-8"?>
<svg xmlns="http://www.w3.org/2000/svg" xmlns:xlink="http://www.w3.org/1999/xlink" width="310.788743" height="418.676177" viewBox="-30.974952 -30.974952 310.788743 418.676177">
<defs>
<style type="text/css">
.l1d0 {stroke: #A1CAF1; fill: #A1CAF1; fill-opacity: 0.5;}
.l0d0 {stroke: #F38400; fill: #F38400; fill-opacity: 0.5;}
</style>
</defs>
<rect x="-30.974952" y="-30.974952" width="310.788743" height="418.676177" fill="none" stroke="none"/>
<g id="path_markers" transform="scale(1 -1)">
<polygon id="0x561fea47f1f0" class="l1d0" points="5.972108,-10.343995 11.944216,-0 5.972108,10.343995 -5.972108,10.343995 -11.944216,0 -5.972108,-10.343995"/>
<polygon id="0x561fea47f300" class="l1d0" points="45.388023,-11.944216 50.165709,-11.944216 50.165709,11.944216 45.388023,11.944216"/>
<polygon id="0x561fea47f3b0" class="l1d0" points="93.164889,-11.944216 97.942575,-11.944216 97.942575,11.944216 93.164889,11.944216"/>
<polygon id="0x561fea47f420" class="l1d0" points="140.941755,-11.944216 145.719441,-11.944216 145.719441,11.944216 140.941755,11.944216"/>
<polygon id="0x561fea47f490" class="l1d0" points="197.079572,-10.343995 203.05168,-0 197.079572,10.343995 185.135356,10.343995 179.163247,0 185.135356,-10.343995"/>
<polygon id="0x561fea47f500" class="l1d0" points="213.162563,-17.687247 217.160444,-20.303204 230.240231,-0.313797 226.24235,2.302161"/>
<polygon id="0x561fea47f570" class="l1d0" points="230.24038,-35.203263 232.389419,-39.470337 253.724788,-28.725141 251.575749,-24.458067"/>
<polygon id="0x561fea47f5e0" class="l1d0" points="236.906141,-60.075668 236.757799,-64.851051 260.634714,-65.592761 260.783056,-60.817378"/>
<polygon id="0x561fea47f650" class="l1d0" points="244.856438,-105.897727 250.828546,-95.553732 244.856438,-85.209737 232.912222,-85.209737 226.940113,-95.553732 232.912222,-105.897727"/>
<polygon id="0x561fea47f6c0" class="l1d0" points="215.653121,-104.059687 211.812786,-106.901889 226.023795,-126.103567 229.864131,-123.261365"/>
<polygon id="0x561fea47f730" class="l1d0" points="195.120762,-115.796515 190.683819,-117.56847 199.543595,-139.753186 203.980538,-137.981231"/>
<polygon id="0x561fea47f7a0" class="l1d0" points="169.932307,-124.146051 165.317141,-125.381578 171.494776,-148.457411 176.109942,-147.221884"/>
<polygon id="0x561fea47f860" class="l1d0" points="149.302706,-153.674593 155.274814,-143.330598 149.302706,-132.986603 137.35849,-132.986603 131.386381,-143.330598 137.35849,-153.674593"/>
<polygon id="0x561fea47f8d0" class="l1d0" points="119.558068,-138.260935 115.100367,-139.980001 123.695699,-162.268507 128.1534,-160.549441"/>
<polygon id="0x561fea47f990" class="l1d0" points="97.316099,-148.505228 93.220419,-150.965247 105.520515,-171.443647 109.616195,-168.983628"/>
<polygon id="0x561fea47fa50" class="l1d0" points="77.396536,-163.236343 74.050572,-166.646742 91.102566,-183.376558 94.448529,-179.966159"/>
<polygon id="0x561fea47fb10" class="l1d0" points="77.637407,-201.451459 83.609515,-191.107464 77.637407,-180.763469 65.693191,-180.763469 59.721082,-191.107464 65.693191,-201.451459"/>
<polygon id="0x561fea47fb80" class="l1d0" points="53.432692,-212.881641 53.143353,-217.650558 76.98794,-219.09725 77.277278,-214.328333"/>
<polygon id="0x561fea47fc40" class="l1d0" points="55.929242,-242.182546 57.221886,-246.782041 80.219365,-240.318822 78.926721,-235.719326"/>
<polygon id="0x561fea47fd00" class="l1d0" points="67.263635,-269.505527 69.750263,-273.585107 90.14816,-261.151963 87.661531,-257.072384"/>
<polygon id="0x561fea47fdc0" class="l1d0" points="101.52584,-297.005191 107.497948,-286.661196 101.52584,-276.317201 89.581624,-276.317201 83.609515,-286.661196 89.581624,-297.005191"/>
<polygon id="0x561fea47fe30" class="l1d0" points="103.335053,-311.33419 106.713388,-314.712524 123.605061,-297.820852 120.226726,-294.442517"/>
<polygon id="0x561fea47fef0" class="l1d0" points="121.251378,-329.250515 124.629712,-332.628849 141.521385,-315.737176 138.143051,-312.358842"/>
<polygon id="0x561fea47ffb0" class="l1d0" points="139.167702,-347.166839 142.546037,-350.545174 159.43771,-333.653501 156.059375,-330.275166"/>
<polygon id="0x561fea6ab210" class="l1d0" points="173.191139,-368.67049 179.163247,-358.326495 173.191139,-347.9825 161.246923,-347.9825 155.274814,-358.326495 161.246923,-368.67049"/>
<polygon id="0x561fea6ac430" class="l0d0" points="47.776866,-5.972108 95.553732,-5.972108 143.330598,-5.972108 191.107464,-5.972108 198.681498,-6.518643 205.772697,-8.094763 212.364277,-10.613912 218.43145,-13.997873 223.939491,-18.171664 228.844957,-23.059073 233.098639,-28.580124 236.648742,-34.650501 239.443398,-41.182339 241.432236,-48.085765 242.566989,-55.27072 242.801199,-62.648787 242.089073,-70.134711 240.383612,-77.647265 237.634345,-85.109002 233.785012,-92.44519 230.262624,-97.603229 226.327161,-102.261331 221.995915,-106.472151 217.285706,-110.281208 206.811898,-116.845663 195.117234,-122.228672 182.47085,-126.696125 155.512988,-134.045212 141.797067,-137.558739 130.584126,-140.810589 119.478051,-144.692594 108.667074,-149.329864 98.343283,-154.854838 88.709174,-161.406476 79.986552,-169.123997 72.422785,-178.13167 69.158484,-183.14878 66.284029,-188.517482 63.481543,-195.163198 61.390657,-201.921452 59.988562,-208.755101 59.249169,-215.627772 59.143718,-222.505316 59.641823,-229.356327 60.712492,-236.152144 62.324934,-242.866489 64.449084,-249.474932 70.117306,-262.282345 77.497202,-274.39657 84.031539,-282.922011 91.330619,-290.883919 109.247138,-308.800439 127.163463,-326.716764 145.079788,-344.633088 162.996113,-362.549413 171.441949,-354.103577 153.525624,-336.187252 135.6093,-318.270927 117.692975,-300.354602 99.776845,-282.438473 91.135054,-272.732589 83.805371,-262.22046 77.976347,-251.116195 73.823673,-239.634879 71.506975,-227.984292 71.082801,-222.155148 71.171463,-216.351118 71.791054,-210.589623 72.961295,-204.885339 74.704576,-199.250719 77.046569,-193.697446 82.152854,-185.059157 88.512549,-177.488905 96.005643,-170.863 104.493331,-165.094037 113.811246,-160.109558 123.775717,-155.836847 134.192657,-152.196669 144.864129,-149.102457 151.594715,-147.354955 179.180117,-140.15475 192.860377,-135.826281 206.083154,-130.524215 218.547874,-123.855426 224.391211,-119.882047 229.911206,-115.41712 235.054235,-110.416237 239.763745,-104.841532 243.983648,-98.662274 248.551605,-89.954386 251.837205,-81.035408 253.883581,-72.019883 254.739656,-63.019642 254.457824,-54.14273 253.091686,-45.493171 250.694178,-37.171823 247.316426,-29.277903 243.007453,-21.910813 237.814785,-15.171964 231.78602,-9.166317 224.971344,-4.00317 217.426707,0.204411 209.216776,3.342135 200.416158,5.29894 191.107464,5.972108 143.330598,5.972108 95.553732,5.972108 47.776866,5.972108 0,5.972108 0,-5.972108"/>
</g>
</svg>