<?xml version="1.0" encoding="UTF-8"?>
<svg xmlns="http://www.w3.org/2000/svg" xmlns:xlink="http://www.w3.org/1999/xlink" width="300" height="265.201404" viewBox="-20.12987 -245.071533 300 265.201404">
<defs>
<style type="text/css">
.l1d0 {stroke: #A1CAF1; fill: #A1CAF1; fill-opacity: 0.5;}
.l0d0 {stroke: #F38400; fill: #F38400; fill-opacity: 0.5;}
</style>
</defs>
<rect x="-20.12987" y="-245.071533" width="300" height="265.201404" fill="none" stroke="none"/>
<g id="pos_filtering" transform="scale(1 -1)">
<polygon id="0x55c643c844a0" class="l0d0" points="6.493506,1.298701 1.298701,1.298701 1.298701,6.493506 -1.298701,6.493506 -1.298701,1.298701 -6.493506,1.298701 -6.493506,-1.298701 -1.298701,-1.298701 -1.298701,-6.493506 1.298701,-6.493506 1.298701,-1.298701 6.493506,-1.298701"/>
<polygon id="0x55c643c42cf0" class="l0d0" points="6.493506,46.287034 1.298701,46.287034 1.298701,51.481839 -1.298701,51.481839 -1.298701,46.287034 -6.493506,46.287034 -6.493506,43.689631 -1.298701,43.689631 -1.298701,38.494826 1.298701,38.494826 1.298701,43.689631 6.493506,43.689631"/>
<polygon id="0x55c643a1a1b0" class="l0d0" points="6.493506,91.275367 1.298701,91.275367 1.298701,96.470172 -1.298701,96.470172 -1.298701,91.275367 -6.493506,91.275367 -6.493506,88.677964 -1.298701,88.677964 -1.298701,83.483159 1.298701,83.483159 1.298701,88.677964 6.493506,88.677964"/>
<polygon id="0x55c643c60d90" class="l0d0" points="6.493506,136.263699 1.298701,136.263699 1.298701,141.458504 -1.298701,141.458504 -1.298701,136.263699 -6.493506,136.263699 -6.493506,133.666297 -1.298701,133.666297 -1.298701,128.471491 1.298701,128.471491 1.298701,133.666297 6.493506,133.666297"/>
<polygon id="0x55c643ce49c0" class="l0d0" points="6.493506,181.252032 1.298701,181.252032 1.298701,186.446837 -1.298701,186.446837 -1.298701,181.252032 -6.493506,181.252032 -6.493506,178.654629 -1.298701,178.654629 -1.298701,173.459824 1.298701,173.459824 1.298701,178.654629 6.493506,178.654629"/>
<polygon id="0x55c643b9ef50" class="l0d0" points="6.493506,226.240365 1.298701,226.240365 1.298701,231.43517 -1.298701,231.43517 -1.298701,226.240365 -6.493506,226.240365 -6.493506,223.642962 -1.298701,223.642962 -1.298701,218.448157 1.298701,218.448157 1.298701,223.642962 6.493506,223.642962"/>
<polygon id="0x55c643c190e0" class="l0d0" points="32.467532,1.298701 27.272727,1.298701 27.272727,6.493506 24.675325,6.493506 24.675325,1.298701 19.480519,1.298701 19.480519,-1.298701 24.675325,-1.298701 24.675325,-6.493506 27.272727,-6.493506 27.272727,-1.298701 32.467532,-1.298701"/>
<polygon id="0x55c643cd8830" class="l0d0" points="32.467532,226.240365 27.272727,226.240365 27.272727,231.43517 24.675325,231.43517 24.675325,226.240365 19.480519,226.240365 19.480519,223.642962 24.675325,223.642962 24.675325,218.448157 27.272727,218.448157 27.272727,223.642962 32.467532,223.642962"/>
<polygon id="0x55c643984810" class="l0d0" points="58.441558,1.298701 53.246753,1.298701 53.246753,6.493506 50.649351,6.493506 50.649351,1.298701 45.454545,1.298701 45.454545,-1.298701 50.649351,-1.298701 50.649351,-6.493506 53.246753,-6.493506 53.246753,-1.298701 58.441558,-1.298701"/>
<polygon id="0x55c6439b33e0" class="l0d0" points="58.441558,226.240365 53.246753,226.240365 53.246753,231.43517 50.649351,231.43517 50.649351,226.240365 45.454545,226.240365 45.454545,223.642962 50.649351,223.642962 50.649351,218.448157 53.246753,218.448157 53.246753,223.642962 58.441558,223.642962"/>
<polygon id="0x55c643cb3850" class="l0d0" points="84.415584,1.298701 79.220779,1.298701 79.220779,6.493506 76.623377,6.493506 76.623377,1.298701 71.428571,1.298701 71.428571,-1.298701 76.623377,-1.298701 76.623377,-6.493506 79.220779,-6.493506 79.220779,-1.298701 84.415584,-1.298701"/>
<polygon id="0x55c643cbfdd0" class="l0d0" points="84.415584,46.287034 79.220779,46.287034 79.220779,51.481839 76.623377,51.481839 76.623377,46.287034 71.428571,46.287034 71.428571,43.689631 76.623377,43.689631 76.623377,38.494826 79.220779,38.494826 79.220779,43.689631 84.415584,43.689631"/>
<polygon id="0x55c643c1c750" class="l0d0" points="84.415584,91.275367 79.220779,91.275367 79.220779,96.470172 76.623377,96.470172 76.623377,91.275367 71.428571,91.275367 71.428571,88.677964 76.623377,88.677964 76.623377,83.483159 79.220779,83.483159 79.220779,88.677964 84.415584,88.677964"/>
<polygon id="0x55c643cf14a0" class="l0d0" points="84.415584,226.240365 79.220779,226.240365 79.220779,231.43517 76.623377,231.43517 76.623377,226.240365 71.428571,226.240365 71.428571,223.642962 76.623377,223.642962 76.623377,218.448157 79.220779,218.448157 79.220779,223.642962 84.415584,223.642962"/>
<polygon id="0x55c643b73320" class="l0d0" points="110.38961,1.298701 105.194805,1.298701 105.194805,6.493506 102.597403,6.493506 102.597403,1.298701 97.402597,1.298701 97.402597,-1.298701 102.597403,-1.298701 102.597403,-6.493506 105.194805,-6.493506 105.194805,-1.298701 110.38961,-1.298701"/>
<polygon id="0x55c643b73390" class="l0d0" points="110.38961,46.287034 105.194805,46.287034 105.194805,51.481839 102.597403,51.481839 102.597403,46.287034 97.402597,46.287034 97.402597,43.689631 102.597403,43.689631 102.597403,38.494826 105.194805,38.494826 105.194805,43.689631 110.38961,43.689631"/>
<polygon id="0x55c643b68ff0" class="l0d0" points="110.38961,91.275367 105.194805,91.275367 105.194805,96.470172 102.597403,96.470172 102.597403,91.275367 97.402597,91.275367 97.402597,88.677964 102.597403,88.677964 102.597403,83.483159 105.194805,83.483159 105.194805,88.677964 110.38961,88.677964"/>
<polygon id="0x55c643ca9bc0" class="l0d0" points="110.38961,181.252032 105.194805,181.252032 105.194805,186.446837 102.597403,186.446837 102.597403,181.252032 97.402597,181.252032 97.402597,178.654629 102.597403,178.654629 102.597403,173.459824 105.194805,173.459824 105.194805,178.654629 110.38961,178.654629"/>
<polygon id="0x55c643ca9c30" class="l0d0" points="110.38961,226.240365 105.194805,226.240365 105.194805,231.43517 102.597403,231.43517 102.597403,226.240365 97.402597,226.240365 97.402597,223.642962 102.597403,223.642962 102.597403,218.448157 105.194805,218.448157 105.194805,223.642962 110.38961,223.642962"/>
<polygon id="0x55c643bf3ba0" class="l0d0" points="136.363636,1.298701 131.168831,1.298701 131.168831,6.493506 128.571429,6.493506 128.571429,1.298701 123.376623,1.298701 123.376623,-1.298701 128.571429,-1.298701 128.571429,-6.493506 131.168831,-6.493506 131.168831,-1.298701 136.363636,-1.298701"/>
<polygon id="0x55c643bf3c10" class="l0d0" points="136.363636,46.287034 131.168831,46.287034 131.168831,51.481839 128.571429,51.481839 128.571429,46.287034 123.376623,46.287034 123.376623,43.689631 128.571429,43.689631 128.571429,38.494826 131.168831,38.494826 131.168831,43.689631 136.363636,43.689631"/>
<polygon id="0x55c643b4ab40" class="l0d0" points="136.363636,91.275367 131.168831,91.275367 131.168831,96.470172 128.571429,96.470172 128.571429,91.275367 123.376623,91.275367 123.376623,88.677964 128.571429,88.677964 128.571429,83.483159 131.168831,83.483159 131.168831,88.677964 136.363636,88.677964"/>
<polygon id="0x55c643b4abb0" class="l0d0" points="136.363636,136.263699 131.168831,136.263699 131.168831,141.458504 128.571429,141.458504 128.571429,136.263699 123.376623,136.263699 123.376623,133.666297 128.571429,133.666297 128.571429,128.471491 131.168831,128.471491 131.168831,133.666297 136.363636,133.666297"/>
<polygon id="0x55c643c78a40" class="l0d0" points="136.363636,226.240365 131.168831,226.240365 131.168831,231.43517 128.571429,231.43517 128.571429,226.240365 123.376623,226.240365 123.376623,223.642962 128.571429,223.642962 128.571429,218.448157 131.168831,218.448157 131.168831,223.642962 136.363636,223.642962"/>
<polygon id="0x55c643b72d10" class="l0d0" points="162.337662,1.298701 157.142857,1.298701 157.142857,6.493506 154.545455,6.493506 154.545455,1.298701 149.350649,1.298701 149.350649,-1.298701 154.545455,-1.298701 154.545455,-6.493506 157.142857,-6.493506 157.142857,-1.298701 162.337662,-1.298701"/>
<polygon id="0x55c643b72d80" class="l0d0" points="162.337662,46.287034 157.142857,46.287034 157.142857,51.481839 154.545455,51.481839 154.545455,46.287034 149.350649,46.287034 149.350649,43.689631 154.545455,43.689631 154.545455,38.494826 157.142857,38.494826 157.142857,43.689631 162.337662,43.689631"/>
<polygon id="0x55c643c07250" class="l0d0" points="162.337662,91.275367 157.142857,91.275367 157.142857,96.470172 154.545455,96.470172 154.545455,91.275367 149.350649,91.275367 149.350649,88.677964 154.545455,88.677964 154.545455,83.483159 157.142857,83.483159 157.142857,88.677964 162.337662,88.677964"/>
<polygon id="0x55c6439a15d0" class="l0d0" points="162.337662,226.240365 157.142857,226.240365 157.142857,231.43517 154.545455,231.43517 154.545455,226.240365 149.350649,226.240365 149.350649,223.642962 154.545455,223.642962 154.545455,218.448157 157.142857,218.448157 157.142857,223.642962 162.337662,223.642962"/>
<polygon id="0x55c643a7a030" class="l0d0" points="188.311688,1.298701 183.116883,1.298701 183.116883,6.493506 180.519481,6.493506 180.519481,1.298701 175.324675,1.298701 175.324675,-1.298701 180.519481,-1.298701 180.519481,-6.493506 183.116883,-6.493506 183.116883,-1.298701 188.311688,-1.298701"/>
<polygon id="0x55c643b3f350" class="l0d0" points="188.311688,181.252032 183.116883,181.252032 183.116883,186.446837 180.519481,186.446837 180.519481,181.252032 175.324675,181.252032 175.324675,178.654629 180.519481,178.654629 180.519481,173.459824 183.116883,173.459824 183.116883,178.654629 188.311688,178.654629"/>
<polygon id="0x55c643b54a80" class="l0d0" points="188.311688,226.240365 183.116883,226.240365 183.116883,231.43517 180.519481,231.43517 180.519481,226.240365 175.324675,226.240365 175.324675,223.642962 180.519481,223.642962 180.519481,218.448157 183.116883,218.448157 183.116883,223.642962 188.311688,223.642962"/>
<polygon id="0x55c643b581a0" class="l0d0" points="214.285714,1.298701 209.090909,1.298701 209.090909,6.493506 206.493506,6.493506 206.493506,1.298701 201.298701,1.298701 201.298701,-1.298701 206.493506,-1.298701 206.493506,-6.493506 209.090909,-6.493506 209.090909,-1.298701 214.285714,-1.298701"/>
<polygon id="0x55c643baace0" class="l0d0" points="214.285714,46.287034 209.090909,46.287034 209.090909,51.481839 206.493506,51.481839 206.493506,46.287034 201.298701,46.287034 201.298701,43.689631 206.493506,43.689631 206.493506,38.494826 209.090909,38.494826 209.090909,43.689631 214.285714,43.689631"/>
<polygon id="0x55c643c872b0" class="l0d0" points="214.285714,91.275367 209.090909,91.275367 209.090909,96.470172 206.493506,96.470172 206.493506,91.275367 201.298701,91.275367 201.298701,88.677964 206.493506,88.677964 206.493506,83.483159 209.090909,83.483159 209.090909,88.677964 214.285714,88.677964"/>
<polygon id="0x55c643ce9f80" class="l0d0" points="214.285714,226.240365 209.090909,226.240365 209.090909,231.43517 206.493506,231.43517 206.493506,226.240365 201.298701,226.240365 201.298701,223.642962 206.493506,223.642962 206.493506,218.448157 209.090909,218.448157 209.090909,223.642962 214.285714,223.642962"/>
<polygon id="0x55c643cf8570" class="l0d0" points="240.25974,1.298701 235.064935,1.298701 235.064935,6.493506 232.467532,6.493506 232.467532,1.298701 227.272727,1.298701 227.272727,-1.298701 232.467532,-1.298701 232.467532,-6.493506 235.064935,-6.493506 235.064935,-1.298701 240.25974,-1.298701"/>
<polygon id="0x55c6439f61b0" class="l0d0" points="240.25974,46.287034 235.064935,46.287034 235.064935,51.481839 232.467532,51.481839 232.467532,46.287034 227.272727,46.287034 227.272727,43.689631 232.467532,43.689631 232.467532,38.494826 235.064935,38.494826 235.064935,43.689631 240.25974,43.689631"/>
<polygon id="0x55c643b32500" class="l0d0" points="240.25974,91.275367 235.064935,91.275367 235.064935,96.470172 232.467532,96.470172 232.467532,91.275367 227.272727,91.275367 227.272727,88.677964 232.467532,88.677964 232.467532,83.483159 235.064935,83.483159 235.064935,88.677964 240.25974,88.677964"/>
<polygon id="0x55c643bc9e50" class="l0d0" points="240.25974,136.263699 235.064935,136.263699 235.064935,141.458504 232.467532,141.458504 232.467532,136.263699 227.272727,136.263699 227.272727,133.666297 232.467532,133.666297 232.467532,128.471491 235.064935,128.471491 235.064935,133.666297 240.25974,133.666297"/>
<polygon id="0x55c643cb6960" class="l0d0" points="240.25974,226.240365 235.064935,226.240365 235.064935,231.43517 232.467532,231.43517 232.467532,226.240365 227.272727,226.240365 227.272727,223.642962 232.467532,223.642962 232.467532,218.448157 235.064935,218.448157 235.064935,223.642962 240.25974,223.642962"/>
<polygon id="0x55c643cae800" class="l0d0" points="266.233766,1.298701 261.038961,1.298701 261.038961,6.493506 258.441558,6.493506 258.441558,1.298701 253.246753,1.298701 253.246753,-1.298701 258.441558,-1.298701 258.441558,-6.493506 261.038961,-6.493506 261.038961,-1.298701 266.233766,-1.298701"/>
<polygon id="0x55c643ac8d40" class="l0d0" points="266.233766,46.287034 261.038961,46.287034 261.038961,51.481839 258.441558,51.481839 258.441558,46.287034 253.246753,46.287034 253.246753,43.689631 258.441558,43.689631 258.441558,38.494826 261.038961,38.494826 261.038961,43.689631 266.233766,43.689631"/>
<polygon id="0x55c643ac7e90" class="l0d0" points="266.233766,91.275367 261.038961,91.275367 261.038961,96.470172 258.441558,96.470172 258.441558,91.275367 253.246753,91.275367 253.246753,88.677964 258.441558,88.677964 258.441558,83.483159 261.038961,83.483159 261.038961,88.677964 266.233766,88.677964"/>
<polygon id="0x55c643a05920" class="l0d0" points="266.233766,136.263699 261.038961,136.263699 261.038961,141.458504 258.441558,141.458504 258.441558,136.263699 253.246753,136.263699 253.246753,133.666297 258.441558,133.666297 258.441558,128.471491 261.038961,128.471491 261.038961,133.666297 266.233766,133.666297"/>
<polygon id="0x55c643af9480" class="l0d0" points="266.233766,181.252032 261.038961,181.252032 261.038961,186.446837 258.441558,186.446837 258.441558,181.252032 253.246753,181.252032 253.246753,178.654629 258.441558,178.654629 258.441558,173.459824 261.038961,173.459824 261.038961,178.654629 266.233766,178.654629"/>
<polygon id="0x55c643c3ea70" class="l0d0" points="266.233766,226.240365 261.038961,226.240365 261.038961,231.43517 258.441558,231.43517 258.441558,226.240365 253.246753,226.240365 253.246753,223.642962 258.441558,223.642962 258.441558,218.448157 261.038961,218.448157 261.038961,223.642962 266.233766,223.642962"/>
<polygon id="0x55c643996240" class="l0d0" points="19.480519,23.792868 14.285714,23.792868 14.285714,28.987673 11.688312,28.987673 11.688312,23.792868 6.493506,23.792868 6.493506,21.195465 11.688312,21.195465 11.688312,16.00066 14.285714,16.00066 14.285714,21.195465 19.480519,21.195465"/>
<polygon id="0x55c643996380" class="l0d0" points="19.480519,68.7812 14.285714,68.7812 14.285714,73.976005 11.688312,73.976005 11.688312,68.7812 6.493506,68.7812 6.493506,66.183798 11.688312,66.183798 11.688312,60.988993 14.285714,60.988993 14.285714,66.183798 19.480519,66.183798"/>
<polygon id="0x55c6439964c0" class="l0d0" points="19.480519,113.769533 14.285714,113.769533 14.285714,118.964338 11.688312,118.964338 11.688312,113.769533 6.493506,113.769533 6.493506,111.17213 11.688312,111.17213 11.688312,105.977325 14.285714,105.977325 14.285714,111.17213 19.480519,111.17213"/>
<polygon id="0x55c643996600" class="l0d0" points="19.480519,158.757866 14.285714,158.757866 14.285714,163.952671 11.688312,163.952671 11.688312,158.757866 6.493506,158.757866 6.493506,156.160463 11.688312,156.160463 11.688312,150.965658 14.285714,150.965658 14.285714,156.160463 19.480519,156.160463"/>
<polygon id="0x55c643996740" class="l0d0" points="19.480519,203.746198 14.285714,203.746198 14.285714,208.941003 11.688312,208.941003 11.688312,203.746198 6.493506,203.746198 6.493506,201.148796 11.688312,201.148796 11.688312,195.95399 14.285714,195.95399 14.285714,201.148796 19.480519,201.148796"/>
<polygon id="0x55c643c0eba0" class="l0d0" points="45.454545,23.792868 40.25974,23.792868 40.25974,28.987673 37.662338,28.987673 37.662338,23.792868 32.467532,23.792868 32.467532,21.195465 37.662338,21.195465 37.662338,16.00066 40.25974,16.00066 40.25974,21.195465 45.454545,21.195465"/>
<polygon id="0x55c643cb2ef0" class="l0d0" points="45.454545,203.746198 40.25974,203.746198 40.25974,208.941003 37.662338,208.941003 37.662338,203.746198 32.467532,203.746198 32.467532,201.148796 37.662338,201.148796 37.662338,195.95399 40.25974,195.95399 40.25974,201.148796 45.454545,201.148796"/>
<polygon id="0x55c643cdc7c0" class="l0d0" points="71.428571,23.792868 66.233766,23.792868 66.233766,28.987673 63.636364,28.987673 63.636364,23.792868 58.441558,23.792868 58.441558,21.195465 63.636364,21.195465 63.636364,16.00066 66.233766,16.00066 66.233766,21.195465 71.428571,21.195465"/>
<polygon id="0x55c6439f87c0" class="l0d0" points="71.428571,68.7812 66.233766,68.7812 66.233766,73.976005 63.636364,73.976005 63.636364,68.7812 58.441558,68.7812 58.441558,66.183798 63.636364,66.183798 63.636364,60.988993 66.233766,60.988993 66.233766,66.183798 71.428571,66.183798"/>
<polygon id="0x55c643c68c70" class="l0d0" points="71.428571,158.757866 66.233766,158.757866 66.233766,163.952671 63.636364,163.952671 63.636364,158.757866 58.441558,158.757866 58.441558,156.160463 63.636364,156.160463 63.636364,150.965658 66.233766,150.965658 66.233766,156.160463 71.428571,156.160463"/>
<polygon id="0x55c643a866c0" class="l0d0" points="71.428571,203.746198 66.233766,203.746198 66.233766,208.941003 63.636364,208.941003 63.636364,203.746198 58.441558,203.746198 58.441558,201.148796 63.636364,201.148796 63.636364,195.95399 66.233766,195.95399 66.233766,201.148796 71.428571,201.148796"/>
<polygon id="0x55c643af4600" class="l0d0" points="97.402597,23.792868 92.207792,23.792868 92.207792,28.987673 89.61039,28.987673 89.61039,23.792868 84.415584,23.792868 84.415584,21.195465 89.61039,21.195465 89.61039,16.00066 92.207792,16.00066 92.207792,21.195465 97.402597,21.195465"/>
<polygon id="0x55c643af8850" class="l0d0" points="97.402597,68.7812 92.207792,68.7812 92.207792,73.976005 89.61039,73.976005 89.61039,68.7812 84.415584,68.7812 84.415584,66.183798 89.61039,66.183798 89.61039,60.988993 92.207792,60.988993 92.207792,66.183798 97.402597,66.183798"/>
<polygon id="0x55c643bd3300" class="l0d0" points="97.402597,203.746198 92.207792,203.746198 92.207792,208.941003 89.61039,208.941003 89.61039,203.746198 84.415584,203.746198 84.415584,201.148796 89.61039,201.148796 89.61039,195.95399 92.207792,195.95399 92.207792,201.148796 97.402597,201.148796"/>
<polygon id="0x55c643c15ef0" class="l0d0" points="123.376623,23.792868 118.181818,23.792868 118.181818,28.987673 115.584416,28.987673 115.584416,23.792868 110.38961,23.792868 110.38961,21.195465 115.584416,21.195465 115.584416,16.00066 118.181818,16.00066 118.181818,21.195465 123.376623,21.195465"/>
<polygon id="0x55c643c31250" class="l0d0" points="123.376623,68.7812 118.181818,68.7812 118.181818,73.976005 115.584416,73.976005 115.584416,68.7812 110.38961,68.7812 110.38961,66.183798 115.584416,66.183798 115.584416,60.988993 118.181818,60.988993 118.181818,66.183798 123.376623,66.183798"/>
<polygon id="0x55c643aab670" class="l0d0" points="123.376623,113.769533 118.181818,113.769533 118.181818,118.964338 115.584416,118.964338 115.584416,113.769533 110.38961,113.769533 110.38961,111.17213 115.584416,111.17213 115.584416,105.977325 118.181818,105.977325 118.181818,111.17213 123.376623,111.17213"/>
<polygon id="0x55c643aab6e0" class="l0d0" points="123.376623,158.757866 118.181818,158.757866 118.181818,163.952671 115.584416,163.952671 115.584416,158.757866 110.38961,158.757866 110.38961,156.160463 115.584416,156.160463 115.584416,150.965658 118.181818,150.965658 118.181818,156.160463 123.376623,156.160463"/>
<polygon id="0x55c643b06c70" class="l0d0" points="123.376623,203.746198 118.181818,203.746198 118.181818,208.941003 115.584416,208.941003 115.584416,203.746198 110.38961,203.746198 110.38961,201.148796 115.584416,201.148796 115.584416,195.95399 118.181818,195.95399 118.181818,201.148796 123.376623,201.148796"/>
<polygon id="0x55c643b06db0" class="l0d0" points="149.350649,23.792868 144.155844,23.792868 144.155844,28.987673 141.558442,28.987673 141.558442,23.792868 136.363636,23.792868 136.363636,21.195465 141.558442,21.195465 141.558442,16.00066 144.155844,16.00066 144.155844,21.195465 149.350649,21.195465"/>
<polygon id="0x55c643b1a590" class="l0d0" points="149.350649,68.7812 144.155844,68.7812 144.155844,73.976005 141.558442,73.976005 141.558442,68.7812 136.363636,68.7812 136.363636,66.183798 141.558442,66.183798 141.558442,60.988993 144.155844,60.988993 144.155844,66.183798 149.350649,66.183798"/>
<polygon id="0x55c643b1a600" class="l0d0" points="149.350649,113.769533 144.155844,113.769533 144.155844,118.964338 141.558442,118.964338 141.558442,113.769533 136.363636,113.769533 136.363636,111.17213 141.558442,111.17213 141.558442,105.977325 144.155844,105.977325 144.155844,111.17213 149.350649,111.17213"/>
<polygon id="0x55c643c081e0" class="l0d0" points="149.350649,203.746198 144.155844,203.746198 144.155844,208.941003 141.558442,208.941003 141.558442,203.746198 136.363636,203.746198 136.363636,201.148796 141.558442,201.148796 141.558442,195.95399 144.155844,195.95399 144.155844,201.148796 149.350649,201.148796"/>
<polygon id="0x55c643c1efe0" class="l0d0" points="175.324675,23.792868 170.12987,23.792868 170.12987,28.987673 167.532468,28.987673 167.532468,23.792868 162.337662,23.792868 162.337662,21.195465 167.532468,21.195465 167.532468,16.00066 170.12987,16.00066 170.12987,21.195465 175.324675,21.195465"/>
<polygon id="0x55c643cc33f0" class="l0d0" points="175.324675,203.746198 170.12987,203.746198 170.12987,208.941003 167.532468,208.941003 167.532468,203.746198 162.337662,203.746198 162.337662,201.148796 167.532468,201.148796 167.532468,195.95399 170.12987,195.95399 170.12987,201.148796 175.324675,201.148796"/>
<polygon id="0x55c643cc3460" class="l0d0" points="201.298701,23.792868 196.103896,23.792868 196.103896,28.987673 193.506494,28.987673 193.506494,23.792868 188.311688,23.792868 188.311688,21.195465 193.506494,21.195465 193.506494,16.00066 196.103896,16.00066 196.103896,21.195465 201.298701,21.195465"/>
<polygon id="0x55c643a2e3f0" class="l0d0" points="201.298701,203.746198 196.103896,203.746198 196.103896,208.941003 193.506494,208.941003 193.506494,203.746198 188.311688,203.746198 188.311688,201.148796 193.506494,201.148796 193.506494,195.95399 196.103896,195.95399 196.103896,201.148796 201.298701,201.148796"/>
<polygon id="0x55c643b4f830" class="l0d0" points="227.272727,23.792868 222.077922,23.792868 222.077922,28.987673 219.480519,28.987673 219.480519,23.792868 214.285714,23.792868 214.285714,21.195465 219.480519,21.195465 219.480519,16.00066 222.077922,16.00066 222.077922,21.195465 227.272727,21.195465"/>
<polygon id="0x55c643b4f970" class="l0d0" points="227.272727,68.7812 222.077922,68.7812 222.077922,73.976005 219.480519,73.976005 219.480519,68.7812 214.285714,68.7812 214.285714,66.183798 219.480519,66.183798 219.480519,60.988993 222.077922,60.988993 222.077922,66.183798 227.272727,66.183798"/>
<polygon id="0x55c643b656b0" class="l0d0" points="227.272727,113.769533 222.077922,113.769533 222.077922,118.964338 219.480519,118.964338 219.480519,113.769533 214.285714,113.769533 214.285714,111.17213 219.480519,111.17213 219.480519,105.977325 222.077922,105.977325 222.077922,111.17213 227.272727,111.17213"/>
<polygon id="0x55c643b7a180" class="l0d0" points="227.272727,203.746198 222.077922,203.746198 222.077922,208.941003 219.480519,208.941003 219.480519,203.746198 214.285714,203.746198 214.285714,201.148796 219.480519,201.148796 219.480519,195.95399 222.077922,195.95399 222.077922,201.148796 227.272727,201.148796"/>
<polygon id="0x55c643bde030" class="l0d0" points="253.246753,23.792868 248.051948,23.792868 248.051948,28.987673 245.454545,28.987673 245.454545,23.792868 240.25974,23.792868 240.25974,21.195465 245.454545,21.195465 245.454545,16.00066 248.051948,16.00066 248.051948,21.195465 253.246753,21.195465"/>
<polygon id="0x55c643b2b580" class="l0d0" points="253.246753,68.7812 248.051948,68.7812 248.051948,73.976005 245.454545,73.976005 245.454545,68.7812 240.25974,68.7812 240.25974,66.183798 245.454545,66.183798 245.454545,60.988993 248.051948,60.988993 248.051948,66.183798 253.246753,66.183798"/>
<polygon id="0x55c643cf3b40" class="l0d0" points="253.246753,113.769533 248.051948,113.769533 248.051948,118.964338 245.454545,118.964338 245.454545,113.769533 240.25974,113.769533 240.25974,111.17213 245.454545,111.17213 245.454545,105.977325 248.051948,105.977325 248.051948,111.17213 253.246753,111.17213"/>
<polygon id="0x55c643cbcb30" class="l0d0" points="253.246753,158.757866 248.051948,158.757866 248.051948,163.952671 245.454545,163.952671 245.454545,158.757866 240.25974,158.757866 240.25974,156.160463 245.454545,156.160463 245.454545,150.965658 248.051948,150.965658 248.051948,156.160463 253.246753,156.160463"/>
<polygon id="0x55c643bf9fd0" class="l0d0" points="253.246753,203.746198 248.051948,203.746198 248.051948,208.941003 245.454545,208.941003 245.454545,203.746198 240.25974,203.746198 240.25974,201.148796 245.454545,201.148796 245.454545,195.95399 248.051948,195.95399 248.051948,201.148796 253.246753,201.148796"/>
<polygon id="0x55c643a30130" class="l1d0" points="51.948052,38.961039 51.948052,103.896104 90.909091,103.896104 90.909091,116.883117 103.896104,116.883117 103.896104,168.831169 90.909091,168.831169 90.909091,181.818182 25.974026,181.818182 25.974026,116.883117 51.948052,116.883117 51.948052,168.831169 77.922078,168.831169 77.922078,116.883117 51.948052,116.883117 25.974026,116.883117 25.974026,38.961039"/>
<polygon id="0x55c643b65720" class="l1d0" points="142.857143,155.844156 142.857143,129.87013 155.844156,129.87013 155.844156,116.883117 168.831169,116.883117 168.831169,38.961039 194.805195,38.961039 194.805195,116.883117 207.792208,116.883117 207.792208,129.87013 220.779221,129.87013 220.779221,155.844156 233.766234,155.844156 233.766234,181.818182 207.792208,181.818182 207.792208,155.844156 194.805195,155.844156 194.805195,129.87013 168.831169,129.87013 168.831169,155.844156 155.844156,155.844156 155.844156,181.818182 129.87013,181.818182 129.87013,155.844156"/>
</g>
</svg>