<?xml version="1.0" encoding="UTF-8"?>
<svg xmlns="http://www.w3.org/2000/svg" xmlns:xlink="http://www.w3.org/1999/xlink" width="300" height="180.560904" viewBox="-90.280452 -90.280452 300 180.560904">
<defs>
<style type="text/css">
.l0d0 {stroke: #F38400; fill: #F38400; fill-opacity: 0.5;}
</style>
</defs>
<rect x="-90.280452" y="-90.280452" width="300" height="180.560904" fill="none" stroke="none"/>
<g id="racetrack" transform="scale(1 -1)">
<polygon id="0x5573106e3a60" class="l0d0" points="34.101423,-42.626779 39.443975,-42.290654 44.702272,-41.287581 49.793387,-39.633377 54.637031,-37.354131 59.156816,-34.485789 63.281462,-31.073585 66.945921,-27.171332 70.092403,-22.84057 72.671286,-18.1496 74.6419,-13.172399 75.973165,-7.987462 76.644088,-2.676558 76.644088,2.676558 75.973165,7.987462 74.6419,13.172399 72.671286,18.1496 70.092403,22.84057 66.945921,27.171332 63.281462,31.073585 59.156816,34.485789 54.637031,37.354131 49.793387,39.633377 44.702272,41.287581 39.443975,42.290654 34.101423,42.626779 -34.101423,42.626779 -39.443975,42.290654 -44.702272,41.287581 -49.793387,39.633377 -54.637031,37.354131 -59.156816,34.485789 -63.281462,31.073585 -66.945921,27.171332 -70.092403,22.84057 -72.671286,18.1496 -74.6419,13.172399 -75.973165,7.987462 -76.644088,2.676558 -76.644088,-2.676558 -75.973165,-7.987462 -74.6419,-13.172399 -72.671286,-18.1496 -70.092403,-22.84057 -66.945921,-27.171332 -63.281462,-31.073585 -59.156816,-34.485789 -54.637031,-37.354131 -49.793387,-39.633377 -44.702272,-41.287581 -39.443975,-42.290654 -34.101423,-42.626779"/>
<polygon id="0x55731072b2f0" class="l0d0" points="196.083184,34.101423 195.747059,39.443975 194.743986,44.702272 193.089782,49.793387 190.810537,54.637031 187.942194,59.156816 184.52999,63.281462 180.627737,66.945921 176.296976,70.092403 171.606005,72.671286 166.628804,74.6419 161.443867,75.973165 156.132963,76.644088 150.779848,76.644088 145.468943,75.973165 140.284006,74.6419 135.306805,72.671286 130.615835,70.092403 126.285073,66.945921 122.38282,63.281462 118.970616,59.156816 116.102274,54.637031 113.823028,49.793387 112.168825,44.702272 111.165751,39.443975 110.829626,34.101423 110.829626,-34.101423 111.165751,-39.443975 112.168825,-44.702272 113.823028,-49.793387 116.102274,-54.637031 118.970616,-59.156816 122.38282,-63.281462 126.285073,-66.945921 130.615835,-70.092403 135.306805,-72.671286 140.284006,-74.6419 145.468943,-75.973165 150.779848,-76.644088 156.132963,-76.644088 161.443867,-75.973165 166.628804,-74.6419 171.606005,-72.671286 176.296976,-70.092403 180.627737,-66.945921 184.52999,-63.281462 187.942194,-59.156816 190.810537,-54.637031 193.089782,-49.793387 194.743986,-44.702272 195.747059,-39.443975 196.083184,-34.101423 196.083184,34.101423 179.032473,34.101423 179.032473,-34.101423 178.683648,-38.311106 177.646691,-42.405959 175.949885,-46.274286 173.639516,-49.810569 170.778604,-52.918348 167.445188,-55.51285 163.730194,-57.523304 159.734959,-58.89487 155.56846,-59.590136 151.34435,-59.590136 147.177852,-58.89487 143.182616,-57.523304 139.467622,-55.51285 136.134206,-52.918348 133.273294,-49.810569 130.962925,-46.274286 129.26612,-42.405959 128.229162,-38.311106 127.880338,-34.101423 127.880338,34.101423 128.229162,38.311106 129.26612,42.405959 130.962925,46.274286 133.273294,49.810569 136.134206,52.918348 139.467622,55.51285 143.182616,57.523304 147.177852,58.89487 151.34435,59.590136 155.56846,59.590136 159.734959,58.89487 163.730194,57.523304 167.445188,55.51285 170.778604,52.918348 173.639516,49.810569 175.949885,46.274286 177.646691,42.405959 178.683648,38.311106 179.032473,34.101423"/>
</g>
</svg>