<?xml version="1.0" encoding="UTF-8"?>
<svg xmlns="http://www.w3.org/2000/svg" xmlns:xlink="http://www.w3.org/1999/xlink" width="300" height="180.681818" viewBox="-90.340909 -90.340909 300 180.681818">
<defs>
<style type="text/css">
.l0d1 {fill:none;stroke:black;stroke-dasharray:8,8;}
.l0d0 {stroke: #F38400; fill: #F38400; fill-opacity: 0.5;}
.l3t2 {stroke:red;fill:none;font-size:32px;}
</style>
</defs>
<rect x="-90.340909" y="-90.340909" width="300" height="180.681818" fill="none" stroke="none"/>
<g id="racetrack" transform="scale(1 -1)">
<polygon id="0x563059717ea0" class="l0d0" points="34.090909,-42.613636 39.227415,-42.302935 44.28902,-41.375362 49.201913,-39.844442 53.894453,-37.732501 58.298214,-35.070335 62.348977,-31.896765 65.987674,-28.258068 69.161244,-24.207305 71.82341,-19.803544 73.935351,-15.111004 75.466271,-10.198111 76.393844,-5.136506 76.704545,0 76.393844,5.136506 75.466271,10.198111 73.935351,15.111004 71.82341,19.803544 69.161244,24.207305 65.987674,28.258068 62.348977,31.896765 58.298214,35.070335 53.894453,37.732501 49.201913,39.844442 44.28902,41.375362 39.227415,42.302935 -34.090909,42.613636 -39.227415,42.302935 -44.28902,41.375362 -49.201913,39.844442 -53.894453,37.732501 -58.298214,35.070335 -62.348977,31.896765 -65.987674,28.258068 -69.161244,24.207305 -71.82341,19.803544 -73.935351,15.111004 -75.466271,10.198111 -76.393844,5.136506 -76.704545,-0 -76.393844,-5.136506 -75.466271,-10.198111 -73.935351,-15.111004 -71.82341,-19.803544 -69.161244,-24.207305 -65.987674,-28.258068 -62.348977,-31.896765 -58.298214,-35.070335 -53.894453,-37.732501 -49.201913,-39.844442 -44.28902,-41.375362 -39.227415,-42.302935"/>
<polygon id="0x56305979cd90" class="l0d0" points="196.022727,34.090909 195.712026,39.227415 194.784452,44.28902 193.253533,49.201913 191.141592,53.894453 188.479426,58.298214 185.305856,62.348977 181.667159,65.987674 177.616395,69.161244 173.212635,71.82341 168.520095,73.935351 163.607202,75.466271 158.545597,76.393844 153.409091,76.704545 148.272585,76.393844 143.21098,75.466271 138.298087,73.935351 133.605547,71.82341 129.201786,69.161244 125.151023,65.987674 121.512326,62.348977 118.338756,58.298214 115.67659,53.894453 113.564649,49.201913 112.033729,44.28902 111.106156,39.227415 110.795455,-34.090909 111.106156,-39.227415 112.033729,-44.28902 113.564649,-49.201913 115.67659,-53.894453 118.338756,-58.298214 121.512326,-62.348977 125.151023,-65.987674 129.201786,-69.161244 133.605547,-71.82341 138.298087,-73.935351 143.21098,-75.466271 148.272585,-76.393844 153.409091,-76.704545 158.545597,-76.393844 163.607202,-75.466271 168.520095,-73.935351 173.212635,-71.82341 177.616395,-69.161244 181.667159,-65.987674 185.305856,-62.348977 188.479426,-58.298214 191.141592,-53.894453 193.253533,-49.201913 194.784452,-44.28902 195.712026,-39.227415 196.022727,34.090909 178.977273,34.090909 178.662486,-38.090654 177.725877,-41.991912 176.190508,-45.698621 174.094185,-49.119509 171.488526,-52.170344 168.437691,-54.776003 165.016803,-56.872326 161.310094,-58.407695 157.408836,-59.344304 153.409091,-59.659091 149.409346,-59.344304 145.508088,-58.407695 141.801379,-56.872326 138.380491,-54.776003 135.329656,-52.170344 132.723997,-49.119509 130.627674,-45.698621 129.092305,-41.991912 128.155696,-38.090654 127.840909,-34.090909 128.155696,38.090654 129.092305,41.991912 130.627674,45.698621 132.723997,49.119509 135.329656,52.170344 138.380491,54.776003 141.801379,56.872326 145.508088,58.407695 149.409346,59.344304 153.409091,59.659091 157.408836,59.344304 161.310094,58.407695 165.016803,56.872326 168.437691,54.776003 171.488526,52.170344 174.094185,49.119509 176.190508,45.698621 177.725877,41.991912 178.662486,38.090654 178.977273,34.090909"/>
</g>
</svg>