<?xml version="1.0" encoding="UTF-8"?>
<svg xmlns="http://www.w3.org/2000/svg" xmlns:xlink="http://www.w3.org/1999/xlink" width="300" height="123.863636" viewBox="-10.795455 -53.409091 300 123.863636">
<defs>
<style type="text/css">
.l0d0 {stroke: #F38400; fill: #F38400; fill-opacity: 0.5;}
</style>
</defs>
<rect x="-10.795455" y="-53.409091" width="300" height="123.863636" fill="none" stroke="none"/>
<g id="remove" transform="scale(1 -1)">
<polygon id="0x560813fc3220" class="l0d0" points="8.522727,8.522727 8.522727,25.568182 17.045455,25.568182 17.045455,28.409091 8.522727,28.409091 8.522727,36.931818 19.886364,36.931818 19.886364,39.772727 2.840909,39.772727 2.840909,8.522727"/>
<polygon id="0x560813ff6750" class="l0d0" points="34.090909,8.522727 45.454545,8.522727 45.454545,11.363636 39.772727,11.363636 39.772727,28.409091 28.409091,28.409091 28.409091,25.568182 34.090909,25.568182"/>
<polygon id="0x560813eddb10" class="l0d0" points="59.659091,8.522727 71.022727,8.522727 71.022727,11.363636 65.340909,11.363636 65.340909,39.772727 53.977273,39.772727 53.977273,36.931818 59.659091,36.931818"/>
<polygon id="0x560813f8ed00" class="l0d0" points="79.545455,28.409091 79.545455,25.568182 82.386364,25.568182 82.386364,11.363636 85.227273,11.363636 85.227273,8.522727 96.590909,8.522727 96.590909,11.363636 88.068182,11.363636 88.068182,25.568182 96.590909,25.568182 96.590909,28.409091 88.068182,28.409091 88.068182,36.931818 82.386364,36.931818 82.386364,28.409091"/>
<polygon id="0x560813f82e50" class="l0d0" points="107.954545,11.363636 107.954545,8.522727 119.318182,8.522727 119.318182,11.363636 110.795455,11.363636 110.795455,17.045455 122.159091,17.045455 122.159091,25.568182 119.318182,25.568182 119.318182,28.409091 107.954545,28.409091 107.954545,25.568182 105.113636,25.568182 105.113636,19.886364 110.795455,19.886364 110.795455,25.568182 116.477273,25.568182 116.477273,19.886364 110.795455,19.886364 105.113636,19.886364 105.113636,11.363636"/>
<polygon id="0x560813f6af80" class="l0d0" points="136.363636,8.522727 136.363636,25.568182 142.045455,25.568182 142.045455,19.886364 147.727273,19.886364 147.727273,25.568182 144.886364,25.568182 144.886364,28.409091 130.681818,28.409091 130.681818,8.522727"/>
<polygon id="0x560813f92cc0" class="l0d0" points="193.181818,39.772727 193.181818,28.409091 184.659091,28.409091 184.659091,25.568182 181.818182,25.568182 181.818182,11.363636 187.5,11.363636 187.5,25.568182 193.181818,25.568182 193.181818,11.363636 187.5,11.363636 181.818182,11.363636 184.659091,11.363636 184.659091,8.522727 198.863636,8.522727 198.863636,39.772727"/>
<polygon id="0x560814020e60" class="l0d0" points="224.431818,25.568182 221.590909,25.568182 221.590909,28.409091 210.227273,28.409091 210.227273,25.568182 207.386364,25.568182 207.386364,11.363636 213.068182,11.363636 213.068182,25.568182 218.75,25.568182 218.75,11.363636 213.068182,11.363636 207.386364,11.363636 210.227273,11.363636 210.227273,8.522727 221.590909,8.522727 221.590909,11.363636 224.431818,11.363636"/>
<polygon id="0x560813e95990" class="l0d0" points="232.954545,28.409091 232.954545,25.568182 235.795455,25.568182 235.795455,11.363636 238.636364,11.363636 238.636364,8.522727 250,8.522727 250,11.363636 241.477273,11.363636 241.477273,25.568182 250,25.568182 250,28.409091 241.477273,28.409091 241.477273,36.931818 235.795455,36.931818 235.795455,28.409091"/>
<polygon id="0x560813fc9630" class="l0d0" points="258.522727,19.886364 261.363636,19.886364 261.363636,17.045455 269.886364,17.045455 269.886364,11.363636 258.522727,11.363636 258.522727,8.522727 272.727273,8.522727 272.727273,11.363636 275.568182,11.363636 275.568182,17.045455 272.727273,17.045455 272.727273,19.886364 264.204545,19.886364 264.204545,25.568182 275.568182,25.568182 275.568182,28.409091 261.363636,28.409091 261.363636,25.568182 258.522727,25.568182"/>
<polygon id="0x560813fc8170" class="l0d0" points="8.522727,-48.295455 19.886364,-48.295455 19.886364,-45.454545 14.204545,-45.454545 14.204545,-28.409091 2.840909,-28.409091 2.840909,-31.25 8.522727,-31.25"/>
<polygon id="0x560813f5af80" class="l0d0" points="34.090909,-48.295455 34.090909,-31.25 39.772727,-31.25 39.772727,-48.295455 45.454545,-48.295455 45.454545,-31.25 42.613636,-31.25 42.613636,-28.409091 28.409091,-28.409091 28.409091,-48.295455"/>
<polygon id="0x560813f4e340" class="l0d0" points="85.227273,-48.295455 96.590909,-48.295455 96.590909,-45.454545 90.909091,-45.454545 90.909091,-28.409091 79.545455,-28.409091 79.545455,-31.25 85.227273,-31.25"/>
<polygon id="0x560813f4e3b0" class="l0d0" points="144.886364,-31.25 144.886364,-28.409091 133.522727,-28.409091 133.522727,-31.25 142.045455,-31.25 142.045455,-34.090909 133.522727,-34.090909 133.522727,-36.931818 130.681818,-36.931818 130.681818,-45.454545 136.363636,-45.454545 136.363636,-36.931818 142.045455,-36.931818 142.045455,-45.454545 136.363636,-45.454545 130.681818,-45.454545 133.522727,-45.454545 133.522727,-48.295455 147.727273,-48.295455 147.727273,-31.25"/>
<polygon id="0x560813fba120" class="l0d0" points="161.931818,-48.295455 161.931818,-31.25 167.613636,-31.25 167.613636,-48.295455 173.295455,-48.295455 173.295455,-31.25 170.454545,-31.25 170.454545,-28.409091 156.25,-28.409091 156.25,-48.295455"/>
<polygon id="0x560813fba190" class="l0d0" points="193.181818,-17.045455 193.181818,-28.409091 184.659091,-28.409091 184.659091,-31.25 181.818182,-31.25 181.818182,-45.454545 187.5,-45.454545 187.5,-31.25 193.181818,-31.25 193.181818,-45.454545 187.5,-45.454545 181.818182,-45.454545 184.659091,-45.454545 184.659091,-48.295455 198.863636,-48.295455 198.863636,-17.045455"/>
<polygon id="0x560813f231e0" class="l0d0" points="232.954545,-53.977273 232.954545,-56.818182 244.318182,-56.818182 244.318182,-53.977273 247.159091,-53.977273 247.159091,-28.409091 241.477273,-28.409091 241.477273,-53.977273"/>
<polygon id="0x560813f5a2d0" class="l0d0" points="269.886364,-36.931818 269.886364,-14.204545 264.204545,-14.204545 264.204545,-36.931818"/>
</g>
</svg>