<?xml version="1.0" encoding="UTF-8"?>
<svg xmlns="http://www.w3.org/2000/svg" xmlns:xlink="http://www.w3.org/1999/xlink" width="333.65583" height="670.214127" viewBox="-71.08318 -622.341699 333.65583 670.214127">
<defs>
<style type="text/css">
.l1d0 {stroke: #A1CAF1; fill: #A1CAF1; fill-opacity: 0.5;}
.l0d0 {stroke: #F38400; fill: #F38400; fill-opacity: 0.5;}
.l2d0 {stroke: #BE0032; fill: #BE0032; fill-opacity: 0.5;}
</style>
</defs>
<rect x="-71.08318" y="-622.341699" width="333.65583" height="670.214127" fill="none" stroke="none"/>
<g id="robust_paths" transform="scale(1 -1)">
<polygon id="0x55f11c003730" class="l1d0" points="-11.60544,565.765181 -11.60544,551.258382 -11.60544,536.751582 -11.60544,522.244783 -17.045489,493.231184 -21.760199,464.217585 -25.749569,435.203986 -29.013599,406.190387 -31.552289,377.176788 -33.365639,348.163189 -34.453649,319.14959 -34.816319,290.13599 -34.453649,261.122391 -33.365639,232.108792 -31.552289,203.095193 -29.013599,174.081594 -25.749569,145.067995 -21.760199,116.054396 -17.045489,87.040797 -11.60544,58.027198 -11.60544,43.520399 -11.60544,29.013599 -11.60544,14.5068 -11.60544,0 -11.60544,-11.605444 48.602526,-11.137842 63.859693,-10.872188 78.884806,-10.303648 93.52092,-9.286348 107.616112,-7.669178 114.414606,-6.58618 121.022706,-5.292348 127.422087,-3.76546 133.593951,-1.981992 139.518444,0.083052 145.173769,2.456139 150.534987,5.164816 155.572589,8.236671 160.251228,11.697315 164.529337,15.567356 168.360628,19.858945 171.698075,24.573342 174.499692,29.701377 176.73383,35.227671 178.381407,41.137295 179.434099,47.421937 179.903628,54.845095 183.292835,57.267694 189.575661,62.607364 200.285832,73.509514 204.973893,78.090666 209.441385,81.8161 218.33089,88.054736 220.496271,89.835503 222.507598,91.88967 224.232704,94.274861 225.515365,96.987797 226.210186,99.946216 226.22736,102.998806 225.564567,105.965875 224.307834,108.693545 222.600851,111.095629 220.60028,113.165197 216.215077,116.561563 211.760561,119.593448 207.333764,122.950575 202.784297,127.074211 192.605958,137.548563 186.673998,143.08993 183.456275,145.702614 180.074814,148.135182 176.546686,150.351303 172.900574,152.335776 165.41618,155.663816 151.081792,161.093353 147.935485,162.542098 145.057371,164.122026 142.480381,165.855097 140.226473,167.746698 138.30756,169.786379 136.727727,171.948073 135.484209,174.189971 134.565414,176.456421 133.587159,180.817409 133.402173,184.696766 133.411483,191.786967 133.506368,195.576647 134.295008,199.859533 135.095159,202.118802 136.212405,204.377271 137.662772,206.575439 139.452009,208.665765 141.578621,210.616127 144.033946,212.410121 146.800096,214.046991 153.139409,216.928224 167.737558,222.459727 175.163061,226.038427 178.740333,228.166427 182.180602,230.519361 188.575477,235.766733 194.308284,241.358045 204.212781,251.46944 208.704137,255.329815 217.592126,261.588377 219.786148,263.297175 221.861707,265.251624 223.698923,267.523272 225.146665,270.132078 226.051041,273.022652 226.299035,276.063509 225.85733,279.078546 224.784569,281.899502 223.209997,284.414667 221.290766,286.591441 216.959701,290.123319 208.074921,296.427313 203.55906,300.407108 193.532341,310.694509 187.708922,316.269415 184.547543,318.930997 181.219353,321.428577 177.737482,323.719648 174.126847,325.781606 166.669831,329.241838 152.183031,334.714998 145.984688,337.6607 143.304339,339.34132 140.94096,341.18047 138.909584,343.17291 137.216684,345.297808 135.861839,347.518553 134.836799,349.783647 134.121816,352.031565 133.463345,356.249307 133.457471,363.505817 133.400591,367.083441 133.666002,371.034124 134.093954,373.198827 134.794383,375.444252 135.803514,377.70999 137.141781,379.934249 138.817902,382.064876 140.832633,384.064484 143.179869,385.911465 145.845056,387.599805 152.01816,390.557343 166.483829,396.022335 173.94557,399.462457 177.561728,401.512899 181.050646,403.792992 184.38684,406.281213 190.557411,411.700113 201.090036,422.494742 205.728816,426.931963 210.177778,430.529887 219.063207,436.786324 221.189614,438.64925 223.121909,440.809791 224.71725,443.308332 225.818277,446.116179 226.29328,449.125275 226.079369,452.169156 225.205321,455.070794 223.780977,457.695509 221.959296,459.983905 219.892384,461.952661 215.469731,465.234653 211.023394,468.277862 206.589199,471.740777 202.001018,476.010341 191.662512,486.6483 185.620183,492.141032 182.346717,494.698861 178.913881,497.062344 175.342698,499.201809 167.923434,502.801622 153.30763,508.345278 146.944468,511.215923 144.163605,512.845289 141.692406,514.631402 139.549271,516.57429 137.743263,518.658319 136.276208,520.852152 135.142766,523.108965 134.327521,525.369689 133.515269,529.663345 133.462092,537.001158 133.575136,544.420344 134.52804,548.771965 135.43129,551.038014 136.658392,553.28253 138.221472,555.449299 140.123659,557.495755 142.36121,559.395051 144.922651,561.135967 147.786562,562.723089 154.282457,565.536908 168.989639,571.161694 173.071285,573.090899 177.053435,575.288035 179.546009,576.772947 176.576185,581.758096 174.083611,580.273184 167.325669,576.772175 160.184925,573.890181 152.895861,571.218122 145.822787,568.226184 142.505764,566.452566 139.416301,564.435202 136.616067,562.158694 134.161417,559.636832 132.096271,556.913121 130.445515,554.056306 129.210888,551.152528 128.369291,548.296391 127.872247,545.581834 127.646385,543.091881 127.627803,538.972588 127.600679,531.916077 128.003682,527.037688 128.608622,524.265938 129.5771,521.383257 130.949114,518.484855 132.739389,515.663514 134.938188,513.000554 137.513679,510.557063 140.416984,508.366906 143.589235,506.433834 146.96831,504.733648 154.106827,501.832268 161.393528,499.160474 168.482606,496.198704 175.161621,492.571009 178.319153,490.452478 184.267788,485.644862 189.77108,480.323573 199.899626,469.961247 204.785323,465.710206 213.89626,459.262896 217.427414,456.32913 218.748363,454.770342 219.716171,453.135982 220.305549,451.440387 220.503353,449.710785 220.305549,447.981183 219.716171,446.285589 218.748363,444.651228 217.427414,443.092441 213.89626,440.158674 204.785323,433.711364 199.899626,429.460324 189.77108,419.097997 184.267788,413.776709 178.319153,408.969092 175.161621,406.850562 171.880925,404.93844 164.979522,401.677505 150.493321,396.201476 143.589235,392.987737 140.416984,391.054665 137.513679,388.864507 134.938188,386.421016 132.739389,383.758056 130.949114,380.936716 129.5771,378.038313 128.608622,375.155632 128.003682,372.383883 127.69701,369.811015 127.614764,365.497797 127.597997,358.536714 127.872247,353.839736 128.369291,351.12518 129.210888,348.269043 130.445515,345.365265 132.096271,342.50845 134.161417,339.784738 136.616067,337.262876 139.416301,334.986368 142.505764,332.969004 145.822787,331.195387 152.895861,328.203449 160.184925,325.531389 167.325669,322.649395 174.081594,319.14959 177.280431,317.099888 183.309205,312.410378 188.881105,307.14665 199.079293,296.664705 203.975806,292.280447 208.767676,288.688123 213.215542,285.661869 216.915077,282.750517 218.345622,281.216955 219.434652,279.607011 220.152158,277.929313 220.481342,276.207474 220.415359,274.473945 219.955541,272.763527 219.111741,271.106398 217.904813,269.521884 216.369607,268.01219 212.514123,265.113029 207.98375,262.021038 203.16396,258.303312 198.25671,253.788898 187.98093,243.211187 182.337797,238.017349 176.22792,233.452222 172.987964,231.471542 166.157705,228.094379 151.690704,222.593175 144.695674,219.496848 141.447574,217.645327 138.447797,215.541918 135.756956,213.180587 133.428084,210.585226 131.49939,207.808469 129.988358,204.925825 128.888555,202.027257 128.168453,199.208184 127.615542,194.159768 127.640453,190.228793 127.615542,183.01702 128.168453,177.968604 128.888555,175.149531 129.988358,172.250962 131.49939,169.368318 133.428084,166.591562 135.756956,163.996201 138.447797,161.634869 141.447574,159.53146 144.695674,157.67994 151.690704,154.583612 166.157705,149.082409 172.987964,145.705246 176.22792,143.724565 179.344133,141.538063 185.213863,136.619842 190.651455,131.253923 200.718089,121.033811 205.591844,116.917593 214.554153,110.619827 217.904813,107.654904 219.111741,106.070389 219.955541,104.413261 220.415359,102.702843 220.481342,100.969314 220.152158,99.247474 219.434652,97.569777 218.345622,95.959833 216.915077,94.426271 213.215542,91.514918 208.767676,88.488664 203.975806,84.896341 199.079293,80.512083 188.881105,70.030137 183.309205,64.76641 177.280431,60.0769 174.081856,58.066156 173.663608,53.33106 172.951446,48.893418 171.553191,43.385595 169.681322,38.394391 167.370963,33.900245 164.655082,29.876642 161.561454,26.2913 158.110988,23.10919 154.318206,20.296102 150.193387,17.821242 145.745159,15.658213 140.982553,13.784653 135.916139,12.181231 130.55838,10.83057 124.923534,9.716387 119.027337,8.822901 112.886659,8.134481 99.94318,7.310002 86.240272,7.115758 71.929008,7.421941 42.087051,9.005353 11.60544,10.982247 11.60544,14.5068 11.60544,29.013599 11.60544,43.520399 11.60544,58.027198 17.045489,87.040797 21.760199,116.054396 25.749569,145.067995 29.013599,174.081594 31.552289,203.095193 33.365639,232.108792 34.453649,261.122391 34.816319,290.13599 34.453649,319.14959 33.365639,348.163189 31.552289,377.176788 29.013599,406.190387 25.749569,435.203986 21.760199,464.217585 17.045489,493.231184 11.60544,522.244783 11.60544,536.751582 11.60544,551.258382 11.60544,565.765181 11.60544,580.271981 11.60544,591.877421 -11.60544,591.877421 -11.60544,580.271981"/>
<polygon id="0x55f11bfd0ab0" class="l0d0" points="-2.90136,565.765181 -2.90136,551.258382 -2.90136,536.751582 -2.90136,522.52687 -1.726769,514.973622 -1.551053,511.655798 -1.764046,508.391532 -2.397101,505.108828 -3.437702,501.747085 -6.381451,494.676427 -7.946129,490.941213 -9.272439,487.047901 -10.106097,482.982111 -10.204566,478.779602 -9.416579,474.55569 -7.756578,470.438299 -5.372746,466.478856 -2.47784,462.663244 3.778664,455.375632 6.521047,451.914959 8.594888,448.642062 9.792972,445.640935 10.083065,442.899273 9.474274,440.156184 7.826421,437.151249 5.071549,433.878988 1.369497,430.432348 -7.544638,423.237573 -11.957206,419.50455 -15.808697,415.621468 -17.408189,413.585907 -18.725054,411.456638 -19.697899,409.211986 -20.251561,406.853704 -20.317032,404.430737 -19.871883,402.030208 -18.954392,399.725842 -17.630279,397.541913 -15.958476,395.464605 -11.747613,391.528785 -6.653068,387.760098 4.559636,380.471093 9.698924,376.936772 13.842315,373.536646 15.395553,371.929374 16.547935,370.425183 17.292397,369.062647 17.667457,367.857621 17.738691,366.75452 17.527141,365.625213 16.975878,364.361401 16.013578,362.939229 14.611581,361.389053 10.573554,358.052323 5.222879,354.55184 -7.335001,347.329646 -13.429354,343.624041 -18.71498,339.800523 -20.923234,337.803635 -22.779251,335.706363 -24.2237,333.460226 -25.161871,331.029266 -25.470133,328.455059 -25.085118,325.886745 -24.073665,323.468656 -22.555602,321.235165 -20.618965,319.147423 -18.31787,317.156996 -12.798432,313.340065 -6.400637,309.635761 6.918449,302.404024 12.657486,298.890801 17.014349,295.536218 18.5248,293.98082 19.547665,292.567899 20.111209,291.344732 20.306126,290.292219 20.206285,289.268724 19.768967,288.106219 18.895296,286.748647 17.535755,285.23167 13.439485,281.916892 7.879686,278.420613 -5.358119,271.206318 -11.849162,267.513568 -17.534406,263.720349 -19.940033,261.752297 -21.994948,259.699538 -23.650624,257.516885 -24.831848,255.157561 -25.423911,252.625026 -25.330609,250.033548 -24.575505,247.547963 -23.276297,245.246117 -21.540762,243.107998 -19.436903,241.084451 -14.316189,237.232755 -8.316857,233.513796 4.304397,226.273123 9.815529,222.756516 14.087186,219.384974 15.624507,217.803262 16.722899,216.336947 17.395878,215.02277 17.704606,213.8595 17.719561,212.763356 17.445642,211.600353 16.822432,210.287501 15.798148,208.823478 12.557978,205.586095 8.015742,202.128758 -3.016109,194.930849 -8.48532,191.22652 -13.314838,187.41253 -15.374811,185.436002 -17.145058,183.386623 -18.582945,181.238361 -19.634093,178.971189 -20.232498,176.594761 -20.326571,174.168876 -19.918772,171.782756 -19.067897,169.500705 -17.850761,167.337294 -16.333469,165.275331 -12.602734,161.359346 -3.672096,153.955963 0.72745,150.38665 4.551214,146.919877 7.469035,143.614477 9.290418,140.563189 10.049384,137.79027 9.896401,135.070988 8.841784,132.116505 6.894457,128.880551 4.237401,125.44416 -1.997526,118.191227 -4.950001,114.395391 -7.428435,110.460109 -9.213006,106.366191 -10.141906,102.151745 -10.175127,97.936685 -9.441017,93.845267 -8.174394,89.925445 -5.048584,82.54909 -3.632442,79.057388 -2.533264,75.679768 -1.834672,72.388079 -1.557414,69.125757 -1.676308,65.820522 -2.788869,58.877189 -2.90136,57.745111 -2.90136,43.238311 -2.90136,28.731512 -2.90136,14.224712 -2.90136,-0.282087 -2.90136,-2.93691 57.703184,-2.998414 72.676067,-2.752879 87.24914,-2.125352 101.258428,-0.975795 114.539673,0.83653 120.855655,2.035428 126.927401,3.453144 132.733767,5.107441 138.253275,7.016029 143.464015,9.196446 148.34357,11.665878 152.869011,14.440892 157.017048,17.537115 160.764417,20.968976 164.088527,24.74967 166.968199,28.891572 169.384175,33.407105 171.319052,38.309796 172.756611,43.615026 173.680877,49.340155 174.013026,53.594254 174.081302,58.068356 180.83752,61.527004 187.978264,64.408998 195.267328,67.081058 202.340402,70.072996 205.657425,71.846613 208.746887,73.863977 211.547122,76.140485 214.001772,78.662347 216.066917,81.386058 217.717673,84.242873 218.9523,87.146651 219.793897,90.002788 220.290942,92.717345 220.565191,97.414323 220.548425,104.375405 220.466179,108.688624 220.159506,111.261492 219.554567,114.033241 218.586088,116.915922 217.214074,119.814325 215.423799,122.635665 213.225001,125.298625 210.649509,127.742116 207.746205,129.932273 204.573953,131.865345 197.669868,135.079085 183.183666,140.555114 176.282264,143.816048 173.001568,145.72817 169.844036,147.846701 163.895401,152.654317 158.392109,157.975606 148.263563,168.337933 143.377865,172.588973 134.266929,179.036283 130.735775,181.970049 129.414826,183.528837 128.447018,185.163198 127.85764,186.858792 127.659836,188.588394 127.85764,190.317996 128.447018,192.01359 129.414826,193.647951 130.735775,195.206738 134.266929,198.140505 143.377865,204.587815 148.263563,208.838855 158.392109,219.201182 163.895401,224.52247 169.844036,229.330087 173.001568,231.448617 179.680583,235.076313 186.769661,238.038083 194.056361,240.709877 201.194879,243.611257 204.573953,245.311442 207.746205,247.244515 210.649509,249.434672 213.225001,251.878163 215.423799,254.541123 217.214074,257.362463 218.586088,260.260866 219.554567,263.143547 220.159506,265.915296 220.56251,270.793686 220.535386,277.850196 220.516804,281.969489 220.290942,284.459443 219.793897,287.173999 218.9523,290.030136 217.717673,292.933914 216.066917,295.79073 214.001772,298.514441 211.547122,301.036303 208.746887,303.312811 205.657425,305.330175 202.340402,307.103792 195.267328,310.09573 187.978264,312.76779 180.83752,315.649784 174.081594,319.14959 170.882757,321.199291 164.853983,325.888802 159.282083,331.152529 149.083896,341.634474 144.187382,346.018733 139.395512,349.611056 134.947646,352.63731 131.248112,355.548663 129.817566,357.082224 128.728537,358.692168 128.01103,360.369866 127.681846,362.091705 127.74783,363.825234 128.207647,365.535652 129.051447,367.192781 130.258375,368.777295 133.609036,371.742219 142.571344,378.039985 147.445099,382.156203 157.511734,392.376314 162.949326,397.742234 168.819056,402.660454 171.935269,404.846957 175.175225,406.827637 182.005484,410.2048 196.472484,415.706004 203.467514,418.802331 206.715615,420.653852 209.715392,422.757261 212.406232,425.118593 214.735105,427.713953 216.663799,430.49071 218.17483,433.373354 219.274633,436.271922 219.994735,439.090995 220.547647,444.139411 220.522736,451.351184 220.547647,455.282159 219.994735,460.330575 219.274633,463.149649 218.17483,466.048217 216.663799,468.930861 214.735105,471.707617 212.406232,474.302978 209.715392,476.66431 206.715615,478.767719 203.467514,480.619239 196.472484,483.715567 182.005484,489.21677 175.175225,492.593933 171.935269,494.574614 165.825391,499.139741 160.182258,504.333578 149.906479,514.91129 144.999229,519.425703 140.179438,523.14343 135.649066,526.23542 131.793582,529.134581 130.258375,530.644276 129.051447,532.22879 128.207647,533.885918 127.74783,535.596336 127.681846,537.329865 128.01103,539.051705 128.728537,540.729402 129.817566,542.339346 131.248112,543.872908 134.947646,546.784261 139.395512,549.810515 144.187382,553.402838 149.083896,557.787096 159.282083,568.269042 162.714719,571.606289 166.315991,574.772087 170.102425,577.677634 174.08361,580.273185 175.129213,581.351277 175.495686,582.807733 175.084833,584.252297 174.006742,585.2979 172.550286,585.664373 171.105721,585.25352 166.890983,582.513715 162.897849,579.473763 159.149061,576.212752 155.642692,572.838098 145.450074,562.347803 140.89728,558.210895 136.47001,554.844604 132.016185,551.812482 127.626912,548.427451 125.619679,546.367384 123.90149,543.975702 122.628747,541.257081 121.946206,538.295293 121.942229,535.24265 122.617353,532.278859 123.88409,529.556825 125.598083,527.16123 127.602825,525.097597 129.765098,523.309737 138.654516,517.071064 143.120094,513.357613 147.803455,508.789475 158.497091,497.895993 164.769661,492.54853 168.154105,490.119797 171.684776,487.908007 175.332783,485.927931 179.059327,484.171156 193.7753,478.536527 200.284999,475.728385 203.157666,474.145699 205.728688,472.409615 207.976315,470.515055 209.888803,468.472764 211.462198,466.309107 212.699406,464.066187 213.612221,461.799873 214.580707,457.442457 214.760723,453.567752 214.701317,450.013899 214.653453,442.684157 213.855772,438.397111 213.049831,436.137265 211.926367,433.879415 210.469589,431.682898 208.673909,429.594983 206.540946,427.647488 204.079517,425.856521 201.307706,424.222539 194.959204,421.345398 180.354211,415.809295 172.931079,412.222499 169.356137,410.090092 165.918718,407.733097 162.640205,405.180556 156.587723,399.693003 146.234169,389.041331 141.642202,384.758401 137.207083,381.285248 132.761533,378.240062 128.33619,374.967444 126.263918,373.007519 124.432626,370.729442 122.993829,368.114507 122.101072,365.219643 121.866163,362.177572 122.320679,359.164768 123.40434,356.348816 124.986937,353.84003 126.91123,351.669504 129.033508,349.798591 137.91816,343.538596 142.365694,339.951888 147.000213,335.527943 157.517008,324.744501 163.67734,319.319045 167.008609,316.825049 170.493195,314.538189 174.105963,312.480656 181.564821,309.02817 196.043563,303.558218 202.232233,300.607989 204.906764,298.924406 207.263945,297.082245 209.288927,295.087045 210.975381,292.959936 212.323854,290.737825 213.342776,288.472466 214.052157,286.225488 214.487701,284.05756 214.762418,280.099071 214.70637,276.518593 214.703681,269.268729 214.058609,265.058272 213.352599,262.811871 212.337361,260.546363 210.992727,258.323439 209.31016,256.195002 207.289032,254.198143 204.935589,252.354168 202.26457,250.668797 196.081745,247.715827 181.607897,242.247767 174.147944,238.799938 170.533898,236.745072 167.04768,234.460755 163.714557,231.968925 160.548016,229.311549 154.714773,223.73907 144.674566,213.433679 140.15585,209.440883 131.271435,203.130514 126.934655,199.61187 125.007338,197.445105 123.41993,194.940168 122.329724,192.127252 121.867496,189.115824 122.094511,186.073053 122.980245,183.175626 124.413624,180.557007 126.241318,178.275052 128.311587,176.311813 130.503382,174.59688 139.391651,168.34166 143.880606,164.493872 153.772377,154.402205 159.495579,148.809803 165.880248,143.553482 169.315946,141.194044 172.889478,139.058982 180.311165,135.467296 194.920247,129.928379 201.274271,127.05369 204.04949,125.421445 206.514595,123.632304 208.651384,121.68654 210.450949,119.600082 211.911591,117.40457 213.038806,115.147103 213.848243,112.88692 214.651391,108.59738 214.752667,104.800923 214.760537,97.711507 214.583491,93.839599 213.620876,89.484352 212.711661,87.21813 211.478255,84.974604 209.90874,82.809773 208.000125,80.765912 205.756286,78.869569 203.188865,77.131669 200.319487,75.547317 197.180761,74.095064 182.861458,68.668176 175.375093,65.351793 168.278874,61.324072 168.238711,54.391426 167.77741,48.861985 166.85164,43.809887 165.48906,39.199825 163.710697,34.991306 161.528769,31.142367 158.947066,27.614652 155.964224,24.377702 152.578455,21.410552 148.791613,18.700394 144.61123,16.23958 140.050568,14.022533 135.127479,12.043508 129.862935,10.295379 124.279729,8.769206 118.401516,7.454263 105.855587,5.407722 92.414139,4.044165 78.260874,3.239805 63.573915,2.864013 2.90136,2.93691 2.90136,14.219538 2.90136,28.726338 2.90136,43.233138 2.901444,57.740571 3.803411,62.769803 4.200548,66.656582 4.184373,70.627385 3.669623,74.616306 2.671966,78.553307 -0.270074,86.111048 -3.166967,93.142028 -4.085464,96.415809 -4.459179,99.525388 -4.220057,102.547614 -3.308994,105.618134 -1.676426,108.832139 0.642439,112.201617 3.493599,115.700782 9.757007,123.033474 12.555622,126.910184 14.698899,131.017334 15.411736,133.181549 15.818888,135.415741 15.87692,137.693324 15.564098,139.970563 14.88839,142.203597 13.880149,144.36588 12.577658,146.451994 9.236788,150.433085 5.152348,154.239814 0.645313,157.93765 -8.066071,165.072152 -11.416322,168.442425 -13.59697,171.530912 -14.198965,172.912906 -14.499224,174.181281 -14.532276,175.385003 -14.302969,176.611203 -13.773065,177.933589 -12.894822,179.376412 -11.645092,180.925846 -8.083723,184.243477 -3.368546,187.728216 2.068728,191.303871 13.143052,198.665141 17.828479,202.518457 19.776869,204.537922 21.397571,206.660485 22.626447,208.924719 23.371065,211.346457 23.530687,213.870077 23.068882,216.367428 22.047471,218.730244 20.563026,220.934707 18.689455,223.011184 16.476383,224.998855 11.20093,228.817701 5.121186,232.523999 -7.449194,239.749255 -12.811572,243.248779 -16.821271,246.572668 -18.178679,248.102042 -19.072144,249.482528 -19.539507,250.678186 -19.668055,251.730643 -19.506247,252.789069 -18.994257,253.997764 -18.041188,255.391048 -16.609259,256.930059 -12.403955,260.264662 -6.779237,263.767859 -0.284161,267.351018 12.950287,274.684542 18.578292,278.487506 20.943964,280.46614 22.949903,282.537494 24.542956,284.751349 25.636657,287.154969 26.103434,289.729208 25.854734,292.332384 24.941085,294.796496 23.491418,297.06554 21.606899,299.175205 19.34802,301.178176 13.889904,305.0065 7.52478,308.715227 -5.814051,315.952421 -11.611519,319.471585 -16.069279,322.842742 -17.648255,324.416636 -18.748857,325.860614 -19.389657,327.127905 -19.649756,328.222009 -19.611446,329.257244 -19.259189,330.398432 -18.505021,331.723368 -17.291824,333.212011 -15.621891,334.815204 -11.088616,338.216951 -5.383637,341.751412 7.280684,349.017565 13.132701,352.75438 18.037237,356.636283 20.020769,358.681314 21.632401,360.84176 22.807267,363.154354 23.452658,365.61784 23.486905,368.148396 22.914314,370.612037 21.824443,372.925813 20.317273,375.08843 18.464908,377.135814 16.319428,379.104376 11.338505,382.900407 5.787898,386.5895 -5.099979,393.758318 -9.461112,397.197694 -12.547056,400.425123 -13.539604,401.90351 -14.1732,403.262984 -14.490315,404.513218 -14.53691,405.71403 -14.322647,406.954645 -13.818028,408.299348 -11.838069,411.327463 -8.64944,414.664927 -4.584607,418.167199 4.471982,425.452495 8.644521,429.239149 12.119682,433.187195 13.505758,435.250972 14.609426,437.389372 15.392187,439.602241 15.81976,441.8699 15.875819,444.152481 15.573051,446.403991 14.949716,448.591436 14.055467,450.702841 11.647418,454.720233 8.699691,458.537206 5.534458,462.218876 -0.227566,469.248558 -2.321303,472.566643 -3.70319,475.72609 -4.375121,478.765027 -4.396838,481.803383 -3.825314,484.965401 -2.744917,488.299017 -1.307897,491.794148 1.806091,499.191249 3.065436,503.067052 3.904694,507.028777 4.243929,511.019853 4.103376,514.968 2.90136,522.532044 2.90136,536.751582 2.90136,551.258382 2.90136,565.765181 2.90136,580.271981 2.512651,581.722661 1.45068,582.784632 0,583.173341 -1.45068,582.784632 -2.512651,581.722661 -2.90136,580.271981"/>
<polygon id="0x55f11bc4f5e0" class="l2d0" points="-17.408159,565.765181 -17.408159,551.258382 -17.408159,536.751582 -17.408159,522.819309 -22.860037,493.666726 -27.583298,464.513598 -31.577942,435.358932 -34.843866,406.202963 -37.380983,377.045939 -39.189224,347.888116 -40.268541,318.729758 -40.618902,289.571134 -40.240298,260.412515 -39.13274,231.254172 -37.296258,202.096375 -34.730903,172.939387 -31.436744,143.783464 -27.413868,114.628854 -22.761345,86.040522 -17.408277,57.453888 -17.408159,42.945872 -17.408159,28.439073 -17.408159,13.932273 -17.408159,-0.574526 -17.408159,-15.081326 -17.408159,-17.408149 42.706918,-16.995517 58.070679,-16.80782 73.32302,-16.370292 88.312546,-15.534382 102.897309,-14.143589 116.944899,-12.028136 123.727984,-10.639858 130.329877,-8.995998 136.734214,-7.066953 142.922691,-4.820112 148.873353,-2.219856 154.558243,0.771702 159.940653,4.19263 164.97272,8.07722 169.594856,12.450123 173.73883,17.31984 177.335451,22.674469 180.325227,28.483101 182.667621,34.704049 184.344382,41.297019 185.139053,46.257138 185.592521,51.390074 199.092663,59.774727 205.475799,64.091516 211.45967,68.532514 216.945659,73.15474 221.841738,78.048475 226.038183,83.345027 227.822617,86.192885 229.355797,89.195621 230.595026,92.357881 231.491917,95.66615 232.000832,99.083396 232.090919,102.550529 231.756292,105.997035 231.018154,109.357226 229.917424,112.584051 228.502645,115.654432 226.819606,118.566242 224.905917,121.331171 220.493223,126.495662 215.416905,131.299279 209.777563,135.861551 203.66762,140.261973 190.459689,148.755576 163.764492,164.957416 157.888939,168.833569 152.634898,172.599077 148.145819,176.205483 144.548824,179.574867 141.932711,182.589561 140.301601,185.098746 139.510143,186.989157 139.27065,188.358001 139.371427,189.625534 139.917552,191.289729 141.20484,193.571801 143.442703,196.413873 146.676415,199.665425 150.842103,203.193431 155.823484,206.90588 167.668362,214.673956 194.6704,231.029719 201.258095,235.283946 207.519917,239.637382 213.348199,244.131053 218.647917,248.831779 223.325062,253.843253 225.393626,256.509281 227.253866,259.308591 228.87512,262.258506 230.217551,265.368046 231.233991,268.630544 231.876647,272.017073 232.108371,275.475158 231.914226,278.93642 231.306786,282.331736 230.32165,285.606768 229.006167,288.730439 227.407911,291.69433 225.567505,294.506379 221.277908,299.745419 216.304517,304.599725 210.752703,309.19572 204.714456,313.61901 191.593405,322.141153 164.79367,338.38448 158.829044,342.275841 153.461191,346.062524 148.835173,349.699918 145.081882,353.115817 142.298929,356.199567 140.508997,358.803511 139.595126,360.798592 139.284526,362.233147 139.330605,363.479572 139.783091,365.052628 140.927766,367.230516 143.00006,369.989207 146.070138,373.182813 150.087654,376.672212 154.942339,380.358732 166.606999,388.095353 193.549142,404.410037 200.179652,408.650437 206.50366,412.985035 212.411071,417.451525 217.805181,422.111666 222.593352,427.062336 224.725988,429.688364 226.65864,432.441097 228.363529,435.339257 229.803866,438.395396 230.934446,441.608923 231.706612,444.95884 232.078266,448.400147 232.026042,451.868348 231.553355,455.292678 230.689174,458.612474 229.478332,461.788557 227.969389,464.805475 226.205751,467.666564 222.04373,472.984569 217.176083,477.893093 211.714308,482.525162 205.750527,486.972789 199.382829,491.294223 185.897235,499.6852 172.305095,507.828528 159.785738,515.715246 154.30812,519.521885 149.548837,523.188289 145.642053,526.647638 142.693052,529.79624 140.741149,532.49098 139.696868,534.591603 139.307499,536.102648 139.300454,537.343364 139.668058,538.833087 140.676879,540.905603 142.585402,543.576576 145.490304,546.708317 149.356513,550.156387 154.080685,553.815253 159.52948,557.616694 172.011244,565.496637 180.029309,570.306495 177.055452,575.289238 166.369874,568.853548 153.987364,560.865652 148.583362,556.950126 143.88339,553.117563 140.003766,549.40887 137.031848,545.885149 135.000316,542.622368 133.854571,539.670655 133.464664,536.964332 133.744623,534.279648 134.759351,531.376183 136.642314,528.161756 139.463445,524.674743 143.202095,520.991092 147.777574,517.175188 153.077066,513.270935 158.97048,509.305974 185.610311,493.078967 198.717168,484.773863 204.733608,480.550696 210.233351,476.254505 215.11281,471.850146 219.275357,467.283512 222.614488,462.481498 223.931958,459.969381 224.984316,457.377375 225.745285,454.711004 226.190014,451.987368 226.301004,449.23492 226.073485,446.488648 225.517052,443.782093 224.652455,441.140096 223.505637,438.575574 222.102318,436.090644 220.464959,433.680067 216.558954,429.04505 211.903519,424.594576 206.595931,420.267668 200.736481,416.023529 194.436924,411.836678 167.469243,395.444514 154.947365,387.442745 149.438555,383.516207 144.612629,379.667463 140.589193,375.93446 137.461823,372.374808 135.274681,369.063458 133.98917,366.060072 133.482518,363.324825 133.650431,360.655571 134.533223,357.799739 136.263996,354.636762 138.928049,351.190004 142.518185,347.534101 146.961402,343.736666 152.148908,339.844852 157.952856,335.888608 170.848283,327.848146 184.478446,319.683069 197.672148,311.390701 203.763779,307.177311 209.357141,302.895299 214.346749,298.512154 218.635594,293.97723 222.120635,289.21989 223.52101,286.734022 224.664589,284.168537 225.525629,281.525662 226.07821,278.818459 226.301686,276.071902 226.186623,273.319598 225.737963,270.596502 224.973332,267.930949 223.91763,265.339893 222.597122,262.828731 219.252656,258.028366 215.0855,253.462912 210.202019,249.059344 204.698847,244.763682 198.679636,240.540878 192.260435,236.369332 165.278396,220.018715 153.043271,212.045349 147.747758,208.141532 143.176999,204.326273 139.443671,200.643591 136.628201,197.157993 134.750769,193.945403 133.740875,191.043705 133.464992,188.359706 133.859061,185.652449 135.009785,182.698895 137.046911,179.434331 140.024459,175.909276 143.909319,172.199676 148.613895,168.36651 154.021744,164.450574 160.000721,160.47735 186.738426,144.229216 199.751028,135.910835 205.689055,131.677299 211.092311,127.365968 215.858974,122.938898 219.892338,118.338477 223.081558,113.489756 224.313473,110.951008 225.271657,108.333069 225.929742,105.645102 226.264628,102.908235 226.262586,100.153853 225.923705,97.417404 225.261859,94.730178 224.300224,92.11316 223.065173,89.575377 219.870469,84.728376 215.83239,80.129211 211.06161,75.702988 205.654821,71.392221 199.713909,67.15907 193.352773,62.980063 179.821879,54.830448 179.510298,50.363562 178.939027,46.0796 177.590739,39.961568 175.666767,34.258726 173.184863,28.978949 170.172627,24.132131 166.667092,19.724607 162.71117,15.754505 158.348555,12.210019 153.619413,9.070767 148.558192,6.310841 143.193493,3.90195 137.549161,1.815706 131.645733,0.02489 125.501744,-1.496052 119.134697,-2.770994 112.561704,-3.822324 98.866527,-5.337866 84.556076,-6.201807 69.775332,-6.56404 54.674319,-6.569208 24.132637,-6.073019 -5.80272,-5.803354 -5.80272,-0.564702 -5.80272,13.942097 -5.80272,28.448897 -5.80272,42.955696 -5.80272,57.462496 -11.427848,88.603075 -16.105838,117.477146 -20.061765,146.349678 -23.295732,175.220907 -25.807827,204.091081 -27.598117,232.960456 -28.666652,261.829296 -29.013462,290.697869 -28.638558,319.566449 -27.541928,348.435304 -25.723541,377.304705 -23.183348,406.174915 -19.921279,435.046191 -15.937246,463.918779 -11.231146,492.792913 -5.80272,522.809485 -5.80272,536.751582 -5.80272,551.258382 -5.80272,565.765181 -5.80272,580.271981 -17.408159,580.271981"/>
<polygon id="0x55f11bc24eb0" class="l2d0" points="5.80272,565.765181 5.80272,551.258382 5.80272,536.751582 5.80272,522.809485 11.231146,492.792913 15.937246,463.918779 19.921279,435.046191 23.183348,406.174915 25.723541,377.304705 27.541928,348.435304 28.638558,319.566449 29.013462,290.697869 28.666652,261.829296 27.598117,232.960456 25.807827,204.091081 23.295732,175.220907 20.061765,146.349678 16.105838,117.477146 11.427848,88.603075 5.80272,57.462496 5.80272,42.955696 5.80272,28.448897 5.80272,13.942097 5.80272,5.803302 66.408572,5.015154 80.955685,5.280413 94.923466,5.997104 108.135327,7.292816 120.409674,9.286748 126.137566,10.57912 131.561977,12.083904 136.660786,13.810776 141.413497,15.767761 145.802415,17.961548 149.814054,20.398461 153.440393,23.086389 156.67922,26.03766 159.532674,29.272193 162.003568,32.81947 164.090442,36.717813 165.783445,41.010614 167.062933,45.741008 167.901103,50.947258 168.244239,55.831287 168.278874,61.326316 181.792293,69.445005 194.174937,77.432914 199.579039,81.348451 204.27913,85.181029 208.158889,88.889746 211.130952,92.413501 213.162629,95.676328 214.308502,98.628089 214.698516,101.334436 214.418662,104.019102 213.40406,106.922522 211.521239,110.136901 208.700255,113.623877 204.961742,117.307503 200.386385,121.123391 195.086995,125.027632 182.846551,133.00152 155.864209,149.352862 149.44699,153.524665 143.430478,157.747822 137.930647,162.043999 133.051084,166.448338 128.888417,171.014941 125.549149,175.816913 124.2316,178.329006 123.179156,180.920986 122.418092,183.587337 121.973261,186.310959 121.862166,189.063404 122.089581,191.809683 122.645914,194.516254 123.51042,197.158274 124.657154,199.72282 126.060398,202.207775 129.5505,206.963583 133.843736,211.497428 138.837168,215.879853 144.43377,220.161384 150.527986,224.37444 163.724606,232.666369 177.35435,240.831107 190.24588,248.871147 196.046612,252.827074 201.230114,256.718436 205.668624,260.5152 209.253498,264.170093 211.912019,267.615395 213.637483,270.776543 214.51571,273.630756 214.67971,276.299603 214.168897,279.035978 212.878402,282.041202 210.685766,285.354227 207.552951,288.915103 203.524506,292.648932 198.694211,296.498225 193.181783,300.425139 180.655151,308.427384 153.688296,324.820286 147.390969,329.007421 141.53444,333.251958 136.230391,337.579454 131.579061,342.030811 127.677756,346.667128 126.043026,349.078529 124.642575,351.564373 123.498912,354.129833 122.637781,356.772685 122.0851,359.479871 121.86152,362.226421 121.976478,364.978729 122.425036,367.701839 123.189573,370.367413 124.245188,372.958494 125.565618,375.46968 128.909946,380.270088 133.076983,384.835572 137.96036,389.23916 143.463444,393.534836 149.482584,397.75765 162.592621,406.062297 189.228712,422.288556 195.119045,426.253218 200.414661,430.157047 204.985542,433.972323 208.719007,437.655029 211.534623,441.140664 213.412199,444.353301 214.422217,447.255045 214.698206,449.939062 214.304243,452.646294 213.153648,455.599801 211.116667,458.864319 208.139264,462.38934 204.25454,466.098916 199.550083,469.932067 194.142332,473.847992 181.754784,481.836386 154.772149,498.208414 148.413119,502.387691 142.475017,506.621217 137.07167,510.932533 132.304901,515.359582 128.271415,519.95997 125.082053,524.808647 123.850057,527.34737 122.891784,529.965285 122.233602,532.653233 121.898613,535.39009 121.900549,538.144472 122.239327,540.880932 122.901076,543.568177 123.862622,546.185218 125.097592,548.723026 128.292155,553.570072 132.330112,558.169269 137.100786,562.595514 142.507483,566.906295 148.448321,571.139456 161.464363,579.45736 171.107737,585.254724 168.133879,590.237467 162.457521,586.841214 148.962811,578.454195 142.585376,574.135691 136.608936,569.692247 131.13191,565.06639 126.246354,560.167199 122.062639,554.862725 120.285889,552.009972 118.761661,549.001979 117.532918,545.834578 116.64812,542.521998 116.152617,539.102068 116.076572,535.634473 116.424957,532.189835 117.175757,528.833412 118.287607,525.611501 119.71191,522.546403 121.403089,519.639668 123.323839,516.879281 125.44591,514.246712 130.215713,509.286136 135.594193,504.61939 141.488539,500.14847 147.802345,495.810792 154.425925,491.56812 181.379227,475.24656 193.074646,467.50456 197.950813,463.813582 201.993363,460.317534 205.090959,457.113957 207.190872,454.340998 208.358977,452.145555 208.826523,450.557734 208.881602,449.308837 208.583419,447.886081 207.690619,445.908624 205.927523,443.320279 203.172464,440.247796 199.445155,436.839467 194.841813,433.207119 189.492736,429.423894 183.542733,425.535027 156.759357,409.298624 143.623284,400.781353 137.572837,396.361991 132.006192,391.771803 127.015373,386.926225 122.704864,381.699974 120.851954,378.895954 119.239194,375.940863 117.906717,372.826074 116.901846,369.558899 116.27222,366.169061 116.054424,362.709732 116.262523,359.249584 116.883063,355.857479 117.879857,352.587069 119.205381,349.468634 120.812206,346.509937 122.659999,343.70263 124.717597,341.029684 129.375831,336.007637 134.659496,331.29984 140.474271,326.801443 146.725386,322.444747 153.305578,318.188142 180.316065,301.825491 192.190302,294.052301 197.19252,290.335669 201.382701,286.801451 204.643636,283.540566 206.909348,280.684963 208.22112,278.38563 208.783799,276.705537 208.894014,275.432998 208.665748,274.073991 207.893967,272.200924 206.289084,269.707967 203.70095,266.705257 200.130384,263.343975 195.664588,259.742963 190.429996,255.981126 184.569768,252.107596 157.893685,235.91274 144.671874,227.423789 138.550201,223.027061 132.896449,218.470218 127.803164,213.674759 123.370265,208.522323 121.444622,205.765083 119.747805,202.86187 118.316908,199.800447 117.197356,196.581967 116.437775,193.228196 116.079837,189.784899 116.146112,186.317028 116.632267,182.89527 117.508625,179.579715 118.730044,176.408748 120.248019,173.397095 122.019403,170.540929 126.194235,165.230919 131.072455,160.327913 136.543233,155.699516 142.51449,151.254362 148.887941,146.934659 162.378937,138.546019 175.967171,130.404601 188.472651,122.520388 193.93961,118.715668 198.685898,115.052045 202.577654,111.596857 205.510305,108.454476 207.446094,105.768519 208.477159,103.678321 208.858384,102.175263 208.860202,100.934676 208.484592,99.43712 207.462677,97.354175 205.538081,94.67435 202.616809,91.53632 198.735522,88.084042 193.998294,84.422364 188.538772,80.618985 176.042991,72.73652 162.476155,64.609521 162.476155,58.921621 162.225387,54.160981 161.511402,49.315 160.41865,45.037007 158.994871,41.27355 157.273406,37.955196 155.266432,35.004527 152.964192,32.348347 150.341494,29.928858 147.368355,27.708953 144.019797,25.670672 140.281512,23.809426 136.151096,22.127464 131.63644,20.628767 126.753003,19.315964 121.521169,18.188915 115.964152,17.24437 103.973331,15.875712 90.979411,15.133928 77.175954,14.917316 62.747131,15.1088 47.867473,15.582215 17.408159,16.843517 17.408159,28.439073 17.408159,42.945872 17.408277,57.453888 22.761345,86.040522 27.413868,114.628854 31.436744,143.783464 34.730903,172.939387 37.296258,202.096375 39.13274,231.254172 40.240298,260.412515 40.618902,289.571134 40.268541,318.729758 39.189224,347.888116 37.380983,377.045939 34.843866,406.202963 31.577942,435.358932 27.583298,464.513598 22.860037,493.666726 17.408159,522.819309 17.408159,536.751582 17.408159,551.258382 17.408159,565.765181 17.408159,580.271981 5.80272,580.271981"/>
</g>
</svg>