<?xml version="1.0" encoding="UTF-8"?>
<svg xmlns="http://www.w3.org/2000/svg" xmlns:xlink="http://www.w3.org/1999/xlink" width="300" height="157.355365" viewBox="-76.321535 -76.827246 300 157.355365">
<defs>
<style type="text/css">
.l0d0 {stroke: #F38400; fill: #F38400; fill-opacity: 0.5;}
</style>
</defs>
<rect x="-76.321535" y="-76.827246" width="300" height="157.355365" fill="none" stroke="none"/>
<g id="segment" transform="scale(1 -1)">
<polygon id="0x55d800bbafd0" class="l0d0" points="0,4.954981 0,-4.954981 56.198672,-7.202928 56.209532,-6.931431 58.818125,58.283415 58.466998,58.290438 -60.228483,60.664347 -60.232798,60.448594 -62.685171,-62.170059 -62.430191,-62.175159 49.549815,-64.414759 49.549815,-34.68487 -36.92957,-36.414458 -38.435282,38.871146 40.994451,40.459741 42.346886,6.648857"/>
<polygon id="0x55d800bbafd0" class="l0d0" points="148.748465,-2.47947 148.550424,-7.430493 207.224607,-9.77746 210.042101,60.659906 209.994105,60.710871 85.993505,63.190883 85.993505,63.190883 83.437737,-64.597515 83.437737,-64.597515 198.149719,-66.891755 198.248799,-61.937764 88.490808,-59.742604 90.848416,58.137812 204.89104,55.85696 202.471625,-4.628397"/>
<polygon id="0x55d800933940" class="l0d0" points="148.550424,7.430493 148.748465,2.47947 193.570862,4.272366 192.022345,42.985296 107.687627,41.298602 107.687627,41.298602 109.292419,-38.940993 198.248799,-37.161866 198.149719,-32.207875 114.14733,-33.887923 112.740697,36.443691 187.265446,37.934186 188.421799,9.025348"/>
</g>
</svg>