<?xml version="1.0" encoding="UTF-8"?>
<svg xmlns="http://www.w3.org/2000/svg" xmlns:xlink="http://www.w3.org/1999/xlink" width="309.251702" height="401.76872" viewBox="-42.62337 -359.156886 309.251702 401.76872">
<defs>
<style type="text/css">
.l0d0 {stroke: #F38400; fill: #F38400; fill-opacity: 0.5;}
</style>
</defs>
<rect x="-42.62337" y="-359.156886" width="309.251702" height="401.76872" fill="none" stroke="none"/>
<g id="segment" transform="scale(1 -1)">
<polygon id="0x55585d147bd0" class="l0d0" points="60.874048,-9.739848 121.748097,-14.609772 182.622145,-19.479696 243.496194,-24.349619 248.366118,-24.349619 248.366118,12.17481 248.366118,48.699239 248.366118,85.223668 248.366118,121.748097 248.366118,150.967494 240.756862,150.976816 233.147606,151.095846 225.538349,151.345423 217.929093,151.716628 210.319837,152.200546 195.101325,153.47085 179.882813,155.084996 164.664301,156.97165 149.445789,159.059472 119.008765,163.55328 88.57174,167.995726 73.353228,170.019346 58.134716,171.816114 42.916204,173.314696 35.306948,173.929873 27.697692,174.443752 20.088436,174.847416 11.697486,175.154076 9.940389,178.197789 8.362556,181.241492 7.024799,184.285194 5.978529,187.328897 5.263952,190.372599 4.90853,193.416302 4.925922,196.460004 5.315458,199.503706 6.06217,202.547409 7.137361,205.591111 8.499712,208.634814 10.09687,211.678516 13.743428,217.765921 17.521879,223.853326 19.279154,226.897028 20.856988,229.940731 22.194744,232.984433 23.241015,236.028135 23.955591,239.071838 24.311013,242.11554 24.293622,245.159243 23.904085,248.202945 23.157374,251.246648 22.082183,254.29035 20.719831,257.334052 19.122673,260.377755 15.476115,266.46516 11.697665,272.552564 9.940389,275.596267 8.362556,278.639969 7.024799,281.683672 5.978529,284.727374 5.263952,287.771077 4.90853,290.814779 4.925922,293.858481 5.315458,296.902184 6.06217,299.945886 7.137361,302.989589 8.499712,306.033291 10.09687,309.076994 13.743428,315.164398 17.521879,321.251803 19.279154,324.295506 20.856988,327.339208 22.194744,330.382911 23.241015,333.426613 23.955591,336.470315 24.250609,338.682493 24.349619,340.894671 -24.349619,340.894671 -24.22967,338.459344 -23.872775,336.024017 -23.107526,332.980314 -22.015712,329.936612 -20.639292,326.892909 -19.031161,323.849207 -15.373494,317.761802 -11.599556,311.674397 -9.850275,308.630695 -8.283897,305.586992 -6.96062,302.54329 -5.931295,299.499588 -5.23548,296.455885 -4.899913,293.412183 -4.93749,290.36848 -5.346768,287.324778 -6.112018,284.281075 -7.203832,281.237373 -8.580251,278.193671 -10.188382,275.149968 -13.84605,269.062563 -17.619987,262.975158 -19.369269,259.931456 -20.935646,256.887754 -22.258923,253.844051 -23.288248,250.800349 -23.984064,247.756646 -24.319631,244.712944 -24.282053,241.669242 -23.872775,238.625539 -23.107526,235.581837 -22.015712,232.538134 -20.639292,229.494432 -19.031161,226.450729 -15.373494,220.363325 -11.599556,214.27592 -9.850275,211.232217 -8.283897,208.188515 -6.96062,205.144812 -5.931295,202.10111 -5.23548,199.057408 -4.899913,196.013705 -4.93749,192.970003 -5.346768,189.9263 -6.112018,186.882598 -7.203832,183.838896 -8.580251,180.795193 -10.188382,177.751491 -13.84605,171.664086 -17.619987,165.576681 -19.369269,162.532979 -20.935646,159.489276 -22.258923,156.445574 -23.288248,153.401871 -23.984064,150.358169 -24.319631,147.314466 -24.349619,141.227062 -24.361155,116.878173 -12.47918,116.878173 2.739332,116.887349 10.348588,117.006379 17.957844,117.255956 25.5671,117.627161 33.176356,118.111079 40.785612,118.698792 56.004125,120.149934 71.222637,121.909251 86.441149,123.905406 116.878173,128.322884 147.315197,132.831672 162.533709,134.941966 177.752221,136.861078 192.970734,138.51767 208.189246,139.840406 215.798502,140.354285 223.407758,140.757949 231.017014,141.04248 238.62627,141.227646 238.62627,133.533313 238.62627,97.008884 238.62627,60.484455 238.62627,23.960025 182.622145,19.479696 121.748097,14.609772 60.874048,9.739848 0,4.869924 0,-4.869924"/>
</g>
</svg>