<?xml version="1.0" encoding="UTF-8"?>
<svg xmlns="http://www.w3.org/2000/svg" xmlns:xlink="http://www.w3.org/1999/xlink" width="304.939007" height="354.329076" viewBox="-63.349247 -316.748946 304.939007 354.329076">
<defs>
<style type="text/css">
.l0d0 {stroke: #F38400; fill: #F38400; fill-opacity: 0.5;}
</style>
</defs>
<rect x="-63.349247" y="-316.748946" width="304.939007" height="354.329076" fill="none" stroke="none"/>
<g id="segment1" transform="scale(1 -1)">
<polygon id="0x55585d282b00" class="l0d0" points="53.471184,-13.416056 107.156842,-16.100339 160.842501,-18.784622 214.528159,-21.468905 225.483893,-21.474263 225.479766,10.737235 225.479766,42.94863 225.479766,75.160025 225.479766,107.37142 225.479766,139.582712 212.080617,139.589642 198.762024,139.821872 185.429181,140.351835 172.082071,141.136374 158.720755,142.132184 145.345326,143.295818 118.552506,145.952046 91.704128,148.754675 78.25911,150.100808 64.800131,151.351179 51.327098,152.461385 39.744776,153.269103 28.15196,153.912285 24.844076,156.566465 21.741095,159.164411 18.9713,161.690168 16.651971,164.114047 15.691824,165.27374 14.876129,166.388959 14.208722,167.451904 13.688347,168.455901 13.308087,169.397842 13.056185,170.281348 12.919038,171.119409 12.886054,171.934459 12.954232,172.754453 13.129566,173.606117 13.424283,174.508856 13.851831,175.472238 14.422513,176.497197 15.141292,177.579055 17.015961,179.883807 19.420674,182.328143 22.256835,184.86805 28.735011,190.139789 32.117695,192.854041 35.426106,195.62466 38.541796,198.467469 41.355868,201.412156 42.617397,202.936745 43.76407,204.505809 44.780825,206.127147 45.650185,207.807434 46.351851,209.549775 46.863645,211.350552 47.164609,213.196774 47.239934,215.066007 47.085573,216.930296 46.709665,218.762915 46.129746,220.544459 45.367686,222.265359 44.445245,223.924684 43.381765,225.527108 42.193802,227.079919 40.895787,228.590922 38.022164,231.515153 34.865146,234.343811 28.152305,239.809204 24.844076,242.463518 21.741095,245.061465 18.9713,247.587222 16.651971,250.0111 15.691824,251.170794 14.876129,252.286013 14.208722,253.348958 13.688347,254.352954 13.308087,255.294896 13.056185,256.178402 12.919038,257.016463 12.886054,257.831513 12.954232,258.651507 13.129566,259.503171 13.424283,260.405909 13.851831,261.369292 14.422513,262.39425 15.141292,263.476109 17.015961,265.780861 19.420674,268.225196 22.256835,270.765104 28.735011,276.036842 32.117695,278.751094 35.426106,281.521714 38.541796,284.364522 41.355868,287.309209 42.617397,288.833799 43.76407,290.402863 44.780825,292.024201 45.650185,293.704487 46.351851,295.446829 46.863645,297.247606 47.147368,298.933072 47.243378,300.636297 38.653675,300.643079 38.589699,299.719647 38.419813,298.870042 38.131206,297.970081 37.710375,297.00972 37.146796,295.987673 36.435228,294.908416 34.574334,292.607743 32.181429,290.166198 29.354367,287.628227 26.212678,285.021191 19.502184,279.6462 16.190532,276.877087 13.068844,274.036315 10.246228,271.094582 8.979481,269.571953 7.826906,268.005228 6.80347,266.386596 5.926515,264.709281 5.216211,262.969932 4.694697,261.171771 4.383096,259.327304 4.296635,257.458562 4.439951,255.593378 4.805462,253.7587 5.375977,251.974378 6.129719,250.250456 7.044851,248.588221 8.101894,246.983194 9.284166,245.428159 10.577155,243.915302 11.967584,242.437392 14.989232,239.563001 18.242902,236.769433 21.613556,234.036466 28.203984,228.726577 31.163981,226.16025 33.733021,223.678244 35.803126,221.318282 36.625952,220.200724 37.300567,219.135073 37.827959,218.128105 38.214774,217.183171 38.472584,216.297049 38.615008,215.457234 38.6529,214.641693 38.589699,213.822593 38.419813,212.972989 38.131206,212.073027 37.710375,211.112666 37.146796,210.090619 36.435228,209.011363 34.574334,206.710689 32.181429,204.269144 29.354367,201.731173 26.212678,199.124138 19.502184,193.749146 16.190532,190.980033 13.068844,188.139262 10.246228,185.197529 8.979481,183.6749 7.826906,182.108174 6.80347,180.489542 5.926515,178.812227 5.216211,177.072879 4.694697,175.274718 4.383096,173.43025 4.296635,171.561508 4.439951,169.696325 4.805462,167.861646 5.375977,166.077325 6.129719,164.353403 7.044851,162.691167 8.101894,161.086141 9.284166,159.531106 10.577155,158.018248 11.967584,156.540339 14.989232,153.665947 18.242902,150.87238 24.97731,145.458185 33.544495,145.032587 42.11756,144.507645 55.4783,143.519579 68.853158,142.36192 82.242034,141.078256 109.061535,138.307945 135.936545,135.560064 149.394955,134.304934 162.867415,133.188161 176.354023,132.254282 189.854866,131.547978 203.369979,131.114076 216.89006,130.992962 216.89006,115.9617 216.89006,83.750305 216.89006,51.538909 216.89006,19.327514 216.917167,-12.884558 214.957109,-12.889917 161.27145,-10.205634 107.585792,-7.521351 53.900133,-4.837068 0.214475,-2.152785 -0.214475,-10.731773"/>
<polygon id="0x55585d15ed90" class="l0d0" points="53.900133,4.837068 107.585792,7.521351 161.27145,10.205634 212.595208,12.771822 212.595208,44.983217 212.595208,77.194612 212.595208,109.406007 212.595208,126.698109 199.061679,126.471121 185.551113,125.94554 172.054813,125.161857 158.572724,124.164853 145.104753,122.999163 118.21078,120.339552 91.372371,117.537309 77.973993,116.192829 64.589574,114.944577 51.219204,113.836237 37.862983,112.911347 24.520996,112.213307 11.19328,111.785366 -2.138357,111.66617 -28.981186,111.66617 -38.653674,111.66617 -38.653674,122.403971 -38.653674,127.772537 -38.580628,129.829016 -38.402164,130.681879 -38.103937,131.586217 -37.672535,132.551329 -37.097784,133.577947 -36.374881,134.661287 -34.492348,136.968356 -32.080907,139.414276 -29.239572,141.955284 -22.756356,147.228563 -19.373851,149.943538 -16.067326,152.715023 -12.955096,155.559005 -10.145938,158.505395 -8.887408,160.031113 -7.744127,161.601523 -6.731213,163.224417 -5.866219,164.906407 -5.169518,166.650457 -4.663306,168.452717 -4.368443,170.299917 -4.299494,172.169401 -4.460164,174.03315 -4.842001,175.86457 -5.427276,177.644515 -6.194071,179.363686 -7.120672,181.021351 -8.187817,182.622294 -9.379021,184.173841 -10.679896,185.683791 -13.558167,188.606437 -16.718362,191.433995 -23.432629,196.897848 -26.738905,199.551438 -29.838125,202.148519 -32.602437,204.673103 -34.914785,207.095279 -35.871014,208.253843 -36.682626,209.367716 -37.345911,210.429105 -37.86228,211.431399 -38.238802,212.371631 -38.487339,213.253654 -38.62148,214.090737 -38.651659,214.905536 -38.580628,215.72607 -38.402164,216.578933 -38.103937,217.483271 -37.672535,218.448382 -37.097784,219.475001 -36.374881,220.55834 -34.492348,222.865409 -32.080907,225.311329 -29.239572,227.852337 -22.756356,233.125616 -19.373851,235.840592 -16.067326,238.612077 -12.955096,241.456058 -10.145938,244.402448 -8.887408,245.928167 -7.744127,247.498577 -6.731213,249.121471 -5.866219,250.80346 -5.169518,252.54751 -4.663306,254.34977 -4.368443,256.196971 -4.299494,258.066455 -4.460164,259.930204 -4.842001,261.761623 -5.427276,263.541569 -6.194071,265.26074 -7.120672,266.918405 -8.187817,268.519348 -9.379021,270.070894 -10.679896,271.580845 -13.558167,274.503491 -16.718362,277.331048 -23.432629,282.794901 -26.738905,285.448492 -29.838125,288.045572 -32.602437,290.570157 -34.914785,292.992333 -35.871014,294.150897 -36.682626,295.26477 -37.345911,296.326159 -37.86228,297.328452 -38.238802,298.268685 -38.487339,299.150708 -38.653675,300.643079 -47.243378,300.636297 -47.078341,298.402492 -46.696717,296.571029 -46.111634,294.791026 -45.345009,293.071792 -44.418557,291.414068 -43.351544,289.813071 -42.160457,288.26148 -40.859684,286.751492 -39.462444,285.275948 -36.430101,282.405132 -33.169884,279.614129 -29.797202,276.883208 -23.21725,271.577326 -20.269779,269.01369 -17.7177,266.53548 -15.668101,264.181086 -14.856342,263.067165 -14.192909,262.00572 -13.676396,261.003365 -13.299739,260.063071 -13.051082,259.180995 -12.916833,258.343878 -12.886553,257.52907 -12.957482,256.708555 -13.135832,255.855736 -13.433934,254.951456 -13.865197,253.986406 -14.439801,252.959848 -15.162556,251.876561 -17.044807,249.569575 -19.456006,247.123712 -22.297156,244.582743 -25.448199,241.973456 -32.162702,236.594571 -35.469296,233.823116 -38.581651,230.979177 -41.390986,228.032849 -42.649624,226.507171 -43.793027,224.936809 -44.806079,223.313971 -45.671231,221.632043 -46.36811,219.888054 -46.874523,218.085848 -47.169606,216.238682 -47.238784,214.369207 -47.078341,212.505438 -46.696717,210.673975 -46.111634,208.893972 -45.345009,207.174739 -44.418557,205.517014 -43.351544,203.916018 -42.160457,202.364426 -40.859684,200.854438 -39.462444,199.378895 -36.430101,196.508079 -33.169884,193.717075 -29.797202,190.986154 -23.21725,185.680273 -20.269779,183.116636 -17.7177,180.638426 -15.668101,178.284033 -14.856342,177.170111 -14.192909,176.108666 -13.676396,175.106311 -13.299739,174.166017 -13.051082,173.283941 -12.916833,172.446824 -12.886553,171.632016 -12.957482,170.811502 -13.135832,169.958682 -13.433934,169.054402 -13.865197,168.089353 -14.439801,167.062794 -15.162556,165.979507 -17.044807,163.672522 -19.456006,161.226659 -22.297156,158.68569 -25.448199,156.076402 -32.162702,150.697517 -35.469296,147.926063 -38.581651,145.082124 -41.390986,142.135795 -42.649624,140.610117 -43.793027,139.039755 -44.806079,137.416918 -45.671231,135.734989 -46.36811,133.991001 -46.874523,132.188794 -47.169606,130.341628 -47.243379,124.551397 -47.243379,103.076464 -24.244864,103.076464 2.619524,103.083066 16.143853,103.316741 29.65393,103.851903 43.149742,104.64363 56.631346,105.647148 70.098836,106.817826 83.552311,108.111177 110.417517,110.888644 137.227214,113.626376 150.611154,114.870558 163.981041,115.973336 177.336776,116.891173 190.678274,117.580678 204.005502,117.998607 204.005502,117.576957 204.005502,85.365562 204.005502,53.154167 204.005502,20.942772 160.842501,18.784622 107.156842,16.100339 53.471184,13.416056 -0.214475,10.731773 0.214475,2.152785"/>
</g>
</svg>