<?xml version="1.0" encoding="UTF-8"?>
<svg xmlns="http://www.w3.org/2000/svg" xmlns:xlink="http://www.w3.org/1999/xlink" width="300" height="163.409091" viewBox="-150 -81.704545 300 163.409091">
<defs>
<style type="text/css">
.l0d0 {stroke: #F38400; fill: #F38400; fill-opacity: 0.5;}
</style>
</defs>
<rect x="-150" y="-81.704545" width="300" height="163.409091" fill="none" stroke="none"/>
<g id="slice_operation" transform="scale(1 -1)">
<polygon id="0x55f11bf0dcf0" class="l0d0" points="-56.340909,-67.147727 -48.625,-65.318182 -41.181818,-62.602273 -34.090909,-59.045455 -34.090909,-30.022727 -38.420455,-34.352273 -43.602273,-38.238636 -49.295455,-41.352273 -55.375,-43.613636 -61.715909,-44.988636 -68.181818,-45.454545 -74.647727,-44.988636 -80.988636,-43.613636 -87.068182,-41.352273 -92.761364,-38.238636 -97.943182,-34.352273 -102.534091,-29.761364 -106.420455,-24.579545 -109.534091,-18.886364 -111.795455,-12.806818 -113.170455,-6.465909 -113.636364,0 -113.170455,6.465909 -111.795455,12.806818 -109.534091,18.886364 -106.420455,24.579545 -102.534091,29.761364 -97.943182,34.352273 -92.761364,38.238636 -87.068182,41.352273 -80.988636,43.613636 -74.647727,44.988636 -68.181818,45.454545 -61.715909,44.988636 -55.375,43.613636 -49.295455,41.352273 -43.602273,38.238636 -38.420455,34.352273 -34.090909,30.022727 -34.090909,59.045455 -41.181818,62.602273 -48.625,65.318182 -56.340909,67.147727 -64.215909,68.068182 -72.147727,68.068182 -80.022727,67.147727 -87.738636,65.318182 -95.181818,62.602273 -102.272727,59.045455 -108.897727,54.693182 -114.965909,49.590909 -120.409091,43.829545 -125.147727,37.465909 -129.113636,30.602273 -132.25,23.318182 -134.522727,15.727273 -135.897727,7.920455 -136.363636,0 -135.897727,-7.920455 -134.522727,-15.727273 -132.25,-23.318182 -129.113636,-30.602273 -125.147727,-37.465909 -120.409091,-43.829545 -114.965909,-49.590909 -108.897727,-54.693182 -102.272727,-59.045455 -95.181818,-62.602273 -87.738636,-65.318182 -80.022727,-67.147727 -72.147727,-68.068182 -64.215909,-68.068182"/>
<polygon id="0x55f11bf19e40" class="l0d0" points="34.090909,59.045455 27,62.602273 19.556818,65.318182 11.840909,67.147727 3.965909,68.068182 -3.965909,68.068182 -11.840909,67.147727 -19.556818,65.318182 -27,62.602273 -34.090909,59.045455 -34.090909,30.022727 -29.761364,34.352273 -24.579545,38.238636 -18.886364,41.352273 -12.806818,43.613636 -6.465909,44.988636 0,45.454545 6.465909,44.988636 12.806818,43.613636 18.886364,41.352273 24.579545,38.238636 29.761364,34.352273 34.090909,30.022727"/>
<polygon id="0x55f11bfd5b30" class="l0d0" points="11.840909,-67.147727 19.556818,-65.318182 27,-62.602273 34.090909,-59.045455 34.090909,-30.022727 29.761364,-34.352273 24.579545,-38.238636 18.886364,-41.352273 12.806818,-43.613636 6.465909,-44.988636 0,-45.454545 -6.465909,-44.988636 -12.806818,-43.613636 -18.886364,-41.352273 -24.579545,-38.238636 -29.761364,-34.352273 -34.090909,-30.022727 -34.090909,-59.045455 -27,-62.602273 -19.556818,-65.318182 -11.840909,-67.147727 -3.965909,-68.068182 3.965909,-68.068182"/>
<polygon id="0x55f11be5da80" class="l0d0" points="111.795455,-12.806818 109.534091,-18.886364 106.420455,-24.579545 102.534091,-29.761364 97.943182,-34.352273 92.761364,-38.238636 87.068182,-41.352273 80.988636,-43.613636 74.647727,-44.988636 68.181818,-45.454545 61.715909,-44.988636 55.375,-43.613636 49.295455,-41.352273 43.602273,-38.238636 38.420455,-34.352273 34.090909,-30.022727 34.090909,-59.045455 41.181818,-62.602273 48.625,-65.318182 56.340909,-67.147727 64.215909,-68.068182 72.147727,-68.068182 80.022727,-67.147727 87.738636,-65.318182 95.181818,-62.602273 102.272727,-59.045455 108.897727,-54.693182 114.965909,-49.590909 120.409091,-43.829545 125.147727,-37.465909 129.113636,-30.602273 132.25,-23.318182 134.522727,-15.727273 135.897727,-7.920455 136.363636,0 135.897727,7.920455 134.522727,15.727273 132.25,23.318182 129.113636,30.602273 125.147727,37.465909 120.409091,43.829545 114.965909,49.590909 108.897727,54.693182 102.272727,59.045455 95.181818,62.602273 87.738636,65.318182 80.022727,67.147727 72.147727,68.068182 64.215909,68.068182 56.340909,67.147727 48.625,65.318182 41.181818,62.602273 34.090909,59.045455 34.090909,30.022727 38.420455,34.352273 43.602273,38.238636 49.295455,41.352273 55.375,43.613636 61.715909,44.988636 68.181818,45.454545 74.647727,44.988636 80.988636,43.613636 87.068182,41.352273 92.761364,38.238636 97.943182,34.352273 102.534091,29.761364 106.420455,24.579545 109.534091,18.886364 111.795455,12.806818 113.170455,6.465909 113.636364,0 113.170455,-6.465909"/>
</g>
</svg>