<?xml version="1.0" encoding="UTF-8"?>
<svg xmlns="http://www.w3.org/2000/svg" xmlns:xlink="http://www.w3.org/1999/xlink" width="300" height="114.751286" viewBox="-13.636364 -49.656947 300 114.751286">
<defs>
<style type="text/css">
.l0d1 {fill:none;stroke:black;stroke-dasharray:8,8;}
.l0d0 {stroke: #F38400; fill: #F38400; fill-opacity: 0.5;}
</style>
</defs>
<rect x="-13.636364" y="-49.656947" width="300" height="114.751286" fill="none" stroke="none"/>
<g id="text" transform="scale(1 -1)">
<polygon id="0x55731072b2f0" class="l0d0" points="2.572899,10.291595 5.145798,10.291595 5.145798,7.718696 15.437393,7.718696 15.437393,10.291595 18.010292,10.291595 18.010292,15.437393 12.864494,15.437393 12.864494,10.291595 7.718696,10.291595 7.718696,33.447684 12.864494,33.447684 12.864494,28.301887 18.010292,28.301887 18.010292,33.447684 15.437393,33.447684 15.437393,36.020583 5.145798,36.020583 5.145798,33.447684 2.572899,33.447684"/>
<polygon id="0x55731071a630" class="l0d0" points="30.874786,7.718696 30.874786,23.156089 36.020583,23.156089 36.020583,18.010292 41.166381,18.010292 41.166381,23.156089 38.593482,23.156089 38.593482,25.728988 25.728988,25.728988 25.728988,7.718696"/>
<polygon id="0x557310714cb0" class="l0d0" points="51.457976,10.291595 51.457976,7.718696 61.749571,7.718696 61.749571,10.291595 54.030875,10.291595 54.030875,15.437393 64.32247,15.437393 64.32247,23.156089 61.749571,23.156089 61.749571,25.728988 51.457976,25.728988 51.457976,23.156089 48.885077,23.156089 48.885077,18.010292 54.030875,18.010292 54.030875,23.156089 59.176672,23.156089 59.176672,18.010292 54.030875,18.010292 48.885077,18.010292 48.885077,10.291595"/>
<polygon id="0x5573106f0600" class="l0d0" points="84.90566,23.156089 84.90566,25.728988 74.614065,25.728988 74.614065,23.156089 82.332762,23.156089 82.332762,20.58319 74.614065,20.58319 74.614065,18.010292 72.041166,18.010292 72.041166,10.291595 77.186964,10.291595 77.186964,18.010292 82.332762,18.010292 82.332762,10.291595 77.186964,10.291595 72.041166,10.291595 74.614065,10.291595 74.614065,7.718696 87.478559,7.718696 87.478559,23.156089"/>
<polygon id="0x5573106dcba0" class="l0d0" points="95.197256,25.728988 95.197256,23.156089 97.770154,23.156089 97.770154,10.291595 100.343053,10.291595 100.343053,7.718696 110.634648,7.718696 110.634648,10.291595 102.915952,10.291595 102.915952,23.156089 110.634648,23.156089 110.634648,25.728988 102.915952,25.728988 102.915952,33.447684 97.770154,33.447684 97.770154,25.728988"/>
<polygon id="0x557310706f60" class="l0d0" points="120.926244,10.291595 120.926244,7.718696 131.217839,7.718696 131.217839,10.291595 123.499142,10.291595 123.499142,15.437393 133.790738,15.437393 133.790738,23.156089 131.217839,23.156089 131.217839,25.728988 120.926244,25.728988 120.926244,23.156089 118.353345,23.156089 118.353345,18.010292 123.499142,18.010292 123.499142,23.156089 128.64494,23.156089 128.64494,18.010292 123.499142,18.010292 118.353345,18.010292 118.353345,10.291595"/>
<polygon id="0x5573105cff50" class="l0d0" points="151.801029,36.020583 151.801029,25.728988 144.082333,25.728988 144.082333,23.156089 141.509434,23.156089 141.509434,10.291595 146.655232,10.291595 146.655232,23.156089 151.801029,23.156089 151.801029,10.291595 146.655232,10.291595 141.509434,10.291595 144.082333,10.291595 144.082333,7.718696 156.946827,7.718696 156.946827,36.020583"/>
<polygon id="0x55731055d1e0" class="l0d0" points="187.821612,12.864494 187.821612,7.718696 192.96741,7.718696 192.96741,10.291595 195.540309,10.291595 195.540309,7.718696 200.686106,7.718696 200.686106,12.864494 203.259005,12.864494 203.259005,25.728988 198.113208,25.728988 198.113208,12.864494 195.540309,12.864494 195.540309,20.58319 192.96741,20.58319 192.96741,12.864494 190.394511,12.864494 190.394511,25.728988 185.248714,25.728988 185.248714,12.864494"/>
<polygon id="0x5573105d9200" class="l0d0" points="221.269297,30.874786 221.269297,36.020583 216.123499,36.020583 216.123499,30.874786"/>
<polygon id="0x55731066e900" class="l0d0" points="216.123499,7.718696 226.415094,7.718696 226.415094,10.291595 221.269297,10.291595 221.269297,25.728988 210.977702,25.728988 210.977702,23.156089 216.123499,23.156089"/>
<polygon id="0x55731067fcf0" class="l0d0" points="234.133791,25.728988 234.133791,23.156089 236.70669,23.156089 236.70669,10.291595 239.279588,10.291595 239.279588,7.718696 249.571184,7.718696 249.571184,10.291595 241.852487,10.291595 241.852487,23.156089 249.571184,23.156089 249.571184,25.728988 241.852487,25.728988 241.852487,33.447684 236.70669,33.447684 236.70669,25.728988"/>
<polygon id="0x5573106b0db0" class="l0d0" points="262.435678,7.718696 262.435678,23.156089 267.581475,23.156089 267.581475,7.718696 272.727273,7.718696 272.727273,23.156089 270.154374,23.156089 270.154374,25.728988 262.435678,25.728988 262.435678,36.020583 257.28988,36.020583 257.28988,7.718696"/>
<polygon id="0x55731037fb00" class="l0d0" points="2.572899,-41.166381 5.145798,-41.166381 5.145798,-43.73928 18.010292,-43.73928 18.010292,-28.301887 10.291595,-28.301887 10.291595,-30.874786 12.864494,-30.874786 12.864494,-41.166381 7.718696,-41.166381 7.718696,-18.010292 12.864494,-18.010292 12.864494,-23.156089 18.010292,-23.156089 18.010292,-18.010292 15.437393,-18.010292 15.437393,-15.437393 5.145798,-15.437393 5.145798,-18.010292 2.572899,-18.010292"/>
<polygon id="0x557310722650" class="l0d0" points="38.593482,-38.593482 41.166381,-38.593482 41.166381,-20.58319 38.593482,-20.58319 38.593482,-18.010292 36.020583,-18.010292 36.020583,-15.437393 25.728988,-15.437393 25.728988,-41.166381 30.874786,-41.166381 30.874786,-18.010292 33.447684,-18.010292 33.447684,-20.58319 36.020583,-20.58319 36.020583,-38.593482 33.447684,-38.593482 33.447684,-41.166381 30.874786,-41.166381 25.728988,-41.166381 25.728988,-43.73928 36.020583,-43.73928 36.020583,-41.166381 38.593482,-41.166381"/>
<polygon id="0x5573104b0530" class="l0d0" points="51.457976,-41.166381 51.457976,-43.73928 61.749571,-43.73928 61.749571,-41.166381 64.32247,-41.166381 64.32247,-33.447684 61.749571,-33.447684 61.749571,-30.874786 59.176672,-30.874786 59.176672,-28.301887 56.603774,-28.301887 56.603774,-25.728988 54.030875,-25.728988 54.030875,-18.010292 59.176672,-18.010292 59.176672,-23.156089 64.32247,-23.156089 64.32247,-18.010292 61.749571,-18.010292 61.749571,-15.437393 51.457976,-15.437393 51.457976,-18.010292 48.885077,-18.010292 48.885077,-25.728988 51.457976,-25.728988 51.457976,-28.301887 54.030875,-28.301887 54.030875,-30.874786 56.603774,-30.874786 56.603774,-33.447684 59.176672,-33.447684 59.176672,-41.166381 54.030875,-41.166381 54.030875,-36.020583 48.885077,-36.020583 48.885077,-41.166381"/>
<polygon id="0x5573104b5750" class="l0d0" points="82.332762,-43.73928 82.332762,-18.010292 87.478559,-18.010292 87.478559,-15.437393 72.041166,-15.437393 72.041166,-18.010292 77.186964,-18.010292 77.186964,-43.73928"/>
<polygon id="0x5573104ab030" class="l0d0" points="97.770154,-43.73928 97.770154,-30.874786 100.343053,-30.874786 100.343053,-33.447684 102.915952,-33.447684 102.915952,-38.593482 105.488851,-38.593482 105.488851,-43.73928 110.634648,-43.73928 110.634648,-38.593482 108.06175,-38.593482 108.06175,-33.447684 105.488851,-33.447684 105.488851,-30.874786 102.915952,-30.874786 102.915952,-28.301887 105.488851,-28.301887 105.488851,-25.728988 108.06175,-25.728988 108.06175,-20.58319 110.634648,-20.58319 110.634648,-15.437393 105.488851,-15.437393 105.488851,-20.58319 102.915952,-20.58319 102.915952,-25.728988 100.343053,-25.728988 100.343053,-28.301887 97.770154,-28.301887 97.770154,-15.437393 92.624357,-15.437393 92.624357,-43.73928"/>
<polygon id="0x5573104ae440" class="l0d0" points="144.082333,-20.58319 141.509434,-20.58319 141.509434,-23.156089 146.655232,-23.156089 146.655232,-41.166381 141.509434,-41.166381 141.509434,-43.73928 156.946827,-43.73928 156.946827,-41.166381 151.801029,-41.166381 151.801029,-15.437393 146.655232,-15.437393 146.655232,-18.010292 144.082333,-18.010292"/>
<polygon id="0x557310432c20" class="l0d0" points="174.957118,-43.73928 174.957118,-36.020583 169.811321,-36.020583 169.811321,-43.73928"/>
<polygon id="0x55731050a160" class="l0d0" points="200.686106,-38.593482 203.259005,-38.593482 203.259005,-20.58319 200.686106,-20.58319 200.686106,-18.010292 198.113208,-18.010292 198.113208,-15.437393 190.394511,-15.437393 190.394511,-18.010292 187.821612,-18.010292 187.821612,-20.58319 185.248714,-20.58319 185.248714,-38.593482 190.394511,-38.593482 190.394511,-33.447684 192.96741,-33.447684 192.96741,-30.874786 190.394511,-30.874786 190.394511,-20.58319 192.96741,-20.58319 192.96741,-18.010292 195.540309,-18.010292 195.540309,-20.58319 198.113208,-20.58319 198.113208,-25.728988 195.540309,-25.728988 195.540309,-28.301887 198.113208,-28.301887 198.113208,-38.593482 195.540309,-38.593482 195.540309,-41.166381 192.96741,-41.166381 192.96741,-38.593482 190.394511,-38.593482 185.248714,-38.593482 187.821612,-38.593482 187.821612,-41.166381 190.394511,-41.166381 190.394511,-43.73928 198.113208,-43.73928 198.113208,-41.166381 200.686106,-41.166381"/>
<polygon id="0x557310652310" class="l0d0" points="195.540309,-28.301887 192.96741,-28.301887 192.96741,-30.874786 195.540309,-30.874786"/>
<polygon id="0x5573106a9b30" class="l0d0" points="221.269297,-43.73928 221.269297,-36.020583 216.123499,-36.020583 216.123499,-43.73928"/>
<polygon id="0x557310711780" class="l0d0" points="246.998285,-38.593482 249.571184,-38.593482 249.571184,-20.58319 246.998285,-20.58319 246.998285,-18.010292 244.425386,-18.010292 244.425386,-15.437393 236.70669,-15.437393 236.70669,-18.010292 234.133791,-18.010292 234.133791,-20.58319 231.560892,-20.58319 231.560892,-38.593482 236.70669,-38.593482 236.70669,-33.447684 239.279588,-33.447684 239.279588,-30.874786 236.70669,-30.874786 236.70669,-20.58319 239.279588,-20.58319 239.279588,-18.010292 241.852487,-18.010292 241.852487,-20.58319 244.425386,-20.58319 244.425386,-25.728988 241.852487,-25.728988 241.852487,-28.301887 244.425386,-28.301887 244.425386,-38.593482 241.852487,-38.593482 241.852487,-41.166381 239.279588,-41.166381 239.279588,-38.593482 236.70669,-38.593482 231.560892,-38.593482 234.133791,-38.593482 234.133791,-41.166381 236.70669,-41.166381 236.70669,-43.73928 244.425386,-43.73928 244.425386,-41.166381 246.998285,-41.166381"/>
<polygon id="0x55731072b610" class="l0d0" points="241.852487,-28.301887 239.279588,-28.301887 239.279588,-30.874786 241.852487,-30.874786"/>
<polygon id="0x55731072b680" class="l0d1" points="0,-51.457976 115.780446,-51.457976 115.780446,-10.291595 0,-10.291595"/>
</g>
</svg>