<?xml version="1.0" encoding="UTF-8"?>
<svg xmlns="http://www.w3.org/2000/svg" xmlns:xlink="http://www.w3.org/1999/xlink" width="300" height="118.181818" viewBox="-210.606061 -104.545455 300 118.181818">
<defs>
<style type="text/css">
.l0d0 {stroke: #F38400; fill: #F38400; fill-opacity: 0.5;}
</style>
</defs>
<rect x="-210.606061" y="-104.545455" width="300" height="118.181818" fill="none" stroke="none"/>
<g id="tolerance" transform="scale(1 -1)">
<polygon id="0x56358e283610" class="l0d0" points="-75.757576,0 -83.877248,45.454545 -106.060606,78.729582 -136.363636,90.909091 -166.666667,78.729582 -188.850024,45.454545 -196.969697,0"/>
<polygon id="0x56358e3e15e0" class="l0d0" points="75.757576,0 75.677218,4.679887 75.436356,9.347363 75.03563,13.990052 74.476102,18.595642 73.759256,23.15192 72.886993,27.646803 71.861625,32.068372 70.685873,36.404901 69.362853,40.64489 67.896075,44.777097 66.289428,48.790563 64.547172,52.674645 62.673928,56.419044 60.674662,60.013829 58.554678,63.449469 56.319596,66.716851 53.975344,69.807313 51.528138,72.712659 48.984468,75.425183 46.351079,77.937693 43.634954,80.243527 40.843296,82.336569 37.983509,84.21127 35.063175,85.862657 32.090038,87.286352 29.071984,88.478579 26.017016,89.436177 22.933234,90.156607 19.828816,90.637957 16.711995,90.878952 13.591036,90.878952 10.474214,90.637957 7.369797,90.156607 4.286015,89.436177 1.231046,88.478579 -1.787008,87.286352 -4.760144,85.862657 -7.680478,84.21127 -10.540266,82.336569 -13.331924,80.243527 -16.048049,77.937693 -18.681438,75.425183 -21.225108,72.712659 -23.672314,69.807313 -26.016566,66.716851 -28.251648,63.449469 -30.371632,60.013829 -32.370897,56.419044 -34.244142,52.674645 -35.986398,48.790563 -37.593045,44.777097 -39.059823,40.64489 -40.382843,36.404901 -41.558595,32.068372 -42.583962,27.646803 -43.456226,23.15192 -44.173072,18.595642 -44.7326,13.990052 -45.133326,9.347363 -45.374187,4.679887 -45.454545,0"/>
</g>
</svg>