<?xml version="1.0" encoding="UTF-8"?>
<svg xmlns="http://www.w3.org/2000/svg" xmlns:xlink="http://www.w3.org/1999/xlink" width="324.680993" height="571.490919" viewBox="-110.058786 -489.477836 324.680993 571.490919">
<defs>
<style type="text/css">
.l1d0 {stroke: #A1CAF1; fill: #A1CAF1; fill-opacity: 0.5;}
.l0d0 {stroke: #F38400; fill: #F38400; fill-opacity: 0.5;}
</style>
<g id="Resonator">
<polygon id="0x5606e9f10850" class="l0d0" points="-2.155947,-2.155947 2.155947,-2.155947 2.155947,2.155947 -2.155947,2.155947"/>
<polygon id="0x5606e9e4cd00" class="l1d0" points="-51.742724,2.155947 -56.054617,2.155947 -56.054617,-2.155947 -51.742724,-2.155947 51.742724,-2.155947 56.054617,-2.155947 56.054617,2.155947 51.742724,2.155947"/>
<use transform="translate(-51.742724 -51.742724)" xlink:href="#Unit Cell"/>
<use transform="translate(-51.742724 -34.495149)" xlink:href="#Unit Cell"/>
<use transform="translate(-51.742724 -17.247575)" xlink:href="#Unit Cell"/>
<use transform="translate(-34.495149 -51.742724)" xlink:href="#Unit Cell"/>
<use transform="translate(-34.495149 -34.495149)" xlink:href="#Unit Cell"/>
<use transform="translate(-34.495149 -17.247575)" xlink:href="#Unit Cell"/>
<use transform="translate(-17.247575 -51.742724)" xlink:href="#Unit Cell"/>
<use transform="translate(-17.247575 -34.495149)" xlink:href="#Unit Cell"/>
<use transform="translate(-17.247575 -17.247575)" xlink:href="#Unit Cell"/>
<use transform="translate(0 -51.742724)" xlink:href="#Unit Cell"/>
<use transform="translate(0 -34.495149)" xlink:href="#Unit Cell"/>
<use transform="translate(0 -17.247575)" xlink:href="#Unit Cell"/>
<use transform="translate(17.247575 -51.742724)" xlink:href="#Unit Cell"/>
<use transform="translate(17.247575 -34.495149)" xlink:href="#Unit Cell"/>
<use transform="translate(17.247575 -17.247575)" xlink:href="#Unit Cell"/>
<use transform="translate(34.495149 -51.742724)" xlink:href="#Unit Cell"/>
<use transform="translate(34.495149 -34.495149)" xlink:href="#Unit Cell"/>
<use transform="translate(34.495149 -17.247575)" xlink:href="#Unit Cell"/>
<use transform="translate(51.742724 -51.742724)" xlink:href="#Unit Cell"/>
<use transform="translate(51.742724 -34.495149)" xlink:href="#Unit Cell"/>
<use transform="translate(51.742724 -17.247575)" xlink:href="#Unit Cell"/>
<use transform="translate(-51.742724 17.247575)" xlink:href="#Unit Cell"/>
<use transform="translate(-51.742724 34.495149)" xlink:href="#Unit Cell"/>
<use transform="translate(-51.742724 51.742724)" xlink:href="#Unit Cell"/>
<use transform="translate(-34.495149 17.247575)" xlink:href="#Unit Cell"/>
<use transform="translate(-34.495149 34.495149)" xlink:href="#Unit Cell"/>
<use transform="translate(-34.495149 51.742724)" xlink:href="#Unit Cell"/>
<use transform="translate(-17.247575 17.247575)" xlink:href="#Unit Cell"/>
<use transform="translate(-17.247575 34.495149)" xlink:href="#Unit Cell"/>
<use transform="translate(-17.247575 51.742724)" xlink:href="#Unit Cell"/>
<use transform="translate(0 17.247575)" xlink:href="#Unit Cell"/>
<use transform="translate(0 34.495149)" xlink:href="#Unit Cell"/>
<use transform="translate(0 51.742724)" xlink:href="#Unit Cell"/>
<use transform="translate(17.247575 17.247575)" xlink:href="#Unit Cell"/>
<use transform="translate(17.247575 34.495149)" xlink:href="#Unit Cell"/>
<use transform="translate(17.247575 51.742724)" xlink:href="#Unit Cell"/>
<use transform="translate(34.495149 17.247575)" xlink:href="#Unit Cell"/>
<use transform="translate(34.495149 34.495149)" xlink:href="#Unit Cell"/>
<use transform="translate(34.495149 51.742724)" xlink:href="#Unit Cell"/>
<use transform="translate(51.742724 17.247575)" xlink:href="#Unit Cell"/>
<use transform="translate(51.742724 34.495149)" xlink:href="#Unit Cell"/>
<use transform="translate(51.742724 51.742724)" xlink:href="#Unit Cell"/>
<use transform="translate(-51.742724 0)" xlink:href="#Unit Cell"/>
<use transform="translate(-34.495149 0)" xlink:href="#Unit Cell"/>
<use transform="translate(-17.247575 0)" xlink:href="#Unit Cell"/>
<use transform="translate(17.247575 0)" xlink:href="#Unit Cell"/>
<use transform="translate(34.495149 0)" xlink:href="#Unit Cell"/>
<use transform="translate(51.742724 0)" xlink:href="#Unit Cell"/>
</g>
<g id="Unit Cell">
<polygon id="0x5606e9ed49e0" class="l0d0" points="4.311894,0 4.020721,1.557636 3.186528,2.904904 1.921976,3.859849 0.397851,4.2935 -1.180006,4.14729 -2.598496,3.440965 -3.666046,2.269919 -4.238475,0.792308 -4.238475,-0.792308 -3.666046,-2.269919 -2.598496,-3.440965 -1.180006,-4.14729 0.397851,-4.2935 1.921976,-3.859849 3.186528,-2.904904 4.020721,-1.557636"/>
</g>
<g id="Resonator Copy">
<polygon id="0x5606e9e034e0" class="l0d0" points="-3.23392,-3.23392 3.23392,-3.23392 3.23392,3.23392 -3.23392,3.23392"/>
<polygon id="0x5606e9e4cd00" class="l1d0" points="-77.614086,2.155947 -84.081926,2.155947 -84.081926,-2.155947 -77.614086,-2.155947 77.614086,-2.155947 84.081926,-2.155947 84.081926,2.155947 77.614086,2.155947"/>
<use transform="translate(-77.614086 -77.614086) scale(1.5)" xlink:href="#Unit Cell"/>
<use transform="translate(-77.614086 -51.742724) scale(1.5)" xlink:href="#Unit Cell"/>
<use transform="translate(-77.614086 -25.871362) scale(1.5)" xlink:href="#Unit Cell"/>
<use transform="translate(-51.742724 -77.614086) scale(1.5)" xlink:href="#Unit Cell"/>
<use transform="translate(-51.742724 -51.742724) scale(1.5)" xlink:href="#Unit Cell"/>
<use transform="translate(-51.742724 -25.871362) scale(1.5)" xlink:href="#Unit Cell"/>
<use transform="translate(-25.871362 -77.614086) scale(1.5)" xlink:href="#Unit Cell"/>
<use transform="translate(-25.871362 -51.742724) scale(1.5)" xlink:href="#Unit Cell"/>
<use transform="translate(-25.871362 -25.871362) scale(1.5)" xlink:href="#Unit Cell"/>
<use transform="translate(0 -77.614086) scale(1.5)" xlink:href="#Unit Cell"/>
<use transform="translate(0 -51.742724) scale(1.5)" xlink:href="#Unit Cell"/>
<use transform="translate(0 -25.871362) scale(1.5)" xlink:href="#Unit Cell"/>
<use transform="translate(25.871362 -77.614086) scale(1.5)" xlink:href="#Unit Cell"/>
<use transform="translate(25.871362 -51.742724) scale(1.5)" xlink:href="#Unit Cell"/>
<use transform="translate(25.871362 -25.871362) scale(1.5)" xlink:href="#Unit Cell"/>
<use transform="translate(51.742724 -77.614086) scale(1.5)" xlink:href="#Unit Cell"/>
<use transform="translate(51.742724 -51.742724) scale(1.5)" xlink:href="#Unit Cell"/>
<use transform="translate(51.742724 -25.871362) scale(1.5)" xlink:href="#Unit Cell"/>
<use transform="translate(77.614086 -77.614086) scale(1.5)" xlink:href="#Unit Cell"/>
<use transform="translate(77.614086 -51.742724) scale(1.5)" xlink:href="#Unit Cell"/>
<use transform="translate(77.614086 -25.871362) scale(1.5)" xlink:href="#Unit Cell"/>
<use transform="translate(-77.614086 25.871362) scale(1.5)" xlink:href="#Unit Cell"/>
<use transform="translate(-77.614086 51.742724) scale(1.5)" xlink:href="#Unit Cell"/>
<use transform="translate(-77.614086 77.614086) scale(1.5)" xlink:href="#Unit Cell"/>
<use transform="translate(-51.742724 25.871362) scale(1.5)" xlink:href="#Unit Cell"/>
<use transform="translate(-51.742724 51.742724) scale(1.5)" xlink:href="#Unit Cell"/>
<use transform="translate(-51.742724 77.614086) scale(1.5)" xlink:href="#Unit Cell"/>
<use transform="translate(-25.871362 25.871362) scale(1.5)" xlink:href="#Unit Cell"/>
<use transform="translate(-25.871362 51.742724) scale(1.5)" xlink:href="#Unit Cell"/>
<use transform="translate(-25.871362 77.614086) scale(1.5)" xlink:href="#Unit Cell"/>
<use transform="translate(0 25.871362) scale(1.5)" xlink:href="#Unit Cell"/>
<use transform="translate(0 51.742724) scale(1.5)" xlink:href="#Unit Cell"/>
<use transform="translate(0 77.614086) scale(1.5)" xlink:href="#Unit Cell"/>
<use transform="translate(25.871362 25.871362) scale(1.5)" xlink:href="#Unit Cell"/>
<use transform="translate(25.871362 51.742724) scale(1.5)" xlink:href="#Unit Cell"/>
<use transform="translate(25.871362 77.614086) scale(1.5)" xlink:href="#Unit Cell"/>
<use transform="translate(51.742724 25.871362) scale(1.5)" xlink:href="#Unit Cell"/>
<use transform="translate(51.742724 51.742724) scale(1.5)" xlink:href="#Unit Cell"/>
<use transform="translate(51.742724 77.614086) scale(1.5)" xlink:href="#Unit Cell"/>
<use transform="translate(77.614086 25.871362) scale(1.5)" xlink:href="#Unit Cell"/>
<use transform="translate(77.614086 51.742724) scale(1.5)" xlink:href="#Unit Cell"/>
<use transform="translate(77.614086 77.614086) scale(1.5)" xlink:href="#Unit Cell"/>
<use transform="translate(-77.614086 0) scale(1.5)" xlink:href="#Unit Cell"/>
<use transform="translate(-51.742724 0) scale(1.5)" xlink:href="#Unit Cell"/>
<use transform="translate(-25.871362 0) scale(1.5)" xlink:href="#Unit Cell"/>
<use transform="translate(25.871362 0) scale(1.5)" xlink:href="#Unit Cell"/>
<use transform="translate(51.742724 0) scale(1.5)" xlink:href="#Unit Cell"/>
<use transform="translate(77.614086 0) scale(1.5)" xlink:href="#Unit Cell"/>
</g>
</defs>
<rect x="-110.058786" y="-489.477836" width="324.680993" height="571.490919" fill="none" stroke="none"/>
<g id="transforms" transform="scale(1 -1)">
<polygon id="0x5606e9c76c30" class="l0d0" points="76.536112,5.389867 75.458139,5.389867 75.458139,6.46784 71.146245,6.46784 71.146245,5.389867 70.068272,5.389867 70.068272,-4.311894 72.224218,-4.311894 72.224218,5.389867 74.380165,5.389867 74.380165,-4.311894 72.224218,-4.311894 70.068272,-4.311894 71.146245,-4.311894 71.146245,-5.389867 75.458139,-5.389867 75.458139,-4.311894 76.536112,-4.311894"/>
<polygon id="0x5606e9f08790" class="l0d0" points="81.925979,-5.389867 81.925979,1.077973 84.081926,1.077973 84.081926,-1.077973 86.237873,-1.077973 86.237873,1.077973 85.159899,1.077973 85.159899,2.155947 79.770032,2.155947 79.770032,-5.389867"/>
<polygon id="0x5606e9f3e180" class="l0d0" points="93.783687,4.311894 93.783687,6.46784 91.62774,6.46784 91.62774,4.311894"/>
<polygon id="0x5606e9f0d730" class="l0d0" points="91.62774,-5.389867 95.939633,-5.389867 95.939633,-4.311894 93.783687,-4.311894 93.783687,2.155947 89.471793,2.155947 89.471793,1.077973 91.62774,1.077973"/>
<polygon id="0x5606e9f2fa20" class="l0d0" points="103.485447,-7.545814 99.173554,-7.545814 99.173554,-8.623787 104.563421,-8.623787 104.563421,-7.545814 105.641394,-7.545814 105.641394,2.155947 100.251527,2.155947 100.251527,1.077973 99.173554,1.077973 99.173554,-4.311894 101.329501,-4.311894 101.329501,1.077973 103.485447,1.077973 103.485447,-4.311894 101.329501,-4.311894 99.173554,-4.311894 100.251527,-4.311894 100.251527,-5.389867 103.485447,-5.389867"/>
<polygon id="0x5606e9f31490" class="l0d0" points="113.187208,4.311894 113.187208,6.46784 111.031261,6.46784 111.031261,4.311894"/>
<polygon id="0x5606e9e95890" class="l0d0" points="111.031261,-5.389867 115.343155,-5.389867 115.343155,-4.311894 113.187208,-4.311894 113.187208,2.155947 108.875314,2.155947 108.875314,1.077973 111.031261,1.077973"/>
<polygon id="0x5606e9ba9320" class="l0d0" points="120.733022,-5.389867 120.733022,1.077973 122.888969,1.077973 122.888969,-5.389867 125.044916,-5.389867 125.044916,1.077973 123.966942,1.077973 123.966942,2.155947 118.577075,2.155947 118.577075,-5.389867"/>
<polygon id="0x5606e9e6ee00" class="l0d0" points="133.668703,1.077973 133.668703,2.155947 129.356809,2.155947 129.356809,1.077973 132.590729,1.077973 132.590729,0 129.356809,0 129.356809,-1.077973 128.278836,-1.077973 128.278836,-4.311894 130.434783,-4.311894 130.434783,-1.077973 132.590729,-1.077973 132.590729,-4.311894 130.434783,-4.311894 128.278836,-4.311894 129.356809,-4.311894 129.356809,-5.389867 134.746676,-5.389867 134.746676,1.077973"/>
<polygon id="0x5606e9f19ca0" class="l0d0" points="140.136543,-5.389867 144.448437,-5.389867 144.448437,-4.311894 142.29249,-4.311894 142.29249,6.46784 137.980596,6.46784 137.980596,5.389867 140.136543,5.389867"/>
<polygon id="0x5606e9cd7e60" class="l0d0" points="106.719368,175.709666 106.719368,181.099533 107.797341,181.099533 107.797341,180.021559 108.875314,180.021559 108.875314,175.709666 111.031261,175.709666 111.031261,180.021559 109.953288,180.021559 109.953288,182.177506 111.031261,182.177506 111.031261,186.4894 109.953288,186.4894 109.953288,187.567373 104.563421,187.567373 104.563421,182.177506 106.719368,182.177506 106.719368,186.4894 108.875314,186.4894 108.875314,182.177506 106.719368,182.177506 104.563421,182.177506 104.563421,175.709666"/>
<polygon id="0x5606e9d32a70" class="l0d0" points="115.343155,176.787639 115.343155,175.709666 119.655049,175.709666 119.655049,176.787639 116.421128,176.787639 116.421128,178.943586 120.733022,178.943586 120.733022,182.177506 119.655049,182.177506 119.655049,183.25548 115.343155,183.25548 115.343155,182.177506 114.265181,182.177506 114.265181,180.021559 116.421128,180.021559 116.421128,182.177506 118.577075,182.177506 118.577075,180.021559 116.421128,180.021559 114.265181,180.021559 114.265181,176.787639"/>
<polygon id="0x5606e9d452a0" class="l0d0" points="125.044916,183.25548 123.966942,183.25548 123.966942,182.177506 125.044916,182.177506 125.044916,175.709666 127.200862,175.709666 127.200862,182.177506 130.434783,182.177506 130.434783,183.25548 127.200862,183.25548 127.200862,186.4894 130.434783,186.4894 130.434783,187.567373 126.122889,187.567373 126.122889,186.4894 125.044916,186.4894"/>
<polygon id="0x5606e9f0ca90" class="l0d0" points="134.746676,176.787639 134.746676,175.709666 139.05857,175.709666 139.05857,176.787639 135.82465,176.787639 135.82465,178.943586 140.136543,178.943586 140.136543,182.177506 139.05857,182.177506 139.05857,183.25548 134.746676,183.25548 134.746676,182.177506 133.668703,182.177506 133.668703,180.021559 135.82465,180.021559 135.82465,182.177506 137.980596,182.177506 137.980596,180.021559 135.82465,180.021559 133.668703,180.021559 133.668703,176.787639"/>
<polygon id="0x5606e9f35740" class="l0d0" points="145.52641,175.709666 145.52641,182.177506 147.682357,182.177506 147.682357,180.021559 149.838304,180.021559 149.838304,182.177506 148.760331,182.177506 148.760331,183.25548 143.370464,183.25548 143.370464,175.709666"/>
<polygon id="0x5606e9e56f90" class="l0d0" points="154.150198,176.787639 154.150198,175.709666 158.462091,175.709666 158.462091,176.787639 155.228171,176.787639 155.228171,178.943586 159.540065,178.943586 159.540065,182.177506 158.462091,182.177506 158.462091,183.25548 154.150198,183.25548 154.150198,182.177506 153.072224,182.177506 153.072224,180.021559 155.228171,180.021559 155.228171,182.177506 157.384118,182.177506 157.384118,180.021559 155.228171,180.021559 153.072224,180.021559 153.072224,176.787639"/>
<polygon id="0x5606e9e57000" class="l0d0" points="164.929932,175.709666 164.929932,182.177506 167.085879,182.177506 167.085879,175.709666 169.241825,175.709666 169.241825,182.177506 168.163852,182.177506 168.163852,183.25548 162.773985,183.25548 162.773985,175.709666"/>
<polygon id="0x5606e9e74eb0" class="l0d0" points="172.475746,176.787639 173.553719,176.787639 173.553719,175.709666 177.865613,175.709666 177.865613,176.787639 178.943586,176.787639 178.943586,177.865613 176.787639,177.865613 176.787639,176.787639 174.631692,176.787639 174.631692,182.177506 176.787639,182.177506 176.787639,181.099533 178.943586,181.099533 178.943586,182.177506 177.865613,182.177506 177.865613,183.25548 173.553719,183.25548 173.553719,182.177506 172.475746,182.177506"/>
<polygon id="0x5606e9e74f20" class="l0d0" points="183.25548,176.787639 183.25548,175.709666 187.567373,175.709666 187.567373,176.787639 184.333453,176.787639 184.333453,178.943586 188.645347,178.943586 188.645347,182.177506 187.567373,182.177506 187.567373,183.25548 183.25548,183.25548 183.25548,182.177506 182.177506,182.177506 182.177506,180.021559 184.333453,180.021559 184.333453,182.177506 186.4894,182.177506 186.4894,180.021559 184.333453,180.021559 182.177506,180.021559 182.177506,176.787639"/>
<polygon id="0x5606e9e6f2f0" class="l0d0" points="104.563421,158.462091 105.641394,158.462091 105.641394,157.384118 108.875314,157.384118 108.875314,155.228171 104.563421,155.228171 104.563421,154.150198 109.953288,154.150198 109.953288,155.228171 111.031261,155.228171 111.031261,157.384118 109.953288,157.384118 109.953288,158.462091 106.719368,158.462091 106.719368,160.618038 111.031261,160.618038 111.031261,161.696011 105.641394,161.696011 105.641394,160.618038 104.563421,160.618038"/>
<polygon id="0x5606e9e6f360" class="l0d0" points="114.265181,155.228171 115.343155,155.228171 115.343155,154.150198 119.655049,154.150198 119.655049,155.228171 120.733022,155.228171 120.733022,156.306144 118.577075,156.306144 118.577075,155.228171 116.421128,155.228171 116.421128,160.618038 118.577075,160.618038 118.577075,159.540065 120.733022,159.540065 120.733022,160.618038 119.655049,160.618038 119.655049,161.696011 115.343155,161.696011 115.343155,160.618038 114.265181,160.618038"/>
<polygon id="0x5606e9ed4dd0" class="l0d0" points="129.356809,160.618038 129.356809,161.696011 125.044916,161.696011 125.044916,160.618038 128.278836,160.618038 128.278836,159.540065 125.044916,159.540065 125.044916,158.462091 123.966942,158.462091 123.966942,155.228171 126.122889,155.228171 126.122889,158.462091 128.278836,158.462091 128.278836,155.228171 126.122889,155.228171 123.966942,155.228171 125.044916,155.228171 125.044916,154.150198 130.434783,154.150198 130.434783,160.618038"/>
<polygon id="0x5606e9ed4e40" class="l0d0" points="135.82465,154.150198 140.136543,154.150198 140.136543,155.228171 137.980596,155.228171 137.980596,166.007905 133.668703,166.007905 133.668703,164.929932 135.82465,164.929932"/>
<polygon id="0x5606e9f1c970" class="l0d0" points="147.682357,163.851958 147.682357,166.007905 145.52641,166.007905 145.52641,163.851958"/>
<polygon id="0x5606e9f1c9e0" class="l0d0" points="145.52641,154.150198 149.838304,154.150198 149.838304,155.228171 147.682357,155.228171 147.682357,161.696011 143.370464,161.696011 143.370464,160.618038 145.52641,160.618038"/>
<polygon id="0x5606e9ce6090" class="l0d0" points="155.228171,154.150198 155.228171,160.618038 157.384118,160.618038 157.384118,154.150198 159.540065,154.150198 159.540065,160.618038 158.462091,160.618038 158.462091,161.696011 153.072224,161.696011 153.072224,154.150198"/>
<polygon id="0x5606e9ce6100" class="l0d0" points="167.085879,151.994251 162.773985,151.994251 162.773985,150.916277 168.163852,150.916277 168.163852,151.994251 169.241825,151.994251 169.241825,161.696011 163.851958,161.696011 163.851958,160.618038 162.773985,160.618038 162.773985,155.228171 164.929932,155.228171 164.929932,160.618038 167.085879,160.618038 167.085879,155.228171 164.929932,155.228171 162.773985,155.228171 163.851958,155.228171 163.851958,154.150198 167.085879,154.150198"/>
<polygon id="0x5606e9e03550" class="l0d0" points="104.563421,383.758534 105.641394,383.758534 105.641394,382.680561 109.953288,382.680561 109.953288,383.758534 111.031261,383.758534 111.031261,385.914481 108.875314,385.914481 108.875314,383.758534 106.719368,383.758534 106.719368,393.460295 108.875314,393.460295 108.875314,391.304348 111.031261,391.304348 111.031261,393.460295 109.953288,393.460295 109.953288,394.538268 105.641394,394.538268 105.641394,393.460295 104.563421,393.460295"/>
<polygon id="0x5606e9f337c0" class="l0d0" points="115.343155,383.758534 115.343155,382.680561 119.655049,382.680561 119.655049,383.758534 116.421128,383.758534 116.421128,385.914481 120.733022,385.914481 120.733022,389.148401 119.655049,389.148401 119.655049,390.226374 115.343155,390.226374 115.343155,389.148401 114.265181,389.148401 114.265181,386.992454 116.421128,386.992454 116.421128,389.148401 118.577075,389.148401 118.577075,386.992454 116.421128,386.992454 114.265181,386.992454 114.265181,383.758534"/>
<polygon id="0x5606e9f33830" class="l0d0" points="126.122889,382.680561 130.434783,382.680561 130.434783,383.758534 128.278836,383.758534 128.278836,394.538268 123.966942,394.538268 123.966942,393.460295 126.122889,393.460295"/>
<polygon id="0x5606e9f51310" class="l0d0" points="135.82465,382.680561 140.136543,382.680561 140.136543,383.758534 137.980596,383.758534 137.980596,394.538268 133.668703,394.538268 133.668703,393.460295 135.82465,393.460295"/>
<polygon id="0x5606e9f51380" class="l0d0" points="153.072224,383.758534 154.150198,383.758534 154.150198,382.680561 158.462091,382.680561 158.462091,383.758534 159.540065,383.758534 159.540065,384.836507 157.384118,384.836507 157.384118,383.758534 155.228171,383.758534 155.228171,389.148401 157.384118,389.148401 157.384118,388.070428 159.540065,388.070428 159.540065,389.148401 158.462091,389.148401 158.462091,390.226374 154.150198,390.226374 154.150198,389.148401 153.072224,389.148401"/>
<polygon id="0x5606e9eedba0" class="l0d0" points="169.241825,389.148401 168.163852,389.148401 168.163852,390.226374 163.851958,390.226374 163.851958,389.148401 162.773985,389.148401 162.773985,383.758534 164.929932,383.758534 164.929932,389.148401 167.085879,389.148401 167.085879,383.758534 164.929932,383.758534 162.773985,383.758534 163.851958,383.758534 163.851958,382.680561 168.163852,382.680561 168.163852,383.758534 169.241825,383.758534"/>
<polygon id="0x5606e9eedc10" class="l0d0" points="174.631692,379.44664 174.631692,382.680561 177.865613,382.680561 177.865613,383.758534 178.943586,383.758534 178.943586,389.148401 177.865613,389.148401 177.865613,390.226374 172.475746,390.226374 172.475746,383.758534 174.631692,383.758534 174.631692,389.148401 176.787639,389.148401 176.787639,383.758534 174.631692,383.758534 172.475746,383.758534 172.475746,379.44664"/>
<polygon id="0x5606e9f03790" class="l0d0" points="183.25548,383.758534 183.25548,382.680561 186.4894,382.680561 186.4894,380.524614 183.25548,380.524614 183.25548,379.44664 187.567373,379.44664 187.567373,380.524614 188.645347,380.524614 188.645347,390.226374 186.4894,390.226374 186.4894,383.758534 184.333453,383.758534 184.333453,390.226374 182.177506,390.226374 182.177506,383.758534"/>
<polygon id="0x5606e9f03800" class="l0d0" points="104.563421,365.432986 105.641394,365.432986 105.641394,364.355013 108.875314,364.355013 108.875314,362.199066 104.563421,362.199066 104.563421,361.121092 109.953288,361.121092 109.953288,362.199066 111.031261,362.199066 111.031261,364.355013 109.953288,364.355013 109.953288,365.432986 106.719368,365.432986 106.719368,367.588933 111.031261,367.588933 111.031261,368.666906 105.641394,368.666906 105.641394,367.588933 104.563421,367.588933"/>
<polygon id="0x5606e9f13900" class="l0d0" points="114.265181,362.199066 115.343155,362.199066 115.343155,361.121092 119.655049,361.121092 119.655049,362.199066 120.733022,362.199066 120.733022,363.277039 118.577075,363.277039 118.577075,362.199066 116.421128,362.199066 116.421128,367.588933 118.577075,367.588933 118.577075,366.510959 120.733022,366.510959 120.733022,367.588933 119.655049,367.588933 119.655049,368.666906 115.343155,368.666906 115.343155,367.588933 114.265181,367.588933"/>
<polygon id="0x5606e9f4c1f0" class="l0d0" points="129.356809,367.588933 129.356809,368.666906 125.044916,368.666906 125.044916,367.588933 128.278836,367.588933 128.278836,366.510959 125.044916,366.510959 125.044916,365.432986 123.966942,365.432986 123.966942,362.199066 126.122889,362.199066 126.122889,365.432986 128.278836,365.432986 128.278836,362.199066 126.122889,362.199066 123.966942,362.199066 125.044916,362.199066 125.044916,361.121092 130.434783,361.121092 130.434783,367.588933"/>
<polygon id="0x5606e9f4c260" class="l0d0" points="135.82465,361.121092 140.136543,361.121092 140.136543,362.199066 137.980596,362.199066 137.980596,372.9788 133.668703,372.9788 133.668703,371.900826 135.82465,371.900826"/>
<polygon id="0x5606e9e01bb0" class="l0d0" points="147.682357,370.822853 147.682357,372.9788 145.52641,372.9788 145.52641,370.822853"/>
<polygon id="0x5606e9d03380" class="l0d0" points="145.52641,361.121092 149.838304,361.121092 149.838304,362.199066 147.682357,362.199066 147.682357,368.666906 143.370464,368.666906 143.370464,367.588933 145.52641,367.588933"/>
<polygon id="0x5606e9d61720" class="l0d0" points="155.228171,361.121092 155.228171,367.588933 157.384118,367.588933 157.384118,361.121092 159.540065,361.121092 159.540065,367.588933 158.462091,367.588933 158.462091,368.666906 153.072224,368.666906 153.072224,361.121092"/>
<polygon id="0x5606e9d91d30" class="l0d0" points="167.085879,358.965146 162.773985,358.965146 162.773985,357.887172 168.163852,357.887172 168.163852,358.965146 169.241825,358.965146 169.241825,368.666906 163.851958,368.666906 163.851958,367.588933 162.773985,367.588933 162.773985,362.199066 164.929932,362.199066 164.929932,367.588933 167.085879,367.588933 167.085879,362.199066 164.929932,362.199066 162.773985,362.199066 163.851958,362.199066 163.851958,361.121092 167.085879,361.121092"/>
<use transform="translate(0 0)" xlink:href="#Resonator"/>
<use transform="translate(0 172.475746) scale(1.5)" xlink:href="#Resonator"/>
<use transform="translate(0 379.44664)" xlink:href="#Resonator Copy"/>
</g>
</svg>