<?xml version="1.0" encoding="UTF-8"?>
<svg xmlns="http://www.w3.org/2000/svg" xmlns:xlink="http://www.w3.org/1999/xlink" width="300" height="237.102391" viewBox="-149.948705 -118.551196 300 237.102391">
<defs>
<style type="text/css">
.l0d1 {fill:none;stroke:black;stroke-dasharray:8,8;}
.l1d0 {stroke: #A1CAF1; fill: #A1CAF1; fill-opacity: 0.5;}
.l3t2 {stroke:red;fill:none;font-size:32px;}
</style>
</defs>
<rect x="-149.948705" y="-118.551196" width="300" height="237.102391" fill="none" stroke="none"/>
<g id="write_svg" transform="scale(1 -1)">
<polygon id="0x560813ead2d0" class="l0d1" points="136.414932,0 136.004724,8.131633 134.776568,16.214362 132.737849,24.199576 129.90083,32.03925 126.282572,39.686237 121.904836,47.094546 116.793949,54.219623 110.98065,61.018616 104.4999,67.450637 97.390676,73.477001 89.695733,79.061466 81.461348,84.170447 72.737046,88.773216 63.575295,92.842092 54.031194,96.352606 44.162144,99.283643 34.027497,101.617577 23.688204,103.340371 13.206448,104.441664 2.645267,104.914832 -7.931823,104.75703 -18.46121,103.969207 -28.879569,102.556101 -39.124243,100.526211 -49.13362,97.891744 -58.847501,94.668544 -68.207466,90.875997 -77.157223,86.536911 -85.642948,81.677382 -93.613606,76.326635 -101.021261,70.516851 -107.821362,64.28297 -113.973013,57.662484 -119.439216,50.695209 -124.187098,43.423047 -128.188105,35.889734 -131.418173,28.140576 -133.857876,20.222177 -135.492543,12.182159 -136.312341,4.068877 -136.312341,-4.068877 -135.492543,-12.182159 -133.857876,-20.222177 -131.418173,-28.140576 -128.188105,-35.889734 -124.187098,-43.423047 -119.439216,-50.695209 -113.973013,-57.662484 -107.821362,-64.28297 -101.021261,-70.516851 -93.613606,-76.326635 -85.642948,-81.677382 -77.157223,-86.536911 -68.207466,-90.875997 -58.847501,-94.668544 -49.13362,-97.891744 -39.124243,-100.526211 -28.879569,-102.556101 -18.46121,-103.969207 -7.931823,-104.75703 2.645267,-104.914832 13.206448,-104.441664 23.688204,-103.340371 34.027497,-101.617577 44.162144,-99.283643 54.031194,-96.352606 63.575295,-92.842092 72.737046,-88.773216 81.461348,-84.170447 89.695733,-79.061466 97.390676,-73.477001 104.4999,-67.450637 110.98065,-61.018616 116.793949,-54.219623 121.904836,-47.094546 126.282572,-39.686237 129.90083,-32.03925 132.737849,-24.199576 134.776568,-16.214362 136.004724,-8.131633"/>
<polygon id="0x560813fc3220" class="l1d0" points="104.934563,0 104.523935,6.491889 103.295266,12.932971 101.258171,19.272834 98.428594,25.461862 94.82868,31.451616 90.486603,37.195218 85.436345,42.647717 79.717432,47.76644 73.374622,52.511326 66.457556,56.84524 59.02037,60.734262 51.121269,64.147957 42.822075,67.059607 34.187741,69.446424 25.285841,71.289729 16.186044,72.575095 6.95957,73.292463 -2.321372,73.436218 -11.584146,73.005235 -20.756258,72.002887 -29.765925,70.437018 -38.542633,68.319885 -47.017692,65.668056 -55.124774,62.502285 -62.800431,58.847349 -69.984588,54.731853 -76.621022,50.188006 -82.657792,45.25137 -88.047653,39.96058 -92.748421,34.357044 -96.723307,28.484619 -99.941203,22.389262 -102.376923,16.118679 -104.011404,9.721946 -104.831856,3.249125 -104.831856,-3.249125 -104.011404,-9.721946 -102.376923,-16.118679 -99.941203,-22.389262 -96.723307,-28.484619 -92.748421,-34.357044 -88.047653,-39.96058 -82.657792,-45.25137 -76.621022,-50.188006 -69.984588,-54.731853 -62.800431,-58.847349 -55.124774,-62.502285 -47.017692,-65.668056 -38.542633,-68.319885 -29.765925,-70.437018 -20.756258,-72.002887 -11.584146,-73.005235 -2.321372,-73.436218 6.95957,-73.292463 16.186044,-72.575095 25.285841,-71.289729 34.187741,-69.446424 42.822075,-67.059607 51.121269,-64.147957 59.02037,-60.734262 66.457556,-56.84524 73.374622,-52.511326 79.717432,-47.76644 85.436345,-42.647717 90.486603,-37.195218 94.82868,-31.451616 98.428594,-25.461862 101.258171,-19.272834 103.295266,-12.932971 104.523935,-6.491889"/>
<text id="0x560813f8ed00" class="l3t2" text-anchor="middle" dominant-baseline="central" transform="translate(0 0) scale(1 -1)">Example</text>
</g>
</svg>